<svg width="3839" height="2204" xmlns="http://www.w3.org/2000/svg" xmlns:xlink="http://www.w3.org/1999/xlink" xml:space="preserve" overflow="hidden"><defs><clipPath id="clip0"><rect x="234" y="113" width="3839" height="2204"/></clipPath></defs><g clip-path="url(#clip0)" transform="translate(-234 -113)"><rect x="234" y="113" width="3839" height="2204" fill="#FFFFFF"/><rect x="335.5" y="557.5" width="1674" height="1664" stroke="#000000" stroke-width="4.58333" stroke-linecap="round" stroke-linejoin="round" stroke-miterlimit="10" fill="#D9D9D9"/><path d="M0 0 0.000360892 109.75" stroke="#000000" stroke-width="4.58333" stroke-linecap="round" stroke-linejoin="round" stroke-miterlimit="10" fill="none" fill-rule="evenodd" transform="matrix(1 0 0 -1 335.5 531.249)"/><path d="M0 0 0.000360892 109.75" stroke="#000000" stroke-width="4.58333" stroke-linecap="round" stroke-linejoin="round" stroke-miterlimit="10" fill="none" fill-rule="evenodd" transform="matrix(1 0 0 -1 2009.5 531.249)"/><text fill="#4EA72E" font-family="Noto Sans JP,Noto Sans JP_MSFontService,sans-serif" font-weight="700" font-size="55" transform="matrix(1 0 0 1 736.74 438)">S</text><text font-family="Noto Sans JP,Noto Sans JP_MSFontService,sans-serif" font-weight="400" font-size="55" transform="matrix(1 0 0 1 771.115 438)"> </text><text font-family="Noto Sans JP,Noto Sans JP_MSFontService,sans-serif" font-weight="400" font-size="55" transform="matrix(1 0 0 1 783.719 438)">= Vertical Address Stride in Bytes</text><text font-family="Noto Sans JP,Noto Sans JP_MSFontService,sans-serif" font-weight="400" font-size="55" transform="matrix(1 0 0 1 1612.16 438)"> </text><path d="M358.418 455.208 1985.83 455.209C1987.1 455.209 1988.13 456.235 1988.13 457.5 1988.13 458.766 1987.1 459.792 1985.83 459.792L358.418 459.792C357.152 459.792 356.126 458.766 356.126 457.5 356.126 456.234 357.152 455.208 358.418 455.208ZM363 471.25 335.5 457.5 363 443.75ZM1981.25 443.75 2008.75 457.5 1981.25 471.25Z"/><rect x="842.5" y="1103.5" width="773" height="910" stroke="#000000" stroke-width="4.58333" stroke-linecap="round" stroke-linejoin="round" stroke-miterlimit="10" fill="#FFFFFF"/><text font-family="Noto Sans JP,Noto Sans JP_MSFontService,sans-serif" font-weight="700" font-size="55" transform="matrix(1 0 0 1 1088.26 1479)">Rendering</text><text font-family="Noto Sans JP,Noto Sans JP_MSFontService,sans-serif" font-weight="700" font-size="55" transform="matrix(1 0 0 1 1368.98 1479)"> </text><text font-family="Noto Sans JP,Noto Sans JP_MSFontService,sans-serif" font-weight="700" font-size="55" transform="matrix(1 0 0 1 1118.92 1545)">Window</text><text font-family="Noto Sans JP,Noto Sans JP_MSFontService,sans-serif" font-weight="700" font-size="55" transform="matrix(1 0 0 1 1338.35 1545)"> </text><text fill="#C00000" font-family="Noto Sans JP,Noto Sans JP_MSFontService,sans-serif" font-weight="700" font-size="55" transform="matrix(1 0 0 1 1075.08 1611)">W</text><text font-family="Noto Sans JP,Noto Sans JP_MSFontService,sans-serif" font-weight="400" font-size="55" transform="matrix(1 0 0 1 1125.5 1611)">×</text><text fill="#0070C0" font-family="Noto Sans JP,Noto Sans JP_MSFontService,sans-serif" font-weight="700" font-size="55" transform="matrix(1 0 0 1 1180.5 1611)">H</text><text fill="#0070C0" font-family="Noto Sans JP,Noto Sans JP_MSFontService,sans-serif" font-weight="400" font-size="55" transform="matrix(1 0 0 1 1222.32 1611)"> </text><text font-family="Noto Sans JP,Noto Sans JP_MSFontService,sans-serif" font-weight="400" font-size="55" transform="matrix(1 0 0 1 1234.92 1611)">pixels</text><text font-family="Noto Sans JP,Noto Sans JP_MSFontService,sans-serif" font-weight="400" font-size="55" transform="matrix(1 0 0 1 1382.16 1611)"> </text><text fill="#0070C0" font-family="Noto Sans JP,Noto Sans JP_MSFontService,sans-serif" font-weight="700" font-size="55" transform="matrix(1 0 0 1 1113.46 1677)">H</text><text font-family="Noto Sans JP,Noto Sans JP_MSFontService,sans-serif" font-weight="400" font-size="55" transform="matrix(1 0 0 1 1155.29 1677)">=</text><text fill="#A02B93" font-family="Noto Sans JP,Noto Sans JP_MSFontService,sans-serif" font-weight="700" font-size="55" transform="matrix(1 0 0 1 1185.65 1677)">NL</text><text font-family="Noto Sans JP,Noto Sans JP_MSFontService,sans-serif" font-weight="400" font-size="55" transform="matrix(1 0 0 1 1258.41 1677)">×</text><text font-family="Noto Sans JP,Noto Sans JP_MSFontService,sans-serif" font-weight="400" font-size="55" transform="matrix(1 0 0 1 1313.41 1677)">8</text><text font-family="Noto Sans JP,Noto Sans JP_MSFontService,sans-serif" font-weight="400" font-size="55" transform="matrix(1 0 0 1 1343.78 1677)"> </text><rect x="335.5" y="557.5" width="67" height="258" stroke="#000000" stroke-width="4.58333" stroke-linecap="round" stroke-linejoin="round" stroke-miterlimit="10" fill="none"/><text font-family="Noto Sans JP,Noto Sans JP_MSFontService,sans-serif" font-weight="400" font-size="41" transform="matrix(-1.83697e-16 -1 1 -1.83697e-16 383.798 746)">Byte 0</text><text font-family="Noto Sans JP,Noto Sans JP_MSFontService,sans-serif" font-weight="400" font-size="41" transform="matrix(-1.83697e-16 -1 1 -1.83697e-16 383.798 627)"> </text><rect x="402.5" y="557.5" width="66" height="258" stroke="#000000" stroke-width="4.58333" stroke-linecap="round" stroke-linejoin="round" stroke-miterlimit="10" fill="none"/><text font-family="Noto Sans JP,Noto Sans JP_MSFontService,sans-serif" font-weight="400" font-size="41" transform="matrix(-1.83697e-16 -1 1 -1.83697e-16 450.138 746)">Byte 1</text><text font-family="Noto Sans JP,Noto Sans JP_MSFontService,sans-serif" font-weight="400" font-size="41" transform="matrix(-1.83697e-16 -1 1 -1.83697e-16 450.138 627)"> </text><rect x="468.5" y="557.5" width="66" height="258" stroke="#000000" stroke-width="4.58333" stroke-linecap="round" stroke-linejoin="round" stroke-miterlimit="10" fill="none"/><text font-family="Noto Sans JP,Noto Sans JP_MSFontService,sans-serif" font-weight="400" font-size="41" transform="matrix(-1.83697e-16 -1 1 -1.83697e-16 516.478 746)">Byte 2</text><text font-family="Noto Sans JP,Noto Sans JP_MSFontService,sans-serif" font-weight="400" font-size="41" transform="matrix(-1.83697e-16 -1 1 -1.83697e-16 516.478 627)"> </text><rect x="1942.5" y="557.5" width="67" height="258" stroke="#000000" stroke-width="4.58333" stroke-linecap="round" stroke-linejoin="round" stroke-miterlimit="10" fill="none"/><text fill="#4EA72E" font-family="Noto Sans JP,Noto Sans JP_MSFontService,sans-serif" font-weight="700" font-size="41" transform="matrix(-1.83697e-16 -1 1 -1.83697e-16 1990.71 718)">S</text><text font-family="Noto Sans JP,Noto Sans JP_MSFontService,sans-serif" font-weight="400" font-size="41" transform="matrix(-1.83697e-16 -1 1 -1.83697e-16 1990.71 692)">-</text><text font-family="Noto Sans JP,Noto Sans JP_MSFontService,sans-serif" font-weight="400" font-size="41" transform="matrix(-1.83697e-16 -1 1 -1.83697e-16 1990.71 678)">1</text><text font-family="Noto Sans JP,Noto Sans JP_MSFontService,sans-serif" font-weight="400" font-size="41" transform="matrix(-1.83697e-16 -1 1 -1.83697e-16 1990.71 655)"> </text><rect x="1876.5" y="557.5" width="66" height="258" stroke="#000000" stroke-width="4.58333" stroke-linecap="round" stroke-linejoin="round" stroke-miterlimit="10" fill="none"/><text fill="#4EA72E" font-family="Noto Sans JP,Noto Sans JP_MSFontService,sans-serif" font-weight="700" font-size="41" transform="matrix(-1.83697e-16 -1 1 -1.83697e-16 1924.37 718)">S</text><text font-family="Noto Sans JP,Noto Sans JP_MSFontService,sans-serif" font-weight="400" font-size="41" transform="matrix(-1.83697e-16 -1 1 -1.83697e-16 1924.37 692)">-</text><text font-family="Noto Sans JP,Noto Sans JP_MSFontService,sans-serif" font-weight="400" font-size="41" transform="matrix(-1.83697e-16 -1 1 -1.83697e-16 1924.37 678)">2</text><text font-family="Noto Sans JP,Noto Sans JP_MSFontService,sans-serif" font-weight="400" font-size="41" transform="matrix(-1.83697e-16 -1 1 -1.83697e-16 1924.37 655)"> </text><rect x="335.5" y="815.5" width="67" height="258" stroke="#000000" stroke-width="4.58333" stroke-linecap="round" stroke-linejoin="round" stroke-miterlimit="10" fill="none"/><text fill="#4EA72E" font-family="Noto Sans JP,Noto Sans JP_MSFontService,sans-serif" font-weight="700" font-size="41" transform="matrix(-1.83697e-16 -1 1 -1.83697e-16 383.798 957)">S</text><text font-family="Noto Sans JP,Noto Sans JP_MSFontService,sans-serif" font-weight="400" font-size="41" transform="matrix(-1.83697e-16 -1 1 -1.83697e-16 383.798 931)"> </text><rect x="402.5" y="815.5" width="66" height="258" stroke="#000000" stroke-width="4.58333" stroke-linecap="round" stroke-linejoin="round" stroke-miterlimit="10" fill="none"/><text fill="#4EA72E" font-family="Noto Sans JP,Noto Sans JP_MSFontService,sans-serif" font-weight="700" font-size="41" transform="matrix(-1.83697e-16 -1 1 -1.83697e-16 450.138 980)">S</text><text font-family="Noto Sans JP,Noto Sans JP_MSFontService,sans-serif" font-weight="400" font-size="41" transform="matrix(-1.83697e-16 -1 1 -1.83697e-16 450.138 954)">+1</text><text font-family="Noto Sans JP,Noto Sans JP_MSFontService,sans-serif" font-weight="400" font-size="41" transform="matrix(-1.83697e-16 -1 1 -1.83697e-16 450.138 908)"> </text><path d="M567 682 699.705 682" stroke="#000000" stroke-width="13.75" stroke-linecap="round" stroke-linejoin="round" stroke-miterlimit="10" stroke-dasharray="0 27.5" fill="none" fill-rule="evenodd"/><path d="M0 0 98.1873 0.000360892" stroke="#000000" stroke-width="13.75" stroke-linecap="round" stroke-linejoin="round" stroke-miterlimit="10" stroke-dasharray="0 27.5" fill="none" fill-rule="evenodd" transform="matrix(-1 0 0 1 1829.19 682)"/><path d="M502 947 599.185 947" stroke="#000000" stroke-width="13.75" stroke-linecap="round" stroke-linejoin="round" stroke-miterlimit="10" stroke-dasharray="0 27.5" fill="none" fill-rule="evenodd"/><path d="M2.2917 22.9166 2.292 232.495C2.292 233.761 1.26598 234.787 0.00033175 234.787-1.26532 234.787-2.29134 233.761-2.29134 232.495L-2.29163 22.9166C-2.29164 21.651-1.26562 20.625 2.91427e-05 20.625 1.26568 20.625 2.2917 21.651 2.2917 22.9166ZM-13.75 27.5 0 0 13.75 27.5ZM13.7503 227.912 0.000360892 255.412-13.7497 227.912Z" transform="matrix(1 0 0 -1 772.5 1360.91)"/><text font-family="Noto Sans JP,Noto Sans JP_MSFontService,sans-serif" font-weight="400" font-size="55" transform="matrix(1 0 0 1 584.175 1248)">Lane 0</text><text font-family="Noto Sans JP,Noto Sans JP_MSFontService,sans-serif" font-weight="400" font-size="55" transform="matrix(1 0 0 1 752.04 1248)"> </text><text font-family="Noto Sans JP,Noto Sans JP_MSFontService,sans-serif" font-weight="400" font-size="55" transform="matrix(1 0 0 1 584.176 1508)">Lane 1</text><text font-family="Noto Sans JP,Noto Sans JP_MSFontService,sans-serif" font-weight="400" font-size="55" transform="matrix(1 0 0 1 752.04 1508)"> </text><text font-family="Noto Sans JP,Noto Sans JP_MSFontService,sans-serif" font-weight="400" font-size="55" transform="matrix(1 0 0 1 492.509 1907)">Lane </text><text fill="#A02B93" font-family="Noto Sans JP,Noto Sans JP_MSFontService,sans-serif" font-weight="700" font-size="55" transform="matrix(1 0 0 1 630.009 1907)">NL</text><text font-family="Noto Sans JP,Noto Sans JP_MSFontService,sans-serif" font-weight="400" font-size="55" transform="matrix(1 0 0 1 702.769 1907)">-</text><text font-family="Noto Sans JP,Noto Sans JP_MSFontService,sans-serif" font-weight="400" font-size="55" transform="matrix(1 0 0 1 721.676 1907)">1</text><text font-family="Noto Sans JP,Noto Sans JP_MSFontService,sans-serif" font-weight="400" font-size="55" transform="matrix(1 0 0 1 752.04 1907)"> </text><path d="M0 0 82.1817 0.000360892" stroke="#000000" stroke-width="4.58333" stroke-linecap="round" stroke-linejoin="round" stroke-miterlimit="10" fill="none" fill-rule="evenodd" transform="matrix(-1 0 0 1 827.682 1362.5)"/><path d="M0 0 82.4989 0.000360892" stroke="#000000" stroke-width="4.58333" stroke-linecap="round" stroke-linejoin="round" stroke-miterlimit="10" fill="none" fill-rule="evenodd" transform="matrix(-1 0 0 1 827.999 1620.5)"/><path d="M0 0 82.4989 0.000360892" stroke="#000000" stroke-width="4.58333" stroke-linecap="round" stroke-linejoin="round" stroke-miterlimit="10" fill="none" fill-rule="evenodd" transform="matrix(-1 0 0 1 827.999 1755.5)"/><path d="M0 0 82.1817 0.000360892" stroke="#000000" stroke-width="4.58333" stroke-linecap="round" stroke-linejoin="round" stroke-miterlimit="10" fill="none" fill-rule="evenodd" transform="matrix(-1 0 0 1 827.682 1103.5)"/><path d="M0 0 82.1817 0.000360892" stroke="#000000" stroke-width="4.58333" stroke-linecap="round" stroke-linejoin="round" stroke-miterlimit="10" fill="none" fill-rule="evenodd" transform="matrix(-1 0 0 1 827.682 2010.5)"/><path d="M772 1662 772 1736.08" stroke="#000000" stroke-width="13.75" stroke-linecap="round" stroke-linejoin="round" stroke-miterlimit="10" stroke-dasharray="0 27.5" fill="none" fill-rule="evenodd"/><rect x="842.5" y="1103.5" width="66" height="258" stroke="#000000" stroke-width="4.58333" stroke-linecap="round" stroke-linejoin="round" stroke-miterlimit="10" fill="none"/><text font-family="Noto Sans JP,Noto Sans JP_MSFontService,sans-serif" font-weight="400" font-size="41" transform="matrix(-1.83697e-16 -1 1 -1.83697e-16 890.16 1296)">Byte </text><text fill="#8F8231" font-family="Noto Sans JP,Noto Sans JP_MSFontService,sans-serif" font-weight="700" font-size="41" transform="matrix(-1.83697e-16 -1 1 -1.83697e-16 890.16 1200)">O</text><text fill="#8F8231" font-family="Noto Sans JP,Noto Sans JP_MSFontService,sans-serif" font-weight="700" font-size="41" transform="matrix(-1.83697e-16 -1 1 -1.83697e-16 890.16 1169)"> </text><rect x="908.5" y="1103.5" width="66" height="258" stroke="#000000" stroke-width="4.58333" stroke-linecap="round" stroke-linejoin="round" stroke-miterlimit="10" fill="none"/><text font-family="Noto Sans JP,Noto Sans JP_MSFontService,sans-serif" font-weight="400" font-size="41" transform="matrix(-1.83697e-16 -1 1 -1.83697e-16 956.285 1319)">Byte </text><text fill="#8F8231" font-family="Noto Sans JP,Noto Sans JP_MSFontService,sans-serif" font-weight="700" font-size="41" transform="matrix(-1.83697e-16 -1 1 -1.83697e-16 956.285 1223)">O</text><text font-family="Noto Sans JP,Noto Sans JP_MSFontService,sans-serif" font-weight="400" font-size="41" transform="matrix(-1.83697e-16 -1 1 -1.83697e-16 956.285 1191)">+1</text><text font-family="Noto Sans JP,Noto Sans JP_MSFontService,sans-serif" font-weight="400" font-size="41" transform="matrix(-1.83697e-16 -1 1 -1.83697e-16 956.285 1146)"> </text><rect x="975.5" y="1103.5" width="66" height="258" stroke="#000000" stroke-width="4.58333" stroke-linecap="round" stroke-linejoin="round" stroke-miterlimit="10" fill="none"/><text font-family="Noto Sans JP,Noto Sans JP_MSFontService,sans-serif" font-weight="400" font-size="41" transform="matrix(-1.83697e-16 -1 1 -1.83697e-16 1023.35 1319)">Byte </text><text fill="#8F8231" font-family="Noto Sans JP,Noto Sans JP_MSFontService,sans-serif" font-weight="700" font-size="41" transform="matrix(-1.83697e-16 -1 1 -1.83697e-16 1023.35 1223)">O</text><text font-family="Noto Sans JP,Noto Sans JP_MSFontService,sans-serif" font-weight="400" font-size="41" transform="matrix(-1.83697e-16 -1 1 -1.83697e-16 1023.35 1191)">+2</text><text font-family="Noto Sans JP,Noto Sans JP_MSFontService,sans-serif" font-weight="400" font-size="41" transform="matrix(-1.83697e-16 -1 1 -1.83697e-16 1023.35 1146)"> </text><rect x="1548.5" y="1103.5" width="67" height="258" stroke="#000000" stroke-width="4.58333" stroke-linecap="round" stroke-linejoin="round" stroke-miterlimit="10" fill="none"/><text fill="#8F8231" font-family="Noto Sans JP,Noto Sans JP_MSFontService,sans-serif" font-weight="700" font-size="41" transform="matrix(-1.83697e-16 -1 1 -1.83697e-16 1596.84 1297)">O</text><text font-family="Noto Sans JP,Noto Sans JP_MSFontService,sans-serif" font-weight="400" font-size="41" transform="matrix(-1.83697e-16 -1 1 -1.83697e-16 1596.84 1265)">+</text><text fill="#C00000" font-family="Noto Sans JP,Noto Sans JP_MSFontService,sans-serif" font-weight="700" font-size="41" transform="matrix(-1.83697e-16 -1 1 -1.83697e-16 1596.84 1242)">W</text><text font-family="Noto Sans JP,Noto Sans JP_MSFontService,sans-serif" font-weight="400" font-size="41" transform="matrix(-1.83697e-16 -1 1 -1.83697e-16 1596.84 1205)">-</text><text font-family="Noto Sans JP,Noto Sans JP_MSFontService,sans-serif" font-weight="400" font-size="41" transform="matrix(-1.83697e-16 -1 1 -1.83697e-16 1596.84 1190)">1</text><text font-family="Noto Sans JP,Noto Sans JP_MSFontService,sans-serif" font-weight="400" font-size="41" transform="matrix(-1.83697e-16 -1 1 -1.83697e-16 1596.84 1167)"> </text><rect x="842.5" y="1362.5" width="66" height="258" stroke="#000000" stroke-width="4.58333" stroke-linecap="round" stroke-linejoin="round" stroke-miterlimit="10" fill="none"/><text fill="#8F8231" font-family="Noto Sans JP,Noto Sans JP_MSFontService,sans-serif" font-weight="700" font-size="41" transform="matrix(-1.83697e-16 -1 1 -1.83697e-16 890.161 1531)">O</text><text font-family="Noto Sans JP,Noto Sans JP_MSFontService,sans-serif" font-weight="400" font-size="41" transform="matrix(-1.83697e-16 -1 1 -1.83697e-16 890.161 1500)">+</text><text fill="#4EA72E" font-family="Noto Sans JP,Noto Sans JP_MSFontService,sans-serif" font-weight="700" font-size="41" transform="matrix(-1.83697e-16 -1 1 -1.83697e-16 890.161 1477)">S</text><text fill="#4EA72E" font-family="Noto Sans JP,Noto Sans JP_MSFontService,sans-serif" font-weight="700" font-size="41" transform="matrix(-1.83697e-16 -1 1 -1.83697e-16 890.161 1451)"> </text><rect x="908.5" y="1362.5" width="66" height="258" stroke="#000000" stroke-width="4.58333" stroke-linecap="round" stroke-linejoin="round" stroke-miterlimit="10" fill="none"/><text fill="#8F8231" font-family="Noto Sans JP,Noto Sans JP_MSFontService,sans-serif" font-weight="700" font-size="41" transform="matrix(-1.83697e-16 -1 1 -1.83697e-16 956.285 1554)">O</text><text font-family="Noto Sans JP,Noto Sans JP_MSFontService,sans-serif" font-weight="400" font-size="41" transform="matrix(-1.83697e-16 -1 1 -1.83697e-16 956.285 1523)">+</text><text fill="#4EA72E" font-family="Noto Sans JP,Noto Sans JP_MSFontService,sans-serif" font-weight="700" font-size="41" transform="matrix(-1.83697e-16 -1 1 -1.83697e-16 956.285 1500)">S</text><text font-family="Noto Sans JP,Noto Sans JP_MSFontService,sans-serif" font-weight="400" font-size="41" transform="matrix(-1.83697e-16 -1 1 -1.83697e-16 956.285 1474)">+1</text><text font-family="Noto Sans JP,Noto Sans JP_MSFontService,sans-serif" font-weight="400" font-size="41" transform="matrix(-1.83697e-16 -1 1 -1.83697e-16 956.285 1428)"> </text><rect x="842.5" y="1755.5" width="66" height="258" stroke="#000000" stroke-width="4.58333" stroke-linecap="round" stroke-linejoin="round" stroke-miterlimit="10" fill="none"/><text fill="#8F8231" font-family="Noto Sans JP,Noto Sans JP_MSFontService,sans-serif" font-weight="700" font-size="41" transform="matrix(-1.83697e-16 -1 1 -1.83697e-16 890.161 2005)">O</text><text font-family="Noto Sans JP,Noto Sans JP_MSFontService,sans-serif" font-weight="400" font-size="41" transform="matrix(-1.83697e-16 -1 1 -1.83697e-16 890.161 1973)">+(</text><text fill="#A02B93" font-family="Noto Sans JP,Noto Sans JP_MSFontService,sans-serif" font-weight="700" font-size="41" transform="matrix(-1.83697e-16 -1 1 -1.83697e-16 890.161 1937)">NL</text><text font-family="Noto Sans JP,Noto Sans JP_MSFontService,sans-serif" font-weight="400" font-size="41" transform="matrix(-1.83697e-16 -1 1 -1.83697e-16 890.161 1882)">-</text><text font-family="Noto Sans JP,Noto Sans JP_MSFontService,sans-serif" font-weight="400" font-size="41" transform="matrix(-1.83697e-16 -1 1 -1.83697e-16 890.161 1867)">1)</text><text font-family="Noto Sans JP,Noto Sans JP_MSFontService,sans-serif" font-weight="400" font-size="41" transform="matrix(-1.83697e-16 -1 1 -1.83697e-16 890.161 1831)">×</text><text fill="#4EA72E" font-family="Noto Sans JP,Noto Sans JP_MSFontService,sans-serif" font-weight="700" font-size="41" transform="matrix(-1.83697e-16 -1 1 -1.83697e-16 890.161 1789)">S</text><text fill="#4EA72E" font-family="Noto Sans JP,Noto Sans JP_MSFontService,sans-serif" font-weight="700" font-size="41" transform="matrix(-1.83697e-16 -1 1 -1.83697e-16 890.161 1764)"> </text><path d="M2.2917 22.9166 2.292 232.495C2.292 233.761 1.26598 234.787 0.00033175 234.787-1.26532 234.787-2.29134 233.761-2.29134 232.495L-2.29163 22.9166C-2.29164 21.651-1.26562 20.625 2.91427e-05 20.625 1.26568 20.625 2.2917 21.651 2.2917 22.9166ZM-13.75 27.5 0 0 13.75 27.5ZM13.7503 227.912 0.000360892 255.412-13.7497 227.912Z" transform="matrix(1 0 0 -1 772.5 1616.91)"/><path d="M2.2917 22.9166 2.292 232.495C2.292 233.761 1.26598 234.787 0.00033175 234.787-1.26532 234.787-2.29134 233.761-2.29134 232.495L-2.29163 22.9166C-2.29164 21.651-1.26562 20.625 2.91427e-05 20.625 1.26568 20.625 2.2917 21.651 2.2917 22.9166ZM-13.75 27.5 0 0 13.75 27.5ZM13.7503 227.912 0.000360892 255.412-13.7497 227.912Z" transform="matrix(1 0 0 -1 772.5 2011.91)"/><path d="M1070 1226 1143.7 1226" stroke="#000000" stroke-width="13.75" stroke-linecap="round" stroke-linejoin="round" stroke-miterlimit="10" stroke-dasharray="0 27.5" fill="none" fill-rule="evenodd"/><path d="M0 0 74.6694 0.000360892" stroke="#000000" stroke-width="13.75" stroke-linecap="round" stroke-linejoin="round" stroke-miterlimit="10" stroke-dasharray="0 27.5" fill="none" fill-rule="evenodd" transform="matrix(-1 0 0 1 1523.67 1226)"/><path d="M881 1662 881 1736.08" stroke="#000000" stroke-width="13.75" stroke-linecap="round" stroke-linejoin="round" stroke-miterlimit="10" stroke-dasharray="0 27.5" fill="none" fill-rule="evenodd"/><rect x="841" y="1852" width="773" height="161" fill="#4F00EE" fill-opacity="0.101961"/><text font-family="Noto Sans JP,Noto Sans JP_MSFontService,sans-serif" font-weight="400" font-size="41" transform="matrix(1 0 0 1 941.406 1948)">(This area will be overwritten)</text><text font-family="Noto Sans JP,Noto Sans JP_MSFontService,sans-serif" font-weight="400" font-size="41" transform="matrix(1 0 0 1 1513.75 1948)"> </text><path d="M164.652 0 266.72 0 371 386.336 475.281 0 577.348 0 742 610 614.487 610 524.39 276.21 434.292 610 431.372 610 310.628 610 309.783 610 219.686 276.21 129.589 610 0 610Z" fill="#000000" fill-rule="evenodd" fill-opacity="0.2" transform="matrix(1 0 0 -1 858 1729)"/><path d="M0 0 82.1817 0.000360892" stroke="#000000" stroke-width="4.58333" stroke-linecap="round" stroke-linejoin="round" stroke-miterlimit="10" fill="none" fill-rule="evenodd" transform="matrix(-1 0 0 1 1709.68 1103.5)"/><path d="M0 0 82.1817 0.000360892" stroke="#000000" stroke-width="4.58333" stroke-linecap="round" stroke-linejoin="round" stroke-miterlimit="10" fill="none" fill-rule="evenodd" transform="matrix(-1 0 0 1 1709.68 1849.5)"/><path d="M2.29168 22.9168 2.29202 720.62C2.29202 721.885 1.266 722.911 0.000350881 722.911-1.2653 722.911-2.29132 721.885-2.29132 720.62L-2.29166 22.9168C-2.29166 21.6511-1.26564 20.6251 1.00109e-05 20.6251 1.26566 20.6251 2.29168 21.6511 2.29168 22.9168ZM-13.75 27.5 0 0 13.75 27.5ZM13.7503 716.036 0.000360892 743.536-13.7497 716.036Z" transform="matrix(1 0 0 -1 1689.5 1849.04)"/><text font-family="Noto Sans JP,Noto Sans JP_MSFontService,sans-serif" font-weight="400" font-size="55" transform="matrix(1 0 0 1 1707.74 1494)">fontHeight</text><text font-family="Noto Sans JP,Noto Sans JP_MSFontService,sans-serif" font-weight="400" font-size="55" transform="matrix(1 0 0 1 1982.74 1494)"> </text><rect x="2282.5" y="557.5" width="1673" height="1664" stroke="#000000" stroke-width="4.58333" stroke-linecap="round" stroke-linejoin="round" stroke-miterlimit="10" fill="#D9D9D9"/><path d="M0 0 0.000360892 109.75" stroke="#000000" stroke-width="4.58333" stroke-linecap="round" stroke-linejoin="round" stroke-miterlimit="10" fill="none" fill-rule="evenodd" transform="matrix(1 0 0 -1 2282.5 531.249)"/><path d="M0 0 0.000360892 109.75" stroke="#000000" stroke-width="4.58333" stroke-linecap="round" stroke-linejoin="round" stroke-miterlimit="10" fill="none" fill-rule="evenodd" transform="matrix(1 0 0 -1 3955.5 531.249)"/><text fill="#4EA72E" font-family="Noto Sans JP,Noto Sans JP_MSFontService,sans-serif" font-weight="700" font-size="55" transform="matrix(1 0 0 1 2683.58 438)">S</text><text font-family="Noto Sans JP,Noto Sans JP_MSFontService,sans-serif" font-weight="400" font-size="55" transform="matrix(1 0 0 1 2717.96 438)"> </text><text font-family="Noto Sans JP,Noto Sans JP_MSFontService,sans-serif" font-weight="400" font-size="55" transform="matrix(1 0 0 1 2730.56 438)">= Vertical Address Stride in Bytes</text><text font-family="Noto Sans JP,Noto Sans JP_MSFontService,sans-serif" font-weight="400" font-size="55" transform="matrix(1 0 0 1 3559 438)"> </text><path d="M2305.42 455.208 3932.83 455.209C3934.1 455.209 3935.13 456.235 3935.13 457.5 3935.13 458.766 3934.1 459.792 3932.83 459.792L2305.42 459.792C2304.15 459.792 2303.13 458.766 2303.13 457.5 2303.13 456.234 2304.15 455.208 2305.42 455.208ZM2310 471.25 2282.5 457.5 2310 443.75ZM3928.25 443.75 3955.75 457.5 3928.25 471.25Z"/><rect x="2625.5" y="1103.5" width="909" height="748" stroke="#000000" stroke-width="4.58333" stroke-linecap="round" stroke-linejoin="round" stroke-miterlimit="10" fill="#FFFFFF"/><text font-family="Noto Sans JP,Noto Sans JP_MSFontService,sans-serif" font-weight="700" font-size="55" transform="matrix(1 0 0 1 2939.14 1398)">Rendering</text><text font-family="Noto Sans JP,Noto Sans JP_MSFontService,sans-serif" font-weight="700" font-size="55" transform="matrix(1 0 0 1 3219.87 1398)"> </text><text font-family="Noto Sans JP,Noto Sans JP_MSFontService,sans-serif" font-weight="700" font-size="55" transform="matrix(1 0 0 1 2969.78 1464)">Window</text><text font-family="Noto Sans JP,Noto Sans JP_MSFontService,sans-serif" font-weight="700" font-size="55" transform="matrix(1 0 0 1 3189.21 1464)"> </text><text fill="#C00000" font-family="Noto Sans JP,Noto Sans JP_MSFontService,sans-serif" font-weight="700" font-size="55" transform="matrix(1 0 0 1 2925.96 1530)">W</text><text font-family="Noto Sans JP,Noto Sans JP_MSFontService,sans-serif" font-weight="400" font-size="55" transform="matrix(1 0 0 1 2976.38 1530)">×</text><text fill="#0070C0" font-family="Noto Sans JP,Noto Sans JP_MSFontService,sans-serif" font-weight="700" font-size="55" transform="matrix(1 0 0 1 3031.38 1530)">H</text><text fill="#0070C0" font-family="Noto Sans JP,Noto Sans JP_MSFontService,sans-serif" font-weight="400" font-size="55" transform="matrix(1 0 0 1 3073.2 1530)"> </text><text font-family="Noto Sans JP,Noto Sans JP_MSFontService,sans-serif" font-weight="400" font-size="55" transform="matrix(1 0 0 1 3085.81 1530)">pixels</text><text font-family="Noto Sans JP,Noto Sans JP_MSFontService,sans-serif" font-weight="400" font-size="55" transform="matrix(1 0 0 1 3233.05 1530)"> </text><text fill="#C00000" font-family="Noto Sans JP,Noto Sans JP_MSFontService,sans-serif" font-weight="700" font-size="55" transform="matrix(1 0 0 1 2960.04 1596)">W</text><text font-family="Noto Sans JP,Noto Sans JP_MSFontService,sans-serif" font-weight="400" font-size="55" transform="matrix(1 0 0 1 3010.46 1596)">=</text><text fill="#A02B93" font-family="Noto Sans JP,Noto Sans JP_MSFontService,sans-serif" font-weight="700" font-size="55" transform="matrix(1 0 0 1 3040.82 1596)">NL</text><text font-family="Noto Sans JP,Noto Sans JP_MSFontService,sans-serif" font-weight="400" font-size="55" transform="matrix(1 0 0 1 3113.58 1596)">×</text><text font-family="Noto Sans JP,Noto Sans JP_MSFontService,sans-serif" font-weight="400" font-size="55" transform="matrix(1 0 0 1 3168.58 1596)">8</text><text font-family="Noto Sans JP,Noto Sans JP_MSFontService,sans-serif" font-weight="400" font-size="55" transform="matrix(1 0 0 1 3198.95 1596)"> </text><rect x="2282.5" y="557.5" width="258" height="66" stroke="#000000" stroke-width="4.58333" stroke-linecap="round" stroke-linejoin="round" stroke-miterlimit="10" fill="none"/><text font-family="Noto Sans JP,Noto Sans JP_MSFontService,sans-serif" font-weight="400" font-size="41" transform="matrix(1 0 0 1 2351.83 606)">Byte 0</text><text font-family="Noto Sans JP,Noto Sans JP_MSFontService,sans-serif" font-weight="400" font-size="41" transform="matrix(1 0 0 1 2470.43 606)"> </text><rect x="2540.5" y="557.5" width="258" height="66" stroke="#000000" stroke-width="4.58333" stroke-linecap="round" stroke-linejoin="round" stroke-miterlimit="10" fill="none"/><text font-family="Noto Sans JP,Noto Sans JP_MSFontService,sans-serif" font-weight="400" font-size="41" transform="matrix(1 0 0 1 2609.64 606)">Byte 1</text><text font-family="Noto Sans JP,Noto Sans JP_MSFontService,sans-serif" font-weight="400" font-size="41" transform="matrix(1 0 0 1 2728.24 606)"> </text><rect x="2798.5" y="557.5" width="258" height="66" stroke="#000000" stroke-width="4.58333" stroke-linecap="round" stroke-linejoin="round" stroke-miterlimit="10" fill="none"/><text font-family="Noto Sans JP,Noto Sans JP_MSFontService,sans-serif" font-weight="400" font-size="41" transform="matrix(1 0 0 1 2867.45 606)">Byte 2</text><text font-family="Noto Sans JP,Noto Sans JP_MSFontService,sans-serif" font-weight="400" font-size="41" transform="matrix(1 0 0 1 2986.04 606)"> </text><rect x="3698.5" y="557.5" width="257" height="66" stroke="#000000" stroke-width="4.58333" stroke-linecap="round" stroke-linejoin="round" stroke-miterlimit="10" fill="none"/><text fill="#4EA72E" font-family="Noto Sans JP,Noto Sans JP_MSFontService,sans-serif" font-weight="700" font-size="41" transform="matrix(1 0 0 1 3795.07 606)">S</text><text font-family="Noto Sans JP,Noto Sans JP_MSFontService,sans-serif" font-weight="400" font-size="41" transform="matrix(1 0 0 1 3820.85 606)">-</text><text font-family="Noto Sans JP,Noto Sans JP_MSFontService,sans-serif" font-weight="400" font-size="41" transform="matrix(1 0 0 1 3835.17 606)">1</text><text font-family="Noto Sans JP,Noto Sans JP_MSFontService,sans-serif" font-weight="400" font-size="41" transform="matrix(1 0 0 1 3858.09 606)"> </text><rect x="3440.5" y="558.5" width="258" height="66" stroke="#000000" stroke-width="4.58333" stroke-linecap="round" stroke-linejoin="round" stroke-miterlimit="10" fill="none"/><text fill="#4EA72E" font-family="Noto Sans JP,Noto Sans JP_MSFontService,sans-serif" font-weight="700" font-size="41" transform="matrix(1 0 0 1 3537.26 606)">S</text><text font-family="Noto Sans JP,Noto Sans JP_MSFontService,sans-serif" font-weight="400" font-size="41" transform="matrix(1 0 0 1 3563.04 606)">-</text><text font-family="Noto Sans JP,Noto Sans JP_MSFontService,sans-serif" font-weight="400" font-size="41" transform="matrix(1 0 0 1 3577.37 606)">2</text><text font-family="Noto Sans JP,Noto Sans JP_MSFontService,sans-serif" font-weight="400" font-size="41" transform="matrix(1 0 0 1 3600.28 606)"> </text><rect x="2282.5" y="623.5" width="258" height="67.0001" stroke="#000000" stroke-width="4.58333" stroke-linecap="round" stroke-linejoin="round" stroke-miterlimit="10" fill="none"/><text fill="#4EA72E" font-family="Noto Sans JP,Noto Sans JP_MSFontService,sans-serif" font-weight="700" font-size="41" transform="matrix(1 0 0 1 2398.24 672)">S</text><text font-family="Noto Sans JP,Noto Sans JP_MSFontService,sans-serif" font-weight="400" font-size="41" transform="matrix(1 0 0 1 2424.02 672)"> </text><rect x="2540.5" y="623.5" width="258" height="67.0001" stroke="#000000" stroke-width="4.58333" stroke-linecap="round" stroke-linejoin="round" stroke-miterlimit="10" fill="none"/><text fill="#4EA72E" font-family="Noto Sans JP,Noto Sans JP_MSFontService,sans-serif" font-weight="700" font-size="41" transform="matrix(1 0 0 1 2633.13 672)">S</text><text font-family="Noto Sans JP,Noto Sans JP_MSFontService,sans-serif" font-weight="400" font-size="41" transform="matrix(1 0 0 1 2658.91 672)">+1</text><text font-family="Noto Sans JP,Noto Sans JP_MSFontService,sans-serif" font-weight="400" font-size="41" transform="matrix(1 0 0 1 2704.75 672)"> </text><path d="M3086 590 3183.56 590" stroke="#000000" stroke-width="13.75" stroke-linecap="round" stroke-linejoin="round" stroke-miterlimit="10" stroke-dasharray="0 27.5" fill="none" fill-rule="evenodd"/><path d="M0 0 98.1873 0.000360892" stroke="#000000" stroke-width="13.75" stroke-linecap="round" stroke-linejoin="round" stroke-miterlimit="10" stroke-dasharray="0 27.5" fill="none" fill-rule="evenodd" transform="matrix(-1 0 0 1 3408.19 590)"/><path d="M2829 660 2926.18 660" stroke="#000000" stroke-width="13.75" stroke-linecap="round" stroke-linejoin="round" stroke-miterlimit="10" stroke-dasharray="0 27.5" fill="none" fill-rule="evenodd"/><path d="M2882.5 1075.68 2882.5 993.5" stroke="#000000" stroke-width="4.58333" stroke-linecap="round" stroke-linejoin="round" stroke-miterlimit="10" fill="none" fill-rule="evenodd"/><path d="M3138.5 1076 3138.5 993.5" stroke="#000000" stroke-width="4.58333" stroke-linecap="round" stroke-linejoin="round" stroke-miterlimit="10" fill="none" fill-rule="evenodd"/><path d="M3277.5 1076 3277.5 993.5" stroke="#000000" stroke-width="4.58333" stroke-linecap="round" stroke-linejoin="round" stroke-miterlimit="10" fill="none" fill-rule="evenodd"/><path d="M0 0 0.000360892 82.1817" stroke="#000000" stroke-width="4.58333" stroke-linecap="round" stroke-linejoin="round" stroke-miterlimit="10" fill="none" fill-rule="evenodd" transform="matrix(1 0 0 -1 2626.5 1075.68)"/><path d="M0 0 0.000360892 92.9695" stroke="#000000" stroke-width="4.58333" stroke-linecap="round" stroke-linejoin="round" stroke-miterlimit="10" fill="none" fill-rule="evenodd" transform="matrix(1 0 0 -1 3534.5 1075.47)"/><rect x="3389" y="1102" width="142" height="746" fill="#4F00EE" fill-opacity="0.101961"/><text font-family="Noto Sans JP,Noto Sans JP_MSFontService,sans-serif" font-weight="400" font-size="41" transform="matrix(-1.83697e-16 -1 1 -1.83697e-16 3475.47 1761)">(This area will be </text><text font-family="Noto Sans JP,Noto Sans JP_MSFontService,sans-serif" font-weight="400" font-size="41" transform="matrix(-1.83697e-16 -1 1 -1.83697e-16 3475.47 1429)">overwritten</text><text font-family="Noto Sans JP,Noto Sans JP_MSFontService,sans-serif" font-weight="400" font-size="41" transform="matrix(-1.83697e-16 -1 1 -1.83697e-16 3475.47 1203)">)</text><text font-family="Noto Sans JP,Noto Sans JP_MSFontService,sans-serif" font-weight="400" font-size="41" transform="matrix(-1.83697e-16 -1 1 -1.83697e-16 3475.47 1189)"> </text><path d="M164.652 0 266.72 0 371 386.336 475.28 0 577.348 0 742 610 614.487 610 524.389 276.21 434.292 610 431.372 610 310.628 610 309.783 610 219.686 276.21 129.589 610 0 610Z" fill="#000000" fill-rule="evenodd" fill-opacity="0.2" transform="matrix(1 0 0 -1 2641 1729)"/><path d="M0 0 82.1817 0.000360892" stroke="#000000" stroke-width="4.58333" stroke-linecap="round" stroke-linejoin="round" stroke-miterlimit="10" fill="none" fill-rule="evenodd" transform="matrix(-1 0 0 1 3638.68 1849.5)"/><path d="M2.29168 22.9168 2.29202 720.62C2.29202 721.885 1.266 722.911 0.000350881 722.911-1.2653 722.911-2.29132 721.885-2.29132 720.62L-2.29166 22.9168C-2.29166 21.6511-1.26564 20.6251 1.00109e-05 20.6251 1.26566 20.6251 2.29168 21.6511 2.29168 22.9168ZM-13.75 27.5 0 0 13.75 27.5ZM13.7503 716.036 0.000360892 743.536-13.7497 716.036Z" transform="matrix(1 0 0 -1 3617.5 1849.04)"/><text font-family="Noto Sans JP,Noto Sans JP_MSFontService,sans-serif" font-weight="400" font-size="55" transform="matrix(1 0 0 1 3636.09 1494)">fontHeight</text><text font-family="Noto Sans JP,Noto Sans JP_MSFontService,sans-serif" font-weight="400" font-size="55" transform="matrix(1 0 0 1 3911.09 1494)"> </text><path d="M2648.42 1018.21 2858.97 1018.21C2860.23 1018.21 2861.26 1019.23 2861.26 1020.5 2861.26 1021.77 2860.23 1022.79 2858.97 1022.79L2648.42 1022.79C2647.15 1022.79 2646.12 1021.77 2646.12 1020.5 2646.12 1019.23 2647.15 1018.21 2648.42 1018.21ZM2653 1034.25 2625.5 1020.5 2653 1006.75ZM2854.38 1006.75 2881.88 1020.5 2854.38 1034.25Z"/><text font-family="Noto Sans JP,Noto Sans JP_MSFontService,sans-serif" font-weight="400" font-size="55" transform="matrix(1 0 0 1 2669.43 966)">Lane 0</text><text font-family="Noto Sans JP,Noto Sans JP_MSFontService,sans-serif" font-weight="400" font-size="55" transform="matrix(1 0 0 1 2837.3 966)"> </text><text font-family="Noto Sans JP,Noto Sans JP_MSFontService,sans-serif" font-weight="400" font-size="55" transform="matrix(1 0 0 1 3275.32 964)">Lane </text><text fill="#A02B93" font-family="Noto Sans JP,Noto Sans JP_MSFontService,sans-serif" font-weight="700" font-size="55" transform="matrix(1 0 0 1 3412.82 964)">NL</text><text font-family="Noto Sans JP,Noto Sans JP_MSFontService,sans-serif" font-weight="400" font-size="55" transform="matrix(1 0 0 1 3485.58 964)">-</text><text font-family="Noto Sans JP,Noto Sans JP_MSFontService,sans-serif" font-weight="400" font-size="55" transform="matrix(1 0 0 1 3504.48 964)">1</text><text font-family="Noto Sans JP,Noto Sans JP_MSFontService,sans-serif" font-weight="400" font-size="55" transform="matrix(1 0 0 1 3534.85 964)"> </text><rect x="2882.5" y="1103.5" width="257" height="66" stroke="#000000" stroke-width="4.58333" stroke-linecap="round" stroke-linejoin="round" stroke-miterlimit="10" fill="none"/><text font-family="Noto Sans JP,Noto Sans JP_MSFontService,sans-serif" font-weight="400" font-size="41" transform="matrix(1 0 0 1 2923.93 1151)">Byte </text><text fill="#8F8231" font-family="Noto Sans JP,Noto Sans JP_MSFontService,sans-serif" font-weight="700" font-size="41" transform="matrix(1 0 0 1 3019.6 1151)">O</text><text font-family="Noto Sans JP,Noto Sans JP_MSFontService,sans-serif" font-weight="400" font-size="41" transform="matrix(1 0 0 1 3051.11 1151)">+1</text><text font-family="Noto Sans JP,Noto Sans JP_MSFontService,sans-serif" font-weight="400" font-size="41" transform="matrix(1 0 0 1 3096.95 1151)"> </text><rect x="2625.5" y="1103.5" width="258" height="66" stroke="#000000" stroke-width="4.58333" stroke-linecap="round" stroke-linejoin="round" stroke-miterlimit="10" fill="none"/><text font-family="Noto Sans JP,Noto Sans JP_MSFontService,sans-serif" font-weight="400" font-size="41" transform="matrix(1 0 0 1 2690.46 1151)">Byte </text><text fill="#8F8231" font-family="Noto Sans JP,Noto Sans JP_MSFontService,sans-serif" font-weight="700" font-size="41" transform="matrix(1 0 0 1 2786.13 1151)">O</text><text font-family="Noto Sans JP,Noto Sans JP_MSFontService,sans-serif" font-weight="400" font-size="41" transform="matrix(1 0 0 1 2817.65 1151)"> </text><rect x="3276.5" y="1103.5" width="258" height="66" stroke="#000000" stroke-width="4.58333" stroke-linecap="round" stroke-linejoin="round" stroke-miterlimit="10" fill="none"/><text fill="#8F8231" font-family="Noto Sans JP,Noto Sans JP_MSFontService,sans-serif" font-weight="700" font-size="41" transform="matrix(1 0 0 1 3331.75 1151)">O</text><text font-family="Noto Sans JP,Noto Sans JP_MSFontService,sans-serif" font-weight="400" font-size="41" transform="matrix(1 0 0 1 3363.26 1151)">+</text><text fill="#A02B93" font-family="Noto Sans JP,Noto Sans JP_MSFontService,sans-serif" font-weight="700" font-size="41" transform="matrix(1 0 0 1 3386.18 1151)">NL</text><text font-family="Noto Sans JP,Noto Sans JP_MSFontService,sans-serif" font-weight="400" font-size="41" transform="matrix(1 0 0 1 3441.18 1151)">-</text><text font-family="Noto Sans JP,Noto Sans JP_MSFontService,sans-serif" font-weight="400" font-size="41" transform="matrix(1 0 0 1 3455.5 1151)">1</text><text font-family="Noto Sans JP,Noto Sans JP_MSFontService,sans-serif" font-weight="400" font-size="41" transform="matrix(1 0 0 1 3478.41 1151)"> </text><rect x="2624.5" y="1169.5" width="258" height="66" stroke="#000000" stroke-width="4.58333" stroke-linecap="round" stroke-linejoin="round" stroke-miterlimit="10" fill="none"/><text fill="#8F8231" font-family="Noto Sans JP,Noto Sans JP_MSFontService,sans-serif" font-weight="700" font-size="41" transform="matrix(1 0 0 1 2713.26 1217)">O</text><text font-family="Noto Sans JP,Noto Sans JP_MSFontService,sans-serif" font-weight="400" font-size="41" transform="matrix(1 0 0 1 2744.77 1217)">+</text><text fill="#4EA72E" font-family="Noto Sans JP,Noto Sans JP_MSFontService,sans-serif" font-weight="700" font-size="41" transform="matrix(1 0 0 1 2767.69 1217)">S</text><text fill="#4EA72E" font-family="Noto Sans JP,Noto Sans JP_MSFontService,sans-serif" font-weight="700" font-size="41" transform="matrix(1 0 0 1 2793.47 1217)"> </text><rect x="2882.5" y="1170.5" width="257" height="66" stroke="#000000" stroke-width="4.58333" stroke-linecap="round" stroke-linejoin="round" stroke-miterlimit="10" fill="none"/><text fill="#8F8231" font-family="Noto Sans JP,Noto Sans JP_MSFontService,sans-serif" font-weight="700" font-size="41" transform="matrix(1 0 0 1 2947.42 1218)">O</text><text font-family="Noto Sans JP,Noto Sans JP_MSFontService,sans-serif" font-weight="400" font-size="41" transform="matrix(1 0 0 1 2978.93 1218)">+</text><text fill="#4EA72E" font-family="Noto Sans JP,Noto Sans JP_MSFontService,sans-serif" font-weight="700" font-size="41" transform="matrix(1 0 0 1 3001.84 1218)">S</text><text font-family="Noto Sans JP,Noto Sans JP_MSFontService,sans-serif" font-weight="400" font-size="41" transform="matrix(1 0 0 1 3027.62 1218)">+1</text><text font-family="Noto Sans JP,Noto Sans JP_MSFontService,sans-serif" font-weight="400" font-size="41" transform="matrix(1 0 0 1 3073.46 1218)"> </text><rect x="2624.5" y="1784.5" width="258" height="67" stroke="#000000" stroke-width="4.58333" stroke-linecap="round" stroke-linejoin="round" stroke-miterlimit="10" fill="none"/><text fill="#8F8231" font-family="Noto Sans JP,Noto Sans JP_MSFontService,sans-serif" font-weight="700" font-size="41" transform="matrix(1 0 0 1 2644.51 1833)">O</text><text font-family="Noto Sans JP,Noto Sans JP_MSFontService,sans-serif" font-weight="400" font-size="41" transform="matrix(1 0 0 1 2676.02 1833)">+(</text><text fill="#0070C0" font-family="Noto Sans JP,Noto Sans JP_MSFontService,sans-serif" font-weight="700" font-size="41" transform="matrix(1 0 0 1 2712.69 1833)">H</text><text font-family="Noto Sans JP,Noto Sans JP_MSFontService,sans-serif" font-weight="400" font-size="41" transform="matrix(1 0 0 1 2744.2 1833)">-</text><text font-family="Noto Sans JP,Noto Sans JP_MSFontService,sans-serif" font-weight="400" font-size="41" transform="matrix(1 0 0 1 2758.52 1833)">1)</text><text font-family="Noto Sans JP,Noto Sans JP_MSFontService,sans-serif" font-weight="400" font-size="41" transform="matrix(1 0 0 1 2795.19 1833)">×</text><text fill="#4EA72E" font-family="Noto Sans JP,Noto Sans JP_MSFontService,sans-serif" font-weight="700" font-size="41" transform="matrix(1 0 0 1 2836.44 1833)">S</text><text fill="#4EA72E" font-family="Noto Sans JP,Noto Sans JP_MSFontService,sans-serif" font-weight="700" font-size="41" transform="matrix(1 0 0 1 2862.22 1833)"> </text><path d="M0 0 74.6694 0.000360892" stroke="#000000" stroke-width="13.75" stroke-linecap="round" stroke-linejoin="round" stroke-miterlimit="10" stroke-dasharray="0 27.5" fill="none" fill-rule="evenodd" transform="matrix(-1 0 0 1 3236.67 1135)"/><path d="M0 0 82.1817 0.000360892" stroke="#000000" stroke-width="4.58333" stroke-linecap="round" stroke-linejoin="round" stroke-miterlimit="10" fill="none" fill-rule="evenodd" transform="matrix(-1 0 0 1 3638.68 1103.5)"/><path d="M2902.42 1018.21 3112.97 1018.21C3114.23 1018.21 3115.26 1019.23 3115.26 1020.5 3115.26 1021.77 3114.23 1022.79 3112.97 1022.79L2902.42 1022.79C2901.15 1022.79 2900.12 1021.77 2900.12 1020.5 2900.12 1019.23 2901.15 1018.21 2902.42 1018.21ZM2907 1034.25 2879.5 1020.5 2907 1006.75ZM3108.38 1006.75 3135.88 1020.5 3108.38 1034.25Z"/><path d="M3300.42 1018.21 3510.97 1018.21C3512.23 1018.21 3513.26 1019.23 3513.26 1020.5 3513.26 1021.77 3512.23 1022.79 3510.97 1022.79L3300.42 1022.79C3299.15 1022.79 3298.13 1021.77 3298.13 1020.5 3298.13 1019.23 3299.15 1018.21 3300.42 1018.21ZM3305 1034.25 3277.5 1020.5 3305 1006.75ZM3506.38 1006.75 3533.88 1020.5 3506.38 1034.25Z"/><text font-family="Noto Sans JP,Noto Sans JP_MSFontService,sans-serif" font-weight="400" font-size="55" transform="matrix(1 0 0 1 2924.78 966)">Lane 1</text><text font-family="Noto Sans JP,Noto Sans JP_MSFontService,sans-serif" font-weight="400" font-size="55" transform="matrix(1 0 0 1 3092.65 966)"> </text><path d="M2648.42 1933.21 3366.79 1933.21C3368.05 1933.21 3369.08 1934.23 3369.08 1935.5 3369.08 1936.77 3368.05 1937.79 3366.79 1937.79L2648.42 1937.79C2647.15 1937.79 2646.12 1936.77 2646.12 1935.5 2646.12 1934.23 2647.15 1933.21 2648.42 1933.21ZM2653 1949.25 2625.5 1935.5 2653 1921.75ZM3362.2 1921.75 3389.7 1935.5 3362.2 1949.25Z"/><text font-family="Noto Sans JP,Noto Sans JP_MSFontService,sans-serif" font-weight="400" font-size="55" transform="matrix(1 0 0 1 2875.42 1996)">glyphWidth</text><text font-family="Noto Sans JP,Noto Sans JP_MSFontService,sans-serif" font-weight="400" font-size="55" transform="matrix(1 0 0 1 3169.33 1996)"> </text><path d="M0 0 0.000360892 92.465" stroke="#000000" stroke-width="4.58333" stroke-linecap="round" stroke-linejoin="round" stroke-miterlimit="10" fill="none" fill-rule="evenodd" transform="matrix(1 0 0 -1 2626.5 1961.97)"/><path d="M0 0 0.000360892 92.465" stroke="#000000" stroke-width="4.58333" stroke-linecap="round" stroke-linejoin="round" stroke-miterlimit="10" fill="none" fill-rule="evenodd" transform="matrix(1 0 0 -1 3392.5 1961.97)"/><path d="M0 0 74.6694 0.000360892" stroke="#000000" stroke-width="13.75" stroke-linecap="round" stroke-linejoin="round" stroke-miterlimit="10" stroke-dasharray="0 27.5" fill="none" fill-rule="evenodd" transform="matrix(-1 0 0 1 3236.67 1018)"/><path d="M2755 1274 2755 1348.08" stroke="#000000" stroke-width="13.75" stroke-linecap="round" stroke-linejoin="round" stroke-miterlimit="10" stroke-dasharray="0 27.5" fill="none" fill-rule="evenodd"/><path d="M2755 1697 2755 1771.08" stroke="#000000" stroke-width="13.75" stroke-linecap="round" stroke-linejoin="round" stroke-miterlimit="10" stroke-dasharray="0 27.5" fill="none" fill-rule="evenodd"/><path d="M867.417 2091.21 1585.79 2091.21C1587.05 2091.21 1588.08 2092.23 1588.08 2093.5 1588.08 2094.77 1587.05 2095.79 1585.79 2095.79L867.417 2095.79C866.151 2095.79 865.125 2094.77 865.125 2093.5 865.125 2092.23 866.151 2091.21 867.417 2091.21ZM872 2107.25 844.5 2093.5 872 2079.75ZM1581.2 2079.75 1608.7 2093.5 1581.2 2107.25Z"/><text font-family="Noto Sans JP,Noto Sans JP_MSFontService,sans-serif" font-weight="400" font-size="55" transform="matrix(1 0 0 1 1094.48 2154)">glyphWidth</text><text font-family="Noto Sans JP,Noto Sans JP_MSFontService,sans-serif" font-weight="400" font-size="55" transform="matrix(1 0 0 1 1388.39 2154)"> </text><path d="M0 0 0.000360892 92.465" stroke="#000000" stroke-width="4.58333" stroke-linecap="round" stroke-linejoin="round" stroke-miterlimit="10" fill="none" fill-rule="evenodd" transform="matrix(1 0 0 -1 846.5 2119.96)"/><path d="M0 0 0.000360892 92.465" stroke="#000000" stroke-width="4.58333" stroke-linecap="round" stroke-linejoin="round" stroke-miterlimit="10" fill="none" fill-rule="evenodd" transform="matrix(1 0 0 -1 1611.5 2119.96)"/><text font-family="Noto Sans JP,Noto Sans JP_MSFontService,sans-serif" font-weight="700" font-size="83" transform="matrix(1 0 0 1 698.439 258)">Vertical Fragment Model</text><text font-family="Noto Sans JP,Noto Sans JP_MSFontService,sans-serif" font-weight="700" font-size="83" transform="matrix(1 0 0 1 1687.87 258)"> </text><text font-family="Noto Sans JP,Noto Sans JP_MSFontService,sans-serif" font-weight="700" font-size="83" transform="matrix(1 0 0 1 2560.42 258)">Horizontal Fragment Model</text><text font-family="Noto Sans JP,Noto Sans JP_MSFontService,sans-serif" font-weight="700" font-size="83" transform="matrix(1 0 0 1 3666.73 258)"> </text></g></svg>