<svg width="3074" height="1124" xmlns="http://www.w3.org/2000/svg" xmlns:xlink="http://www.w3.org/1999/xlink" xml:space="preserve" overflow="hidden"><defs><clipPath id="clip0"><rect x="25" y="468" width="3074" height="1124"/></clipPath></defs><g clip-path="url(#clip0)" transform="translate(-25 -468)"><rect x="25.0001" y="468" width="3074" height="1124" fill="#FFFFFF"/><path d="M1318.5 503.5 1318.5 1551.25" stroke="#000000" stroke-width="4.58333" stroke-linecap="round" stroke-linejoin="round" stroke-miterlimit="10" fill="none" fill-rule="evenodd"/><rect x="1651.5" y="853.5" width="342" height="194" stroke="#000000" stroke-width="4.58333" stroke-linecap="round" stroke-linejoin="round" stroke-miterlimit="10" fill="#FFFFFF"/><text font-family="Noto Sans JP,Noto Sans JP_MSFontService,sans-serif" font-weight="400" font-size="41" transform="matrix(1 0 0 1 1718.84 940)">MameFont</text><text font-family="Noto Sans JP,Noto Sans JP_MSFontService,sans-serif" font-weight="400" font-size="41" transform="matrix(1 0 0 1 1925.66 940)"> </text><text font-family="Noto Sans JP,Noto Sans JP_MSFontService,sans-serif" font-weight="400" font-size="41" transform="matrix(1 0 0 1 1753.78 989)">Library</text><text font-family="Noto Sans JP,Noto Sans JP_MSFontService,sans-serif" font-weight="400" font-size="41" transform="matrix(1 0 0 1 1890.71 989)"> </text><rect x="2200.5" y="748.5" width="342" height="382" stroke="#000000" stroke-width="4.58333" stroke-linecap="round" stroke-linejoin="round" stroke-miterlimit="10" fill="#FFFFFF"/><text font-family="Noto Sans JP,Noto Sans JP_MSFontService,sans-serif" font-weight="400" font-size="41" transform="matrix(1 0 0 1 2251.28 788)">Glyph Buffer</text><text font-family="Noto Sans JP,Noto Sans JP_MSFontService,sans-serif" font-weight="400" font-size="41" transform="matrix(1 0 0 1 2490.76 788)"> </text><text font-family="Noto Sans JP,Noto Sans JP_MSFontService,sans-serif" font-weight="400" font-size="41" transform="matrix(1 0 0 1 2141.29 1252)">Allocate</text><text font-family="Noto Sans JP,Noto Sans JP_MSFontService,sans-serif" font-weight="400" font-size="41" transform="matrix(1 0 0 1 2297.69 1252)"> </text><rect x="2274.5" y="1030.5" width="35" height="51.9999" stroke="#000000" stroke-width="4.58333" stroke-linecap="round" stroke-linejoin="round" stroke-miterlimit="10"/><rect x="2292.5" y="977.5" width="159" height="52.9999" stroke="#000000" stroke-width="4.58333" stroke-linecap="round" stroke-linejoin="round" stroke-miterlimit="10"/><rect x="2309.5" y="924.5" width="34.9998" height="53.0003" stroke="#000000" stroke-width="4.58333" stroke-linecap="round" stroke-linejoin="round" stroke-miterlimit="10"/><rect x="2327.5" y="872.5" width="35" height="51.9999" stroke="#000000" stroke-width="4.58333" stroke-linecap="round" stroke-linejoin="round" stroke-miterlimit="10"/><rect x="2344.5" y="819.5" width="53.0002" height="52.9999" stroke="#000000" stroke-width="4.58333" stroke-linecap="round" stroke-linejoin="round" stroke-miterlimit="10"/><rect x="2379.5" y="872.5" width="35" height="51.9999" stroke="#000000" stroke-width="4.58333" stroke-linecap="round" stroke-linejoin="round" stroke-miterlimit="10"/><rect x="2397.5" y="924.5" width="34.9998" height="53.0003" stroke="#000000" stroke-width="4.58333" stroke-linecap="round" stroke-linejoin="round" stroke-miterlimit="10"/><rect x="2432.5" y="1030.5" width="35" height="51.9999" stroke="#000000" stroke-width="4.58333" stroke-linecap="round" stroke-linejoin="round" stroke-miterlimit="10"/><path d="M1475.5 928.5 1552.5 928.5 1552.5 904.5 1600.5 952.5 1552.5 1000.5 1552.5 976.5 1475.5 976.5Z" stroke="#000000" stroke-width="4.58333" stroke-linecap="round" stroke-miterlimit="8" fill="#FFFFFF" fill-rule="evenodd"/><path d="M2046.5 928.5 2123.5 928.5 2123.5 904.5 2171.5 952.5 2123.5 1000.5 2123.5 976.5 2046.5 976.5Z" stroke="#000000" stroke-width="4.58333" stroke-linecap="round" stroke-miterlimit="8" fill="#FFFFFF" fill-rule="evenodd"/><path d="M1038.5 928.5 1114.5 928.5 1114.5 904.5 1162.5 952.5 1114.5 1000.5 1114.5 976.5 1038.5 976.5Z" stroke="#000000" stroke-width="4.58333" stroke-linecap="round" stroke-miterlimit="8" fill="#FFFFFF" fill-rule="evenodd"/><rect x="622.5" y="853.5" width="343" height="194" stroke="#000000" stroke-width="4.58333" stroke-linecap="round" stroke-linejoin="round" stroke-miterlimit="10" fill="#FFFFFF"/><text font-family="Noto Sans JP,Noto Sans JP_MSFontService,sans-serif" font-weight="400" font-size="41" transform="matrix(1 0 0 1 690.182 940)">MameFont</text><text font-family="Noto Sans JP,Noto Sans JP_MSFontService,sans-serif" font-weight="400" font-size="41" transform="matrix(1 0 0 1 897.005 940)"> </text><text font-family="Noto Sans JP,Noto Sans JP_MSFontService,sans-serif" font-weight="400" font-size="41" transform="matrix(1 0 0 1 697.63 989)">Converter</text><text font-family="Noto Sans JP,Noto Sans JP_MSFontService,sans-serif" font-weight="400" font-size="41" transform="matrix(1 0 0 1 889.557 989)"> </text><path d="M77.4998 749.5 407.5 749.5 407.5 1085.19 342.193 1150.5 77.4998 1150.5Z" fill="#FFFFFF" fill-rule="evenodd"/><path d="M342.193 1150.5 355.254 1098.25 407.5 1085.19Z" fill="#CDCDCD" fill-rule="evenodd"/><path d="M342.193 1150.5 355.254 1098.25 407.5 1085.19 342.193 1150.5 77.4998 1150.5 77.4998 749.5 407.5 749.5 407.5 1085.19" stroke="#000000" stroke-width="4.58333" stroke-linecap="round" stroke-linejoin="round" stroke-miterlimit="10" fill="none" fill-rule="evenodd"/><text font-family="Noto Sans JP,Noto Sans JP_MSFontService,sans-serif" font-weight="400" font-size="41" transform="matrix(1 0 0 1 135.434 789)">ShapoFont</text><text font-family="Noto Sans JP,Noto Sans JP_MSFontService,sans-serif" font-weight="400" font-size="41" transform="matrix(1 0 0 1 348.559 789)"> </text><rect x="146.5" y="1048.5" width="35.0001" height="52.9999" stroke="#000000" stroke-width="4.58333" stroke-linecap="round" stroke-linejoin="round" stroke-miterlimit="10"/><rect x="164.5" y="995.5" width="158" height="52.9999" stroke="#000000" stroke-width="4.58333" stroke-linecap="round" stroke-linejoin="round" stroke-miterlimit="10"/><rect x="181.5" y="943.5" width="35.0001" height="51.9999" stroke="#000000" stroke-width="4.58333" stroke-linecap="round" stroke-linejoin="round" stroke-miterlimit="10"/><rect x="199.5" y="890.5" width="34" height="52.9999" stroke="#000000" stroke-width="4.58333" stroke-linecap="round" stroke-linejoin="round" stroke-miterlimit="10"/><rect x="216.5" y="838.5" width="51.9999" height="52.0002" stroke="#000000" stroke-width="4.58333" stroke-linecap="round" stroke-linejoin="round" stroke-miterlimit="10"/><rect x="251.5" y="890.5" width="34.9997" height="52.9999" stroke="#000000" stroke-width="4.58333" stroke-linecap="round" stroke-linejoin="round" stroke-miterlimit="10"/><rect x="268.5" y="943.5" width="35.0001" height="51.9999" stroke="#000000" stroke-width="4.58333" stroke-linecap="round" stroke-linejoin="round" stroke-miterlimit="10"/><rect x="303.5" y="1048.5" width="35.0001" height="52.9999" stroke="#000000" stroke-width="4.58333" stroke-linecap="round" stroke-linejoin="round" stroke-miterlimit="10"/><path d="M459.5 928.5 536.5 928.5 536.5 904.5 584.5 952.5 536.5 1000.5 536.5 976.5 459.5 976.5Z" stroke="#000000" stroke-width="4.58333" stroke-linecap="round" stroke-miterlimit="8" fill="#FFFFFF" fill-rule="evenodd"/><path d="M2.29167-2.69409e-06 2.292 284.069C2.292 285.334 1.26599 286.36 0.000336646 286.36-1.26532 286.36-2.29133 285.334-2.29133 284.069L-2.29167 2.69409e-06C-2.29167-1.26565-1.26566-2.29167-2.69409e-06-2.29167 1.26565-2.29167 2.29167-1.26566 2.29167-2.69409e-06ZM13.7503 279.485 0.000360892 306.985-13.7497 279.485Z" transform="matrix(1 0 0 -1 1932.5 1357.49)"/><rect x="1829.5" y="1357.5" width="717" height="147" stroke="#000000" stroke-width="4.58333" stroke-linecap="round" stroke-linejoin="round" stroke-miterlimit="10" fill="#FFFFFF"/><text font-family="Noto Sans JP,Noto Sans JP_MSFontService,sans-serif" font-weight="400" font-size="41" transform="matrix(1 0 0 1 2027.84 1445)">User Application</text><text font-family="Noto Sans JP,Noto Sans JP_MSFontService,sans-serif" font-weight="400" font-size="41" transform="matrix(1 0 0 1 2346.95 1445)"> </text><path d="M2420.79 1131.5 2420.79 1336.49C2420.79 1337.75 2419.77 1338.78 2418.5 1338.78 2417.23 1338.78 2416.21 1337.75 2416.21 1336.49L2416.21 1131.5C2416.21 1130.23 2417.23 1129.21 2418.5 1129.21 2419.77 1129.21 2420.79 1130.23 2420.79 1131.5ZM2432.25 1331.9 2418.5 1359.4 2404.75 1331.9Z"/><path d="M2.29167-3.6753e-06 2.29199 202.111C2.29199 203.377 1.26598 204.403 0.000327815 204.403-1.26532 204.403-2.29134 203.377-2.29134 202.111L-2.29167 3.6753e-06C-2.29167-1.26565-1.26566-2.29166-3.6753e-06-2.29167 1.26565-2.29167 2.29166-1.26566 2.29167-3.6753e-06ZM13.7503 197.528 0.000360892 225.028-13.7497 197.528Z" transform="matrix(1 0 0 -1 2319.5 1355.53)"/><text font-family="Noto Sans JP,Noto Sans JP_MSFontService,sans-serif" font-weight="400" font-size="41" transform="matrix(1 0 0 1 2436.58 1227)">Transfer the rendered glyph(s)</text><text font-family="Noto Sans JP,Noto Sans JP_MSFontService,sans-serif" font-weight="400" font-size="41" transform="matrix(1 0 0 1 3020.95 1227)"> </text><text font-family="Noto Sans JP,Noto Sans JP_MSFontService,sans-serif" font-weight="400" font-size="41" transform="matrix(1 0 0 1 2465.5 1276)">to displays or frame buffers</text><text font-family="Noto Sans JP,Noto Sans JP_MSFontService,sans-serif" font-weight="400" font-size="41" transform="matrix(1 0 0 1 2992.01 1276)"> </text><text font-family="Noto Sans JP,Noto Sans JP_MSFontService,sans-serif" font-weight="400" font-size="41" transform="matrix(1 0 0 1 1575.1 1163)">Invoke rendering</text><text font-family="Noto Sans JP,Noto Sans JP_MSFontService,sans-serif" font-weight="400" font-size="41" transform="matrix(1 0 0 1 1903.38 1163)"> </text><text font-family="Noto Sans JP,Noto Sans JP_MSFontService,sans-serif" font-weight="400" font-size="41" transform="matrix(1 0 0 1 1586.28 1212)">with pointers to</text><text font-family="Noto Sans JP,Noto Sans JP_MSFontService,sans-serif" font-weight="400" font-size="41" transform="matrix(1 0 0 1 1892.22 1212)"> </text><text font-family="Noto Sans JP,Noto Sans JP_MSFontService,sans-serif" font-weight="400" font-size="41" transform="matrix(1 0 0 1 1609.77 1262)">font blob and</text><text font-family="Noto Sans JP,Noto Sans JP_MSFontService,sans-serif" font-weight="400" font-size="41" transform="matrix(1 0 0 1 1868.73 1262)"> </text><text font-family="Noto Sans JP,Noto Sans JP_MSFontService,sans-serif" font-weight="400" font-size="41" transform="matrix(1 0 0 1 1622.95 1311)">glyph buffer</text><text font-family="Noto Sans JP,Noto Sans JP_MSFontService,sans-serif" font-weight="400" font-size="41" transform="matrix(1 0 0 1 1855.55 1311)"> </text><rect x="995" y="685" width="641" height="124" fill="#FFFFFF"/><text font-family="Noto Sans JP,Noto Sans JP_MSFontService,sans-serif" font-weight="400" font-size="41" transform="matrix(1 0 0 1 1222.03 737)">Font Blob</text><text font-family="Noto Sans JP,Noto Sans JP_MSFontService,sans-serif" font-weight="400" font-size="41" transform="matrix(1 0 0 1 1408.8 737)"> </text><text font-family="Noto Sans JP,Noto Sans JP_MSFontService,sans-serif" font-weight="400" font-size="41" transform="matrix(1 0 0 1 1009.48 786)">(byte array include </text><text font-family="Noto Sans JP,Noto Sans JP_MSFontService,sans-serif" font-weight="400" font-size="41" transform="matrix(1 0 0 1 1380.73 786)">microcodes</text><text font-family="Noto Sans JP,Noto Sans JP_MSFontService,sans-serif" font-weight="400" font-size="41" transform="matrix(1 0 0 1 1607.6 786)">)</text><text font-family="Noto Sans JP,Noto Sans JP_MSFontService,sans-serif" font-weight="400" font-size="41" transform="matrix(1 0 0 1 1621.35 786)"> </text><path d="M1050.42 604.208 1582.08 604.209C1583.35 604.209 1584.37 605.235 1584.37 606.5 1584.37 607.766 1583.35 608.792 1582.08 608.792L1050.42 608.792C1049.15 608.792 1048.13 607.766 1048.13 606.5 1048.13 605.234 1049.15 604.208 1050.42 604.208ZM1055 620.25 1027.5 606.5 1055 592.75ZM1577.5 592.75 1605 606.5 1577.5 620.25Z"/><rect x="972" y="531" width="276" height="44" fill="#FFFFFF"/><text font-family="Noto Sans JP,Noto Sans JP_MSFontService,sans-serif" font-weight="400" font-size="41" transform="matrix(1 0 0 1 975.792 568)">Compile Time</text><text font-family="Noto Sans JP,Noto Sans JP_MSFontService,sans-serif" font-weight="400" font-size="41" transform="matrix(1 0 0 1 1243.92 568)"> </text><rect x="1370" y="531" width="206" height="44" fill="#FFFFFF"/><text font-family="Noto Sans JP,Noto Sans JP_MSFontService,sans-serif" font-weight="400" font-size="41" transform="matrix(1 0 0 1 1381.42 568)">Run Time</text><text font-family="Noto Sans JP,Noto Sans JP_MSFontService,sans-serif" font-weight="400" font-size="41" transform="matrix(1 0 0 1 1564.75 568)"> </text><rect x="1224.5" y="887.976" width="149.524" height="154.524" fill="#FFFFFF"/><path d="M1374.02 887.976 1404.5 857.5 1404.5 1012.02 1374.02 1042.5Z" fill="#CDCDCD" fill-rule="evenodd"/><path d="M1224.5 887.976 1254.98 857.5 1404.5 857.5 1374.02 887.976Z" fill="#FFFFFF" fill-rule="evenodd"/><path d="M1224.5 887.976 1254.98 857.5 1404.5 857.5 1404.5 1012.02 1374.02 1042.5 1224.5 1042.5ZM1224.5 887.976 1374.02 887.976 1404.5 857.5M1374.02 887.976 1374.02 1042.5" stroke="#000000" stroke-width="4.58333" stroke-linecap="round" stroke-miterlimit="8" fill="none" fill-rule="evenodd"/><text font-family="Noto Sans JP,Noto Sans JP_MSFontService,sans-serif" font-weight="400" font-size="41" transform="matrix(1 0 0 1 1449.89 1053)">Execute</text><text font-family="Noto Sans JP,Noto Sans JP_MSFontService,sans-serif" font-weight="400" font-size="41" transform="matrix(1 0 0 1 1602.29 1053)"> </text><text font-family="Noto Sans JP,Noto Sans JP_MSFontService,sans-serif" font-weight="400" font-size="41" transform="matrix(1 0 0 1 1016.31 1053)">Compile</text><text font-family="Noto Sans JP,Noto Sans JP_MSFontService,sans-serif" font-weight="400" font-size="41" transform="matrix(1 0 0 1 1177.87 1053)"> </text><text font-family="Noto Sans JP,Noto Sans JP_MSFontService,sans-serif" font-weight="400" font-size="41" transform="matrix(1 0 0 1 465.677 1053)">Load</text><text font-family="Noto Sans JP,Noto Sans JP_MSFontService,sans-serif" font-weight="400" font-size="41" transform="matrix(1 0 0 1 562.5 1053)"> </text><text font-family="Noto Sans JP,Noto Sans JP_MSFontService,sans-serif" font-weight="400" font-size="41" transform="matrix(1 0 0 1 2031.23 1053)">Render</text><text font-family="Noto Sans JP,Noto Sans JP_MSFontService,sans-serif" font-weight="400" font-size="41" transform="matrix(1 0 0 1 2170.45 1053)"> </text></g></svg>