<svg width="2021" height="1118" xmlns="http://www.w3.org/2000/svg" xmlns:xlink="http://www.w3.org/1999/xlink" xml:space="preserve" overflow="hidden"><defs><clipPath id="clip0"><rect x="84" y="1348" width="2021" height="1118"/></clipPath></defs><g clip-path="url(#clip0)" transform="translate(-84 -1348)"><rect x="83.9999" y="1348" width="2021" height="1116" fill="#FFFFFF"/><rect x="746.5" y="1790.5" width="154" height="308" stroke="#000000" stroke-width="4.58333" stroke-linecap="round" stroke-linejoin="round" stroke-miterlimit="10"/><rect x="823.5" y="2098.5" width="154" height="77" stroke="#000000" stroke-width="4.58333" stroke-linecap="round" stroke-linejoin="round" stroke-miterlimit="10"/><rect x="900.5" y="2176.5" width="385" height="75" stroke="#000000" stroke-width="4.58333" stroke-linecap="round" stroke-linejoin="round" stroke-miterlimit="10"/><rect x="823.5" y="1713.5" width="154" height="77" stroke="#000000" stroke-width="4.58333" stroke-linecap="round" stroke-linejoin="round" stroke-miterlimit="10"/><rect x="1131.5" y="2098.5" width="231" height="77" stroke="#000000" stroke-width="4.58333" stroke-linecap="round" stroke-linejoin="round" stroke-miterlimit="10"/><rect x="1285.5" y="1790.5" width="154" height="308" stroke="#000000" stroke-width="4.58333" stroke-linecap="round" stroke-linejoin="round" stroke-miterlimit="10"/><rect x="1208.5" y="1713.5" width="154" height="77" stroke="#000000" stroke-width="4.58333" stroke-linecap="round" stroke-linejoin="round" stroke-miterlimit="10"/><rect x="900.5" y="1638.5" width="385" height="74.9999" stroke="#000000" stroke-width="4.58333" stroke-linecap="round" stroke-linejoin="round" stroke-miterlimit="10"/><rect x="1054.5" y="2023.5" width="154" height="73.9999" stroke="#000000" stroke-width="4.58333" stroke-linecap="round" stroke-linejoin="round" stroke-miterlimit="10"/><rect x="977.5" y="1946.5" width="154" height="76" stroke="#000000" stroke-width="4.58333" stroke-linecap="round" stroke-linejoin="round" stroke-miterlimit="10"/><path d="M669 1636 669 2250.28" stroke="#61CBF4" stroke-width="2.29167" stroke-linecap="round" stroke-linejoin="round" stroke-miterlimit="10" stroke-dasharray="16.0417 9.16667" fill="none" fill-rule="evenodd"/><path d="M746 1636 746 2250.28" stroke="#61CBF4" stroke-width="2.29167" stroke-linecap="round" stroke-linejoin="round" stroke-miterlimit="10" stroke-dasharray="16.0417 9.16667" fill="none" fill-rule="evenodd"/><path d="M823 1636 823 2250.28" stroke="#61CBF4" stroke-width="2.29167" stroke-linecap="round" stroke-linejoin="round" stroke-miterlimit="10" stroke-dasharray="16.0417 9.16667" fill="none" fill-rule="evenodd"/><path d="M900 1636 900 2250.28" stroke="#61CBF4" stroke-width="2.29167" stroke-linecap="round" stroke-linejoin="round" stroke-miterlimit="10" stroke-dasharray="16.0417 9.16667" fill="none" fill-rule="evenodd"/><path d="M977 1636 977 2250.28" stroke="#61CBF4" stroke-width="2.29167" stroke-linecap="round" stroke-linejoin="round" stroke-miterlimit="10" stroke-dasharray="16.0417 9.16667" fill="none" fill-rule="evenodd"/><path d="M1054 1636 1054 2250.28" stroke="#61CBF4" stroke-width="2.29167" stroke-linecap="round" stroke-linejoin="round" stroke-miterlimit="10" stroke-dasharray="16.0417 9.16667" fill="none" fill-rule="evenodd"/><path d="M1131 1636 1131 2250.28" stroke="#61CBF4" stroke-width="2.29167" stroke-linecap="round" stroke-linejoin="round" stroke-miterlimit="10" stroke-dasharray="16.0417 9.16667" fill="none" fill-rule="evenodd"/><path d="M1208 1636 1208 2250.28" stroke="#61CBF4" stroke-width="2.29167" stroke-linecap="round" stroke-linejoin="round" stroke-miterlimit="10" stroke-dasharray="16.0417 9.16667" fill="none" fill-rule="evenodd"/><path d="M1285 1636 1285 2250.28" stroke="#61CBF4" stroke-width="2.29167" stroke-linecap="round" stroke-linejoin="round" stroke-miterlimit="10" stroke-dasharray="16.0417 9.16667" fill="none" fill-rule="evenodd"/><path d="M1362 1636 1362 2250.28" stroke="#61CBF4" stroke-width="2.29167" stroke-linecap="round" stroke-linejoin="round" stroke-miterlimit="10" stroke-dasharray="16.0417 9.16667" fill="none" fill-rule="evenodd"/><path d="M1439 1636 1439 2250.28" stroke="#61CBF4" stroke-width="2.29167" stroke-linecap="round" stroke-linejoin="round" stroke-miterlimit="10" stroke-dasharray="16.0417 9.16667" fill="none" fill-rule="evenodd"/><path d="M1516 1636 1516 2250.28" stroke="#61CBF4" stroke-width="2.29167" stroke-linecap="round" stroke-linejoin="round" stroke-miterlimit="10" stroke-dasharray="16.0417 9.16667" fill="none" fill-rule="evenodd"/><path d="M603 1636 1586.35 1636" stroke="#0F9ED5" stroke-width="2.29167" stroke-linecap="round" stroke-linejoin="round" stroke-miterlimit="10" stroke-dasharray="16.0417 9.16667" fill="none" fill-rule="evenodd"/><path d="M603 1713 1586.35 1713" stroke="#0F9ED5" stroke-width="2.29167" stroke-linecap="round" stroke-linejoin="round" stroke-miterlimit="10" stroke-dasharray="16.0417 9.16667" fill="none" fill-rule="evenodd"/><path d="M603 1790 1586.35 1790" stroke="#0F9ED5" stroke-width="2.29167" stroke-linecap="round" stroke-linejoin="round" stroke-miterlimit="10" stroke-dasharray="16.0417 9.16667" fill="none" fill-rule="evenodd"/><path d="M603 1867 1586.35 1867" stroke="#0F9ED5" stroke-width="2.29167" stroke-linecap="round" stroke-linejoin="round" stroke-miterlimit="10" stroke-dasharray="16.0417 9.16667" fill="none" fill-rule="evenodd"/><path d="M603 1944 1586.35 1944" stroke="#0F9ED5" stroke-width="2.29167" stroke-linecap="round" stroke-linejoin="round" stroke-miterlimit="10" stroke-dasharray="16.0417 9.16667" fill="none" fill-rule="evenodd"/><path d="M603 2021 1586.35 2021" stroke="#0F9ED5" stroke-width="2.29167" stroke-linecap="round" stroke-linejoin="round" stroke-miterlimit="10" stroke-dasharray="16.0417 9.16667" fill="none" fill-rule="evenodd"/><path d="M603 2098 1586.35 2098" stroke="#0F9ED5" stroke-width="2.29167" stroke-linecap="round" stroke-linejoin="round" stroke-miterlimit="10" stroke-dasharray="16.0417 9.16667" fill="none" fill-rule="evenodd"/><path d="M603 2175 1586.35 2175" stroke="#0F9ED5" stroke-width="2.29167" stroke-linecap="round" stroke-linejoin="round" stroke-miterlimit="10" stroke-dasharray="16.0417 9.16667" fill="none" fill-rule="evenodd"/><path d="M603 2252 1586.35 2252" stroke="#0F9ED5" stroke-width="2.29167" stroke-linecap="round" stroke-linejoin="round" stroke-miterlimit="10" stroke-dasharray="16.0417 9.16667" fill="none" fill-rule="evenodd"/><rect x="669" y="1636" width="308" height="618" stroke="#00B050" stroke-width="13.75" stroke-linecap="round" stroke-linejoin="round" stroke-miterlimit="10" fill="none"/><rect x="1210" y="1636" width="308" height="618" stroke="#E97132" stroke-width="13.75" stroke-linecap="round" stroke-linejoin="round" stroke-miterlimit="10" fill="none"/><path d="M-2.2174 102.121-1.34766 96.7714C-1.32396 96.6255-1.28617 96.4822-1.23489 96.3437L0.717494 91.0685C0.762702 90.9464 0.818244 90.8283 0.883511 90.7156L3.89149 85.521C3.94661 85.4258 4.00848 85.3347 4.07669 85.2484L8.1132 80.1408 13.3326 74.9232 19.5113 69.8588 26.6188 64.9397 34.6284 60.1613 43.515 55.522 53.2537 51.0229 63.8198 46.6663 75.1882 42.4562 87.3333 38.3968 100.23 34.4934 113.851 30.7513 128.171 27.1763 143.165 23.7741 158.804 20.5509 175.064 17.5127 191.916 14.6658 209.335 12.0163 227.294 9.57053 245.766 7.33487 264.724 5.31562 284.141 3.51916 303.991 1.95186 324.246 0.620115 344.88-0.469679 387.161-1.89731 430.648-2.28089 473.638-1.60127 515.35 0.0947006 535.679 1.30867 555.596 2.75693 575.092 4.43377 594.141 6.33282 612.717 8.44774 630.795 10.7722 648.349 13.2998 665.353 16.0244 681.783 18.9396 697.612 22.0392 712.816 25.3171 727.368 28.767 741.245 32.383 754.42 36.1591 766.869 40.0896 778.568 44.1688 789.49 48.3914 799.613 52.7527 808.912 57.2483 817.364 61.8749 824.944 66.6303 831.629 71.5144 837.396 76.5293C837.585 76.6939 837.745 76.8884 837.871 77.1049L840.879 82.2777C841.515 83.3719 841.144 84.7746 840.05 85.4108 838.956 86.047 837.553 85.6758 836.917 84.5817L833.909 79.4089 834.384 79.9845 828.923 75.2134 822.506 70.5118 815.161 65.8945 806.917 61.3743 797.799 56.9617 787.837 52.6662 777.058 48.4964 765.489 44.4602 753.157 40.565 740.089 36.8182 726.311 33.2267 711.85 29.7974 696.731 26.5371 680.982 23.4524 664.628 20.55 647.696 17.8364 630.211 15.3181 612.199 13.0016 593.687 10.8935 574.7 9.00024 555.264 7.3282 535.405 5.88384 515.164 4.67425 473.565 2.98149 430.689 2.30226 387.316 2.68341 345.121 4.10728 324.547 5.19358 304.351 6.52098 284.563 8.08301 265.209 9.87318 246.316 11.885 227.912 14.1119 210.024 16.5475 192.68 19.1851 175.905 22.0181 159.729 25.0399 144.179 28.2439 129.281 31.6232 115.065 35.171 101.557 38.8803 88.7858 42.7439 76.7794 46.7544 65.5662 50.9039 55.1749 55.1841 45.6346 59.5858 36.9745 64.0987 29.2239 68.7107 22.4119 73.4076 16.5658 78.1718 11.7092 82.9826 7.67264 88.0903 7.85784 87.8177 4.84986 93.0123 5.01588 92.6594 3.06349 97.9346 3.17627 97.5069 2.30653 102.856C2.10342 104.105 0.926046 104.953-0.323203 104.75-1.57245 104.547-2.42051 103.37-2.2174 102.121ZM849.219 73.2545 849 104 824.536 85.3768Z" transform="matrix(1 -1.22465e-16 -1.22465e-16 -1 667.5 2383.5)"/><path d="M-1.69581 44.7684-0.00854793 39.7003C0.0406433 39.5525 0.104828 39.41 0.182899 39.2753L3.00799 34.3993C3.07366 34.2859 3.14903 34.1783 3.23307 34.0778L7.13186 29.4167 12.2638 24.7611 18.3236 20.4328 25.2428 16.4347 32.9585 12.775 41.4098 9.46666 50.5358 6.52579 60.2755 3.97083 70.5675 1.82166 81.3497 0.0991457 92.56-1.1752 104.136-1.9794 116.014-2.29112 128.132-2.08777 139.406-1.42477 150.299-0.328263 160.768 1.18017 170.766 3.07915 180.249 5.34763 189.17 7.96498 197.484 10.9112 205.147 14.1673 212.113 17.7155 218.339 21.54C218.524 21.6541 218.692 21.794 218.838 21.9554L224.989 28.7662C225.837 29.7054 225.763 31.1546 224.824 32.0029 223.885 32.8512 222.436 32.7774 221.587 31.8382L215.436 25.0274 215.936 25.4428 210.03 21.7981 203.352 18.3847 195.952 15.2307 187.878 12.3625 179.182 9.80491 169.91 7.5818 160.113 5.71652 149.839 4.23194 139.136 3.15061 128.054 2.4949 116.134 2.29066 104.453 2.59297 93.0768 3.37891 82.0717 4.62526 71.5031 6.30848 61.437 8.40456 51.9396 10.8888 43.0779 13.7356 34.9191 16.9179 27.5307 20.4062 20.9799 24.1679 15.3322 28.1658 10.6475 32.3573 6.7487 37.0184 6.97378 36.697 4.14868 41.573 4.34013 41.148 2.65287 46.2161C2.25309 47.417 0.955515 48.0664-0.245339 47.6666-1.44619 47.2668-2.09559 45.9692-1.69581 44.7684ZM232.765 19.3354 235 50 209.127 33.3898Z" transform="matrix(1 -1.22465e-16 -1.22465e-16 -1 973.5 2328.5)"/><text font-family="Noto Sans JP,Noto Sans JP_MSFontService,sans-serif" font-weight="400" font-size="41" transform="matrix(1 0 0 1 864.851 2431)">copy </text><text font-family="Noto Sans JP,Noto Sans JP_MSFontService,sans-serif" font-weight="400" font-size="41" transform="matrix(1 0 0 1 967.976 2431)">with byte</text><text font-family="Noto Sans JP,Noto Sans JP_MSFontService,sans-serif" font-weight="400" font-size="41" transform="matrix(1 0 0 1 1147.87 2431)">-</text><text font-family="Noto Sans JP,Noto Sans JP_MSFontService,sans-serif" font-weight="400" font-size="41" transform="matrix(1 0 0 1 1162.19 2431)">reversal</text><text font-family="Noto Sans JP,Noto Sans JP_MSFontService,sans-serif" font-weight="400" font-size="41" transform="matrix(1 0 0 1 1315.74 2431)"> </text><path d="M1210.79 1476.5 1210.79 1507.49C1210.79 1508.75 1209.77 1509.78 1208.5 1509.78 1207.23 1509.78 1206.21 1508.75 1206.21 1507.49L1206.21 1476.5C1206.21 1475.23 1207.23 1474.21 1208.5 1474.21 1209.77 1474.21 1210.79 1475.23 1210.79 1476.5ZM1222.25 1502.9 1208.5 1530.4 1194.75 1502.9Z"/><text font-family="Noto Sans JP,Noto Sans JP_MSFontService,sans-serif" font-weight="400" font-size="41" transform="matrix(1 0 0 1 1104 1411)">current</text><text font-family="Noto Sans JP,Noto Sans JP_MSFontService,sans-serif" font-weight="400" font-size="41" transform="matrix(1 0 0 1 1246.08 1411)"> </text><text font-family="Noto Sans JP,Noto Sans JP_MSFontService,sans-serif" font-weight="400" font-size="41" transform="matrix(1 0 0 1 1029.24 1460)">cursor position</text><text font-family="Noto Sans JP,Noto Sans JP_MSFontService,sans-serif" font-weight="400" font-size="41" transform="matrix(1 0 0 1 1320.86 1460)"> </text><path d="M973.5 1548.5 973.5 1617.71" stroke="#000000" stroke-width="4.58333" stroke-linecap="round" stroke-linejoin="round" stroke-miterlimit="10" fill="none" fill-rule="evenodd"/><path d="M1208.5 1548.5 1208.5 1617.71" stroke="#000000" stroke-width="4.58333" stroke-linecap="round" stroke-linejoin="round" stroke-miterlimit="10" fill="none" fill-rule="evenodd"/><path d="M1516.5 1548.5 1516.5 1617.71" stroke="#000000" stroke-width="4.58333" stroke-linecap="round" stroke-linejoin="round" stroke-miterlimit="10" fill="none" fill-rule="evenodd"/><path d="M667.5 1548.5 667.5 1617.71" stroke="#000000" stroke-width="4.58333" stroke-linecap="round" stroke-linejoin="round" stroke-miterlimit="10" fill="none" fill-rule="evenodd"/><path d="M1517.79 1476.5 1517.79 1507.49C1517.79 1508.75 1516.77 1509.78 1515.5 1509.78 1514.23 1509.78 1513.21 1508.75 1513.21 1507.49L1513.21 1476.5C1513.21 1475.23 1514.23 1474.21 1515.5 1474.21 1516.77 1474.21 1517.79 1475.23 1517.79 1476.5ZM1529.25 1502.9 1515.5 1530.4 1501.75 1502.9Z"/><text font-family="Noto Sans JP,Noto Sans JP_MSFontService,sans-serif" font-weight="400" font-size="41" transform="matrix(1 0 0 1 1474.61 1411)">new</text><text font-family="Noto Sans JP,Noto Sans JP_MSFontService,sans-serif" font-weight="400" font-size="41" transform="matrix(1 0 0 1 1555.96 1411)"> </text><text font-family="Noto Sans JP,Noto Sans JP_MSFontService,sans-serif" font-weight="400" font-size="41" transform="matrix(1 0 0 1 1369.49 1460)">cursor position</text><text font-family="Noto Sans JP,Noto Sans JP_MSFontService,sans-serif" font-weight="400" font-size="41" transform="matrix(1 0 0 1 1661.11 1460)"> </text><path d="M22.9166-2.29164 284.675-2.29133C285.94-2.29133 286.967-1.26532 286.967 0.000336693 286.967 1.26599 285.94 2.292 284.675 2.292L22.9166 2.29169C21.651 2.29169 20.625 1.26568 20.625 2.4199e-05 20.625-1.26563 21.651-2.29164 22.9166-2.29164ZM27.5 13.75 0 0 27.5-13.75ZM280.091-13.7497 307.591 0.000360892 280.091 13.7503Z" transform="matrix(-1 0 0 1 1516.09 1571.5)"/><text font-family="Noto Sans JP,Noto Sans JP_MSFontService,sans-serif" font-weight="400" font-size="41" transform="matrix(1 0 0 1 1299.63 1557)">length</text><text font-family="Noto Sans JP,Noto Sans JP_MSFontService,sans-serif" font-weight="400" font-size="41" transform="matrix(1 0 0 1 1423.38 1557)"> </text><path d="M1000.42 1569.21 1183.98 1569.21C1185.25 1569.21 1186.28 1570.23 1186.28 1571.5 1186.28 1572.77 1185.25 1573.79 1183.98 1573.79L1000.42 1573.79C999.151 1573.79 998.125 1572.77 998.125 1571.5 998.125 1570.23 999.151 1569.21 1000.42 1569.21ZM1005 1585.25 977.5 1571.5 1005 1557.75ZM1179.4 1557.75 1206.9 1571.5 1179.4 1585.25Z"/><text font-family="Noto Sans JP,Noto Sans JP_MSFontService,sans-serif" font-weight="400" font-size="41" transform="matrix(1 0 0 1 1036.69 1557)">offset</text><text font-family="Noto Sans JP,Noto Sans JP_MSFontService,sans-serif" font-weight="400" font-size="41" transform="matrix(1 0 0 1 1146.12 1557)"> </text><path d="M22.9166-2.29164 281.834-2.29133C283.1-2.29133 284.126-1.26532 284.126 0.000336468 284.126 1.26599 283.1 2.292 281.834 2.292L22.9166 2.29169C21.651 2.29169 20.625 1.26568 20.625 2.44245e-05 20.625-1.26563 21.651-2.29164 22.9166-2.29164ZM27.5 13.75 0 0 27.5-13.75ZM277.251-13.7497 304.751 0.000360892 277.251 13.7503Z" transform="matrix(-1 0 0 1 972.251 1571.5)"/><text font-family="Noto Sans JP,Noto Sans JP_MSFontService,sans-serif" font-weight="400" font-size="41" transform="matrix(1 0 0 1 757.032 1557)">length</text><text font-family="Noto Sans JP,Noto Sans JP_MSFontService,sans-serif" font-weight="400" font-size="41" transform="matrix(1 0 0 1 880.782 1557)"> </text></g></svg>