<svg width="2021" height="1072" xmlns="http://www.w3.org/2000/svg" xmlns:xlink="http://www.w3.org/1999/xlink" xml:space="preserve" overflow="hidden"><g transform="translate(-2224 -1345)"><rect x="2224" y="1345" width="2021" height="1072" fill="#FFFFFF"/><rect x="2617" y="1996" width="295" height="331" fill="#BFBFBF"/><rect x="3305.5" y="2069.5" width="150" height="156" stroke="#000000" stroke-width="4.58333" stroke-linecap="round" stroke-linejoin="round" stroke-miterlimit="10"/><rect x="3382.5" y="1916.5" width="150" height="154" stroke="#000000" stroke-width="4.58333" stroke-linecap="round" stroke-linejoin="round" stroke-miterlimit="10"/><rect x="3459.5" y="1763.5" width="151" height="151" stroke="#000000" stroke-width="4.58333" stroke-linecap="round" stroke-linejoin="round" stroke-miterlimit="10"/><rect x="3537.5" y="1608.5" width="231" height="156" stroke="#000000" stroke-width="4.58333" stroke-linecap="round" stroke-linejoin="round" stroke-miterlimit="10"/><rect x="3692.5" y="1763.5" width="150" height="151" stroke="#000000" stroke-width="4.58333" stroke-linecap="round" stroke-linejoin="round" stroke-miterlimit="10"/><rect x="3770.5" y="1914.5" width="150" height="155" stroke="#000000" stroke-width="4.58333" stroke-linecap="round" stroke-linejoin="round" stroke-miterlimit="10"/><rect x="3847.5" y="2068.5" width="150" height="156" stroke="#000000" stroke-width="4.58333" stroke-linecap="round" stroke-linejoin="round" stroke-miterlimit="10"/><rect x="3530.5" y="1992.5" width="239" height="77.0001" stroke="#000000" stroke-width="4.58333" stroke-linecap="round" stroke-linejoin="round" stroke-miterlimit="10"/><path d="M3229 1607 3229 2221.28" stroke="#61CBF4" stroke-width="2.29167" stroke-linecap="round" stroke-linejoin="round" stroke-miterlimit="10" stroke-dasharray="16.0417 9.16667" fill="none" fill-rule="evenodd"/><path d="M3306 1607 3306 2221.28" stroke="#61CBF4" stroke-width="2.29167" stroke-linecap="round" stroke-linejoin="round" stroke-miterlimit="10" stroke-dasharray="16.0417 9.16667" fill="none" fill-rule="evenodd"/><path d="M3383 1607 3383 2221.28" stroke="#61CBF4" stroke-width="2.29167" stroke-linecap="round" stroke-linejoin="round" stroke-miterlimit="10" stroke-dasharray="16.0417 9.16667" fill="none" fill-rule="evenodd"/><path d="M3460 1607 3460 2221.28" stroke="#61CBF4" stroke-width="2.29167" stroke-linecap="round" stroke-linejoin="round" stroke-miterlimit="10" stroke-dasharray="16.0417 9.16667" fill="none" fill-rule="evenodd"/><path d="M3537 1607 3537 2221.28" stroke="#61CBF4" stroke-width="2.29167" stroke-linecap="round" stroke-linejoin="round" stroke-miterlimit="10" stroke-dasharray="16.0417 9.16667" fill="none" fill-rule="evenodd"/><path d="M3614 1607 3614 2221.28" stroke="#61CBF4" stroke-width="2.29167" stroke-linecap="round" stroke-linejoin="round" stroke-miterlimit="10" stroke-dasharray="16.0417 9.16667" fill="none" fill-rule="evenodd"/><path d="M3691 1607 3691 2221.28" stroke="#61CBF4" stroke-width="2.29167" stroke-linecap="round" stroke-linejoin="round" stroke-miterlimit="10" stroke-dasharray="16.0417 9.16667" fill="none" fill-rule="evenodd"/><path d="M3768 1607 3768 2221.28" stroke="#61CBF4" stroke-width="2.29167" stroke-linecap="round" stroke-linejoin="round" stroke-miterlimit="10" stroke-dasharray="16.0417 9.16667" fill="none" fill-rule="evenodd"/><path d="M3845 1607 3845 2221.28" stroke="#61CBF4" stroke-width="2.29167" stroke-linecap="round" stroke-linejoin="round" stroke-miterlimit="10" stroke-dasharray="16.0417 9.16667" fill="none" fill-rule="evenodd"/><path d="M3922 1607 3922 2221.28" stroke="#61CBF4" stroke-width="2.29167" stroke-linecap="round" stroke-linejoin="round" stroke-miterlimit="10" stroke-dasharray="16.0417 9.16667" fill="none" fill-rule="evenodd"/><path d="M3999 1607 3999 2221.28" stroke="#61CBF4" stroke-width="2.29167" stroke-linecap="round" stroke-linejoin="round" stroke-miterlimit="10" stroke-dasharray="16.0417 9.16667" fill="none" fill-rule="evenodd"/><path d="M3163 1607 4060.76 1607" stroke="#0F9ED5" stroke-width="2.29167" stroke-linecap="round" stroke-linejoin="round" stroke-miterlimit="10" stroke-dasharray="16.0417 9.16667" fill="none" fill-rule="evenodd"/><path d="M3163 1684 4060.76 1684" stroke="#0F9ED5" stroke-width="2.29167" stroke-linecap="round" stroke-linejoin="round" stroke-miterlimit="10" stroke-dasharray="16.0417 9.16667" fill="none" fill-rule="evenodd"/><path d="M3163 1761 4060.76 1761" stroke="#0F9ED5" stroke-width="2.29167" stroke-linecap="round" stroke-linejoin="round" stroke-miterlimit="10" stroke-dasharray="16.0417 9.16667" fill="none" fill-rule="evenodd"/><path d="M3163 1838 4060.76 1838" stroke="#0F9ED5" stroke-width="2.29167" stroke-linecap="round" stroke-linejoin="round" stroke-miterlimit="10" stroke-dasharray="16.0417 9.16667" fill="none" fill-rule="evenodd"/><path d="M3163 1915 4060.76 1915" stroke="#0F9ED5" stroke-width="2.29167" stroke-linecap="round" stroke-linejoin="round" stroke-miterlimit="10" stroke-dasharray="16.0417 9.16667" fill="none" fill-rule="evenodd"/><path d="M3163 1992 4060.76 1992" stroke="#0F9ED5" stroke-width="2.29167" stroke-linecap="round" stroke-linejoin="round" stroke-miterlimit="10" stroke-dasharray="16.0417 9.16667" fill="none" fill-rule="evenodd"/><path d="M3163 2069 4060.76 2069" stroke="#0F9ED5" stroke-width="2.29167" stroke-linecap="round" stroke-linejoin="round" stroke-miterlimit="10" stroke-dasharray="16.0417 9.16667" fill="none" fill-rule="evenodd"/><path d="M3163 2146 4060.76 2146" stroke="#0F9ED5" stroke-width="2.29167" stroke-linecap="round" stroke-linejoin="round" stroke-miterlimit="10" stroke-dasharray="16.0417 9.16667" fill="none" fill-rule="evenodd"/><path d="M3163 2223 4060.76 2223" stroke="#0F9ED5" stroke-width="2.29167" stroke-linecap="round" stroke-linejoin="round" stroke-miterlimit="10" stroke-dasharray="16.0417 9.16667" fill="none" fill-rule="evenodd"/><text font-family="Noto Sans JP,Noto Sans JP_MSFontService,sans-serif" font-weight="400" font-size="41" transform="matrix(1 0 0 1 3108.03 1455)">current</text><text font-family="Noto Sans JP,Noto Sans JP_MSFontService,sans-serif" font-weight="400" font-size="41" transform="matrix(1 0 0 1 3250.12 1455)"> </text><text font-family="Noto Sans JP,Noto Sans JP_MSFontService,sans-serif" font-weight="400" font-size="41" transform="matrix(1 0 0 1 3033.28 1504)">cursor position</text><text font-family="Noto Sans JP,Noto Sans JP_MSFontService,sans-serif" font-weight="400" font-size="41" transform="matrix(1 0 0 1 3324.89 1504)"> </text><path d="M2.04973-1.02486 27.8947 50.665C28.4607 51.797 28.0018 53.1736 26.8698 53.7396 25.7378 54.3056 24.3612 53.8467 23.7952 52.7147L-2.04973 1.02486C-2.61575-0.10717-2.1569-1.48371-1.02486-2.04973 0.10717-2.61575 1.48371-2.1569 2.04973-1.02486ZM36.0936 41.4412 36.0936 72.1871 11.4968 53.7396Z" transform="matrix(-1 0 0 1 3496.59 1521.5)"/><text font-family="Noto Sans JP,Noto Sans JP_MSFontService,sans-serif" font-weight="400" font-size="41" transform="matrix(1 0 0 1 3555.99 1453)">new</text><text font-family="Noto Sans JP,Noto Sans JP_MSFontService,sans-serif" font-weight="400" font-size="41" transform="matrix(1 0 0 1 3637.34 1453)"> </text><text font-family="Noto Sans JP,Noto Sans JP_MSFontService,sans-serif" font-weight="400" font-size="41" transform="matrix(1 0 0 1 3450.87 1502)">cursor position</text><text font-family="Noto Sans JP,Noto Sans JP_MSFontService,sans-serif" font-weight="400" font-size="41" transform="matrix(1 0 0 1 3742.49 1502)"> </text><rect x="3306.5" y="1607.5" width="152" height="615" stroke="#E97132" stroke-width="9.16667" stroke-linecap="round" stroke-linejoin="round" stroke-miterlimit="10" fill="none"/><text font-family="Noto Sans JP,Noto Sans JP_MSFontService,sans-serif" font-weight="400" font-size="41" transform="matrix(1 0 0 1 2634.04 1498)">Lookup Table</text><text font-family="Noto Sans JP,Noto Sans JP_MSFontService,sans-serif" font-weight="400" font-size="41" transform="matrix(1 0 0 1 2897.58 1498)"> </text><rect x="0" y="0" width="36.9998" height="38.9998" transform="matrix(-1 0 0 1 2913 1520)"/><rect x="0" y="0" width="36.0001" height="38.9998" fill="#FFFFFF" transform="matrix(-1 0 0 1 2876 1520)"/><rect x="0" y="0" width="37.0001" height="38.9998" fill="#FFFFFF" transform="matrix(-1 0 0 1 2840 1520)"/><rect x="0" y="0" width="36.9998" height="38.9998" transform="matrix(-1 0 0 1 2803 1520)"/><rect x="0" y="0" width="37.0001" height="38.9998" transform="matrix(-1 0 0 1 2766 1520)"/><rect x="0" y="0" width="37.0001" height="38.9998" fill="#FFFFFF" transform="matrix(-1 0 0 1 2729 1520)"/><rect x="0" y="0" width="36.9998" height="38.9998" fill="#FFFFFF" transform="matrix(-1 0 0 1 2692 1520)"/><rect x="0" y="0" width="37.0001" height="38.9998" transform="matrix(-1 0 0 1 2655 1520)"/><rect x="0" y="0" width="36.9998" height="40.0002" transform="matrix(-1 0 0 1 2913 1559)"/><rect x="0" y="0" width="36.0001" height="40.0002" transform="matrix(-1 0 0 1 2876 1559)"/><rect x="0" y="0" width="37.0001" height="40.0002" fill="#FFFFFF" transform="matrix(-1 0 0 1 2840 1559)"/><rect x="0" y="0" width="36.9998" height="40.0002" transform="matrix(-1 0 0 1 2803 1559)"/><rect x="0" y="0" width="37.0001" height="40.0002" fill="#FFFFFF" transform="matrix(-1 0 0 1 2766 1559)"/><rect x="0" y="0" width="37.0001" height="40.0002" fill="#FFFFFF" transform="matrix(-1 0 0 1 2729 1559)"/><rect x="0" y="0" width="36.9998" height="40.0002" transform="matrix(-1 0 0 1 2692 1559)"/><rect x="0" y="0" width="37.0001" height="40.0002" fill="#FFFFFF" transform="matrix(-1 0 0 1 2655 1559)"/><rect x="0" y="0" width="36.9998" height="38.9998" transform="matrix(-1 0 0 1 2913 1599)"/><rect x="0" y="0" width="36.0001" height="38.9998" fill="#FFFFFF" transform="matrix(-1 0 0 1 2876 1599)"/><rect x="0" y="0" width="37.0001" height="38.9998" transform="matrix(-1 0 0 1 2840 1599)"/><rect x="0" y="0" width="36.9998" height="38.9998" fill="#FFFFFF" transform="matrix(-1 0 0 1 2803 1599)"/><rect x="0" y="0" width="37.0001" height="38.9998" transform="matrix(-1 0 0 1 2766 1599)"/><rect x="0" y="0" width="37.0001" height="38.9998" transform="matrix(-1 0 0 1 2729 1599)"/><rect x="0" y="0" width="36.9998" height="38.9998" transform="matrix(-1 0 0 1 2692 1599)"/><rect x="0" y="0" width="37.0001" height="38.9998" fill="#FFFFFF" transform="matrix(-1 0 0 1 2655 1599)"/><rect x="0" y="0" width="36.9998" height="38.9998" transform="matrix(-1 0 0 1 2913 2290)"/><rect x="0" y="0" width="36.0001" height="38.9998" transform="matrix(-1 0 0 1 2876 2290)"/><rect x="0" y="0" width="37.0001" height="38.9998" transform="matrix(-1 0 0 1 2840 2290)"/><rect x="0" y="0" width="37.0001" height="38.9998" transform="matrix(-1 0 0 1 2766 2290)"/><rect x="0" y="0" width="36.9998" height="38.9998" transform="matrix(-1 0 0 1 2692 2290)"/><rect x="0" y="0" width="37.0001" height="38.9998" transform="matrix(-1 0 0 1 2655 2290)"/><rect x="0" y="0" width="36.9998" height="40.0002" transform="matrix(-1 0 0 1 2913 2250)"/><rect x="0" y="0" width="37.0001" height="40.0002" transform="matrix(-1 0 0 1 2766 2250)"/><rect x="0" y="0" width="36.9998" height="40.0002" transform="matrix(-1 0 0 1 2692 2250)"/><rect x="0" y="0" width="36.0001" height="39.9999" transform="matrix(-1 0 0 1 2876 2212)"/><rect x="0" y="0" width="37.0001" height="39.9999" transform="matrix(-1 0 0 1 2840 2212)"/><rect x="0" y="0" width="37.0001" height="39.9999" transform="matrix(-1 0 0 1 2766 2212)"/><rect x="0" y="0" width="37.0001" height="39.9999" transform="matrix(-1 0 0 1 2729 2212)"/><rect x="0" y="0" width="37.0001" height="39.9999" transform="matrix(-1 0 0 1 2655 2212)"/><rect x="0" y="0" width="36.9998" height="38.9998" fill="#FFFFFF" transform="matrix(-1 0 0 1 2913 1752)"/><rect x="0" y="0" width="36.0001" height="38.9998" fill="#FFFFFF" transform="matrix(-1 0 0 1 2876 1752)"/><rect x="0" y="0" width="37.0001" height="38.9998" fill="#FFFFFF" transform="matrix(-1 0 0 1 2840 1752)"/><rect x="0" y="0" width="36.9998" height="38.9998" fill="#FFFFFF" transform="matrix(-1 0 0 1 2803 1752)"/><rect x="0" y="0" width="37.0001" height="38.9998" fill="#FFFFFF" transform="matrix(-1 0 0 1 2766 1752)"/><rect x="0" y="0" width="37.0001" height="38.9998" fill="#FFFFFF" transform="matrix(-1 0 0 1 2729 1752)"/><rect x="0" y="0" width="36.9998" height="38.9998" transform="matrix(-1 0 0 1 2692 1752)"/><rect x="0" y="0" width="37.0001" height="38.9998" transform="matrix(-1 0 0 1 2655 1752)"/><path d="M0 0 295.168 0.000360892" stroke="#0F9ED5" stroke-width="2.29167" stroke-linecap="round" stroke-linejoin="round" stroke-miterlimit="10" stroke-dasharray="16.0417 9.16667" fill="none" fill-rule="evenodd" transform="matrix(-1 0 0 1 2913.17 1559)"/><path d="M0 0 295.168 0.000360892" stroke="#0F9ED5" stroke-width="2.29167" stroke-linecap="round" stroke-linejoin="round" stroke-miterlimit="10" stroke-dasharray="16.0417 9.16667" fill="none" fill-rule="evenodd" transform="matrix(-1 0 0 1 2913.17 1598)"/><path d="M0 0 295.168 0.000360892" stroke="#0F9ED5" stroke-width="2.29167" stroke-linecap="round" stroke-linejoin="round" stroke-miterlimit="10" stroke-dasharray="16.0417 9.16667" fill="none" fill-rule="evenodd" transform="matrix(-1 0 0 1 2913.17 1637)"/><path d="M0 0 295.168 0.000360892" stroke="#0F9ED5" stroke-width="2.29167" stroke-linecap="round" stroke-linejoin="round" stroke-miterlimit="10" stroke-dasharray="16.0417 9.16667" fill="none" fill-rule="evenodd" transform="matrix(-1 0 0 1 2913.17 2212)"/><path d="M0 0 295.168 0.000360892" stroke="#0F9ED5" stroke-width="2.29167" stroke-linecap="round" stroke-linejoin="round" stroke-miterlimit="10" stroke-dasharray="16.0417 9.16667" fill="none" fill-rule="evenodd" transform="matrix(-1 0 0 1 2913.17 2251)"/><path d="M0 0 295.168 0.000360892" stroke="#0F9ED5" stroke-width="2.29167" stroke-linecap="round" stroke-linejoin="round" stroke-miterlimit="10" stroke-dasharray="16.0417 9.16667" fill="none" fill-rule="evenodd" transform="matrix(-1 0 0 1 2913.17 2290)"/><path d="M0 0 0.000360892 145.235" stroke="#61CBF4" stroke-width="2.29167" stroke-linecap="round" stroke-linejoin="round" stroke-miterlimit="10" stroke-dasharray="16.0417 9.16667" fill="none" fill-rule="evenodd" transform="matrix(-1 0 0 1 2876 1521)"/><path d="M0 0 0.000360892 145.235" stroke="#61CBF4" stroke-width="2.29167" stroke-linecap="round" stroke-linejoin="round" stroke-miterlimit="10" stroke-dasharray="16.0417 9.16667" fill="none" fill-rule="evenodd" transform="matrix(-1 0 0 1 2839 1521)"/><path d="M0 0 0.000360892 145.235" stroke="#61CBF4" stroke-width="2.29167" stroke-linecap="round" stroke-linejoin="round" stroke-miterlimit="10" stroke-dasharray="16.0417 9.16667" fill="none" fill-rule="evenodd" transform="matrix(-1 0 0 1 2802 1521)"/><path d="M0 0 0.000360892 145.235" stroke="#61CBF4" stroke-width="2.29167" stroke-linecap="round" stroke-linejoin="round" stroke-miterlimit="10" stroke-dasharray="16.0417 9.16667" fill="none" fill-rule="evenodd" transform="matrix(-1 0 0 1 2765 1521)"/><path d="M0 0 0.000360892 145.235" stroke="#61CBF4" stroke-width="2.29167" stroke-linecap="round" stroke-linejoin="round" stroke-miterlimit="10" stroke-dasharray="16.0417 9.16667" fill="none" fill-rule="evenodd" transform="matrix(-1 0 0 1 2728 1521)"/><path d="M0 0 0.000360892 145.235" stroke="#61CBF4" stroke-width="2.29167" stroke-linecap="round" stroke-linejoin="round" stroke-miterlimit="10" stroke-dasharray="16.0417 9.16667" fill="none" fill-rule="evenodd" transform="matrix(-1 0 0 1 2691 1521)"/><path d="M0 0 0.000360892 145.235" stroke="#61CBF4" stroke-width="2.29167" stroke-linecap="round" stroke-linejoin="round" stroke-miterlimit="10" stroke-dasharray="16.0417 9.16667" fill="none" fill-rule="evenodd" transform="matrix(-1 0 0 1 2654 1521)"/><text font-family="Noto Sans JP,Noto Sans JP_MSFontService,sans-serif" font-weight="400" font-size="28" transform="matrix(1 0 0 1 2573.25 1549)">#0</text><text font-family="Noto Sans JP,Noto Sans JP_MSFontService,sans-serif" font-weight="400" font-size="28" transform="matrix(1 0 0 1 2604.19 1549)"> </text><text font-family="Noto Sans JP,Noto Sans JP_MSFontService,sans-serif" font-weight="400" font-size="28" transform="matrix(1 0 0 1 2573.25 1590)">#1</text><text font-family="Noto Sans JP,Noto Sans JP_MSFontService,sans-serif" font-weight="400" font-size="28" transform="matrix(1 0 0 1 2604.19 1590)"> </text><text font-family="Noto Sans JP,Noto Sans JP_MSFontService,sans-serif" font-weight="400" font-size="28" transform="matrix(1 0 0 1 2573.25 1628)">#2</text><text font-family="Noto Sans JP,Noto Sans JP_MSFontService,sans-serif" font-weight="400" font-size="28" transform="matrix(1 0 0 1 2604.19 1628)"> </text><text font-family="Noto Sans JP,Noto Sans JP_MSFontService,sans-serif" font-weight="400" font-size="28" transform="matrix(1 0 0 1 2557.78 2238)">#61</text><text font-family="Noto Sans JP,Noto Sans JP_MSFontService,sans-serif" font-weight="400" font-size="28" transform="matrix(1 0 0 1 2604.19 2238)"> </text><text font-family="Noto Sans JP,Noto Sans JP_MSFontService,sans-serif" font-weight="400" font-size="28" transform="matrix(1 0 0 1 2557.78 2280)">#62</text><text font-family="Noto Sans JP,Noto Sans JP_MSFontService,sans-serif" font-weight="400" font-size="28" transform="matrix(1 0 0 1 2604.19 2280)"> </text><text font-family="Noto Sans JP,Noto Sans JP_MSFontService,sans-serif" font-weight="400" font-size="28" transform="matrix(1 0 0 1 2557.78 2322)">#63</text><text font-family="Noto Sans JP,Noto Sans JP_MSFontService,sans-serif" font-weight="400" font-size="28" transform="matrix(1 0 0 1 2604.19 2322)"> </text><path d="M0 0 0.000360892 145.235" stroke="#61CBF4" stroke-width="2.29167" stroke-linecap="round" stroke-linejoin="round" stroke-miterlimit="10" stroke-dasharray="16.0417 9.16667" fill="none" fill-rule="evenodd" transform="matrix(-1 0 0 1 2876 2187)"/><path d="M0 0 0.000360892 145.235" stroke="#61CBF4" stroke-width="2.29167" stroke-linecap="round" stroke-linejoin="round" stroke-miterlimit="10" stroke-dasharray="16.0417 9.16667" fill="none" fill-rule="evenodd" transform="matrix(-1 0 0 1 2839 2187)"/><path d="M0 0 0.000360892 145.235" stroke="#61CBF4" stroke-width="2.29167" stroke-linecap="round" stroke-linejoin="round" stroke-miterlimit="10" stroke-dasharray="16.0417 9.16667" fill="none" fill-rule="evenodd" transform="matrix(-1 0 0 1 2802 2187)"/><path d="M0 0 0.000360892 145.235" stroke="#61CBF4" stroke-width="2.29167" stroke-linecap="round" stroke-linejoin="round" stroke-miterlimit="10" stroke-dasharray="16.0417 9.16667" fill="none" fill-rule="evenodd" transform="matrix(-1 0 0 1 2765 2187)"/><path d="M0 0 0.000360892 145.235" stroke="#61CBF4" stroke-width="2.29167" stroke-linecap="round" stroke-linejoin="round" stroke-miterlimit="10" stroke-dasharray="16.0417 9.16667" fill="none" fill-rule="evenodd" transform="matrix(-1 0 0 1 2728 2187)"/><path d="M0 0 0.000360892 145.235" stroke="#61CBF4" stroke-width="2.29167" stroke-linecap="round" stroke-linejoin="round" stroke-miterlimit="10" stroke-dasharray="16.0417 9.16667" fill="none" fill-rule="evenodd" transform="matrix(-1 0 0 1 2691 2187)"/><path d="M0 0 0.000360892 145.235" stroke="#61CBF4" stroke-width="2.29167" stroke-linecap="round" stroke-linejoin="round" stroke-miterlimit="10" stroke-dasharray="16.0417 9.16667" fill="none" fill-rule="evenodd" transform="matrix(-1 0 0 1 2654 2187)"/><text font-family="Noto Sans JP,Noto Sans JP_MSFontService,sans-serif" font-weight="400" font-size="41" transform="matrix(1 0 0 1 2497.92 1786)">index</text><text font-family="Noto Sans JP,Noto Sans JP_MSFontService,sans-serif" font-weight="400" font-size="41" transform="matrix(1 0 0 1 2603.91 1786)"> </text><path d="M3273.55 1520.47 3299.39 1572.16C3299.96 1573.3 3299.5 1574.67 3298.37 1575.24 3297.24 1575.81 3295.86 1575.35 3295.3 1574.21L3269.45 1522.52C3268.88 1521.39 3269.34 1520.02 3270.48 1519.45 3271.61 1518.88 3272.98 1519.34 3273.55 1520.47ZM3307.59 1562.94 3307.59 1593.69 3283 1575.24Z"/><path d="M2917.95 1806.25 3275.89 1877.75C3277.13 1878 3277.94 1879.21 3277.69 1880.45 3277.44 1881.69 3276.23 1882.5 3274.99 1882.25L2917.05 1810.75C2915.81 1810.5 2915 1809.29 2915.25 1808.05 2915.5 1806.81 2916.71 1806 2917.95 1806.25ZM3273.64 1865.62 3297.92 1884.49 3268.25 1892.59Z"/><text font-family="Noto Sans JP,Noto Sans JP_MSFontService,sans-serif" font-weight="400" font-size="41" transform="matrix(1 0 0 1 3020.5 1814)">copy</text><text font-family="Noto Sans JP,Noto Sans JP_MSFontService,sans-serif" font-weight="400" font-size="41" transform="matrix(1 0 0 1 3114.45 1814)"> </text><text font-family="Noto Sans JP,Noto Sans JP_MSFontService,sans-serif" font-weight="400" font-size="41" transform="matrix(1 0 0 1 3002.02 1639)">Near Bit</text><text font-family="Noto Sans JP,Noto Sans JP_MSFontService,sans-serif" font-weight="400" font-size="41" transform="matrix(1 0 0 1 3157.28 1639)"> </text><text font-family="Noto Sans JP,Noto Sans JP_MSFontService,sans-serif" font-weight="400" font-size="41" transform="matrix(1 0 0 1 3031.82 2198)">Far Bit</text><text font-family="Noto Sans JP,Noto Sans JP_MSFontService,sans-serif" font-weight="400" font-size="41" transform="matrix(1 0 0 1 3157.28 2198)"> </text><rect x="0" y="0" width="36.9998" height="39.0002" fill="#FFFFFF" transform="matrix(-1 0 0 1 2913 1790)"/><rect x="0" y="0" width="36.0001" height="39.0002" fill="#FFFFFF" transform="matrix(-1 0 0 1 2876 1790)"/><rect x="0" y="0" width="37.0001" height="39.0002" fill="#FFFFFF" transform="matrix(-1 0 0 1 2840 1790)"/><rect x="0" y="0" width="36.9998" height="39.0002" fill="#FFFFFF" transform="matrix(-1 0 0 1 2803 1790)"/><rect x="0" y="0" width="37.0001" height="39.0002" transform="matrix(-1 0 0 1 2766 1790)"/><rect x="0" y="0" width="37.0001" height="39.0002" transform="matrix(-1 0 0 1 2729 1790)"/><rect x="0" y="0" width="36.9998" height="39.0002" transform="matrix(-1 0 0 1 2692 1790)"/><rect x="0" y="0" width="37.0001" height="39.0002" transform="matrix(-1 0 0 1 2655 1790)"/><text font-family="Noto Sans JP,Noto Sans JP_MSFontService,sans-serif" font-weight="400" font-size="41" transform="matrix(1 0 0 1 2373.02 1826)">index + step</text><text font-family="Noto Sans JP,Noto Sans JP_MSFontService,sans-serif" font-weight="400" font-size="41" transform="matrix(1 0 0 1 2603.91 1826)"> </text><text font-family="Noto Sans JP,Noto Sans JP_MSFontService,sans-serif" font-weight="400" font-size="28" transform="matrix(1 0 0 1 2390.35 1872)">0 </text><text font-family="Noto Sans JP,Noto Sans JP_MSFontService,sans-serif" font-weight="400" font-size="28" transform="matrix(1 0 0 1 2412.12 1872)">≦ </text><text font-family="Noto Sans JP,Noto Sans JP_MSFontService,sans-serif" font-weight="400" font-size="28" transform="matrix(1 0 0 1 2445.92 1872)">index </text><text font-family="Noto Sans JP,Noto Sans JP_MSFontService,sans-serif" font-weight="400" font-size="28" transform="matrix(1 0 0 1 2522.69 1872)">≦ </text><text font-family="Noto Sans JP,Noto Sans JP_MSFontService,sans-serif" font-weight="400" font-size="28" transform="matrix(1 0 0 1 2556.5 1872)">15</text><text font-family="Noto Sans JP,Noto Sans JP_MSFontService,sans-serif" font-weight="400" font-size="28" transform="matrix(1 0 0 1 2587.43 1872)"> </text><text font-family="Noto Sans JP,Noto Sans JP_MSFontService,sans-serif" font-weight="400" font-size="28" transform="matrix(1 0 0 1 2411.55 1905)">step = 0 or 1</text><text font-family="Noto Sans JP,Noto Sans JP_MSFontService,sans-serif" font-weight="400" font-size="28" transform="matrix(1 0 0 1 2566.23 1905)"> </text><path d="M0 0 295.168 0.000360892" stroke="#0F9ED5" stroke-width="2.29167" stroke-linecap="round" stroke-linejoin="round" stroke-miterlimit="10" stroke-dasharray="16.0417 9.16667" fill="none" fill-rule="evenodd" transform="matrix(-1 0 0 1 2912.17 1788)"/><path d="M0 0 0.000360892 111.066" stroke="#61CBF4" stroke-width="2.29167" stroke-linecap="round" stroke-linejoin="round" stroke-miterlimit="10" stroke-dasharray="16.0417 9.16667" fill="none" fill-rule="evenodd" transform="matrix(-1 0 0 1 2876 1734)"/><path d="M0 0 0.000360892 111.066" stroke="#61CBF4" stroke-width="2.29167" stroke-linecap="round" stroke-linejoin="round" stroke-miterlimit="10" stroke-dasharray="16.0417 9.16667" fill="none" fill-rule="evenodd" transform="matrix(-1 0 0 1 2839 1734)"/><path d="M0 0 0.000360892 111.066" stroke="#61CBF4" stroke-width="2.29167" stroke-linecap="round" stroke-linejoin="round" stroke-miterlimit="10" stroke-dasharray="16.0417 9.16667" fill="none" fill-rule="evenodd" transform="matrix(-1 0 0 1 2802 1734)"/><path d="M0 0 0.000360892 111.066" stroke="#61CBF4" stroke-width="2.29167" stroke-linecap="round" stroke-linejoin="round" stroke-miterlimit="10" stroke-dasharray="16.0417 9.16667" fill="none" fill-rule="evenodd" transform="matrix(-1 0 0 1 2765 1734)"/><path d="M0 0 0.000360892 111.066" stroke="#61CBF4" stroke-width="2.29167" stroke-linecap="round" stroke-linejoin="round" stroke-miterlimit="10" stroke-dasharray="16.0417 9.16667" fill="none" fill-rule="evenodd" transform="matrix(-1 0 0 1 2728 1734)"/><path d="M0 0 0.000360892 111.066" stroke="#61CBF4" stroke-width="2.29167" stroke-linecap="round" stroke-linejoin="round" stroke-miterlimit="10" stroke-dasharray="16.0417 9.16667" fill="none" fill-rule="evenodd" transform="matrix(-1 0 0 1 2691 1734)"/><path d="M0 0 0.000360892 111.066" stroke="#61CBF4" stroke-width="2.29167" stroke-linecap="round" stroke-linejoin="round" stroke-miterlimit="10" stroke-dasharray="16.0417 9.16667" fill="none" fill-rule="evenodd" transform="matrix(-1 0 0 1 2654 1734)"/><text font-family="Noto Sans JP,Noto Sans JP_MSFontService,sans-serif" font-weight="400" font-size="28" transform="matrix(1 0 0 1 2557.78 1985)">#16</text><text font-family="Noto Sans JP,Noto Sans JP_MSFontService,sans-serif" font-weight="400" font-size="28" transform="matrix(1 0 0 1 2604.19 1985)"> </text><text font-family="Noto Sans JP,Noto Sans JP_MSFontService,sans-serif" font-weight="400" font-size="28" transform="matrix(1 0 0 1 2557.78 2025)">#17</text><text font-family="Noto Sans JP,Noto Sans JP_MSFontService,sans-serif" font-weight="400" font-size="28" transform="matrix(1 0 0 1 2604.19 2025)"> </text><text font-family="Noto Sans JP,Noto Sans JP_MSFontService,sans-serif" font-weight="400" font-size="41" transform="matrix(1 0 0 1 2729.43 2080)">Not</text><text font-family="Noto Sans JP,Noto Sans JP_MSFontService,sans-serif" font-weight="400" font-size="41" transform="matrix(1 0 0 1 2799.9 2080)"> </text><text font-family="Noto Sans JP,Noto Sans JP_MSFontService,sans-serif" font-weight="400" font-size="41" transform="matrix(1 0 0 1 2664.12 2129)">Accessible</text><text font-family="Noto Sans JP,Noto Sans JP_MSFontService,sans-serif" font-weight="400" font-size="41" transform="matrix(1 0 0 1 2865.21 2129)"> </text><rect x="0" y="0" width="295" height="807" stroke="#000000" stroke-width="4.58333" stroke-linecap="round" stroke-linejoin="round" stroke-miterlimit="10" fill="none" transform="matrix(-1 0 0 1 2913.5 1520.5)"/><rect x="0" y="0" width="290" height="77" stroke="#00B050" stroke-width="9.16667" stroke-linecap="round" stroke-linejoin="round" stroke-miterlimit="10" fill="none" transform="matrix(-1 0 0 1 2910.5 1751.5)"/></g></svg>