<svg width="2021" height="1207" xmlns="http://www.w3.org/2000/svg" xmlns:xlink="http://www.w3.org/1999/xlink" xml:space="preserve" overflow="hidden"><defs><clipPath id="clip0"><rect x="169" y="26" width="2021" height="1207"/></clipPath></defs><g clip-path="url(#clip0)" transform="translate(-169 -26)"><rect x="169" y="26.0001" width="2021" height="1207" fill="#FFFFFF"/><rect x="838.5" y="369.5" width="151" height="619" stroke="#000000" stroke-width="4.58333" stroke-linecap="round" stroke-linejoin="round" stroke-miterlimit="10"/><rect x="992.5" y="910.5" width="389" height="76" stroke="#000000" stroke-width="4.58333" stroke-linecap="round" stroke-linejoin="round" stroke-miterlimit="10"/><path d="M762 370 762 984.276" stroke="#61CBF4" stroke-width="2.29167" stroke-linecap="round" stroke-linejoin="round" stroke-miterlimit="10" stroke-dasharray="16.0417 9.16667" fill="none" fill-rule="evenodd"/><path d="M839 370 839 984.276" stroke="#61CBF4" stroke-width="2.29167" stroke-linecap="round" stroke-linejoin="round" stroke-miterlimit="10" stroke-dasharray="16.0417 9.16667" fill="none" fill-rule="evenodd"/><path d="M916 370 916 984.276" stroke="#61CBF4" stroke-width="2.29167" stroke-linecap="round" stroke-linejoin="round" stroke-miterlimit="10" stroke-dasharray="16.0417 9.16667" fill="none" fill-rule="evenodd"/><path d="M993 370 993 984.276" stroke="#61CBF4" stroke-width="2.29167" stroke-linecap="round" stroke-linejoin="round" stroke-miterlimit="10" stroke-dasharray="16.0417 9.16667" fill="none" fill-rule="evenodd"/><path d="M1070 370 1070 984.276" stroke="#61CBF4" stroke-width="2.29167" stroke-linecap="round" stroke-linejoin="round" stroke-miterlimit="10" stroke-dasharray="16.0417 9.16667" fill="none" fill-rule="evenodd"/><path d="M1147 370 1147 984.276" stroke="#61CBF4" stroke-width="2.29167" stroke-linecap="round" stroke-linejoin="round" stroke-miterlimit="10" stroke-dasharray="16.0417 9.16667" fill="none" fill-rule="evenodd"/><path d="M1224 370 1224 984.276" stroke="#61CBF4" stroke-width="2.29167" stroke-linecap="round" stroke-linejoin="round" stroke-miterlimit="10" stroke-dasharray="16.0417 9.16667" fill="none" fill-rule="evenodd"/><path d="M1301 370 1301 984.276" stroke="#61CBF4" stroke-width="2.29167" stroke-linecap="round" stroke-linejoin="round" stroke-miterlimit="10" stroke-dasharray="16.0417 9.16667" fill="none" fill-rule="evenodd"/><path d="M1378 370 1378 984.276" stroke="#61CBF4" stroke-width="2.29167" stroke-linecap="round" stroke-linejoin="round" stroke-miterlimit="10" stroke-dasharray="16.0417 9.16667" fill="none" fill-rule="evenodd"/><path d="M1455 370 1455 984.276" stroke="#61CBF4" stroke-width="2.29167" stroke-linecap="round" stroke-linejoin="round" stroke-miterlimit="10" stroke-dasharray="16.0417 9.16667" fill="none" fill-rule="evenodd"/><path d="M1532 370 1532 984.276" stroke="#61CBF4" stroke-width="2.29167" stroke-linecap="round" stroke-linejoin="round" stroke-miterlimit="10" stroke-dasharray="16.0417 9.16667" fill="none" fill-rule="evenodd"/><path d="M696 370 1593.76 370" stroke="#0F9ED5" stroke-width="2.29167" stroke-linecap="round" stroke-linejoin="round" stroke-miterlimit="10" stroke-dasharray="16.0417 9.16667" fill="none" fill-rule="evenodd"/><path d="M696 447 1593.76 447" stroke="#0F9ED5" stroke-width="2.29167" stroke-linecap="round" stroke-linejoin="round" stroke-miterlimit="10" stroke-dasharray="16.0417 9.16667" fill="none" fill-rule="evenodd"/><path d="M696 524 1593.76 524" stroke="#0F9ED5" stroke-width="2.29167" stroke-linecap="round" stroke-linejoin="round" stroke-miterlimit="10" stroke-dasharray="16.0417 9.16667" fill="none" fill-rule="evenodd"/><path d="M696 601 1593.76 601" stroke="#0F9ED5" stroke-width="2.29167" stroke-linecap="round" stroke-linejoin="round" stroke-miterlimit="10" stroke-dasharray="16.0417 9.16667" fill="none" fill-rule="evenodd"/><path d="M696 678 1593.76 678" stroke="#0F9ED5" stroke-width="2.29167" stroke-linecap="round" stroke-linejoin="round" stroke-miterlimit="10" stroke-dasharray="16.0417 9.16667" fill="none" fill-rule="evenodd"/><path d="M696 755 1593.76 755" stroke="#0F9ED5" stroke-width="2.29167" stroke-linecap="round" stroke-linejoin="round" stroke-miterlimit="10" stroke-dasharray="16.0417 9.16667" fill="none" fill-rule="evenodd"/><path d="M696 832 1593.76 832" stroke="#0F9ED5" stroke-width="2.29167" stroke-linecap="round" stroke-linejoin="round" stroke-miterlimit="10" stroke-dasharray="16.0417 9.16667" fill="none" fill-rule="evenodd"/><path d="M696 909 1593.76 909" stroke="#0F9ED5" stroke-width="2.29167" stroke-linecap="round" stroke-linejoin="round" stroke-miterlimit="10" stroke-dasharray="16.0417 9.16667" fill="none" fill-rule="evenodd"/><path d="M696 986 1593.76 986" stroke="#0F9ED5" stroke-width="2.29167" stroke-linecap="round" stroke-linejoin="round" stroke-miterlimit="10" stroke-dasharray="16.0417 9.16667" fill="none" fill-rule="evenodd"/><text font-family="Noto Sans JP,Noto Sans JP_MSFontService,sans-serif" font-weight="400" font-size="41" transform="matrix(1 0 0 1 985.036 141)">current</text><text font-family="Noto Sans JP,Noto Sans JP_MSFontService,sans-serif" font-weight="400" font-size="41" transform="matrix(1 0 0 1 1127.12 141)"> </text><text font-family="Noto Sans JP,Noto Sans JP_MSFontService,sans-serif" font-weight="400" font-size="41" transform="matrix(1 0 0 1 910.281 190)">cursor position</text><text font-family="Noto Sans JP,Noto Sans JP_MSFontService,sans-serif" font-weight="400" font-size="41" transform="matrix(1 0 0 1 1201.9 190)"> </text><path d="M1384.79 211.5 1384.79 239.463C1384.79 240.729 1383.77 241.755 1382.5 241.755 1381.23 241.755 1380.21 240.729 1380.21 239.463L1380.21 211.5C1380.21 210.234 1381.23 209.208 1382.5 209.208 1383.77 209.208 1384.79 210.234 1384.79 211.5ZM1396.25 234.88 1382.5 262.38 1368.75 234.88Z"/><text font-family="Noto Sans JP,Noto Sans JP_MSFontService,sans-serif" font-weight="400" font-size="41" transform="matrix(1 0 0 1 1357.37 140)">new</text><text font-family="Noto Sans JP,Noto Sans JP_MSFontService,sans-serif" font-weight="400" font-size="41" transform="matrix(1 0 0 1 1438.72 140)"> </text><text font-family="Noto Sans JP,Noto Sans JP_MSFontService,sans-serif" font-weight="400" font-size="41" transform="matrix(1 0 0 1 1252.25 189)">cursor position</text><text font-family="Noto Sans JP,Noto Sans JP_MSFontService,sans-serif" font-weight="400" font-size="41" transform="matrix(1 0 0 1 1543.86 189)"> </text><rect x="1077" y="370" width="303" height="615" stroke="#E97132" stroke-width="13.75" stroke-linecap="round" stroke-linejoin="round" stroke-miterlimit="10" fill="none"/><rect x="0" y="0" width="65" height="615" stroke="#00B050" stroke-width="13.75" stroke-linecap="round" stroke-linejoin="round" stroke-miterlimit="10" fill="none" transform="matrix(-1 0 0 1 1062 370)"/><path d="M1382.5 282.5 1382.5 351.707" stroke="#000000" stroke-width="4.58333" stroke-linecap="round" stroke-linejoin="round" stroke-miterlimit="10" fill="none" fill-rule="evenodd"/><path d="M1076.5 282.5 1076.5 351.707" stroke="#000000" stroke-width="4.58333" stroke-linecap="round" stroke-linejoin="round" stroke-miterlimit="10" fill="none" fill-rule="evenodd"/><path d="M22.9166-2.29164 276.995-2.29133C278.261-2.29133 279.287-1.26532 279.287 0.000336074 279.287 1.26599 278.261 2.292 276.995 2.292L22.9166 2.29169C21.651 2.29169 20.625 1.26568 20.625 2.48186e-05 20.625-1.26563 21.651-2.29164 22.9166-2.29164ZM27.5 13.75 0 0 27.5-13.75ZM272.412-13.7497 299.912 0.000360892 272.412 13.7503Z" transform="matrix(-1 0 0 1 1378.41 305.5)"/><text font-family="Noto Sans JP,Noto Sans JP_MSFontService,sans-serif" font-weight="400" font-size="41" transform="matrix(1 0 0 1 1096.93 291)">repeat_count</text><text font-family="Noto Sans JP,Noto Sans JP_MSFontService,sans-serif" font-weight="400" font-size="41" transform="matrix(1 0 0 1 1358.75 291)"> </text><path d="M1075.79 211.5 1075.79 239.463C1075.79 240.729 1074.77 241.755 1073.5 241.755 1072.23 241.755 1071.21 240.729 1071.21 239.463L1071.21 211.5C1071.21 210.234 1072.23 209.208 1073.5 209.208 1074.77 209.208 1075.79 210.234 1075.79 211.5ZM1087.25 234.88 1073.5 262.38 1059.75 234.88Z"/><path d="M1343.24 1024.1 1342.3 1028.7C1342.27 1028.86 1342.22 1029.01 1342.16 1029.16L1339.94 1034.29 1334.33 1044.42 1327.34 1054.09 1319.07 1063.17 1309.62 1071.62 1299.07 1079.39 1287.5 1086.42 1275 1092.67 1261.64 1098.08 1247.51 1102.6 1232.68 1106.19 1217.24 1108.78 1201.27 1110.33 1184.85 1110.78 1168.47 1110.11 1152.57 1108.34 1137.24 1105.54 1122.55 1101.76 1108.58 1097.05 1095.4 1091.47 1083.11 1085.08 1071.76 1077.91 1061.46 1070.03 1052.26 1061.49 1044.27 1052.34 1037.55 1042.62 1032.2 1032.39 1030.03 1027.03 1028.27 1021.63 1026.9 1016.13 1025.93 1010.54 1025.36 1004.87 1025.21 999.127C1025.18 997.862 1026.18 996.811 1027.45 996.78 1028.72 996.749 1029.77 997.75 1029.8 999.015L1029.92 1004.42 1030.44 1009.76 1031.35 1015.03 1032.63 1020.22 1034.28 1025.32 1036.26 1030.27 1041.32 1040.02 1047.72 1049.33 1055.39 1058.14 1064.24 1066.4 1074.21 1074.04 1085.22 1081.01 1097.19 1087.25 1110.04 1092.71 1123.69 1097.32 1138.07 1101.03 1153.08 1103.78 1168.66 1105.53 1184.73 1106.2 1200.83 1105.77 1216.49 1104.26 1231.61 1101.74 1246.11 1098.24 1259.92 1093.83 1272.95 1088.57 1285.12 1082.5 1296.36 1075.7 1306.57 1068.2 1315.69 1060.08 1323.63 1051.4 1330.33 1042.2 1335.73 1032.47 1337.96 1027.33 1337.81 1027.79 1338.75 1023.18C1339 1021.94 1340.21 1021.14 1341.45 1021.39 1342.69 1021.65 1343.49 1022.86 1343.24 1024.1ZM1326.61 1025.44 1345.49 1001.17 1353.58 1030.83Z"/><path d="M1263.24 1024.03 1258.75 1034.96C1258.68 1035.11 1258.6 1035.26 1258.51 1035.39L1253.37 1042.83 1247.13 1050.03 1239.99 1056.73 1232.03 1062.89 1223.29 1068.46 1213.86 1073.42 1203.78 1077.7 1193.11 1081.29 1181.93 1084.13 1170.28 1086.19 1158.23 1087.42 1145.84 1087.79 1133.48 1087.26 1121.48 1085.86 1109.91 1083.65 1098.82 1080.67 1088.27 1076.95 1078.32 1072.54 1069.03 1067.48 1060.46 1061.81 1052.67 1055.57 1045.71 1048.81 1039.66 1041.55 1034.58 1033.85 1030.52 1025.74 1027.56 1017.27 1025.77 1008.49 1025.22 999.437C1025.14 998.174 1026.11 997.089 1027.37 997.015 1028.63 996.94 1029.72 997.904 1029.79 999.167L1030.27 1007.58 1031.89 1015.77 1034.62 1023.7 1038.4 1031.33 1043.19 1038.62 1048.91 1045.53 1055.53 1052 1062.99 1057.99 1071.23 1063.45 1080.18 1068.35 1089.8 1072.63 1100.02 1076.24 1110.77 1079.15 1122.02 1081.31 1133.68 1082.68 1145.71 1083.21 1157.77 1082.86 1169.48 1081.68 1180.8 1079.69 1191.65 1076.95 1201.98 1073.49 1211.73 1069.35 1220.83 1064.6 1229.23 1059.26 1236.86 1053.39 1243.67 1047.03 1249.6 1040.22 1254.74 1032.78 1254.51 1033.22 1259 1022.28C1259.48 1021.11 1260.82 1020.55 1261.99 1021.04 1263.16 1021.52 1263.72 1022.86 1263.24 1024.03ZM1246.68 1024.39 1266.49 1000.88 1273.41 1030.84Z"/><path d="M1179.89 1024.89 1176.84 1031.98C1176.76 1032.17 1176.65 1032.34 1176.53 1032.5L1172.56 1037.5 1167.86 1042.34 1162.61 1046.79 1156.86 1050.81 1150.64 1054.39 1144 1057.49 1136.98 1060.08 1129.61 1062.13 1121.94 1063.62 1114 1064.52 1105.84 1064.79 1097.7 1064.41 1089.8 1063.42 1082.17 1061.84 1074.85 1059.69 1067.9 1057.02 1061.33 1053.85 1055.2 1050.21 1049.54 1046.13 1044.39 1041.63 1039.8 1036.76 1035.79 1031.53 1032.43 1025.98 1029.74 1020.13 1027.78 1014.03 1026.59 1007.69 1026.21 1001.17C1026.14 999.906 1027.11 998.826 1028.38 998.756 1029.64 998.687 1030.72 999.655 1030.79 1000.92L1031.1 1006.86 1032.15 1012.64 1033.91 1018.23 1036.35 1023.61 1039.44 1028.75 1043.14 1033.62 1047.41 1038.18 1052.23 1042.41 1057.54 1046.27 1063.33 1049.72 1069.54 1052.74 1076.15 1055.29 1083.1 1057.35 1090.37 1058.87 1097.91 1059.84 1105.69 1060.21 1113.49 1059.96 1121.07 1059.12 1128.38 1057.72 1135.39 1055.78 1142.07 1053.33 1148.36 1050.41 1154.24 1047.05 1159.66 1043.29 1164.58 1039.14 1168.97 1034.65 1172.94 1029.65 1172.63 1030.17 1175.68 1023.08C1176.18 1021.92 1177.53 1021.38 1178.69 1021.88 1179.85 1022.38 1180.39 1023.73 1179.89 1024.89ZM1163.3 1024.34 1184.5 1002.07 1189.59 1032.39Z"/><path d="M1108.47 1023.65 1105.14 1029.09C1104.97 1029.37 1104.74 1029.61 1104.47 1029.79L1097.83 1034.26C1097.72 1034.34 1097.6 1034.4 1097.48 1034.46L1089.88 1037.81C1089.77 1037.87 1089.64 1037.91 1089.51 1037.94L1081.14 1040.04 1076.43 1040.62 1071.69 1040.79 1066.95 1040.56 1062.35 1039.95 1053.75 1037.69C1053.62 1037.65 1053.5 1037.61 1053.38 1037.55L1045.86 1034.09C1045.74 1034.04 1045.62 1033.97 1045.51 1033.89L1038.97 1029.33C1038.86 1029.25 1038.75 1029.16 1038.65 1029.06L1033.27 1023.55C1033.19 1023.47 1033.11 1023.38 1033.05 1023.29L1030.85 1020.23 1028.88 1016.78 1027.3 1013.15 1026.15 1009.35 1025.44 1005.41 1025.21 1001.36C1025.15 1000.1 1026.12 999.018 1027.38 998.952 1028.65 998.886 1029.72 999.857 1029.79 1001.12L1029.96 1004.63 1030.54 1008.03 1031.51 1011.34 1032.86 1014.51 1034.57 1017.55 1036.77 1020.61 1036.55 1020.35 1041.92 1025.85 1041.6 1025.57 1048.13 1030.13 1047.78 1029.93 1055.29 1033.39 1054.93 1033.26 1062.96 1035.41 1067.18 1035.99 1071.53 1036.21 1075.89 1036.07 1080.03 1035.59 1088.4 1033.49 1088.03 1033.62 1095.63 1030.27 1095.27 1030.46 1101.91 1025.99 1101.23 1026.7 1104.56 1021.26C1105.22 1020.18 1106.63 1019.84 1107.71 1020.5 1108.79 1021.16 1109.13 1022.57 1108.47 1023.65ZM1092.14 1020.59 1116.5 1001.83 1116.89 1032.57Z"/><text font-family="Noto Sans JP,Noto Sans JP_MSFontService,sans-serif" font-weight="400" font-size="41" transform="matrix(1 0 0 1 1142.99 1150)">copy</text><text font-family="Noto Sans JP,Noto Sans JP_MSFontService,sans-serif" font-weight="400" font-size="41" transform="matrix(1 0 0 1 1236.95 1150)"> </text></g></svg>