<svg width="2021" height="1133" xmlns="http://www.w3.org/2000/svg" xmlns:xlink="http://www.w3.org/1999/xlink" xml:space="preserve" overflow="hidden"><defs><clipPath id="clip0"><rect x="39" y="51" width="2021" height="1133"/></clipPath></defs><g clip-path="url(#clip0)" transform="translate(-39 -51)"><rect x="38.9998" y="57.0001" width="2021" height="1127" fill="#FFFFFF"/><rect x="649.5" y="380.5" width="152" height="617" stroke="#000000" stroke-width="4.58333" stroke-linecap="round" stroke-linejoin="round" stroke-miterlimit="10"/><rect x="1264.5" y="536.5" width="154" height="457" stroke="#000000" stroke-width="4.58333" stroke-linecap="round" stroke-linejoin="round" stroke-miterlimit="10"/><rect x="1109.5" y="380.5" width="228" height="76" stroke="#000000" stroke-width="4.58333" stroke-linecap="round" stroke-linejoin="round" stroke-miterlimit="10"/><rect x="800.5" y="533.5" width="78" height="74.9999" stroke="#000000" stroke-width="4.58333" stroke-linecap="round" stroke-linejoin="round" stroke-miterlimit="10"/><rect x="801.5" y="454.5" width="619" height="79.0001" stroke="#000000" stroke-width="4.58333" stroke-linecap="round" stroke-linejoin="round" stroke-miterlimit="10"/><rect x="876.5" y="380.5" width="154" height="74.9999" stroke="#000000" stroke-width="4.58333" stroke-linecap="round" stroke-linejoin="round" stroke-miterlimit="10"/><rect x="954.5" y="535.5" width="231" height="75.9999" stroke="#000000" stroke-width="4.58333" stroke-linecap="round" stroke-linejoin="round" stroke-miterlimit="10"/><rect x="962.5" y="612.5" width="149" height="385" stroke="#000000" stroke-width="4.58333" stroke-linecap="round" stroke-linejoin="round" stroke-miterlimit="10"/><path d="M569 380 569 994.276" stroke="#61CBF4" stroke-width="2.29167" stroke-linecap="round" stroke-linejoin="round" stroke-miterlimit="10" stroke-dasharray="16.0417 9.16667" fill="none" fill-rule="evenodd"/><path d="M646 380 646 994.276" stroke="#61CBF4" stroke-width="2.29167" stroke-linecap="round" stroke-linejoin="round" stroke-miterlimit="10" stroke-dasharray="16.0417 9.16667" fill="none" fill-rule="evenodd"/><path d="M723 380 723 994.276" stroke="#61CBF4" stroke-width="2.29167" stroke-linecap="round" stroke-linejoin="round" stroke-miterlimit="10" stroke-dasharray="16.0417 9.16667" fill="none" fill-rule="evenodd"/><path d="M800 380 800 994.276" stroke="#61CBF4" stroke-width="2.29167" stroke-linecap="round" stroke-linejoin="round" stroke-miterlimit="10" stroke-dasharray="16.0417 9.16667" fill="none" fill-rule="evenodd"/><path d="M877 380 877 994.276" stroke="#61CBF4" stroke-width="2.29167" stroke-linecap="round" stroke-linejoin="round" stroke-miterlimit="10" stroke-dasharray="16.0417 9.16667" fill="none" fill-rule="evenodd"/><path d="M954 380 954 994.276" stroke="#61CBF4" stroke-width="2.29167" stroke-linecap="round" stroke-linejoin="round" stroke-miterlimit="10" stroke-dasharray="16.0417 9.16667" fill="none" fill-rule="evenodd"/><path d="M1031 380 1031 994.276" stroke="#61CBF4" stroke-width="2.29167" stroke-linecap="round" stroke-linejoin="round" stroke-miterlimit="10" stroke-dasharray="16.0417 9.16667" fill="none" fill-rule="evenodd"/><path d="M1108 380 1108 994.276" stroke="#61CBF4" stroke-width="2.29167" stroke-linecap="round" stroke-linejoin="round" stroke-miterlimit="10" stroke-dasharray="16.0417 9.16667" fill="none" fill-rule="evenodd"/><path d="M1185 380 1185 994.276" stroke="#61CBF4" stroke-width="2.29167" stroke-linecap="round" stroke-linejoin="round" stroke-miterlimit="10" stroke-dasharray="16.0417 9.16667" fill="none" fill-rule="evenodd"/><path d="M1262 380 1262 994.276" stroke="#61CBF4" stroke-width="2.29167" stroke-linecap="round" stroke-linejoin="round" stroke-miterlimit="10" stroke-dasharray="16.0417 9.16667" fill="none" fill-rule="evenodd"/><path d="M1339 380 1339 994.276" stroke="#61CBF4" stroke-width="2.29167" stroke-linecap="round" stroke-linejoin="round" stroke-miterlimit="10" stroke-dasharray="16.0417 9.16667" fill="none" fill-rule="evenodd"/><path d="M1416 380 1416 994.276" stroke="#61CBF4" stroke-width="2.29167" stroke-linecap="round" stroke-linejoin="round" stroke-miterlimit="10" stroke-dasharray="16.0417 9.16667" fill="none" fill-rule="evenodd"/><path d="M1502 380 1502 994.276" stroke="#61CBF4" stroke-width="2.29167" stroke-linecap="round" stroke-linejoin="round" stroke-miterlimit="10" stroke-dasharray="16.0417 9.16667" fill="none" fill-rule="evenodd"/><path d="M503 380 1578.94 380" stroke="#0F9ED5" stroke-width="2.29167" stroke-linecap="round" stroke-linejoin="round" stroke-miterlimit="10" stroke-dasharray="16.0417 9.16667" fill="none" fill-rule="evenodd"/><path d="M503 457 1578.94 457" stroke="#0F9ED5" stroke-width="2.29167" stroke-linecap="round" stroke-linejoin="round" stroke-miterlimit="10" stroke-dasharray="16.0417 9.16667" fill="none" fill-rule="evenodd"/><path d="M503 534 1578.94 534" stroke="#0F9ED5" stroke-width="2.29167" stroke-linecap="round" stroke-linejoin="round" stroke-miterlimit="10" stroke-dasharray="16.0417 9.16667" fill="none" fill-rule="evenodd"/><path d="M503 611 1578.94 611" stroke="#0F9ED5" stroke-width="2.29167" stroke-linecap="round" stroke-linejoin="round" stroke-miterlimit="10" stroke-dasharray="16.0417 9.16667" fill="none" fill-rule="evenodd"/><path d="M503 688 1578.94 688" stroke="#0F9ED5" stroke-width="2.29167" stroke-linecap="round" stroke-linejoin="round" stroke-miterlimit="10" stroke-dasharray="16.0417 9.16667" fill="none" fill-rule="evenodd"/><path d="M503 765 1578.94 765" stroke="#0F9ED5" stroke-width="2.29167" stroke-linecap="round" stroke-linejoin="round" stroke-miterlimit="10" stroke-dasharray="16.0417 9.16667" fill="none" fill-rule="evenodd"/><path d="M503 842 1578.94 842" stroke="#0F9ED5" stroke-width="2.29167" stroke-linecap="round" stroke-linejoin="round" stroke-miterlimit="10" stroke-dasharray="16.0417 9.16667" fill="none" fill-rule="evenodd"/><path d="M503 919 1578.94 919" stroke="#0F9ED5" stroke-width="2.29167" stroke-linecap="round" stroke-linejoin="round" stroke-miterlimit="10" stroke-dasharray="16.0417 9.16667" fill="none" fill-rule="evenodd"/><path d="M503 996 1578.94 996" stroke="#0F9ED5" stroke-width="2.29167" stroke-linecap="round" stroke-linejoin="round" stroke-miterlimit="10" stroke-dasharray="16.0417 9.16667" fill="none" fill-rule="evenodd"/><rect x="877" y="380" width="230" height="617" stroke="#00B050" stroke-width="13.75" stroke-linecap="round" stroke-linejoin="round" stroke-miterlimit="10" fill="none"/><rect x="1181" y="380" width="237" height="617" stroke="#E97132" stroke-width="13.75" stroke-linecap="round" stroke-linejoin="round" stroke-miterlimit="10" fill="none"/><path d="M-1.72699 66.1002-0.885825 62.3893 0.401133 58.5196 4.08285 51.1354C4.14013 51.0213 4.20666 50.9125 4.28209 50.8095L9.24784 44.0297 15.7483 37.3417 23.4832 31.09 32.362 25.2918 42.3001 19.9675 53.2156 15.1409 65.0277 10.8384 77.6557 7.08881 91.0187 3.92225 105.036 1.36993 119.625-0.536228 134.705-1.76378 150.195-2.27989 166.011-2.05141 180.831-1.14488 195.158 0.399087 208.931 2.5486 222.089 5.27202 234.57 8.53804 246.313 12.3158 257.256 16.5752 267.337 21.2869 276.497 26.423 284.673 31.9572 291.804 37.8658 297.824 44.1275C297.999 44.3104 298.143 44.5212 298.249 44.7511L300.762 50.1846C301.293 51.3334 300.792 52.6953 299.644 53.2265 298.495 53.7577 297.133 53.257 296.602 52.1082L294.089 46.6747 294.515 47.2984 288.875 41.3915 282.101 35.7507 274.253 30.4194 265.395 25.4383 255.592 20.8458 244.908 16.6785 233.409 12.9718 221.159 9.76003 208.224 7.07699 194.666 4.95595 180.551 3.42986 165.944 2.53143 150.347 2.30093 135.076 2.80451 120.218 4.0086 105.856 5.8793 92.0743 8.38235 78.9589 11.483 66.5946 15.1456 55.0669 19.3337 44.4615 24.0093 34.8639 29.1321 26.3585 34.6593 19.0271 40.5443 12.9454 46.7379 7.9797 53.5177 8.17894 53.1918 4.7461 59.9785 3.58411 63.4026 2.74294 67.1134C2.46314 68.3477 1.23569 69.1216 0.00135286 68.8418-1.23298 68.562-2.00679 67.3345-1.72699 66.1002ZM309.83 41.8847 307 72.5001 284.206 51.8667Z" transform="matrix(1 -1.22465e-16 -1.22465e-16 -1 873.5 1091.5)"/><text font-family="Noto Sans JP,Noto Sans JP_MSFontService,sans-serif" font-weight="400" font-size="41" transform="matrix(1 0 0 1 1051.05 1148)">block copy</text><text font-family="Noto Sans JP,Noto Sans JP_MSFontService,sans-serif" font-weight="400" font-size="41" transform="matrix(1 0 0 1 1260.16 1148)"> </text><text font-family="Noto Sans JP,Noto Sans JP_MSFontService,sans-serif" font-weight="400" font-size="41" transform="matrix(1 0 0 1 1055.87 104)">current</text><text font-family="Noto Sans JP,Noto Sans JP_MSFontService,sans-serif" font-weight="400" font-size="41" transform="matrix(1 0 0 1 1197.95 104)"> </text><text font-family="Noto Sans JP,Noto Sans JP_MSFontService,sans-serif" font-weight="400" font-size="41" transform="matrix(1 0 0 1 981.117 153)">cursor position</text><text font-family="Noto Sans JP,Noto Sans JP_MSFontService,sans-serif" font-weight="400" font-size="41" transform="matrix(1 0 0 1 1272.73 153)"> </text><path d="M1106.5 291.5 1106.5 360.707" stroke="#000000" stroke-width="4.58333" stroke-linecap="round" stroke-linejoin="round" stroke-miterlimit="10" fill="none" fill-rule="evenodd"/><path d="M1184.5 291.5 1184.5 360.707" stroke="#000000" stroke-width="4.58333" stroke-linecap="round" stroke-linejoin="round" stroke-miterlimit="10" fill="none" fill-rule="evenodd"/><path d="M1416.5 291.5 1416.5 360.707" stroke="#000000" stroke-width="4.58333" stroke-linecap="round" stroke-linejoin="round" stroke-miterlimit="10" fill="none" fill-rule="evenodd"/><path d="M876.5 291.5 876.5 360.707" stroke="#000000" stroke-width="4.58333" stroke-linecap="round" stroke-linejoin="round" stroke-miterlimit="10" fill="none" fill-rule="evenodd"/><path d="M1183.79 169.5 1183.79 252.287C1183.79 253.552 1182.77 254.578 1181.5 254.578 1180.23 254.578 1179.21 253.552 1179.21 252.287L1179.21 169.5C1179.21 168.234 1180.23 167.208 1181.5 167.208 1182.77 167.208 1183.79 168.234 1183.79 169.5ZM1195.25 247.703 1181.5 275.203 1167.75 247.703Z"/><path d="M1419.79 169.5 1419.79 252.287C1419.79 253.552 1418.77 254.578 1417.5 254.578 1416.23 254.578 1415.21 253.552 1415.21 252.287L1415.21 169.5C1415.21 168.234 1416.23 167.208 1417.5 167.208 1418.77 167.208 1419.79 168.234 1419.79 169.5ZM1431.25 247.703 1417.5 275.203 1403.75 247.703Z"/><text font-family="Noto Sans JP,Noto Sans JP_MSFontService,sans-serif" font-weight="400" font-size="41" transform="matrix(1 0 0 1 1421.9 104)">new</text><text font-family="Noto Sans JP,Noto Sans JP_MSFontService,sans-serif" font-weight="400" font-size="41" transform="matrix(1 0 0 1 1503.26 104)"> </text><text font-family="Noto Sans JP,Noto Sans JP_MSFontService,sans-serif" font-weight="400" font-size="41" transform="matrix(1 0 0 1 1316.78 153)">cursor position</text><text font-family="Noto Sans JP,Noto Sans JP_MSFontService,sans-serif" font-weight="400" font-size="41" transform="matrix(1 0 0 1 1608.4 153)"> </text><path d="M22.9166-2.29163 206.756-2.29134C208.021-2.29134 209.047-1.26532 209.047 0.000328484 209.047 1.26598 208.021 2.29199 206.756 2.29199L22.9166 2.2917C21.651 2.2917 20.625 1.26568 20.625 3.24088e-05 20.625-1.26562 21.651-2.29163 22.9166-2.29163ZM27.5 13.75 0 0 27.5-13.75ZM202.172-13.7497 229.672 0.000360892 202.172 13.7503Z" transform="matrix(-1 0 0 1 1416.17 314.5)"/><text font-family="Noto Sans JP,Noto Sans JP_MSFontService,sans-serif" font-weight="400" font-size="41" transform="matrix(1 0 0 1 1238.9 300)">length</text><text font-family="Noto Sans JP,Noto Sans JP_MSFontService,sans-serif" font-weight="400" font-size="41" transform="matrix(1 0 0 1 1362.65 300)"> </text><path d="M1131.42 312.208 1159.61 312.209C1160.87 312.209 1161.9 313.235 1161.9 314.5 1161.9 315.766 1160.87 316.792 1159.61 316.792L1131.42 316.792C1130.15 316.792 1129.13 315.766 1129.13 314.5 1129.13 313.234 1130.15 312.208 1131.42 312.208ZM1136 328.25 1108.5 314.5 1136 300.75ZM1155.02 300.75 1182.52 314.5 1155.02 328.25Z"/><text font-family="Noto Sans JP,Noto Sans JP_MSFontService,sans-serif" font-weight="400" font-size="41" transform="matrix(1 0 0 1 1028.1 232)">offset</text><text font-family="Noto Sans JP,Noto Sans JP_MSFontService,sans-serif" font-weight="400" font-size="41" transform="matrix(1 0 0 1 1137.53 232)"> </text><path d="M1115.5 241.5 1145.58 307.672" stroke="#000000" stroke-width="4.58333" stroke-linecap="round" stroke-linejoin="round" stroke-miterlimit="10" fill="none" fill-rule="evenodd"/><path d="M22.9166-2.29163 206.756-2.29134C208.021-2.29134 209.047-1.26532 209.047 0.000328484 209.047 1.26598 208.021 2.29199 206.756 2.29199L22.9166 2.2917C21.651 2.2917 20.625 1.26568 20.625 3.24088e-05 20.625-1.26562 21.651-2.29163 22.9166-2.29163ZM27.5 13.75 0 0 27.5-13.75ZM202.172-13.7497 229.672 0.000360892 202.172 13.7503Z" transform="matrix(-1 0 0 1 1105.17 314.5)"/><text font-family="Noto Sans JP,Noto Sans JP_MSFontService,sans-serif" font-weight="400" font-size="41" transform="matrix(1 0 0 1 928.378 300)">length</text><text font-family="Noto Sans JP,Noto Sans JP_MSFontService,sans-serif" font-weight="400" font-size="41" transform="matrix(1 0 0 1 1052.13 300)"> </text><path d="M-1.72699 66.1002-0.885825 62.3893 0.401133 58.5196 4.08285 51.1354C4.14013 51.0213 4.20666 50.9125 4.28209 50.8095L9.24784 44.0297 15.7483 37.3417 23.4832 31.09 32.362 25.2918 42.3001 19.9675 53.2156 15.1409 65.0277 10.8384 77.6557 7.08881 91.0187 3.92225 105.036 1.36993 119.625-0.536228 134.705-1.76378 150.195-2.27989 166.011-2.05141 180.831-1.14488 195.158 0.399087 208.931 2.5486 222.089 5.27202 234.57 8.53804 246.313 12.3158 257.256 16.5752 267.337 21.2869 276.497 26.423 284.673 31.9572 291.804 37.8658 297.824 44.1275C297.999 44.3104 298.143 44.5212 298.249 44.7511L300.762 50.1846C301.293 51.3334 300.792 52.6953 299.644 53.2265 298.495 53.7577 297.133 53.257 296.602 52.1082L294.089 46.6747 294.515 47.2984 288.875 41.3915 282.101 35.7507 274.253 30.4194 265.395 25.4383 255.592 20.8458 244.908 16.6785 233.409 12.9718 221.159 9.76003 208.224 7.07699 194.666 4.95595 180.551 3.42986 165.944 2.53143 150.347 2.30093 135.076 2.80451 120.218 4.0086 105.856 5.8793 92.0743 8.38235 78.9589 11.483 66.5946 15.1456 55.0669 19.3337 44.4615 24.0093 34.8639 29.1321 26.3585 34.6593 19.0271 40.5443 12.9454 46.7379 7.9797 53.5177 8.17894 53.1918 4.7461 59.9785 3.58411 63.4026 2.74294 67.1134C2.46314 68.3477 1.23569 69.1216 0.00135286 68.8418-1.23298 68.562-2.00679 67.3345-1.72699 66.1002ZM309.83 41.8847 307 72.5001 284.206 51.8667Z" transform="matrix(1 -1.22465e-16 -1.22465e-16 -1 1107.5 1091.5)"/></g></svg>