<svg width="2022" height="1005" xmlns="http://www.w3.org/2000/svg" xmlns:xlink="http://www.w3.org/1999/xlink" xml:space="preserve" overflow="hidden"><defs><clipPath id="clip0"><rect x="137" y="103" width="2022" height="1005"/></clipPath></defs><g clip-path="url(#clip0)" transform="translate(-137 -103)"><rect x="137" y="103" width="2022" height="1005" fill="#FFFFFF"/><rect x="1136.5" y="842.5" width="150" height="155" stroke="#000000" stroke-width="4.58333" stroke-linecap="round" stroke-linejoin="round" stroke-miterlimit="10"/><rect x="1213.5" y="688.5" width="150" height="155" stroke="#000000" stroke-width="4.58333" stroke-linecap="round" stroke-linejoin="round" stroke-miterlimit="10"/><rect x="1290.5" y="535.5" width="150" height="152" stroke="#000000" stroke-width="4.58333" stroke-linecap="round" stroke-linejoin="round" stroke-miterlimit="10"/><rect x="1367.5" y="380.5" width="232" height="156" stroke="#000000" stroke-width="4.58333" stroke-linecap="round" stroke-linejoin="round" stroke-miterlimit="10"/><rect x="1523.5" y="535.5" width="150" height="152" stroke="#000000" stroke-width="4.58333" stroke-linecap="round" stroke-linejoin="round" stroke-miterlimit="10"/><rect x="1600.5" y="686.5" width="151" height="155" stroke="#000000" stroke-width="4.58333" stroke-linecap="round" stroke-linejoin="round" stroke-miterlimit="10"/><rect x="1677.5" y="841.5" width="151" height="155" stroke="#000000" stroke-width="4.58333" stroke-linecap="round" stroke-linejoin="round" stroke-miterlimit="10"/><rect x="1361.5" y="764.5" width="238" height="78" stroke="#000000" stroke-width="4.58333" stroke-linecap="round" stroke-linejoin="round" stroke-miterlimit="10"/><path d="M1060 380 1060 994.276" stroke="#61CBF4" stroke-width="2.29167" stroke-linecap="round" stroke-linejoin="round" stroke-miterlimit="10" stroke-dasharray="16.0417 9.16667" fill="none" fill-rule="evenodd"/><path d="M1137 380 1137 994.276" stroke="#61CBF4" stroke-width="2.29167" stroke-linecap="round" stroke-linejoin="round" stroke-miterlimit="10" stroke-dasharray="16.0417 9.16667" fill="none" fill-rule="evenodd"/><path d="M1214 380 1214 994.276" stroke="#61CBF4" stroke-width="2.29167" stroke-linecap="round" stroke-linejoin="round" stroke-miterlimit="10" stroke-dasharray="16.0417 9.16667" fill="none" fill-rule="evenodd"/><path d="M1291 380 1291 994.276" stroke="#61CBF4" stroke-width="2.29167" stroke-linecap="round" stroke-linejoin="round" stroke-miterlimit="10" stroke-dasharray="16.0417 9.16667" fill="none" fill-rule="evenodd"/><path d="M1368 380 1368 994.276" stroke="#61CBF4" stroke-width="2.29167" stroke-linecap="round" stroke-linejoin="round" stroke-miterlimit="10" stroke-dasharray="16.0417 9.16667" fill="none" fill-rule="evenodd"/><path d="M1445 380 1445 994.276" stroke="#61CBF4" stroke-width="2.29167" stroke-linecap="round" stroke-linejoin="round" stroke-miterlimit="10" stroke-dasharray="16.0417 9.16667" fill="none" fill-rule="evenodd"/><path d="M1522 380 1522 994.276" stroke="#61CBF4" stroke-width="2.29167" stroke-linecap="round" stroke-linejoin="round" stroke-miterlimit="10" stroke-dasharray="16.0417 9.16667" fill="none" fill-rule="evenodd"/><path d="M1599 380 1599 994.276" stroke="#61CBF4" stroke-width="2.29167" stroke-linecap="round" stroke-linejoin="round" stroke-miterlimit="10" stroke-dasharray="16.0417 9.16667" fill="none" fill-rule="evenodd"/><path d="M1676 380 1676 994.276" stroke="#61CBF4" stroke-width="2.29167" stroke-linecap="round" stroke-linejoin="round" stroke-miterlimit="10" stroke-dasharray="16.0417 9.16667" fill="none" fill-rule="evenodd"/><path d="M1753 380 1753 994.276" stroke="#61CBF4" stroke-width="2.29167" stroke-linecap="round" stroke-linejoin="round" stroke-miterlimit="10" stroke-dasharray="16.0417 9.16667" fill="none" fill-rule="evenodd"/><path d="M1830 380 1830 994.276" stroke="#61CBF4" stroke-width="2.29167" stroke-linecap="round" stroke-linejoin="round" stroke-miterlimit="10" stroke-dasharray="16.0417 9.16667" fill="none" fill-rule="evenodd"/><path d="M994 380 1891.76 380" stroke="#0F9ED5" stroke-width="2.29167" stroke-linecap="round" stroke-linejoin="round" stroke-miterlimit="10" stroke-dasharray="16.0417 9.16667" fill="none" fill-rule="evenodd"/><path d="M994 457 1891.76 457" stroke="#0F9ED5" stroke-width="2.29167" stroke-linecap="round" stroke-linejoin="round" stroke-miterlimit="10" stroke-dasharray="16.0417 9.16667" fill="none" fill-rule="evenodd"/><path d="M994 534 1891.76 534" stroke="#0F9ED5" stroke-width="2.29167" stroke-linecap="round" stroke-linejoin="round" stroke-miterlimit="10" stroke-dasharray="16.0417 9.16667" fill="none" fill-rule="evenodd"/><path d="M994 611 1891.76 611" stroke="#0F9ED5" stroke-width="2.29167" stroke-linecap="round" stroke-linejoin="round" stroke-miterlimit="10" stroke-dasharray="16.0417 9.16667" fill="none" fill-rule="evenodd"/><path d="M994 688 1891.76 688" stroke="#0F9ED5" stroke-width="2.29167" stroke-linecap="round" stroke-linejoin="round" stroke-miterlimit="10" stroke-dasharray="16.0417 9.16667" fill="none" fill-rule="evenodd"/><path d="M994 765 1891.76 765" stroke="#0F9ED5" stroke-width="2.29167" stroke-linecap="round" stroke-linejoin="round" stroke-miterlimit="10" stroke-dasharray="16.0417 9.16667" fill="none" fill-rule="evenodd"/><path d="M994 842 1891.76 842" stroke="#0F9ED5" stroke-width="2.29167" stroke-linecap="round" stroke-linejoin="round" stroke-miterlimit="10" stroke-dasharray="16.0417 9.16667" fill="none" fill-rule="evenodd"/><path d="M994 919 1891.76 919" stroke="#0F9ED5" stroke-width="2.29167" stroke-linecap="round" stroke-linejoin="round" stroke-miterlimit="10" stroke-dasharray="16.0417 9.16667" fill="none" fill-rule="evenodd"/><path d="M994 996 1891.76 996" stroke="#0F9ED5" stroke-width="2.29167" stroke-linecap="round" stroke-linejoin="round" stroke-miterlimit="10" stroke-dasharray="16.0417 9.16667" fill="none" fill-rule="evenodd"/><text font-family="Noto Sans JP,Noto Sans JP_MSFontService,sans-serif" font-weight="400" font-size="41" transform="matrix(1 0 0 1 938.744 227)">current</text><text font-family="Noto Sans JP,Noto Sans JP_MSFontService,sans-serif" font-weight="400" font-size="41" transform="matrix(1 0 0 1 1080.83 227)"> </text><text font-family="Noto Sans JP,Noto Sans JP_MSFontService,sans-serif" font-weight="400" font-size="41" transform="matrix(1 0 0 1 863.99 276)">cursor position</text><text font-family="Noto Sans JP,Noto Sans JP_MSFontService,sans-serif" font-weight="400" font-size="41" transform="matrix(1 0 0 1 1155.6 276)"> </text><path d="M2.04973-1.02486 27.8947 50.665C28.4607 51.797 28.0018 53.1736 26.8698 53.7396 25.7378 54.3056 24.3612 53.8467 23.7952 52.7147L-2.04973 1.02486C-2.61575-0.10717-2.1569-1.48371-1.02486-2.04973 0.10717-2.61575 1.48371-2.1569 2.04973-1.02486ZM36.0936 41.4412 36.0936 72.1871 11.4968 53.7396Z" transform="matrix(-1 0 0 1 1251.59 293.5)"/><text font-family="Noto Sans JP,Noto Sans JP_MSFontService,sans-serif" font-weight="400" font-size="41" transform="matrix(1 0 0 1 1311.08 226)">new</text><text font-family="Noto Sans JP,Noto Sans JP_MSFontService,sans-serif" font-weight="400" font-size="41" transform="matrix(1 0 0 1 1392.43 226)"> </text><text font-family="Noto Sans JP,Noto Sans JP_MSFontService,sans-serif" font-weight="400" font-size="41" transform="matrix(1 0 0 1 1205.96 275)">cursor position</text><text font-family="Noto Sans JP,Noto Sans JP_MSFontService,sans-serif" font-weight="400" font-size="41" transform="matrix(1 0 0 1 1497.57 275)"> </text><rect x="1136.5" y="379.5" width="78" height="616" stroke="#E97132" stroke-width="9.16667" stroke-linecap="round" stroke-linejoin="round" stroke-miterlimit="10" fill="none"/><text font-family="Noto Sans JP,Noto Sans JP_MSFontService,sans-serif" font-weight="400" font-size="41" transform="matrix(1 0 0 1 464.75 347)">Lookup Table</text><text font-family="Noto Sans JP,Noto Sans JP_MSFontService,sans-serif" font-weight="400" font-size="41" transform="matrix(1 0 0 1 728.292 347)"> </text><rect x="449" y="373" width="37.0001" height="39.9999"/><rect x="486" y="373" width="36.9998" height="39.9999" fill="#FFFFFF"/><rect x="523" y="373" width="37.0001" height="39.9999" fill="#FFFFFF"/><rect x="560" y="373" width="37.0001" height="39.9999"/><rect x="597" y="373" width="35.9998" height="39.9999"/><rect x="633" y="373" width="37.0001" height="39.9999" fill="#FFFFFF"/><rect x="670" y="373" width="37.0001" height="39.9999" fill="#FFFFFF"/><rect x="707" y="373" width="36.9998" height="39.9999"/><rect x="449" y="412" width="37.0001" height="39.9999"/><rect x="486" y="412" width="36.9998" height="39.9999"/><rect x="523" y="412" width="37.0001" height="39.9999" fill="#FFFFFF"/><rect x="560" y="412" width="37.0001" height="39.9999"/><rect x="597" y="412" width="35.9998" height="39.9999" fill="#FFFFFF"/><rect x="633" y="412" width="37.0001" height="39.9999" fill="#FFFFFF"/><rect x="670" y="412" width="37.0001" height="39.9999"/><rect x="707" y="412" width="36.9998" height="39.9999" fill="#FFFFFF"/><rect x="449" y="452" width="37.0001" height="39.9999"/><rect x="486" y="452" width="36.9998" height="39.9999" fill="#FFFFFF"/><rect x="523" y="452" width="37.0001" height="39.9999"/><rect x="560" y="452" width="37.0001" height="39.9999" fill="#FFFFFF"/><rect x="597" y="452" width="35.9998" height="39.9999"/><rect x="633" y="452" width="37.0001" height="39.9999"/><rect x="670" y="452" width="37.0001" height="39.9999"/><rect x="707" y="452" width="36.9998" height="39.9999" fill="#FFFFFF"/><rect x="449" y="937" width="37.0001" height="38.9998"/><rect x="486" y="937" width="36.9998" height="38.9998"/><rect x="523" y="937" width="37.0001" height="38.9998"/><rect x="560" y="937" width="37.0001" height="38.9998" fill="#FFFFFF"/><rect x="597" y="937" width="35.9998" height="38.9998"/><rect x="633" y="937" width="37.0001" height="38.9998" fill="#FFFFFF"/><rect x="670" y="937" width="37.0001" height="38.9998"/><rect x="707" y="937" width="36.9998" height="38.9998"/><rect x="449" y="897" width="37.0001" height="40.0002"/><rect x="486" y="897" width="36.9998" height="40.0002" fill="#FFFFFF"/><rect x="523" y="897" width="37.0001" height="40.0002" fill="#FFFFFF"/><rect x="560" y="897" width="37.0001" height="40.0002" fill="#FFFFFF"/><rect x="597" y="897" width="35.9998" height="40.0002"/><rect x="633" y="897" width="37.0001" height="40.0002" fill="#FFFFFF"/><rect x="670" y="897" width="37.0001" height="40.0002"/><rect x="707" y="897" width="36.9998" height="40.0002" fill="#FFFFFF"/><rect x="449" y="859" width="37.0001" height="39.9999" fill="#FFFFFF"/><rect x="486" y="859" width="36.9998" height="39.9999"/><rect x="523" y="859" width="37.0001" height="39.9999"/><rect x="560" y="859" width="37.0001" height="39.9999" fill="#FFFFFF"/><rect x="597" y="859" width="35.9998" height="39.9999"/><rect x="633" y="859" width="37.0001" height="39.9999"/><rect x="670" y="859" width="37.0001" height="39.9999" fill="#FFFFFF"/><rect x="707" y="859" width="36.9998" height="39.9999"/><rect x="449" y="658" width="37.0001" height="40.0002" fill="#FFFFFF"/><rect x="486" y="658" width="36.9998" height="40.0002" fill="#FFFFFF"/><rect x="523" y="658" width="37.0001" height="40.0002" fill="#FFFFFF"/><rect x="560" y="658" width="37.0001" height="40.0002" fill="#FFFFFF"/><rect x="597" y="658" width="35.9998" height="40.0002" fill="#FFFFFF"/><rect x="633" y="658" width="37.0001" height="40.0002" fill="#FFFFFF"/><rect x="670" y="658" width="37.0001" height="40.0002"/><rect x="707" y="658" width="36.9998" height="40.0002"/><path d="M449 413 744.168 413" stroke="#0F9ED5" stroke-width="2.29167" stroke-linecap="round" stroke-linejoin="round" stroke-miterlimit="10" stroke-dasharray="16.0417 9.16667" fill="none" fill-rule="evenodd"/><path d="M449 452 744.168 452" stroke="#0F9ED5" stroke-width="2.29167" stroke-linecap="round" stroke-linejoin="round" stroke-miterlimit="10" stroke-dasharray="16.0417 9.16667" fill="none" fill-rule="evenodd"/><path d="M449 491 744.168 491" stroke="#0F9ED5" stroke-width="2.29167" stroke-linecap="round" stroke-linejoin="round" stroke-miterlimit="10" stroke-dasharray="16.0417 9.16667" fill="none" fill-rule="evenodd"/><path d="M449 859 744.168 859" stroke="#0F9ED5" stroke-width="2.29167" stroke-linecap="round" stroke-linejoin="round" stroke-miterlimit="10" stroke-dasharray="16.0417 9.16667" fill="none" fill-rule="evenodd"/><path d="M449 898 744.168 898" stroke="#0F9ED5" stroke-width="2.29167" stroke-linecap="round" stroke-linejoin="round" stroke-miterlimit="10" stroke-dasharray="16.0417 9.16667" fill="none" fill-rule="evenodd"/><path d="M449 937 744.168 937" stroke="#0F9ED5" stroke-width="2.29167" stroke-linecap="round" stroke-linejoin="round" stroke-miterlimit="10" stroke-dasharray="16.0417 9.16667" fill="none" fill-rule="evenodd"/><path d="M485 375 485 520.235" stroke="#61CBF4" stroke-width="2.29167" stroke-linecap="round" stroke-linejoin="round" stroke-miterlimit="10" stroke-dasharray="16.0417 9.16667" fill="none" fill-rule="evenodd"/><path d="M522 375 522.001 520.235" stroke="#61CBF4" stroke-width="2.29167" stroke-linecap="round" stroke-linejoin="round" stroke-miterlimit="10" stroke-dasharray="16.0417 9.16667" fill="none" fill-rule="evenodd"/><path d="M559 375 559 520.235" stroke="#61CBF4" stroke-width="2.29167" stroke-linecap="round" stroke-linejoin="round" stroke-miterlimit="10" stroke-dasharray="16.0417 9.16667" fill="none" fill-rule="evenodd"/><path d="M596 375 596 520.235" stroke="#61CBF4" stroke-width="2.29167" stroke-linecap="round" stroke-linejoin="round" stroke-miterlimit="10" stroke-dasharray="16.0417 9.16667" fill="none" fill-rule="evenodd"/><path d="M633 375 633 520.235" stroke="#61CBF4" stroke-width="2.29167" stroke-linecap="round" stroke-linejoin="round" stroke-miterlimit="10" stroke-dasharray="16.0417 9.16667" fill="none" fill-rule="evenodd"/><path d="M669 375 669 520.235" stroke="#61CBF4" stroke-width="2.29167" stroke-linecap="round" stroke-linejoin="round" stroke-miterlimit="10" stroke-dasharray="16.0417 9.16667" fill="none" fill-rule="evenodd"/><path d="M706 375 706 520.235" stroke="#61CBF4" stroke-width="2.29167" stroke-linecap="round" stroke-linejoin="round" stroke-miterlimit="10" stroke-dasharray="16.0417 9.16667" fill="none" fill-rule="evenodd"/><rect x="449.5" y="375.5" width="295" height="601" stroke="#000000" stroke-width="4.58333" stroke-linecap="round" stroke-linejoin="round" stroke-miterlimit="10" fill="none"/><text font-family="Noto Sans JP,Noto Sans JP_MSFontService,sans-serif" font-weight="400" font-size="28" transform="matrix(1 0 0 1 403.963 403)">#0</text><text font-family="Noto Sans JP,Noto Sans JP_MSFontService,sans-serif" font-weight="400" font-size="28" transform="matrix(1 0 0 1 434.901 403)"> </text><text font-family="Noto Sans JP,Noto Sans JP_MSFontService,sans-serif" font-weight="400" font-size="28" transform="matrix(1 0 0 1 403.963 443)">#1</text><text font-family="Noto Sans JP,Noto Sans JP_MSFontService,sans-serif" font-weight="400" font-size="28" transform="matrix(1 0 0 1 434.901 443)"> </text><text font-family="Noto Sans JP,Noto Sans JP_MSFontService,sans-serif" font-weight="400" font-size="28" transform="matrix(1 0 0 1 403.963 481)">#2</text><text font-family="Noto Sans JP,Noto Sans JP_MSFontService,sans-serif" font-weight="400" font-size="28" transform="matrix(1 0 0 1 434.901 481)"> </text><text font-family="Noto Sans JP,Noto Sans JP_MSFontService,sans-serif" font-weight="400" font-size="28" transform="matrix(1 0 0 1 388.494 885)">#61</text><text font-family="Noto Sans JP,Noto Sans JP_MSFontService,sans-serif" font-weight="400" font-size="28" transform="matrix(1 0 0 1 434.901 885)"> </text><text font-family="Noto Sans JP,Noto Sans JP_MSFontService,sans-serif" font-weight="400" font-size="28" transform="matrix(1 0 0 1 388.494 927)">#62</text><text font-family="Noto Sans JP,Noto Sans JP_MSFontService,sans-serif" font-weight="400" font-size="28" transform="matrix(1 0 0 1 434.901 927)"> </text><text font-family="Noto Sans JP,Noto Sans JP_MSFontService,sans-serif" font-weight="400" font-size="28" transform="matrix(1 0 0 1 388.494 969)">#63</text><text font-family="Noto Sans JP,Noto Sans JP_MSFontService,sans-serif" font-weight="400" font-size="28" transform="matrix(1 0 0 1 434.901 969)"> </text><path d="M485 834 485 979.235" stroke="#61CBF4" stroke-width="2.29167" stroke-linecap="round" stroke-linejoin="round" stroke-miterlimit="10" stroke-dasharray="16.0417 9.16667" fill="none" fill-rule="evenodd"/><path d="M522 834 522.001 979.235" stroke="#61CBF4" stroke-width="2.29167" stroke-linecap="round" stroke-linejoin="round" stroke-miterlimit="10" stroke-dasharray="16.0417 9.16667" fill="none" fill-rule="evenodd"/><path d="M559 834 559 979.235" stroke="#61CBF4" stroke-width="2.29167" stroke-linecap="round" stroke-linejoin="round" stroke-miterlimit="10" stroke-dasharray="16.0417 9.16667" fill="none" fill-rule="evenodd"/><path d="M596 834 596 979.235" stroke="#61CBF4" stroke-width="2.29167" stroke-linecap="round" stroke-linejoin="round" stroke-miterlimit="10" stroke-dasharray="16.0417 9.16667" fill="none" fill-rule="evenodd"/><path d="M633 834 633 979.235" stroke="#61CBF4" stroke-width="2.29167" stroke-linecap="round" stroke-linejoin="round" stroke-miterlimit="10" stroke-dasharray="16.0417 9.16667" fill="none" fill-rule="evenodd"/><path d="M669 834 669 979.235" stroke="#61CBF4" stroke-width="2.29167" stroke-linecap="round" stroke-linejoin="round" stroke-miterlimit="10" stroke-dasharray="16.0417 9.16667" fill="none" fill-rule="evenodd"/><path d="M706 834 706 979.235" stroke="#61CBF4" stroke-width="2.29167" stroke-linecap="round" stroke-linejoin="round" stroke-miterlimit="10" stroke-dasharray="16.0417 9.16667" fill="none" fill-rule="evenodd"/><path d="M485 640 485 719.922" stroke="#61CBF4" stroke-width="2.29167" stroke-linecap="round" stroke-linejoin="round" stroke-miterlimit="10" stroke-dasharray="16.0417 9.16667" fill="none" fill-rule="evenodd"/><path d="M522 640 522.001 719.922" stroke="#61CBF4" stroke-width="2.29167" stroke-linecap="round" stroke-linejoin="round" stroke-miterlimit="10" stroke-dasharray="16.0417 9.16667" fill="none" fill-rule="evenodd"/><path d="M559 640 559 719.922" stroke="#61CBF4" stroke-width="2.29167" stroke-linecap="round" stroke-linejoin="round" stroke-miterlimit="10" stroke-dasharray="16.0417 9.16667" fill="none" fill-rule="evenodd"/><path d="M596 640 596 719.922" stroke="#61CBF4" stroke-width="2.29167" stroke-linecap="round" stroke-linejoin="round" stroke-miterlimit="10" stroke-dasharray="16.0417 9.16667" fill="none" fill-rule="evenodd"/><path d="M633 640 633 719.922" stroke="#61CBF4" stroke-width="2.29167" stroke-linecap="round" stroke-linejoin="round" stroke-miterlimit="10" stroke-dasharray="16.0417 9.16667" fill="none" fill-rule="evenodd"/><path d="M669 640 669 719.922" stroke="#61CBF4" stroke-width="2.29167" stroke-linecap="round" stroke-linejoin="round" stroke-miterlimit="10" stroke-dasharray="16.0417 9.16667" fill="none" fill-rule="evenodd"/><path d="M706 640 706 719.922" stroke="#61CBF4" stroke-width="2.29167" stroke-linecap="round" stroke-linejoin="round" stroke-miterlimit="10" stroke-dasharray="16.0417 9.16667" fill="none" fill-rule="evenodd"/><rect x="451.5" y="657.5" width="289" height="40.9999" stroke="#00B050" stroke-width="9.16667" stroke-linecap="round" stroke-linejoin="round" stroke-miterlimit="10" fill="none"/><text font-family="Noto Sans JP,Noto Sans JP_MSFontService,sans-serif" font-weight="400" font-size="41" transform="matrix(1 0 0 1 329.198 693)">index</text><text font-family="Noto Sans JP,Noto Sans JP_MSFontService,sans-serif" font-weight="400" font-size="41" transform="matrix(1 0 0 1 435.188 693)"> </text><path d="M1103.55 292.475 1129.39 344.165C1129.96 345.297 1129.5 346.674 1128.37 347.24 1127.24 347.806 1125.86 347.347 1125.3 346.215L1099.45 294.525C1098.88 293.393 1099.34 292.016 1100.47 291.45 1101.61 290.884 1102.98 291.343 1103.55 292.475ZM1137.59 334.941 1137.59 365.687 1113 347.24Z"/><path d="M760.586 673.21 1105.09 686.104C1106.36 686.151 1107.35 687.215 1107.3 688.479 1107.25 689.744 1106.19 690.731 1104.92 690.684L760.414 677.79C759.149 677.743 758.162 676.679 758.21 675.414 758.257 674.149 759.321 673.163 760.586 673.21ZM1100.94 674.482 1127.91 689.251 1099.91 701.963Z"/><text font-family="Noto Sans JP,Noto Sans JP_MSFontService,sans-serif" font-weight="400" font-size="41" transform="matrix(1 0 0 1 887.014 661)">copy</text><text font-family="Noto Sans JP,Noto Sans JP_MSFontService,sans-serif" font-weight="400" font-size="41" transform="matrix(1 0 0 1 980.972 661)"> </text></g></svg>