<svg width="2022" height="1004" xmlns="http://www.w3.org/2000/svg" xmlns:xlink="http://www.w3.org/1999/xlink" xml:space="preserve" overflow="hidden"><defs><clipPath id="clip0"><rect x="104" y="57" width="2022" height="1004"/></clipPath></defs><g clip-path="url(#clip0)" transform="translate(-104 -57)"><rect x="104" y="57.0001" width="2022" height="1004" fill="#FFFFFF"/><rect x="852.5" y="842.5" width="150" height="155" stroke="#000000" stroke-width="4.58333" stroke-linecap="round" stroke-linejoin="round" stroke-miterlimit="10"/><rect x="929.5" y="688.5" width="150" height="156" stroke="#000000" stroke-width="4.58333" stroke-linecap="round" stroke-linejoin="round" stroke-miterlimit="10"/><rect x="1006.5" y="535.5" width="150" height="156" stroke="#000000" stroke-width="4.58333" stroke-linecap="round" stroke-linejoin="round" stroke-miterlimit="10"/><rect x="1083.5" y="380.5" width="151" height="156" stroke="#000000" stroke-width="4.58333" stroke-linecap="round" stroke-linejoin="round" stroke-miterlimit="10"/><path d="M699 380 699 994.276" stroke="#61CBF4" stroke-width="2.29167" stroke-linecap="round" stroke-linejoin="round" stroke-miterlimit="10" stroke-dasharray="16.0417 9.16667" fill="none" fill-rule="evenodd"/><path d="M776 380 776 994.276" stroke="#61CBF4" stroke-width="2.29167" stroke-linecap="round" stroke-linejoin="round" stroke-miterlimit="10" stroke-dasharray="16.0417 9.16667" fill="none" fill-rule="evenodd"/><path d="M853 380 853 994.276" stroke="#61CBF4" stroke-width="2.29167" stroke-linecap="round" stroke-linejoin="round" stroke-miterlimit="10" stroke-dasharray="16.0417 9.16667" fill="none" fill-rule="evenodd"/><path d="M930 380 930 994.276" stroke="#61CBF4" stroke-width="2.29167" stroke-linecap="round" stroke-linejoin="round" stroke-miterlimit="10" stroke-dasharray="16.0417 9.16667" fill="none" fill-rule="evenodd"/><path d="M1007 380 1007 994.276" stroke="#61CBF4" stroke-width="2.29167" stroke-linecap="round" stroke-linejoin="round" stroke-miterlimit="10" stroke-dasharray="16.0417 9.16667" fill="none" fill-rule="evenodd"/><path d="M1084 380 1084 994.276" stroke="#61CBF4" stroke-width="2.29167" stroke-linecap="round" stroke-linejoin="round" stroke-miterlimit="10" stroke-dasharray="16.0417 9.16667" fill="none" fill-rule="evenodd"/><path d="M1161 380 1161 994.276" stroke="#61CBF4" stroke-width="2.29167" stroke-linecap="round" stroke-linejoin="round" stroke-miterlimit="10" stroke-dasharray="16.0417 9.16667" fill="none" fill-rule="evenodd"/><path d="M1238 380 1238 994.276" stroke="#61CBF4" stroke-width="2.29167" stroke-linecap="round" stroke-linejoin="round" stroke-miterlimit="10" stroke-dasharray="16.0417 9.16667" fill="none" fill-rule="evenodd"/><path d="M1315 380 1315 994.276" stroke="#61CBF4" stroke-width="2.29167" stroke-linecap="round" stroke-linejoin="round" stroke-miterlimit="10" stroke-dasharray="16.0417 9.16667" fill="none" fill-rule="evenodd"/><path d="M1392 380 1392 994.276" stroke="#61CBF4" stroke-width="2.29167" stroke-linecap="round" stroke-linejoin="round" stroke-miterlimit="10" stroke-dasharray="16.0417 9.16667" fill="none" fill-rule="evenodd"/><path d="M1469 380 1469 994.276" stroke="#61CBF4" stroke-width="2.29167" stroke-linecap="round" stroke-linejoin="round" stroke-miterlimit="10" stroke-dasharray="16.0417 9.16667" fill="none" fill-rule="evenodd"/><path d="M633 380 1530.76 380" stroke="#0F9ED5" stroke-width="2.29167" stroke-linecap="round" stroke-linejoin="round" stroke-miterlimit="10" stroke-dasharray="16.0417 9.16667" fill="none" fill-rule="evenodd"/><path d="M633 457 1530.76 457" stroke="#0F9ED5" stroke-width="2.29167" stroke-linecap="round" stroke-linejoin="round" stroke-miterlimit="10" stroke-dasharray="16.0417 9.16667" fill="none" fill-rule="evenodd"/><path d="M633 534 1530.76 534" stroke="#0F9ED5" stroke-width="2.29167" stroke-linecap="round" stroke-linejoin="round" stroke-miterlimit="10" stroke-dasharray="16.0417 9.16667" fill="none" fill-rule="evenodd"/><path d="M633 611 1530.76 611" stroke="#0F9ED5" stroke-width="2.29167" stroke-linecap="round" stroke-linejoin="round" stroke-miterlimit="10" stroke-dasharray="16.0417 9.16667" fill="none" fill-rule="evenodd"/><path d="M633 688 1530.76 688" stroke="#0F9ED5" stroke-width="2.29167" stroke-linecap="round" stroke-linejoin="round" stroke-miterlimit="10" stroke-dasharray="16.0417 9.16667" fill="none" fill-rule="evenodd"/><path d="M633 765 1530.76 765" stroke="#0F9ED5" stroke-width="2.29167" stroke-linecap="round" stroke-linejoin="round" stroke-miterlimit="10" stroke-dasharray="16.0417 9.16667" fill="none" fill-rule="evenodd"/><path d="M633 842 1530.76 842" stroke="#0F9ED5" stroke-width="2.29167" stroke-linecap="round" stroke-linejoin="round" stroke-miterlimit="10" stroke-dasharray="16.0417 9.16667" fill="none" fill-rule="evenodd"/><path d="M633 919 1530.76 919" stroke="#0F9ED5" stroke-width="2.29167" stroke-linecap="round" stroke-linejoin="round" stroke-miterlimit="10" stroke-dasharray="16.0417 9.16667" fill="none" fill-rule="evenodd"/><path d="M633 996 1530.76 996" stroke="#0F9ED5" stroke-width="2.29167" stroke-linecap="round" stroke-linejoin="round" stroke-miterlimit="10" stroke-dasharray="16.0417 9.16667" fill="none" fill-rule="evenodd"/><text font-family="Noto Sans JP,Noto Sans JP_MSFontService,sans-serif" font-weight="400" font-size="41" transform="matrix(1 0 0 1 900.587 146)">current</text><text font-family="Noto Sans JP,Noto Sans JP_MSFontService,sans-serif" font-weight="400" font-size="41" transform="matrix(1 0 0 1 1042.67 146)"> </text><text font-family="Noto Sans JP,Noto Sans JP_MSFontService,sans-serif" font-weight="400" font-size="41" transform="matrix(1 0 0 1 825.833 195)">cursor position</text><text font-family="Noto Sans JP,Noto Sans JP_MSFontService,sans-serif" font-weight="400" font-size="41" transform="matrix(1 0 0 1 1117.45 195)"> </text><path d="M1317.5 291.5 1317.5 360.707" stroke="#000000" stroke-width="4.58333" stroke-linecap="round" stroke-linejoin="round" stroke-miterlimit="10" fill="none" fill-rule="evenodd"/><path d="M1010.5 291.5 1010.5 360.707" stroke="#000000" stroke-width="4.58333" stroke-linecap="round" stroke-linejoin="round" stroke-miterlimit="10" fill="none" fill-rule="evenodd"/><path d="M1012.79 214.5 1012.79 252.567C1012.79 253.833 1011.77 254.859 1010.5 254.859 1009.23 254.859 1008.21 253.833 1008.21 252.567L1008.21 214.5C1008.21 213.234 1009.23 212.208 1010.5 212.208 1011.77 212.208 1012.79 213.234 1012.79 214.5ZM1024.25 247.984 1010.5 275.484 996.75 247.984Z"/><path d="M1319.79 214.5 1319.79 252.567C1319.79 253.833 1318.77 254.859 1317.5 254.859 1316.23 254.859 1315.21 253.833 1315.21 252.567L1315.21 214.5C1315.21 213.234 1316.23 212.208 1317.5 212.208 1318.77 212.208 1319.79 213.234 1319.79 214.5ZM1331.25 247.984 1317.5 275.484 1303.75 247.984Z"/><text font-family="Noto Sans JP,Noto Sans JP_MSFontService,sans-serif" font-weight="400" font-size="41" transform="matrix(1 0 0 1 1295.84 146)">new</text><text font-family="Noto Sans JP,Noto Sans JP_MSFontService,sans-serif" font-weight="400" font-size="41" transform="matrix(1 0 0 1 1377.19 146)"> </text><text font-family="Noto Sans JP,Noto Sans JP_MSFontService,sans-serif" font-weight="400" font-size="41" transform="matrix(1 0 0 1 1190.72 195)">cursor position</text><text font-family="Noto Sans JP,Noto Sans JP_MSFontService,sans-serif" font-weight="400" font-size="41" transform="matrix(1 0 0 1 1482.33 195)"> </text><path d="M22.9166-2.29164 276.995-2.29133C278.261-2.29133 279.287-1.26532 279.287 0.000336074 279.287 1.26599 278.261 2.292 276.995 2.292L22.9166 2.29169C21.651 2.29169 20.625 1.26568 20.625 2.48186e-05 20.625-1.26563 21.651-2.29164 22.9166-2.29164ZM27.5 13.75 0 0 27.5-13.75ZM272.412-13.7497 299.912 0.000360892 272.412 13.7503Z" transform="matrix(-1 0 0 1 1313.41 314.5)"/><text font-family="Noto Sans JP,Noto Sans JP_MSFontService,sans-serif" font-weight="400" font-size="41" transform="matrix(1 0 0 1 1031.62 300)">repeat_count</text><text font-family="Noto Sans JP,Noto Sans JP_MSFontService,sans-serif" font-weight="400" font-size="41" transform="matrix(1 0 0 1 1293.44 300)"> </text><path d="M700 994 922.291 994" stroke="#FFFFFF" stroke-width="13.75" stroke-linecap="round" stroke-linejoin="round" stroke-miterlimit="10" fill="none" fill-rule="evenodd"/><path d="M700 841 922.291 841.001" stroke="#FFFFFF" stroke-width="13.75" stroke-linecap="round" stroke-linejoin="round" stroke-miterlimit="10" fill="none" fill-rule="evenodd"/><path d="M2.29167-5.59523e-06 2.29197 124.896C2.29197 126.161 1.26596 127.188 0.000310535 127.188-1.26534 127.188-2.29136 126.161-2.29136 124.896L-2.29167 5.59523e-06C-2.29167-1.26565-1.26566-2.29166-5.59523e-06-2.29167 1.26565-2.29167 2.29166-1.26566 2.29167-5.59523e-06ZM13.7503 120.312 0.000360892 147.812-13.7497 120.313Z" transform="matrix(1 0 0 -1 738.5 990.313)"/><text font-family="Noto Sans JP,Noto Sans JP_MSFontService,sans-serif" font-weight="400" font-size="41" transform="matrix(1 0 0 1 547.706 909)">shift_dir</text><text font-family="Noto Sans JP,Noto Sans JP_MSFontService,sans-serif" font-weight="400" font-size="41" transform="matrix(1 0 0 1 708.695 909)"> </text><text font-family="Noto Sans JP,Noto Sans JP_MSFontService,sans-serif" font-weight="400" font-size="41" transform="matrix(1 0 0 1 537.668 958)">shift_size</text><text font-family="Noto Sans JP,Noto Sans JP_MSFontService,sans-serif" font-weight="400" font-size="41" transform="matrix(1 0 0 1 718.71 958)"> </text><path d="M700.5 992.5 912.479 992.5" stroke="#000000" stroke-width="4.58333" stroke-linecap="round" stroke-linejoin="round" stroke-miterlimit="10" fill="none" fill-rule="evenodd"/><path d="M700.5 839.5 912.479 839.5" stroke="#000000" stroke-width="4.58333" stroke-linecap="round" stroke-linejoin="round" stroke-miterlimit="10" fill="none" fill-rule="evenodd"/><rect x="925.5" y="534.5" width="77" height="463" stroke="#00B050" stroke-width="9.16667" stroke-linecap="round" stroke-linejoin="round" stroke-miterlimit="10" fill="none"/><rect x="1002.5" y="534.5" width="77" height="463" stroke="#00B050" stroke-width="9.16667" stroke-linecap="round" stroke-linejoin="round" stroke-miterlimit="10" fill="none"/><rect x="1079.5" y="534.5" width="76" height="463" stroke="#00B050" stroke-width="9.16667" stroke-linecap="round" stroke-linejoin="round" stroke-miterlimit="10" fill="none"/><rect x="1155.5" y="534.5" width="77" height="463" stroke="#00B050" stroke-width="9.16667" stroke-linecap="round" stroke-linejoin="round" stroke-miterlimit="10" fill="none"/><rect x="1010.5" y="380.5" width="77" height="457" stroke="#E97132" stroke-width="9.16667" stroke-linecap="round" stroke-linejoin="round" stroke-miterlimit="10" fill="none"/><rect x="1087.5" y="380.5" width="77" height="457" stroke="#E97132" stroke-width="9.16667" stroke-linecap="round" stroke-linejoin="round" stroke-miterlimit="10" fill="none"/><rect x="1164.5" y="380.5" width="76" height="457" stroke="#E97132" stroke-width="9.16667" stroke-linecap="round" stroke-linejoin="round" stroke-miterlimit="10" fill="none"/><rect x="1240.5" y="380.5" width="77" height="457" stroke="#E97132" stroke-width="9.16667" stroke-linecap="round" stroke-linejoin="round" stroke-miterlimit="10" fill="none"/><path d="M6.09085-3.1886 74.9395 128.326C76.7005 131.69 75.4012 135.844 72.0373 137.605 68.6734 139.366 64.5188 138.067 62.7578 134.703L-6.09085 3.1886C-7.85187-0.175287-6.55248-4.32984-3.1886-6.09085 0.175287-7.85187 4.32984-6.55248 6.09085-3.1886ZM83.9326 115.858 84.7917 161.969 47.3875 134.99Z" fill="#FFFFFF" transform="matrix(1 0 0 -1 1194 784.969)"/><path d="M2.0246-1.07365 71.2103 129.391C71.8032 130.509 71.3775 131.896 70.2593 132.489 69.1412 133.082 67.754 132.657 67.1611 131.538L-2.0246 1.07365C-2.61756-0.0445078-2.19181-1.43164-1.07365-2.0246 0.0445078-2.61756 1.43164-2.19181 2.0246-1.07365ZM79.186 119.974 79.9221 150.711 54.8907 132.857Z" transform="matrix(1 0 0 -1 1194.5 784.211)"/><path d="M6.09085-3.1886 74.9395 128.326C76.7005 131.69 75.4012 135.844 72.0373 137.605 68.6734 139.366 64.5188 138.067 62.7578 134.703L-6.09085 3.1886C-7.85187-0.175287-6.55248-4.32984-3.1886-6.09085 0.175287-7.85187 4.32984-6.55248 6.09085-3.1886ZM83.9326 115.858 84.7917 161.969 47.3875 134.99Z" fill="#FFFFFF" transform="matrix(1 0 0 -1 1122 784.969)"/><path d="M2.0246-1.07365 71.2103 129.391C71.8032 130.509 71.3775 131.896 70.2593 132.489 69.1412 133.082 67.754 132.657 67.1611 131.538L-2.0246 1.07365C-2.61756-0.0445078-2.19181-1.43164-1.07365-2.0246 0.0445078-2.61756 1.43164-2.19181 2.0246-1.07365ZM79.186 119.974 79.9221 150.711 54.8907 132.857Z" transform="matrix(1 0 0 -1 1122.5 784.211)"/><path d="M6.09085-3.1886 74.9395 128.326C76.7005 131.69 75.4012 135.844 72.0373 137.605 68.6734 139.366 64.5188 138.067 62.7578 134.703L-6.09085 3.1886C-7.85187-0.175287-6.55248-4.32984-3.1886-6.09085 0.175287-7.85187 4.32984-6.55248 6.09085-3.1886ZM83.9326 115.858 84.7917 161.969 47.3875 134.99Z" fill="#FFFFFF" transform="matrix(1 0 0 -1 1048 784.969)"/><path d="M2.0246-1.07365 71.2103 129.391C71.8032 130.509 71.3775 131.896 70.2593 132.489 69.1412 133.082 67.754 132.657 67.1611 131.538L-2.0246 1.07365C-2.61756-0.0445078-2.19181-1.43164-1.07365-2.0246 0.0445078-2.61756 1.43164-2.19181 2.0246-1.07365ZM79.186 119.974 79.9221 150.711 54.8907 132.857Z" transform="matrix(1 0 0 -1 1048.5 784.211)"/><path d="M6.09085-3.1886 74.9395 128.326C76.7005 131.69 75.4012 135.844 72.0373 137.605 68.6734 139.366 64.5188 138.067 62.7578 134.703L-6.09085 3.1886C-7.85187-0.175287-6.55248-4.32984-3.1886-6.09085 0.175287-7.85187 4.32984-6.55248 6.09085-3.1886ZM83.9326 115.858 84.7917 161.969 47.3875 134.99Z" fill="#FFFFFF" transform="matrix(1 0 0 -1 971 784.969)"/><path d="M2.0246-1.07365 71.2103 129.391C71.8032 130.509 71.3775 131.896 70.2593 132.489 69.1412 133.082 67.754 132.657 67.1611 131.538L-2.0246 1.07365C-2.61756-0.0445078-2.19181-1.43164-1.07365-2.0246 0.0445078-2.61756 1.43164-2.19181 2.0246-1.07365ZM79.186 119.974 79.9221 150.711 54.8907 132.857Z" transform="matrix(1 0 0 -1 970.5 784.211)"/><rect x="1014.5" y="850.5" width="304" height="140" stroke="#0097FE" stroke-width="9.16667" stroke-linecap="round" stroke-linejoin="round" stroke-miterlimit="10" fill="none"/><text font-family="Noto Sans JP,Noto Sans JP_MSFontService,sans-serif" font-weight="400" font-size="41" transform="matrix(1 0 0 1 1443.03 828)">post_op</text><text font-family="Noto Sans JP,Noto Sans JP_MSFontService,sans-serif" font-weight="400" font-size="41" transform="matrix(1 0 0 1 1602.88 828)"> </text><text font-family="Noto Sans JP,Noto Sans JP_MSFontService,sans-serif" font-weight="400" font-size="41" transform="matrix(1 0 0 1 1402.93 877)">(clear or set)</text><text font-family="Noto Sans JP,Noto Sans JP_MSFontService,sans-serif" font-weight="400" font-size="41" transform="matrix(1 0 0 1 1642.98 877)"> </text><path d="M1.0205-2.0519 44.4346 19.5399C45.5679 20.1035 46.0296 21.479 45.466 22.6123 44.9024 23.7455 43.5269 24.2073 42.3936 23.6437L-1.0205 2.0519C-2.15374 1.4883-2.61551 0.112733-2.0519-1.0205-1.4883-2.15374-0.112733-2.61551 1.0205-2.0519ZM45.4333 7.23933 63.9332 31.7968 33.1873 31.8622Z" transform="matrix(-1 0 0 1 1382.43 859.5)"/></g></svg>