<svg width="2021" height="1004" xmlns="http://www.w3.org/2000/svg" xmlns:xlink="http://www.w3.org/1999/xlink" xml:space="preserve" overflow="hidden"><defs><clipPath id="clip0"><rect x="2207" y="1331" width="2021" height="1004"/></clipPath></defs><g clip-path="url(#clip0)" transform="translate(-2207 -1331)"><rect x="2207" y="1331" width="2021" height="1004" fill="#FFFFFF"/><rect x="3205.5" y="2069.5" width="151" height="156" stroke="#000000" stroke-width="4.58333" stroke-linecap="round" stroke-linejoin="round" stroke-miterlimit="10"/><rect x="3282.5" y="1916.5" width="151" height="154" stroke="#000000" stroke-width="4.58333" stroke-linecap="round" stroke-linejoin="round" stroke-miterlimit="10"/><rect x="3360.5" y="1763.5" width="150" height="151" stroke="#000000" stroke-width="4.58333" stroke-linecap="round" stroke-linejoin="round" stroke-miterlimit="10"/><rect x="3437.5" y="1608.5" width="231" height="156" stroke="#000000" stroke-width="4.58333" stroke-linecap="round" stroke-linejoin="round" stroke-miterlimit="10"/><rect x="3592.5" y="1763.5" width="151" height="151" stroke="#000000" stroke-width="4.58333" stroke-linecap="round" stroke-linejoin="round" stroke-miterlimit="10"/><rect x="3670.5" y="1914.5" width="150" height="155" stroke="#000000" stroke-width="4.58333" stroke-linecap="round" stroke-linejoin="round" stroke-miterlimit="10"/><rect x="3747.5" y="2068.5" width="150" height="156" stroke="#000000" stroke-width="4.58333" stroke-linecap="round" stroke-linejoin="round" stroke-miterlimit="10"/><rect x="3431.5" y="1992.5" width="238" height="77.0001" stroke="#000000" stroke-width="4.58333" stroke-linecap="round" stroke-linejoin="round" stroke-miterlimit="10"/><path d="M3129 1607 3129 2221.28" stroke="#61CBF4" stroke-width="2.29167" stroke-linecap="round" stroke-linejoin="round" stroke-miterlimit="10" stroke-dasharray="16.0417 9.16667" fill="none" fill-rule="evenodd"/><path d="M3206 1607 3206 2221.28" stroke="#61CBF4" stroke-width="2.29167" stroke-linecap="round" stroke-linejoin="round" stroke-miterlimit="10" stroke-dasharray="16.0417 9.16667" fill="none" fill-rule="evenodd"/><path d="M3283 1607 3283 2221.28" stroke="#61CBF4" stroke-width="2.29167" stroke-linecap="round" stroke-linejoin="round" stroke-miterlimit="10" stroke-dasharray="16.0417 9.16667" fill="none" fill-rule="evenodd"/><path d="M3360 1607 3360 2221.28" stroke="#61CBF4" stroke-width="2.29167" stroke-linecap="round" stroke-linejoin="round" stroke-miterlimit="10" stroke-dasharray="16.0417 9.16667" fill="none" fill-rule="evenodd"/><path d="M3437 1607 3437 2221.28" stroke="#61CBF4" stroke-width="2.29167" stroke-linecap="round" stroke-linejoin="round" stroke-miterlimit="10" stroke-dasharray="16.0417 9.16667" fill="none" fill-rule="evenodd"/><path d="M3514 1607 3514 2221.28" stroke="#61CBF4" stroke-width="2.29167" stroke-linecap="round" stroke-linejoin="round" stroke-miterlimit="10" stroke-dasharray="16.0417 9.16667" fill="none" fill-rule="evenodd"/><path d="M3591 1607 3591 2221.28" stroke="#61CBF4" stroke-width="2.29167" stroke-linecap="round" stroke-linejoin="round" stroke-miterlimit="10" stroke-dasharray="16.0417 9.16667" fill="none" fill-rule="evenodd"/><path d="M3668 1607 3668 2221.28" stroke="#61CBF4" stroke-width="2.29167" stroke-linecap="round" stroke-linejoin="round" stroke-miterlimit="10" stroke-dasharray="16.0417 9.16667" fill="none" fill-rule="evenodd"/><path d="M3745 1607 3745 2221.28" stroke="#61CBF4" stroke-width="2.29167" stroke-linecap="round" stroke-linejoin="round" stroke-miterlimit="10" stroke-dasharray="16.0417 9.16667" fill="none" fill-rule="evenodd"/><path d="M3822 1607 3822 2221.28" stroke="#61CBF4" stroke-width="2.29167" stroke-linecap="round" stroke-linejoin="round" stroke-miterlimit="10" stroke-dasharray="16.0417 9.16667" fill="none" fill-rule="evenodd"/><path d="M3899 1607 3899 2221.28" stroke="#61CBF4" stroke-width="2.29167" stroke-linecap="round" stroke-linejoin="round" stroke-miterlimit="10" stroke-dasharray="16.0417 9.16667" fill="none" fill-rule="evenodd"/><path d="M3063 1607 3960.76 1607" stroke="#0F9ED5" stroke-width="2.29167" stroke-linecap="round" stroke-linejoin="round" stroke-miterlimit="10" stroke-dasharray="16.0417 9.16667" fill="none" fill-rule="evenodd"/><path d="M3063 1684 3960.76 1684" stroke="#0F9ED5" stroke-width="2.29167" stroke-linecap="round" stroke-linejoin="round" stroke-miterlimit="10" stroke-dasharray="16.0417 9.16667" fill="none" fill-rule="evenodd"/><path d="M3063 1761 3960.76 1761" stroke="#0F9ED5" stroke-width="2.29167" stroke-linecap="round" stroke-linejoin="round" stroke-miterlimit="10" stroke-dasharray="16.0417 9.16667" fill="none" fill-rule="evenodd"/><path d="M3063 1838 3960.76 1838" stroke="#0F9ED5" stroke-width="2.29167" stroke-linecap="round" stroke-linejoin="round" stroke-miterlimit="10" stroke-dasharray="16.0417 9.16667" fill="none" fill-rule="evenodd"/><path d="M3063 1915 3960.76 1915" stroke="#0F9ED5" stroke-width="2.29167" stroke-linecap="round" stroke-linejoin="round" stroke-miterlimit="10" stroke-dasharray="16.0417 9.16667" fill="none" fill-rule="evenodd"/><path d="M3063 1992 3960.76 1992" stroke="#0F9ED5" stroke-width="2.29167" stroke-linecap="round" stroke-linejoin="round" stroke-miterlimit="10" stroke-dasharray="16.0417 9.16667" fill="none" fill-rule="evenodd"/><path d="M3063 2069 3960.76 2069" stroke="#0F9ED5" stroke-width="2.29167" stroke-linecap="round" stroke-linejoin="round" stroke-miterlimit="10" stroke-dasharray="16.0417 9.16667" fill="none" fill-rule="evenodd"/><path d="M3063 2146 3960.76 2146" stroke="#0F9ED5" stroke-width="2.29167" stroke-linecap="round" stroke-linejoin="round" stroke-miterlimit="10" stroke-dasharray="16.0417 9.16667" fill="none" fill-rule="evenodd"/><path d="M3063 2223 3960.76 2223" stroke="#0F9ED5" stroke-width="2.29167" stroke-linecap="round" stroke-linejoin="round" stroke-miterlimit="10" stroke-dasharray="16.0417 9.16667" fill="none" fill-rule="evenodd"/><text font-family="Noto Sans JP,Noto Sans JP_MSFontService,sans-serif" font-weight="400" font-size="41" transform="matrix(1 0 0 1 3008.35 1455)">current</text><text font-family="Noto Sans JP,Noto Sans JP_MSFontService,sans-serif" font-weight="400" font-size="41" transform="matrix(1 0 0 1 3150.43 1455)"> </text><text font-family="Noto Sans JP,Noto Sans JP_MSFontService,sans-serif" font-weight="400" font-size="41" transform="matrix(1 0 0 1 2933.59 1504)">cursor position</text><text font-family="Noto Sans JP,Noto Sans JP_MSFontService,sans-serif" font-weight="400" font-size="41" transform="matrix(1 0 0 1 3225.21 1504)"> </text><path d="M2.04973-1.02486 27.8947 50.665C28.4607 51.797 28.0018 53.1736 26.8698 53.7396 25.7378 54.3056 24.3612 53.8467 23.7952 52.7147L-2.04973 1.02486C-2.61575-0.10717-2.1569-1.48371-1.02486-2.04973 0.10717-2.61575 1.48371-2.1569 2.04973-1.02486ZM36.0936 41.4412 36.0936 72.1871 11.4968 53.7396Z" transform="matrix(-1 0 0 1 3396.59 1521.5)"/><text font-family="Noto Sans JP,Noto Sans JP_MSFontService,sans-serif" font-weight="400" font-size="41" transform="matrix(1 0 0 1 3456.3 1453)">new</text><text font-family="Noto Sans JP,Noto Sans JP_MSFontService,sans-serif" font-weight="400" font-size="41" transform="matrix(1 0 0 1 3537.66 1453)"> </text><text font-family="Noto Sans JP,Noto Sans JP_MSFontService,sans-serif" font-weight="400" font-size="41" transform="matrix(1 0 0 1 3351.18 1502)">cursor position</text><text font-family="Noto Sans JP,Noto Sans JP_MSFontService,sans-serif" font-weight="400" font-size="41" transform="matrix(1 0 0 1 3642.8 1502)"> </text><rect x="3206.5" y="1607.5" width="152" height="615" stroke="#E97132" stroke-width="9.16667" stroke-linecap="round" stroke-linejoin="round" stroke-miterlimit="10" fill="none"/><text font-family="Noto Sans JP,Noto Sans JP_MSFontService,sans-serif" font-weight="400" font-size="41" transform="matrix(1 0 0 1 2534.35 1578)">Lookup Table</text><text font-family="Noto Sans JP,Noto Sans JP_MSFontService,sans-serif" font-weight="400" font-size="41" transform="matrix(1 0 0 1 2797.89 1578)"> </text><rect x="0" y="0" width="36.9998" height="39.9999" transform="matrix(-1 0 0 1 2814 1600)"/><rect x="0" y="0" width="37.0001" height="39.9999" fill="#FFFFFF" transform="matrix(-1 0 0 1 2777 1600)"/><rect x="0" y="0" width="37.0001" height="39.9999" fill="#FFFFFF" transform="matrix(-1 0 0 1 2740 1600)"/><rect x="0" y="0" width="36.9998" height="39.9999" transform="matrix(-1 0 0 1 2703 1600)"/><rect x="0" y="0" width="37.0001" height="39.9999" transform="matrix(-1 0 0 1 2666 1600)"/><rect x="0" y="0" width="37.0001" height="39.9999" fill="#FFFFFF" transform="matrix(-1 0 0 1 2629 1600)"/><rect x="0" y="0" width="36.9998" height="39.9999" fill="#FFFFFF" transform="matrix(-1 0 0 1 2592 1600)"/><rect x="0" y="0" width="36.0001" height="39.9999" transform="matrix(-1 0 0 1 2555 1600)"/><rect x="0" y="0" width="36.9998" height="39.9999" transform="matrix(-1 0 0 1 2814 1640)"/><rect x="0" y="0" width="37.0001" height="39.9999" transform="matrix(-1 0 0 1 2777 1640)"/><rect x="0" y="0" width="37.0001" height="39.9999" fill="#FFFFFF" transform="matrix(-1 0 0 1 2740 1640)"/><rect x="0" y="0" width="36.9998" height="39.9999" transform="matrix(-1 0 0 1 2703 1640)"/><rect x="0" y="0" width="37.0001" height="39.9999" fill="#FFFFFF" transform="matrix(-1 0 0 1 2666 1640)"/><rect x="0" y="0" width="37.0001" height="39.9999" fill="#FFFFFF" transform="matrix(-1 0 0 1 2629 1640)"/><rect x="0" y="0" width="36.9998" height="39.9999" transform="matrix(-1 0 0 1 2592 1640)"/><rect x="0" y="0" width="36.0001" height="39.9999" fill="#FFFFFF" transform="matrix(-1 0 0 1 2555 1640)"/><rect x="0" y="0" width="36.9998" height="39.0002" transform="matrix(-1 0 0 1 2814 1680)"/><rect x="0" y="0" width="37.0001" height="39.0002" fill="#FFFFFF" transform="matrix(-1 0 0 1 2777 1680)"/><rect x="0" y="0" width="37.0001" height="39.0002" transform="matrix(-1 0 0 1 2740 1680)"/><rect x="0" y="0" width="36.9998" height="39.0002" fill="#FFFFFF" transform="matrix(-1 0 0 1 2703 1680)"/><rect x="0" y="0" width="37.0001" height="39.0002" transform="matrix(-1 0 0 1 2666 1680)"/><rect x="0" y="0" width="37.0001" height="39.0002" transform="matrix(-1 0 0 1 2629 1680)"/><rect x="0" y="0" width="36.9998" height="39.0002" transform="matrix(-1 0 0 1 2592 1680)"/><rect x="0" y="0" width="36.0001" height="39.0002" fill="#FFFFFF" transform="matrix(-1 0 0 1 2555 1680)"/><rect x="0" y="0" width="36.9998" height="40.0002" transform="matrix(-1 0 0 1 2814 2164)"/><rect x="0" y="0" width="37.0001" height="40.0002" transform="matrix(-1 0 0 1 2777 2164)"/><rect x="0" y="0" width="37.0001" height="40.0002" transform="matrix(-1 0 0 1 2740 2164)"/><rect x="0" y="0" width="36.9998" height="40.0002" fill="#FFFFFF" transform="matrix(-1 0 0 1 2703 2164)"/><rect x="0" y="0" width="37.0001" height="40.0002" transform="matrix(-1 0 0 1 2666 2164)"/><rect x="0" y="0" width="37.0001" height="40.0002" fill="#FFFFFF" transform="matrix(-1 0 0 1 2629 2164)"/><rect x="0" y="0" width="36.9998" height="40.0002" transform="matrix(-1 0 0 1 2592 2164)"/><rect x="0" y="0" width="36.0001" height="40.0002" transform="matrix(-1 0 0 1 2555 2164)"/><rect x="0" y="0" width="36.9998" height="38.9998" transform="matrix(-1 0 0 1 2814 2125)"/><rect x="0" y="0" width="37.0001" height="38.9998" fill="#FFFFFF" transform="matrix(-1 0 0 1 2777 2125)"/><rect x="0" y="0" width="37.0001" height="38.9998" fill="#FFFFFF" transform="matrix(-1 0 0 1 2740 2125)"/><rect x="0" y="0" width="36.9998" height="38.9998" fill="#FFFFFF" transform="matrix(-1 0 0 1 2703 2125)"/><rect x="0" y="0" width="37.0001" height="38.9998" transform="matrix(-1 0 0 1 2666 2125)"/><rect x="0" y="0" width="37.0001" height="38.9998" fill="#FFFFFF" transform="matrix(-1 0 0 1 2629 2125)"/><rect x="0" y="0" width="36.9998" height="38.9998" transform="matrix(-1 0 0 1 2592 2125)"/><rect x="0" y="0" width="36.0001" height="38.9998" fill="#FFFFFF" transform="matrix(-1 0 0 1 2555 2125)"/><rect x="0" y="0" width="36.9998" height="39.0002" fill="#FFFFFF" transform="matrix(-1 0 0 1 2814 2087)"/><rect x="0" y="0" width="37.0001" height="39.0002" transform="matrix(-1 0 0 1 2777 2087)"/><rect x="0" y="0" width="37.0001" height="39.0002" transform="matrix(-1 0 0 1 2740 2087)"/><rect x="0" y="0" width="36.9998" height="39.0002" fill="#FFFFFF" transform="matrix(-1 0 0 1 2703 2087)"/><rect x="0" y="0" width="37.0001" height="39.0002" transform="matrix(-1 0 0 1 2666 2087)"/><rect x="0" y="0" width="37.0001" height="39.0002" transform="matrix(-1 0 0 1 2629 2087)"/><rect x="0" y="0" width="36.9998" height="39.0002" fill="#FFFFFF" transform="matrix(-1 0 0 1 2592 2087)"/><rect x="0" y="0" width="36.0001" height="39.0002" transform="matrix(-1 0 0 1 2555 2087)"/><rect x="0" y="0" width="36.9998" height="38.9998" fill="#FFFFFF" transform="matrix(-1 0 0 1 2814 1886)"/><rect x="0" y="0" width="37.0001" height="38.9998" fill="#FFFFFF" transform="matrix(-1 0 0 1 2777 1886)"/><rect x="0" y="0" width="37.0001" height="38.9998" fill="#FFFFFF" transform="matrix(-1 0 0 1 2740 1886)"/><rect x="0" y="0" width="36.9998" height="38.9998" fill="#FFFFFF" transform="matrix(-1 0 0 1 2703 1886)"/><rect x="0" y="0" width="37.0001" height="38.9998" fill="#FFFFFF" transform="matrix(-1 0 0 1 2666 1886)"/><rect x="0" y="0" width="37.0001" height="38.9998" fill="#FFFFFF" transform="matrix(-1 0 0 1 2629 1886)"/><rect x="0" y="0" width="36.9998" height="38.9998" transform="matrix(-1 0 0 1 2592 1886)"/><rect x="0" y="0" width="36.0001" height="38.9998" transform="matrix(-1 0 0 1 2555 1886)"/><path d="M0 0 295.168 0.000360892" stroke="#0F9ED5" stroke-width="2.29167" stroke-linecap="round" stroke-linejoin="round" stroke-miterlimit="10" stroke-dasharray="16.0417 9.16667" fill="none" fill-rule="evenodd" transform="matrix(-1 0 0 1 2814.17 1640)"/><path d="M0 0 295.168 0.000360892" stroke="#0F9ED5" stroke-width="2.29167" stroke-linecap="round" stroke-linejoin="round" stroke-miterlimit="10" stroke-dasharray="16.0417 9.16667" fill="none" fill-rule="evenodd" transform="matrix(-1 0 0 1 2814.17 1679)"/><path d="M0 0 295.168 0.000360892" stroke="#0F9ED5" stroke-width="2.29167" stroke-linecap="round" stroke-linejoin="round" stroke-miterlimit="10" stroke-dasharray="16.0417 9.16667" fill="none" fill-rule="evenodd" transform="matrix(-1 0 0 1 2814.17 1718)"/><path d="M0 0 295.168 0.000360892" stroke="#0F9ED5" stroke-width="2.29167" stroke-linecap="round" stroke-linejoin="round" stroke-miterlimit="10" stroke-dasharray="16.0417 9.16667" fill="none" fill-rule="evenodd" transform="matrix(-1 0 0 1 2814.17 2086)"/><path d="M0 0 295.168 0.000360892" stroke="#0F9ED5" stroke-width="2.29167" stroke-linecap="round" stroke-linejoin="round" stroke-miterlimit="10" stroke-dasharray="16.0417 9.16667" fill="none" fill-rule="evenodd" transform="matrix(-1 0 0 1 2814.17 2125)"/><path d="M0 0 295.168 0.000360892" stroke="#0F9ED5" stroke-width="2.29167" stroke-linecap="round" stroke-linejoin="round" stroke-miterlimit="10" stroke-dasharray="16.0417 9.16667" fill="none" fill-rule="evenodd" transform="matrix(-1 0 0 1 2814.17 2164)"/><path d="M0 0 0.000360892 145.235" stroke="#61CBF4" stroke-width="2.29167" stroke-linecap="round" stroke-linejoin="round" stroke-miterlimit="10" stroke-dasharray="16.0417 9.16667" fill="none" fill-rule="evenodd" transform="matrix(-1 0 0 1 2776 1602)"/><path d="M0 0 0.000360892 145.235" stroke="#61CBF4" stroke-width="2.29167" stroke-linecap="round" stroke-linejoin="round" stroke-miterlimit="10" stroke-dasharray="16.0417 9.16667" fill="none" fill-rule="evenodd" transform="matrix(-1 0 0 1 2739 1602)"/><path d="M0 0 0.000360892 145.235" stroke="#61CBF4" stroke-width="2.29167" stroke-linecap="round" stroke-linejoin="round" stroke-miterlimit="10" stroke-dasharray="16.0417 9.16667" fill="none" fill-rule="evenodd" transform="matrix(-1 0 0 1 2702 1602)"/><path d="M0 0 0.000360892 145.235" stroke="#61CBF4" stroke-width="2.29167" stroke-linecap="round" stroke-linejoin="round" stroke-miterlimit="10" stroke-dasharray="16.0417 9.16667" fill="none" fill-rule="evenodd" transform="matrix(-1 0 0 1 2665 1602)"/><path d="M0 0 0.000360892 145.235" stroke="#61CBF4" stroke-width="2.29167" stroke-linecap="round" stroke-linejoin="round" stroke-miterlimit="10" stroke-dasharray="16.0417 9.16667" fill="none" fill-rule="evenodd" transform="matrix(-1 0 0 1 2628 1602)"/><path d="M0 0 0.000360892 145.235" stroke="#61CBF4" stroke-width="2.29167" stroke-linecap="round" stroke-linejoin="round" stroke-miterlimit="10" stroke-dasharray="16.0417 9.16667" fill="none" fill-rule="evenodd" transform="matrix(-1 0 0 1 2592 1602)"/><path d="M0 0 0.000360892 145.235" stroke="#61CBF4" stroke-width="2.29167" stroke-linecap="round" stroke-linejoin="round" stroke-miterlimit="10" stroke-dasharray="16.0417 9.16667" fill="none" fill-rule="evenodd" transform="matrix(-1 0 0 1 2555 1602)"/><rect x="0" y="0" width="295" height="602" stroke="#000000" stroke-width="4.58333" stroke-linecap="round" stroke-linejoin="round" stroke-miterlimit="10" fill="none" transform="matrix(-1 0 0 1 2814.5 1602.5)"/><text font-family="Noto Sans JP,Noto Sans JP_MSFontService,sans-serif" font-weight="400" font-size="28" transform="matrix(1 0 0 1 2473.57 1630)">#0</text><text font-family="Noto Sans JP,Noto Sans JP_MSFontService,sans-serif" font-weight="400" font-size="28" transform="matrix(1 0 0 1 2504.5 1630)"> </text><text font-family="Noto Sans JP,Noto Sans JP_MSFontService,sans-serif" font-weight="400" font-size="28" transform="matrix(1 0 0 1 2473.57 1671)">#1</text><text font-family="Noto Sans JP,Noto Sans JP_MSFontService,sans-serif" font-weight="400" font-size="28" transform="matrix(1 0 0 1 2504.5 1671)"> </text><text font-family="Noto Sans JP,Noto Sans JP_MSFontService,sans-serif" font-weight="400" font-size="28" transform="matrix(1 0 0 1 2473.57 1708)">#2</text><text font-family="Noto Sans JP,Noto Sans JP_MSFontService,sans-serif" font-weight="400" font-size="28" transform="matrix(1 0 0 1 2504.5 1708)"> </text><text font-family="Noto Sans JP,Noto Sans JP_MSFontService,sans-serif" font-weight="400" font-size="28" transform="matrix(1 0 0 1 2458.1 2112)">#61</text><text font-family="Noto Sans JP,Noto Sans JP_MSFontService,sans-serif" font-weight="400" font-size="28" transform="matrix(1 0 0 1 2504.5 2112)"> </text><text font-family="Noto Sans JP,Noto Sans JP_MSFontService,sans-serif" font-weight="400" font-size="28" transform="matrix(1 0 0 1 2458.1 2154)">#62</text><text font-family="Noto Sans JP,Noto Sans JP_MSFontService,sans-serif" font-weight="400" font-size="28" transform="matrix(1 0 0 1 2504.5 2154)"> </text><text font-family="Noto Sans JP,Noto Sans JP_MSFontService,sans-serif" font-weight="400" font-size="28" transform="matrix(1 0 0 1 2458.1 2197)">#63</text><text font-family="Noto Sans JP,Noto Sans JP_MSFontService,sans-serif" font-weight="400" font-size="28" transform="matrix(1 0 0 1 2504.5 2197)"> </text><path d="M0 0 0.000360892 145.235" stroke="#61CBF4" stroke-width="2.29167" stroke-linecap="round" stroke-linejoin="round" stroke-miterlimit="10" stroke-dasharray="16.0417 9.16667" fill="none" fill-rule="evenodd" transform="matrix(-1 0 0 1 2776 2061)"/><path d="M0 0 0.000360892 145.235" stroke="#61CBF4" stroke-width="2.29167" stroke-linecap="round" stroke-linejoin="round" stroke-miterlimit="10" stroke-dasharray="16.0417 9.16667" fill="none" fill-rule="evenodd" transform="matrix(-1 0 0 1 2739 2061)"/><path d="M0 0 0.000360892 145.235" stroke="#61CBF4" stroke-width="2.29167" stroke-linecap="round" stroke-linejoin="round" stroke-miterlimit="10" stroke-dasharray="16.0417 9.16667" fill="none" fill-rule="evenodd" transform="matrix(-1 0 0 1 2702 2061)"/><path d="M0 0 0.000360892 145.235" stroke="#61CBF4" stroke-width="2.29167" stroke-linecap="round" stroke-linejoin="round" stroke-miterlimit="10" stroke-dasharray="16.0417 9.16667" fill="none" fill-rule="evenodd" transform="matrix(-1 0 0 1 2665 2061)"/><path d="M0 0 0.000360892 145.235" stroke="#61CBF4" stroke-width="2.29167" stroke-linecap="round" stroke-linejoin="round" stroke-miterlimit="10" stroke-dasharray="16.0417 9.16667" fill="none" fill-rule="evenodd" transform="matrix(-1 0 0 1 2628 2061)"/><path d="M0 0 0.000360892 145.235" stroke="#61CBF4" stroke-width="2.29167" stroke-linecap="round" stroke-linejoin="round" stroke-miterlimit="10" stroke-dasharray="16.0417 9.16667" fill="none" fill-rule="evenodd" transform="matrix(-1 0 0 1 2592 2061)"/><path d="M0 0 0.000360892 145.235" stroke="#61CBF4" stroke-width="2.29167" stroke-linecap="round" stroke-linejoin="round" stroke-miterlimit="10" stroke-dasharray="16.0417 9.16667" fill="none" fill-rule="evenodd" transform="matrix(-1 0 0 1 2555 2061)"/><text font-family="Noto Sans JP,Noto Sans JP_MSFontService,sans-serif" font-weight="400" font-size="41" transform="matrix(1 0 0 1 2347.81 1920)">index</text><text font-family="Noto Sans JP,Noto Sans JP_MSFontService,sans-serif" font-weight="400" font-size="41" transform="matrix(1 0 0 1 2453.8 1920)"> </text><path d="M3173.55 1520.47 3199.39 1572.16C3199.96 1573.3 3199.5 1574.67 3198.37 1575.24 3197.24 1575.81 3195.86 1575.35 3195.3 1574.21L3169.45 1522.52C3168.88 1521.39 3169.34 1520.02 3170.48 1519.45 3171.61 1518.88 3172.98 1519.34 3173.55 1520.47ZM3207.59 1562.94 3207.59 1593.69 3183 1575.24Z"/><path d="M0.022883-2.29155 342.054 1.12391C343.32 1.13655 344.335 2.17275 344.323 3.43834 344.31 4.70393 343.274 5.71965 342.008 5.70701L-0.022883 2.29155C-1.28847 2.27891-2.30419 1.24271-2.29155-0.022883-2.27891-1.28847-1.24271-2.30419 0.022883-2.29155ZM337.585-10.3796 364.947 3.64429 337.311 17.119Z" transform="matrix(1 0 0 -1 2833.5 1921.14)"/><text font-family="Noto Sans JP,Noto Sans JP_MSFontService,sans-serif" font-weight="400" font-size="41" transform="matrix(1 0 0 1 2930.52 1900)">copy</text><text font-family="Noto Sans JP,Noto Sans JP_MSFontService,sans-serif" font-weight="400" font-size="41" transform="matrix(1 0 0 1 3024.48 1900)"> </text><text font-family="Noto Sans JP,Noto Sans JP_MSFontService,sans-serif" font-weight="400" font-size="41" transform="matrix(1 0 0 1 2902.34 1639)">Near Bit</text><text font-family="Noto Sans JP,Noto Sans JP_MSFontService,sans-serif" font-weight="400" font-size="41" transform="matrix(1 0 0 1 3057.6 1639)"> </text><text font-family="Noto Sans JP,Noto Sans JP_MSFontService,sans-serif" font-weight="400" font-size="41" transform="matrix(1 0 0 1 2932.13 2198)">Far Bit</text><text font-family="Noto Sans JP,Noto Sans JP_MSFontService,sans-serif" font-weight="400" font-size="41" transform="matrix(1 0 0 1 3057.6 2198)"> </text><rect x="0" y="0" width="36.9998" height="39.0002" fill="#FFFFFF" transform="matrix(-1 0 0 1 2814 1924)"/><rect x="0" y="0" width="37.0001" height="39.0002" fill="#FFFFFF" transform="matrix(-1 0 0 1 2777 1924)"/><rect x="0" y="0" width="37.0001" height="39.0002" fill="#FFFFFF" transform="matrix(-1 0 0 1 2740 1924)"/><rect x="0" y="0" width="36.9998" height="39.0002" fill="#FFFFFF" transform="matrix(-1 0 0 1 2703 1924)"/><rect x="0" y="0" width="37.0001" height="39.0002" transform="matrix(-1 0 0 1 2666 1924)"/><rect x="0" y="0" width="37.0001" height="39.0002" transform="matrix(-1 0 0 1 2629 1924)"/><rect x="0" y="0" width="36.9998" height="39.0002" transform="matrix(-1 0 0 1 2592 1924)"/><rect x="0" y="0" width="36.0001" height="39.0002" transform="matrix(-1 0 0 1 2555 1924)"/><path d="M0 0 0.000360892 127.108" stroke="#61CBF4" stroke-width="2.29167" stroke-linecap="round" stroke-linejoin="round" stroke-miterlimit="10" stroke-dasharray="16.0417 9.16667" fill="none" fill-rule="evenodd" transform="matrix(-1 0 0 1 2776 1868)"/><path d="M0 0 0.000360892 127.108" stroke="#61CBF4" stroke-width="2.29167" stroke-linecap="round" stroke-linejoin="round" stroke-miterlimit="10" stroke-dasharray="16.0417 9.16667" fill="none" fill-rule="evenodd" transform="matrix(-1 0 0 1 2739 1868)"/><path d="M0 0 0.000360892 127.108" stroke="#61CBF4" stroke-width="2.29167" stroke-linecap="round" stroke-linejoin="round" stroke-miterlimit="10" stroke-dasharray="16.0417 9.16667" fill="none" fill-rule="evenodd" transform="matrix(-1 0 0 1 2702 1868)"/><path d="M0 0 0.000360892 127.108" stroke="#61CBF4" stroke-width="2.29167" stroke-linecap="round" stroke-linejoin="round" stroke-miterlimit="10" stroke-dasharray="16.0417 9.16667" fill="none" fill-rule="evenodd" transform="matrix(-1 0 0 1 2665 1868)"/><path d="M0 0 0.000360892 127.108" stroke="#61CBF4" stroke-width="2.29167" stroke-linecap="round" stroke-linejoin="round" stroke-miterlimit="10" stroke-dasharray="16.0417 9.16667" fill="none" fill-rule="evenodd" transform="matrix(-1 0 0 1 2628 1868)"/><path d="M0 0 0.000360892 127.108" stroke="#61CBF4" stroke-width="2.29167" stroke-linecap="round" stroke-linejoin="round" stroke-miterlimit="10" stroke-dasharray="16.0417 9.16667" fill="none" fill-rule="evenodd" transform="matrix(-1 0 0 1 2592 1868)"/><path d="M0 0 0.000360892 127.108" stroke="#61CBF4" stroke-width="2.29167" stroke-linecap="round" stroke-linejoin="round" stroke-miterlimit="10" stroke-dasharray="16.0417 9.16667" fill="none" fill-rule="evenodd" transform="matrix(-1 0 0 1 2555 1868)"/><rect x="0" y="0" width="290" height="77" stroke="#00B050" stroke-width="9.16667" stroke-linecap="round" stroke-linejoin="round" stroke-miterlimit="10" fill="none" transform="matrix(-1 0 0 1 2810.5 1885.5)"/><text font-family="Noto Sans JP,Noto Sans JP_MSFontService,sans-serif" font-weight="400" font-size="41" transform="matrix(1 0 0 1 2347.81 1960)">index+1</text><text font-family="Noto Sans JP,Noto Sans JP_MSFontService,sans-serif" font-weight="400" font-size="41" transform="matrix(1 0 0 1 2499.64 1960)"> </text></g></svg>