<svg width="2021" height="1144" xmlns="http://www.w3.org/2000/svg" xmlns:xlink="http://www.w3.org/1999/xlink" xml:space="preserve" overflow="hidden"><g transform="translate(-2315 -1247)"><rect x="2315" y="1247" width="2021" height="1144" fill="#FFFFFF"/><rect x="2785.5" y="1736.5" width="64" height="151" stroke="#000000" stroke-width="4.58333" stroke-linecap="round" stroke-linejoin="round" stroke-miterlimit="10"/><rect x="3322.5" y="1506.5" width="150" height="616" stroke="#000000" stroke-width="4.58333" stroke-linecap="round" stroke-linejoin="round" stroke-miterlimit="10"/><rect x="3475.5" y="1506.5" width="310" height="151" stroke="#000000" stroke-width="4.58333" stroke-linecap="round" stroke-linejoin="round" stroke-miterlimit="10"/><rect x="3475.5" y="1736.5" width="232" height="151" stroke="#000000" stroke-width="4.58333" stroke-linecap="round" stroke-linejoin="round" stroke-miterlimit="10"/><path d="M3167 1504 3167 2118.28" stroke="#61CBF4" stroke-width="2.29167" stroke-linecap="round" stroke-linejoin="round" stroke-miterlimit="10" stroke-dasharray="16.0417 9.16667" fill="none" fill-rule="evenodd"/><path d="M3244 1504 3244 2118.28" stroke="#61CBF4" stroke-width="2.29167" stroke-linecap="round" stroke-linejoin="round" stroke-miterlimit="10" stroke-dasharray="16.0417 9.16667" fill="none" fill-rule="evenodd"/><path d="M3321 1504 3321 2118.28" stroke="#61CBF4" stroke-width="2.29167" stroke-linecap="round" stroke-linejoin="round" stroke-miterlimit="10" stroke-dasharray="16.0417 9.16667" fill="none" fill-rule="evenodd"/><path d="M3398 1504 3398 2118.28" stroke="#61CBF4" stroke-width="2.29167" stroke-linecap="round" stroke-linejoin="round" stroke-miterlimit="10" stroke-dasharray="16.0417 9.16667" fill="none" fill-rule="evenodd"/><path d="M3475 1504 3475 2118.28" stroke="#61CBF4" stroke-width="2.29167" stroke-linecap="round" stroke-linejoin="round" stroke-miterlimit="10" stroke-dasharray="16.0417 9.16667" fill="none" fill-rule="evenodd"/><path d="M3552 1504 3552 2118.28" stroke="#61CBF4" stroke-width="2.29167" stroke-linecap="round" stroke-linejoin="round" stroke-miterlimit="10" stroke-dasharray="16.0417 9.16667" fill="none" fill-rule="evenodd"/><path d="M3629 1504 3629 2118.28" stroke="#61CBF4" stroke-width="2.29167" stroke-linecap="round" stroke-linejoin="round" stroke-miterlimit="10" stroke-dasharray="16.0417 9.16667" fill="none" fill-rule="evenodd"/><path d="M3706 1504 3706 2118.28" stroke="#61CBF4" stroke-width="2.29167" stroke-linecap="round" stroke-linejoin="round" stroke-miterlimit="10" stroke-dasharray="16.0417 9.16667" fill="none" fill-rule="evenodd"/><path d="M3783 1504 3783 2118.28" stroke="#61CBF4" stroke-width="2.29167" stroke-linecap="round" stroke-linejoin="round" stroke-miterlimit="10" stroke-dasharray="16.0417 9.16667" fill="none" fill-rule="evenodd"/><path d="M3860 1504 3860 2118.28" stroke="#61CBF4" stroke-width="2.29167" stroke-linecap="round" stroke-linejoin="round" stroke-miterlimit="10" stroke-dasharray="16.0417 9.16667" fill="none" fill-rule="evenodd"/><path d="M3937 1504 3937 2118.28" stroke="#61CBF4" stroke-width="2.29167" stroke-linecap="round" stroke-linejoin="round" stroke-miterlimit="10" stroke-dasharray="16.0417 9.16667" fill="none" fill-rule="evenodd"/><path d="M3101 1504 3998.76 1504" stroke="#0F9ED5" stroke-width="2.29167" stroke-linecap="round" stroke-linejoin="round" stroke-miterlimit="10" stroke-dasharray="16.0417 9.16667" fill="none" fill-rule="evenodd"/><path d="M3101 1581 3998.76 1581" stroke="#0F9ED5" stroke-width="2.29167" stroke-linecap="round" stroke-linejoin="round" stroke-miterlimit="10" stroke-dasharray="16.0417 9.16667" fill="none" fill-rule="evenodd"/><path d="M3101 1658 3998.76 1658" stroke="#0F9ED5" stroke-width="2.29167" stroke-linecap="round" stroke-linejoin="round" stroke-miterlimit="10" stroke-dasharray="16.0417 9.16667" fill="none" fill-rule="evenodd"/><path d="M3101 1735 3998.76 1735" stroke="#0F9ED5" stroke-width="2.29167" stroke-linecap="round" stroke-linejoin="round" stroke-miterlimit="10" stroke-dasharray="16.0417 9.16667" fill="none" fill-rule="evenodd"/><path d="M3101 1812 3998.76 1812" stroke="#0F9ED5" stroke-width="2.29167" stroke-linecap="round" stroke-linejoin="round" stroke-miterlimit="10" stroke-dasharray="16.0417 9.16667" fill="none" fill-rule="evenodd"/><path d="M3101 1889 3998.76 1889" stroke="#0F9ED5" stroke-width="2.29167" stroke-linecap="round" stroke-linejoin="round" stroke-miterlimit="10" stroke-dasharray="16.0417 9.16667" fill="none" fill-rule="evenodd"/><path d="M3101 1966 3998.76 1966" stroke="#0F9ED5" stroke-width="2.29167" stroke-linecap="round" stroke-linejoin="round" stroke-miterlimit="10" stroke-dasharray="16.0417 9.16667" fill="none" fill-rule="evenodd"/><path d="M3101 2043 3998.76 2043" stroke="#0F9ED5" stroke-width="2.29167" stroke-linecap="round" stroke-linejoin="round" stroke-miterlimit="10" stroke-dasharray="16.0417 9.16667" fill="none" fill-rule="evenodd"/><path d="M3101 2120 3998.76 2120" stroke="#0F9ED5" stroke-width="2.29167" stroke-linecap="round" stroke-linejoin="round" stroke-miterlimit="10" stroke-dasharray="16.0417 9.16667" fill="none" fill-rule="evenodd"/><rect x="3711" y="1503" width="68.9998" height="617" stroke="#E97132" stroke-width="13.75" stroke-linecap="round" stroke-linejoin="round" stroke-miterlimit="10" fill="none"/><text font-family="Noto Sans JP,Noto Sans JP_MSFontService,sans-serif" font-weight="400" font-size="41" transform="matrix(1 0 0 1 2765.46 1477)">Mask</text><text font-family="Noto Sans JP,Noto Sans JP_MSFontService,sans-serif" font-weight="400" font-size="41" transform="matrix(1 0 0 1 2864.58 1477)"> </text><rect x="3629" y="1503" width="69" height="617" stroke="#00B050" stroke-width="13.75" stroke-linecap="round" stroke-linejoin="round" stroke-miterlimit="10" fill="none"/><path d="M2782 1504 2850.75 1504" stroke="#0F9ED5" stroke-width="2.29167" stroke-linecap="round" stroke-linejoin="round" stroke-miterlimit="10" stroke-dasharray="16.0417 9.16667" fill="none" fill-rule="evenodd"/><path d="M2782 1581 2850.75 1581" stroke="#0F9ED5" stroke-width="2.29167" stroke-linecap="round" stroke-linejoin="round" stroke-miterlimit="10" stroke-dasharray="16.0417 9.16667" fill="none" fill-rule="evenodd"/><path d="M2782 1658 2850.75 1658" stroke="#0F9ED5" stroke-width="2.29167" stroke-linecap="round" stroke-linejoin="round" stroke-miterlimit="10" stroke-dasharray="16.0417 9.16667" fill="none" fill-rule="evenodd"/><path d="M2782 1735 2850.75 1735" stroke="#0F9ED5" stroke-width="2.29167" stroke-linecap="round" stroke-linejoin="round" stroke-miterlimit="10" stroke-dasharray="16.0417 9.16667" fill="none" fill-rule="evenodd"/><path d="M2782 1812 2850.75 1812" stroke="#0F9ED5" stroke-width="2.29167" stroke-linecap="round" stroke-linejoin="round" stroke-miterlimit="10" stroke-dasharray="16.0417 9.16667" fill="none" fill-rule="evenodd"/><path d="M2782 1889 2850.75 1889" stroke="#0F9ED5" stroke-width="2.29167" stroke-linecap="round" stroke-linejoin="round" stroke-miterlimit="10" stroke-dasharray="16.0417 9.16667" fill="none" fill-rule="evenodd"/><path d="M2782 1966 2850.75 1966" stroke="#0F9ED5" stroke-width="2.29167" stroke-linecap="round" stroke-linejoin="round" stroke-miterlimit="10" stroke-dasharray="16.0417 9.16667" fill="none" fill-rule="evenodd"/><path d="M2782 2043 2850.75 2043" stroke="#0F9ED5" stroke-width="2.29167" stroke-linecap="round" stroke-linejoin="round" stroke-miterlimit="10" stroke-dasharray="16.0417 9.16667" fill="none" fill-rule="evenodd"/><path d="M2782 2120 2850.75 2120" stroke="#0F9ED5" stroke-width="2.29167" stroke-linecap="round" stroke-linejoin="round" stroke-miterlimit="10" stroke-dasharray="16.0417 9.16667" fill="none" fill-rule="evenodd"/><rect x="2780" y="1503" width="76" height="617" stroke="#00B0F0" stroke-width="13.75" stroke-linecap="round" stroke-linejoin="round" stroke-miterlimit="10" fill="none"/><path d="M2821.79 2130.5 2821.79 2233.5 2819.5 2231.21 3603.58 2231.21C3604.85 2231.21 3605.88 2232.23 3605.88 2233.5 3605.88 2234.77 3604.85 2235.79 3603.58 2235.79L2819.5 2235.79C2818.23 2235.79 2817.21 2234.77 2817.21 2233.5L2817.21 2130.5C2817.21 2129.23 2818.23 2128.21 2819.5 2128.21 2820.77 2128.21 2821.79 2129.23 2821.79 2130.5ZM3599 2219.75 3626.5 2233.5 3599 2247.25Z"/><text font-family="Noto Sans JP,Noto Sans JP_MSFontService,sans-serif" font-weight="400" font-size="41" transform="matrix(1 0 0 1 2806.41 1558)">0</text><text font-family="Noto Sans JP,Noto Sans JP_MSFontService,sans-serif" font-weight="400" font-size="41" transform="matrix(1 0 0 1 2829.32 1558)"> </text><text font-family="Noto Sans JP,Noto Sans JP_MSFontService,sans-serif" font-weight="400" font-size="41" transform="matrix(1 0 0 1 2806.41 1634)">0</text><text font-family="Noto Sans JP,Noto Sans JP_MSFontService,sans-serif" font-weight="400" font-size="41" transform="matrix(1 0 0 1 2829.32 1634)"> </text><text font-family="Noto Sans JP,Noto Sans JP_MSFontService,sans-serif" font-weight="400" font-size="41" transform="matrix(1 0 0 1 2806.41 1711)">0</text><text font-family="Noto Sans JP,Noto Sans JP_MSFontService,sans-serif" font-weight="400" font-size="41" transform="matrix(1 0 0 1 2829.32 1711)"> </text><text fill="#FFFFFF" font-family="Noto Sans JP,Noto Sans JP_MSFontService,sans-serif" font-weight="400" font-size="41" transform="matrix(1 0 0 1 2806.41 1787)">1</text><text fill="#FFFFFF" font-family="Noto Sans JP,Noto Sans JP_MSFontService,sans-serif" font-weight="400" font-size="41" transform="matrix(1 0 0 1 2829.32 1787)"> </text><text fill="#FFFFFF" font-family="Noto Sans JP,Noto Sans JP_MSFontService,sans-serif" font-weight="400" font-size="41" transform="matrix(1 0 0 1 2806.41 1864)">1</text><text fill="#FFFFFF" font-family="Noto Sans JP,Noto Sans JP_MSFontService,sans-serif" font-weight="400" font-size="41" transform="matrix(1 0 0 1 2829.32 1864)"> </text><text font-family="Noto Sans JP,Noto Sans JP_MSFontService,sans-serif" font-weight="400" font-size="41" transform="matrix(1 0 0 1 2806.41 1940)">0</text><text font-family="Noto Sans JP,Noto Sans JP_MSFontService,sans-serif" font-weight="400" font-size="41" transform="matrix(1 0 0 1 2829.32 1940)"> </text><text font-family="Noto Sans JP,Noto Sans JP_MSFontService,sans-serif" font-weight="400" font-size="41" transform="matrix(1 0 0 1 2806.41 2017)">0</text><text font-family="Noto Sans JP,Noto Sans JP_MSFontService,sans-serif" font-weight="400" font-size="41" transform="matrix(1 0 0 1 2829.32 2017)"> </text><text font-family="Noto Sans JP,Noto Sans JP_MSFontService,sans-serif" font-weight="400" font-size="41" transform="matrix(1 0 0 1 2806.41 2093)">0</text><text font-family="Noto Sans JP,Noto Sans JP_MSFontService,sans-serif" font-weight="400" font-size="41" transform="matrix(1 0 0 1 2829.32 2093)"> </text><text font-family="Noto Sans JP,Noto Sans JP_MSFontService,sans-serif" font-weight="400" font-size="41" transform="matrix(1 0 0 1 3494.87 1359)">current</text><text font-family="Noto Sans JP,Noto Sans JP_MSFontService,sans-serif" font-weight="400" font-size="41" transform="matrix(1 0 0 1 3636.95 1359)"> </text><text font-family="Noto Sans JP,Noto Sans JP_MSFontService,sans-serif" font-weight="400" font-size="41" transform="matrix(1 0 0 1 3420.11 1408)">cursor position</text><text font-family="Noto Sans JP,Noto Sans JP_MSFontService,sans-serif" font-weight="400" font-size="41" transform="matrix(1 0 0 1 3711.73 1408)"> </text><path d="M2.04973-1.02486 27.8947 50.665C28.4607 51.797 28.0018 53.1736 26.8698 53.7396 25.7378 54.3056 24.3612 53.8467 23.7952 52.7147L-2.04973 1.02486C-2.61575-0.10717-2.1569-1.48371-1.02486-2.04973 0.10717-2.61575 1.48371-2.1569 2.04973-1.02486ZM36.0936 41.4412 36.0936 72.1871 11.4968 53.7396Z" transform="matrix(-1 0 0 1 3807.59 1425.5)"/><text font-family="Noto Sans JP,Noto Sans JP_MSFontService,sans-serif" font-weight="400" font-size="41" transform="matrix(1 0 0 1 3867.2 1358)">new</text><text font-family="Noto Sans JP,Noto Sans JP_MSFontService,sans-serif" font-weight="400" font-size="41" transform="matrix(1 0 0 1 3948.55 1358)"> </text><text font-family="Noto Sans JP,Noto Sans JP_MSFontService,sans-serif" font-weight="400" font-size="41" transform="matrix(1 0 0 1 3762.08 1407)">cursor position</text><text font-family="Noto Sans JP,Noto Sans JP_MSFontService,sans-serif" font-weight="400" font-size="41" transform="matrix(1 0 0 1 4053.7 1407)"> </text><path d="M3660.55 1424.48 3686.39 1476.17C3686.96 1477.3 3686.5 1478.67 3685.37 1479.24 3684.24 1479.81 3682.86 1479.35 3682.3 1478.21L3656.45 1426.52C3655.88 1425.39 3656.34 1424.02 3657.48 1423.45 3658.61 1422.88 3659.98 1423.34 3660.55 1424.48ZM3694.59 1466.94 3694.59 1497.69 3670 1479.24Z"/><path d="M3666.79 2128.5 3666.79 2176.05C3666.79 2177.32 3665.77 2178.34 3664.5 2178.34 3663.23 2178.34 3662.21 2177.32 3662.21 2176.05L3662.21 2128.5C3662.21 2127.23 3663.23 2126.21 3664.5 2126.21 3665.77 2126.21 3666.79 2127.23 3666.79 2128.5ZM3678.25 2171.47 3664.5 2198.97 3650.75 2171.47Z"/><path d="M3699.5 2231.21 3744.5 2231.21 3742.21 2233.5 3742.21 2149.42C3742.21 2148.15 3743.23 2147.12 3744.5 2147.12 3745.77 2147.12 3746.79 2148.15 3746.79 2149.42L3746.79 2233.5C3746.79 2234.77 3745.77 2235.79 3744.5 2235.79L3699.5 2235.79C3698.23 2235.79 3697.21 2234.77 3697.21 2233.5 3697.21 2232.23 3698.23 2231.21 3699.5 2231.21ZM3730.75 2154 3744.5 2126.5 3758.25 2154Z"/><path d="M3629.5 2234.5C3629.5 2215.72 3644.95 2200.5 3664 2200.5 3683.05 2200.5 3698.5 2215.72 3698.5 2234.5 3698.5 2253.28 3683.05 2268.5 3664 2268.5 3644.95 2268.5 3629.5 2253.28 3629.5 2234.5Z" stroke="#000000" stroke-width="4.58333" stroke-linecap="round" stroke-linejoin="round" stroke-miterlimit="10" fill="#FFFFFF" fill-rule="evenodd"/><path d="M3645.5 2216.5 3682.45 2253.45" stroke="#000000" stroke-width="9.16667" stroke-linejoin="round" stroke-miterlimit="10" fill="none" fill-rule="evenodd"/><path d="M0 0 36.9529 36.9529" stroke="#000000" stroke-width="9.16667" stroke-linejoin="round" stroke-miterlimit="10" fill="none" fill-rule="evenodd" transform="matrix(-1 0 0 1 3682.45 2216.5)"/><text font-family="Noto Sans JP,Noto Sans JP_MSFontService,sans-serif" font-weight="400" font-size="41" transform="matrix(1 0 0 1 3625.34 2321)">XOR</text><text font-family="Noto Sans JP,Noto Sans JP_MSFontService,sans-serif" font-weight="400" font-size="41" transform="matrix(1 0 0 1 3705.55 2321)"> </text><text font-family="Noto Sans JP,Noto Sans JP_MSFontService,sans-serif" font-weight="400" font-size="41" transform="matrix(1 0 0 1 2922.68 2100)">Far Bit</text><text font-family="Noto Sans JP,Noto Sans JP_MSFontService,sans-serif" font-weight="400" font-size="41" transform="matrix(1 0 0 1 3048.15 2100)"> </text><text font-family="Noto Sans JP,Noto Sans JP_MSFontService,sans-serif" font-weight="400" font-size="41" transform="matrix(1 0 0 1 2897.23 1558)">Near Bit</text><text font-family="Noto Sans JP,Noto Sans JP_MSFontService,sans-serif" font-weight="400" font-size="41" transform="matrix(1 0 0 1 3052.49 1558)"> </text><path d="M2679.5 1736.5 2766.92 1736.5" stroke="#000000" stroke-width="4.58333" stroke-linecap="round" stroke-linejoin="round" stroke-miterlimit="10" fill="none" fill-rule="evenodd"/><path d="M2679.5 1506.5 2766.92 1506.5" stroke="#000000" stroke-width="4.58333" stroke-linecap="round" stroke-linejoin="round" stroke-miterlimit="10" fill="none" fill-rule="evenodd"/><path d="M2679.5 1889.5 2766.92 1889.5" stroke="#000000" stroke-width="4.58333" stroke-linecap="round" stroke-linejoin="round" stroke-miterlimit="10" fill="none" fill-rule="evenodd"/><path d="M2718.79 1508.5 2718.79 1711.89C2718.79 1713.15 2717.77 1714.18 2716.5 1714.18 2715.23 1714.18 2714.21 1713.15 2714.21 1711.89L2714.21 1508.5C2714.21 1507.23 2715.23 1506.21 2716.5 1506.21 2717.77 1506.21 2718.79 1507.23 2718.79 1508.5ZM2730.25 1707.3 2716.5 1734.8 2702.75 1707.3Z"/><text font-family="Noto Sans JP,Noto Sans JP_MSFontService,sans-serif" font-weight="400" font-size="41" transform="matrix(1 0 0 1 2501.93 1631)">mask_pos</text><text font-family="Noto Sans JP,Noto Sans JP_MSFontService,sans-serif" font-weight="400" font-size="41" transform="matrix(1 0 0 1 2699.58 1631)"> </text><path d="M2718.79 1762.42 2718.79 1862.68C2718.79 1863.94 2717.77 1864.97 2716.5 1864.97 2715.23 1864.97 2714.21 1863.94 2714.21 1862.68L2714.21 1762.42C2714.21 1761.15 2715.23 1760.12 2716.5 1760.12 2717.77 1760.12 2718.79 1761.15 2718.79 1762.42ZM2702.75 1767 2716.5 1739.5 2730.25 1767ZM2730.25 1858.09 2716.5 1885.59 2702.75 1858.09Z"/><text font-family="Noto Sans JP,Noto Sans JP_MSFontService,sans-serif" font-weight="400" font-size="41" transform="matrix(1 0 0 1 2461.25 1826)">mask_width</text><text font-family="Noto Sans JP,Noto Sans JP_MSFontService,sans-serif" font-weight="400" font-size="41" transform="matrix(1 0 0 1 2699.58 1826)"> </text></g></svg>