<svg width="2692" height="2132" xmlns="http://www.w3.org/2000/svg" xmlns:xlink="http://www.w3.org/1999/xlink" xml:space="preserve" overflow="hidden"><defs><clipPath id="clip0"><rect x="726" y="203" width="2692" height="2132"/></clipPath></defs><g clip-path="url(#clip0)" transform="translate(-726 -203)"><rect x="726" y="203" width="2692" height="2132" fill="#FFFFFF"/><path d="M2252 1311 3291.52 1311" stroke="#00B0F0" stroke-width="2.29167" stroke-linecap="round" stroke-linejoin="round" stroke-miterlimit="10" stroke-dasharray="16.0417 9.16667" fill="none" fill-rule="evenodd"/><path d="M2252 1364 3291.52 1364" stroke="#00B0F0" stroke-width="2.29167" stroke-linecap="round" stroke-linejoin="round" stroke-miterlimit="10" stroke-dasharray="16.0417 9.16667" fill="none" fill-rule="evenodd"/><path d="M2252 1417 3291.52 1417" stroke="#00B0F0" stroke-width="2.29167" stroke-linecap="round" stroke-linejoin="round" stroke-miterlimit="10" stroke-dasharray="16.0417 9.16667" fill="none" fill-rule="evenodd"/><path d="M2252 1470 3291.52 1470" stroke="#00B0F0" stroke-width="2.29167" stroke-linecap="round" stroke-linejoin="round" stroke-miterlimit="10" stroke-dasharray="16.0417 9.16667" fill="none" fill-rule="evenodd"/><path d="M2252 1523 3291.52 1523" stroke="#00B0F0" stroke-width="2.29167" stroke-linecap="round" stroke-linejoin="round" stroke-miterlimit="10" stroke-dasharray="16.0417 9.16667" fill="none" fill-rule="evenodd"/><path d="M2252 1576 3291.52 1576" stroke="#00B0F0" stroke-width="2.29167" stroke-linecap="round" stroke-linejoin="round" stroke-miterlimit="10" stroke-dasharray="16.0417 9.16667" fill="none" fill-rule="evenodd"/><path d="M2252 1629 3291.52 1629" stroke="#00B0F0" stroke-width="2.29167" stroke-linecap="round" stroke-linejoin="round" stroke-miterlimit="10" stroke-dasharray="16.0417 9.16667" fill="none" fill-rule="evenodd"/><path d="M2252 1682 3291.52 1682" stroke="#00B0F0" stroke-width="2.29167" stroke-linecap="round" stroke-linejoin="round" stroke-miterlimit="10" stroke-dasharray="16.0417 9.16667" fill="none" fill-rule="evenodd"/><path d="M2252 1735 3291.52 1735" stroke="#00B0F0" stroke-width="2.29167" stroke-linecap="round" stroke-linejoin="round" stroke-miterlimit="10" stroke-dasharray="16.0417 9.16667" fill="none" fill-rule="evenodd"/><path d="M2252 1788 3291.52 1788" stroke="#00B0F0" stroke-width="2.29167" stroke-linecap="round" stroke-linejoin="round" stroke-miterlimit="10" stroke-dasharray="16.0417 9.16667" fill="none" fill-rule="evenodd"/><path d="M2252 1842 3291.52 1842" stroke="#00B0F0" stroke-width="2.29167" stroke-linecap="round" stroke-linejoin="round" stroke-miterlimit="10" stroke-dasharray="16.0417 9.16667" fill="none" fill-rule="evenodd"/><path d="M2252 1895 3291.52 1895" stroke="#00B0F0" stroke-width="2.29167" stroke-linecap="round" stroke-linejoin="round" stroke-miterlimit="10" stroke-dasharray="16.0417 9.16667" fill="none" fill-rule="evenodd"/><path d="M2252 1948 3291.52 1948" stroke="#00B0F0" stroke-width="2.29167" stroke-linecap="round" stroke-linejoin="round" stroke-miterlimit="10" stroke-dasharray="16.0417 9.16667" fill="none" fill-rule="evenodd"/><path d="M2252 2001 3291.52 2001" stroke="#00B0F0" stroke-width="2.29167" stroke-linecap="round" stroke-linejoin="round" stroke-miterlimit="10" stroke-dasharray="16.0417 9.16667" fill="none" fill-rule="evenodd"/><path d="M2252 2054 3291.52 2054" stroke="#00B0F0" stroke-width="2.29167" stroke-linecap="round" stroke-linejoin="round" stroke-miterlimit="10" stroke-dasharray="16.0417 9.16667" fill="none" fill-rule="evenodd"/><path d="M2252 2107 3291.52 2107" stroke="#00B0F0" stroke-width="2.29167" stroke-linecap="round" stroke-linejoin="round" stroke-miterlimit="10" stroke-dasharray="16.0417 9.16667" fill="none" fill-rule="evenodd"/><path d="M2252 2160 3291.52 2160" stroke="#00B0F0" stroke-width="2.29167" stroke-linecap="round" stroke-linejoin="round" stroke-miterlimit="10" stroke-dasharray="16.0417 9.16667" fill="none" fill-rule="evenodd"/><path d="M2252 1207 3291.52 1207" stroke="#00B0F0" stroke-width="2.29167" stroke-linecap="round" stroke-linejoin="round" stroke-miterlimit="10" stroke-dasharray="16.0417 9.16667" fill="none" fill-rule="evenodd"/><path d="M2252 1260 3291.52 1260" stroke="#00B0F0" stroke-width="2.29167" stroke-linecap="round" stroke-linejoin="round" stroke-miterlimit="10" stroke-dasharray="16.0417 9.16667" fill="none" fill-rule="evenodd"/><path d="M2295 1168 2295 2206.6" stroke="#00B0F0" stroke-width="2.29167" stroke-linecap="round" stroke-linejoin="round" stroke-miterlimit="10" stroke-dasharray="16.0417 9.16667" fill="none" fill-rule="evenodd"/><path d="M2348 1168 2348 2206.6" stroke="#00B0F0" stroke-width="2.29167" stroke-linecap="round" stroke-linejoin="round" stroke-miterlimit="10" stroke-dasharray="16.0417 9.16667" fill="none" fill-rule="evenodd"/><path d="M2402 1168 2402 2206.6" stroke="#00B0F0" stroke-width="2.29167" stroke-linecap="round" stroke-linejoin="round" stroke-miterlimit="10" stroke-dasharray="16.0417 9.16667" fill="none" fill-rule="evenodd"/><path d="M2455 1168 2455 2206.6" stroke="#00B0F0" stroke-width="2.29167" stroke-linecap="round" stroke-linejoin="round" stroke-miterlimit="10" stroke-dasharray="16.0417 9.16667" fill="none" fill-rule="evenodd"/><path d="M2508 1168 2508 2206.6" stroke="#00B0F0" stroke-width="2.29167" stroke-linecap="round" stroke-linejoin="round" stroke-miterlimit="10" stroke-dasharray="16.0417 9.16667" fill="none" fill-rule="evenodd"/><path d="M2561 1168 2561 2206.6" stroke="#00B0F0" stroke-width="2.29167" stroke-linecap="round" stroke-linejoin="round" stroke-miterlimit="10" stroke-dasharray="16.0417 9.16667" fill="none" fill-rule="evenodd"/><path d="M2614 1168 2614 2206.6" stroke="#00B0F0" stroke-width="2.29167" stroke-linecap="round" stroke-linejoin="round" stroke-miterlimit="10" stroke-dasharray="16.0417 9.16667" fill="none" fill-rule="evenodd"/><path d="M2667 1168 2667 2206.6" stroke="#00B0F0" stroke-width="2.29167" stroke-linecap="round" stroke-linejoin="round" stroke-miterlimit="10" stroke-dasharray="16.0417 9.16667" fill="none" fill-rule="evenodd"/><path d="M2720 1168 2720 2206.6" stroke="#00B0F0" stroke-width="2.29167" stroke-linecap="round" stroke-linejoin="round" stroke-miterlimit="10" stroke-dasharray="16.0417 9.16667" fill="none" fill-rule="evenodd"/><path d="M2773 1168 2773 2206.6" stroke="#00B0F0" stroke-width="2.29167" stroke-linecap="round" stroke-linejoin="round" stroke-miterlimit="10" stroke-dasharray="16.0417 9.16667" fill="none" fill-rule="evenodd"/><path d="M2826 1168 2826 2206.6" stroke="#00B0F0" stroke-width="2.29167" stroke-linecap="round" stroke-linejoin="round" stroke-miterlimit="10" stroke-dasharray="16.0417 9.16667" fill="none" fill-rule="evenodd"/><path d="M2879 1168 2879 2206.6" stroke="#00B0F0" stroke-width="2.29167" stroke-linecap="round" stroke-linejoin="round" stroke-miterlimit="10" stroke-dasharray="16.0417 9.16667" fill="none" fill-rule="evenodd"/><path d="M2933 1168 2933 2206.6" stroke="#00B0F0" stroke-width="2.29167" stroke-linecap="round" stroke-linejoin="round" stroke-miterlimit="10" stroke-dasharray="16.0417 9.16667" fill="none" fill-rule="evenodd"/><path d="M2986 1168 2986 2206.6" stroke="#00B0F0" stroke-width="2.29167" stroke-linecap="round" stroke-linejoin="round" stroke-miterlimit="10" stroke-dasharray="16.0417 9.16667" fill="none" fill-rule="evenodd"/><path d="M3039 1168 3039 2206.6" stroke="#00B0F0" stroke-width="2.29167" stroke-linecap="round" stroke-linejoin="round" stroke-miterlimit="10" stroke-dasharray="16.0417 9.16667" fill="none" fill-rule="evenodd"/><path d="M3092 1168 3092 2206.6" stroke="#00B0F0" stroke-width="2.29167" stroke-linecap="round" stroke-linejoin="round" stroke-miterlimit="10" stroke-dasharray="16.0417 9.16667" fill="none" fill-rule="evenodd"/><path d="M3145 1168 3145 2206.6" stroke="#00B0F0" stroke-width="2.29167" stroke-linecap="round" stroke-linejoin="round" stroke-miterlimit="10" stroke-dasharray="16.0417 9.16667" fill="none" fill-rule="evenodd"/><path d="M3198 1168 3198 2206.6" stroke="#00B0F0" stroke-width="2.29167" stroke-linecap="round" stroke-linejoin="round" stroke-miterlimit="10" stroke-dasharray="16.0417 9.16667" fill="none" fill-rule="evenodd"/><path d="M3251 1168 3251 2206.6" stroke="#00B0F0" stroke-width="2.29167" stroke-linecap="round" stroke-linejoin="round" stroke-miterlimit="10" stroke-dasharray="16.0417 9.16667" fill="none" fill-rule="evenodd"/><rect x="2295" y="1311" width="160" height="637" stroke="#000000" stroke-width="2.29167" stroke-linecap="round" stroke-linejoin="round" stroke-miterlimit="10"/><rect x="2455" y="1311" width="265" height="106" stroke="#000000" stroke-width="2.29167" stroke-linecap="round" stroke-linejoin="round" stroke-miterlimit="10"/><rect x="2455" y="1576" width="212" height="106" stroke="#000000" stroke-width="2.29167" stroke-linecap="round" stroke-linejoin="round" stroke-miterlimit="10"/><rect x="2772" y="1576" width="159" height="106" stroke="#000000" stroke-width="2.29167" stroke-linecap="round" stroke-linejoin="round" stroke-miterlimit="10"/><rect x="2826" y="1682" width="160" height="106" stroke="#000000" stroke-width="2.29167" stroke-linecap="round" stroke-linejoin="round" stroke-miterlimit="10"/><rect x="2879" y="1788" width="266" height="107" stroke="#000000" stroke-width="2.29167" stroke-linecap="round" stroke-linejoin="round" stroke-miterlimit="10"/><rect x="3039" y="1682" width="159" height="106" stroke="#000000" stroke-width="2.29167" stroke-linecap="round" stroke-linejoin="round" stroke-miterlimit="10"/><rect x="3092" y="1576" width="159" height="106" stroke="#000000" stroke-width="2.29167" stroke-linecap="round" stroke-linejoin="round" stroke-miterlimit="10"/><rect x="2933" y="1895" width="159" height="106" stroke="#000000" stroke-width="2.29167" stroke-linecap="round" stroke-linejoin="round" stroke-miterlimit="10"/><rect x="2773" y="1948" width="266" height="106" stroke="#000000" stroke-width="2.29167" stroke-linecap="round" stroke-linejoin="round" stroke-miterlimit="10"/><path d="M0 0 1314.27 0.000360892" stroke="#000000" stroke-width="2.29167" stroke-linecap="round" stroke-linejoin="round" stroke-miterlimit="10" fill="none" fill-rule="evenodd" transform="matrix(-1 0 0 1 3365.27 1948)"/><path d="M0 0 1866.56 0.000360892" stroke="#000000" stroke-width="2.29167" stroke-linecap="round" stroke-linejoin="round" stroke-miterlimit="10" fill="none" fill-rule="evenodd" transform="matrix(-1 0 0 1 3365.56 1311)"/><path d="M0 0 1866.56 0.000360892" stroke="#000000" stroke-width="2.29167" stroke-linecap="round" stroke-linejoin="round" stroke-miterlimit="10" fill="none" fill-rule="evenodd" transform="matrix(-1 0 0 1 3365.56 2054)"/><path d="M0 0 2272.19 0.000360892" stroke="#000000" stroke-width="2.29167" stroke-linecap="round" stroke-linejoin="round" stroke-miterlimit="10" fill="none" fill-rule="evenodd" transform="matrix(-1 0 0 1 3365.19 2160)"/><path d="M0 0 2272.19 0.000360892" stroke="#000000" stroke-width="2.29167" stroke-linecap="round" stroke-linejoin="round" stroke-miterlimit="10" fill="none" fill-rule="evenodd" transform="matrix(-1 0 0 1 3365.19 1207)"/><path d="M2.29168 22.9168 2.29201 614.31C2.29202 615.576 1.266 616.602 0.000349211 616.602-1.2653 616.602-2.29132 615.576-2.29132 614.31L-2.29165 22.9168C-2.29165 21.6511-1.26564 20.6251 1.1681e-05 20.6251 1.26566 20.6251 2.29168 21.6511 2.29168 22.9168ZM-13.75 27.5 0 0 13.75 27.5ZM13.7503 609.727 0.000360892 637.227-13.7497 609.727Z" transform="matrix(1 0 0 -1 2144.5 1948.73)"/><path d="M2.29174 22.9167 2.29195 83.2878C2.29195 84.5535 1.26594 85.5795 0.000290807 85.5795-1.26536 85.5795-2.29138 84.5535-2.29138 83.2878L-2.29159 22.9167C-2.29159 21.651-1.26558 20.625 7.00856e-05 20.625 1.26572 20.625 2.29174 21.651 2.29174 22.9167ZM-13.7499 27.5 0 0 13.7501 27.5ZM13.7503 78.7045 0.000360892 106.204-13.7497 78.7045Z" transform="matrix(1 0 0 -1 2144.5 2054.7)"/><text font-family="Noto Sans JP,Noto Sans JP_MSFontService,sans-serif" font-weight="400" font-size="55" transform="matrix(1 0 0 1 1778.91 1643)">capHeight</text><text font-family="Noto Sans JP,Noto Sans JP_MSFontService,sans-serif" font-weight="400" font-size="55" transform="matrix(1 0 0 1 2041.88 1643)"> </text><text font-family="Noto Sans JP,Noto Sans JP_MSFontService,sans-serif" font-weight="400" font-size="55" transform="matrix(1 0 0 1 2054.48 1643)">(</text><text fill="#E97132" font-family="Noto Sans JP,Noto Sans JP_MSFontService,sans-serif" font-weight="700" font-size="55" transform="matrix(1 0 0 1 2072.81 1643)">c</text><text font-family="Noto Sans JP,Noto Sans JP_MSFontService,sans-serif" font-weight="400" font-size="55" transform="matrix(1 0 0 1 2102.03 1643)">)</text><text font-family="Noto Sans JP,Noto Sans JP_MSFontService,sans-serif" font-weight="400" font-size="55" transform="matrix(1 0 0 1 2120.37 1643)"> </text><text font-family="Noto Sans JP,Noto Sans JP_MSFontService,sans-serif" font-weight="400" font-size="55" transform="matrix(1 0 0 1 1683.23 2019)">descenderHeight</text><text font-family="Noto Sans JP,Noto Sans JP_MSFontService,sans-serif" font-weight="400" font-size="55" transform="matrix(1 0 0 1 2120.37 2019)"> </text><path d="M2.29174 22.9167 2.29195 83.2878C2.29195 84.5535 1.26594 85.5795 0.000290807 85.5795-1.26536 85.5795-2.29138 84.5535-2.29138 83.2878L-2.29159 22.9167C-2.29159 21.651-1.26558 20.625 7.00856e-05 20.625 1.26572 20.625 2.29174 21.651 2.29174 22.9167ZM-13.7499 27.5 0 0 13.7501 27.5ZM13.7503 78.7045 0.000360892 106.204-13.7497 78.7045Z" transform="matrix(1 0 0 -1 2144.5 1312.7)"/><text font-family="Noto Sans JP,Noto Sans JP_MSFontService,sans-serif" font-weight="400" font-size="55" transform="matrix(1 0 0 1 1600.73 1277)">ascender</text><text font-family="Noto Sans JP,Noto Sans JP_MSFontService,sans-serif" font-weight="400" font-size="55" transform="matrix(1 0 0 1 1833.91 1277)">S</text><text font-family="Noto Sans JP,Noto Sans JP_MSFontService,sans-serif" font-weight="400" font-size="55" transform="matrix(1 0 0 1 1866.56 1277)">pacing</text><text font-family="Noto Sans JP,Noto Sans JP_MSFontService,sans-serif" font-weight="400" font-size="55" transform="matrix(1 0 0 1 2038.44 1277)"> </text><text font-family="Noto Sans JP,Noto Sans JP_MSFontService,sans-serif" font-weight="400" font-size="55" transform="matrix(1 0 0 1 2051.04 1277)">(</text><text fill="#00C2CC" font-family="Noto Sans JP,Noto Sans JP_MSFontService,sans-serif" font-weight="700" font-size="55" transform="matrix(1 0 0 1 2069.38 1277)">a</text><text font-family="Noto Sans JP,Noto Sans JP_MSFontService,sans-serif" font-weight="400" font-size="55" transform="matrix(1 0 0 1 2102.03 1277)">)</text><text font-family="Noto Sans JP,Noto Sans JP_MSFontService,sans-serif" font-weight="400" font-size="55" transform="matrix(1 0 0 1 2120.36 1277)"> </text><path d="M0 0 0.000360892 1251.52" stroke="#000000" stroke-width="2.29167" stroke-linecap="round" stroke-linejoin="round" stroke-miterlimit="10" fill="none" fill-rule="evenodd" transform="matrix(1 0 0 -1 2295 2282.52)"/><path d="M0 0 0.000360892 1251.52" stroke="#000000" stroke-width="2.29167" stroke-linecap="round" stroke-linejoin="round" stroke-miterlimit="10" fill="none" fill-rule="evenodd" transform="matrix(1 0 0 -1 2455 2282.52)"/><path d="M2318.42 1070.21 2431.87 1070.21C2433.14 1070.21 2434.17 1071.23 2434.17 1072.5 2434.17 1073.77 2433.14 1074.79 2431.87 1074.79L2318.42 1074.79C2317.15 1074.79 2316.12 1073.77 2316.12 1072.5 2316.12 1071.23 2317.15 1070.21 2318.42 1070.21ZM2323 1086.25 2295.5 1072.5 2323 1058.75ZM2427.29 1058.75 2454.79 1072.5 2427.29 1086.25Z"/><text font-family="Noto Sans JP,Noto Sans JP_MSFontService,sans-serif" font-weight="400" font-size="55" transform="matrix(1 0 0 1 2288.18 933)">weight</text><text font-family="Noto Sans JP,Noto Sans JP_MSFontService,sans-serif" font-weight="400" font-size="55" transform="matrix(1 0 0 1 2461.78 933)"> </text><text font-family="Noto Sans JP,Noto Sans JP_MSFontService,sans-serif" font-weight="400" font-size="55" transform="matrix(1 0 0 1 2332.87 999)">(</text><text fill="#8F8231" font-family="Noto Sans JP,Noto Sans JP_MSFontService,sans-serif" font-weight="700" font-size="55" transform="matrix(1 0 0 1 2351.2 999)">w</text><text font-family="Noto Sans JP,Noto Sans JP_MSFontService,sans-serif" font-weight="400" font-size="55" transform="matrix(1 0 0 1 2398.76 999)">)</text><text font-family="Noto Sans JP,Noto Sans JP_MSFontService,sans-serif" font-weight="400" font-size="55" transform="matrix(1 0 0 1 2417.09 999)"> </text><path d="M2.29168 22.9168 2.29202 717.57C2.29202 718.835 1.266 719.862 0.00035084 719.862-1.2653 719.862-2.29132 718.835-2.29132 717.57L-2.29166 22.9168C-2.29166 21.6511-1.26564 20.6251 1.00521e-05 20.6251 1.26566 20.6251 2.29168 21.6511 2.29168 22.9168ZM-13.75 27.5 0 0 13.75 27.5ZM13.7503 712.987 0.000360892 740.487-13.7497 712.987Z" transform="matrix(1 0 0 -1 1573.5 2053.99)"/><text font-family="Noto Sans JP,Noto Sans JP_MSFontService,sans-serif" font-weight="400" font-size="55" transform="matrix(1 0 0 1 1256.98 1700)">typeSize</text><text font-family="Noto Sans JP,Noto Sans JP_MSFontService,sans-serif" font-weight="400" font-size="55" transform="matrix(1 0 0 1 1472.97 1700)"> </text><text font-family="Noto Sans JP,Noto Sans JP_MSFontService,sans-serif" font-weight="400" font-size="55" transform="matrix(1 0 0 1 1485.57 1700)">(</text><text fill="#C00000" font-family="Noto Sans JP,Noto Sans JP_MSFontService,sans-serif" font-weight="700" font-size="55" transform="matrix(1 0 0 1 1503.91 1700)">s</text><text font-family="Noto Sans JP,Noto Sans JP_MSFontService,sans-serif" font-weight="400" font-size="55" transform="matrix(1 0 0 1 1531.41 1700)">)</text><text font-family="Noto Sans JP,Noto Sans JP_MSFontService,sans-serif" font-weight="400" font-size="55" transform="matrix(1 0 0 1 1549.74 1700)"> </text><path d="M2.29168 22.9167 2.29202 929.511C2.29202 930.776 1.26601 931.802 0.000353077 931.802-1.2653 931.802-2.29131 930.776-2.29131 929.511L-2.29166 22.9167C-2.29166 21.6511-1.26564 20.6251 7.81522e-06 20.6251 1.26566 20.6251 2.29167 21.6511 2.29168 22.9167ZM-13.75 27.5 0 0 13.75 27.5ZM13.7504 924.927 0.000360892 952.427-13.7496 924.927Z" transform="matrix(1 0 0 -1 1163.5 2159.93)"/><text font-family="Noto Sans JP,Noto Sans JP_MSFontService,sans-serif" font-weight="400" font-size="55" transform="matrix(1 0 0 1 787.188 1700)">boxHeight</text><text font-family="Noto Sans JP,Noto Sans JP_MSFontService,sans-serif" font-weight="400" font-size="55" transform="matrix(1 0 0 1 1050.73 1700)"> </text><text font-family="Noto Sans JP,Noto Sans JP_MSFontService,sans-serif" font-weight="400" font-size="55" transform="matrix(1 0 0 1 1063.33 1700)">(</text><text fill="#4EA72E" font-family="Noto Sans JP,Noto Sans JP_MSFontService,sans-serif" font-weight="700" font-size="55" transform="matrix(1 0 0 1 1081.67 1700)">h</text><text font-family="Noto Sans JP,Noto Sans JP_MSFontService,sans-serif" font-weight="400" font-size="55" transform="matrix(1 0 0 1 1116.61 1700)">)</text><text font-family="Noto Sans JP,Noto Sans JP_MSFontService,sans-serif" font-weight="400" font-size="55" transform="matrix(1 0 0 1 1134.95 1700)"> </text><text font-family="Noto Sans JP,Noto Sans JP_MSFontService,sans-serif" font-weight="700" font-size="110" transform="matrix(1 0 0 1 1325.54 476)">ShapoSansP_</text><text fill="#C00000" font-family="Noto Sans JP,Noto Sans JP_MSFontService,sans-serif" font-weight="700" font-size="110" transform="matrix(1 0 0 1 2063.46 476)">s</text><text font-family="Noto Sans JP,Noto Sans JP_MSFontService,sans-serif" font-weight="700" font-size="110" transform="matrix(1 0 0 1 2117.89 476)">14</text><text fill="#E97132" font-family="Noto Sans JP,Noto Sans JP_MSFontService,sans-serif" font-weight="700" font-size="110" transform="matrix(1 0 0 1 2247.37 476)">c</text><text font-family="Noto Sans JP,Noto Sans JP_MSFontService,sans-serif" font-weight="700" font-size="110" transform="matrix(1 0 0 1 2305.23 476)">12</text><text fill="#8F8231" font-family="Noto Sans JP,Noto Sans JP_MSFontService,sans-serif" font-weight="700" font-size="110" transform="matrix(1 0 0 1 2434.71 476)">w</text><text font-family="Noto Sans JP,Noto Sans JP_MSFontService,sans-serif" font-weight="700" font-size="110" transform="matrix(1 0 0 1 2529.81 476)">3</text><text fill="#4EA72E" font-family="Noto Sans JP,Noto Sans JP_MSFontService,sans-serif" font-weight="700" font-size="110" transform="matrix(1 0 0 1 2594.55 476)">h</text><text font-family="Noto Sans JP,Noto Sans JP_MSFontService,sans-serif" font-weight="700" font-size="110" transform="matrix(1 0 0 1 2665.02 476)">18</text><text fill="#00C2CC" font-family="Noto Sans JP,Noto Sans JP_MSFontService,sans-serif" font-weight="700" font-size="110" transform="matrix(1 0 0 1 2794.5 476)">a</text><text font-family="Noto Sans JP,Noto Sans JP_MSFontService,sans-serif" font-weight="700" font-size="110" transform="matrix(1 0 0 1 2859.24 476)">2</text><text fill="#0070C0" font-family="Noto Sans JP,Noto Sans JP_MSFontService,sans-serif" font-weight="700" font-size="110" transform="matrix(1 0 0 1 2923.98 476)">p</text><text font-family="Noto Sans JP,Noto Sans JP_MSFontService,sans-serif" font-weight="700" font-size="110" transform="matrix(1 0 0 1 2995.02 476)">1</text><text font-family="Noto Sans JP,Noto Sans JP_MSFontService,sans-serif" font-weight="700" font-size="110" transform="matrix(1 0 0 1 3059.76 476)"> </text><path d="M1331 533 1331 568 1988 568 1988 533" stroke="#000000" stroke-width="2.29167" stroke-linecap="round" stroke-linejoin="round" stroke-miterlimit="10" fill="none" fill-rule="evenodd"/><text font-family="Noto Sans JP,Noto Sans JP_MSFontService,sans-serif" font-weight="400" font-size="55" transform="matrix(1 0 0 1 1492.67 623)">Family Name</text><text font-family="Noto Sans JP,Noto Sans JP_MSFontService,sans-serif" font-weight="400" font-size="55" transform="matrix(1 0 0 1 1826.11 623)"> </text><path d="M2074 533 2074 568 3056 568 3056 533" stroke="#000000" stroke-width="2.29167" stroke-linecap="round" stroke-linejoin="round" stroke-miterlimit="10" fill="none" fill-rule="evenodd"/><text font-family="Noto Sans JP,Noto Sans JP_MSFontService,sans-serif" font-weight="400" font-size="55" transform="matrix(1 0 0 1 2303.38 623)">Dimension Identifier</text><text font-family="Noto Sans JP,Noto Sans JP_MSFontService,sans-serif" font-weight="400" font-size="55" transform="matrix(1 0 0 1 2825.88 623)"> </text><path d="M1331 665 1331 701 3056 701 3056 665" stroke="#000000" stroke-width="2.29167" stroke-linecap="round" stroke-linejoin="round" stroke-miterlimit="10" fill="none" fill-rule="evenodd"/><text font-family="Noto Sans JP,Noto Sans JP_MSFontService,sans-serif" font-weight="400" font-size="55" transform="matrix(1 0 0 1 1962.12 755)">GFXFont</text><text font-family="Noto Sans JP,Noto Sans JP_MSFontService,sans-serif" font-weight="400" font-size="55" transform="matrix(1 0 0 1 2176.96 755)"> </text><text font-family="Noto Sans JP,Noto Sans JP_MSFontService,sans-serif" font-weight="400" font-size="55" transform="matrix(1 0 0 1 2189.57 755)">Identifier</text><text font-family="Noto Sans JP,Noto Sans JP_MSFontService,sans-serif" font-weight="400" font-size="55" transform="matrix(1 0 0 1 2424.46 755)"> </text><path d="M1914 434.5C1914 402.191 1935.94 376 1963 376 1990.06 376 2012 402.191 2012 434.5 2012 466.809 1990.06 493 1963 493 1935.94 493 1914 466.809 1914 434.5Z" stroke="#000000" stroke-width="2.29167" stroke-linecap="round" stroke-linejoin="round" stroke-miterlimit="10" stroke-dasharray="6.875 9.16667" fill="none" fill-rule="evenodd"/><path d="M1965.79 328.5 1965.79 353.708C1965.79 354.974 1964.77 356 1963.5 356 1962.23 356 1961.21 354.974 1961.21 353.708L1961.21 328.5C1961.21 327.234 1962.23 326.208 1963.5 326.208 1964.77 326.208 1965.79 327.234 1965.79 328.5ZM1977.25 349.125 1963.5 376.625 1949.75 349.125Z"/><text font-family="Noto Sans JP,Noto Sans JP_MSFontService,sans-serif" font-weight="400" font-size="55" transform="matrix(1 0 0 1 1626.35 308)">“P” Indicates Proportional</text><text font-family="Noto Sans JP,Noto Sans JP_MSFontService,sans-serif" font-weight="400" font-size="55" transform="matrix(1 0 0 1 2297.24 308)"> </text><path d="M2.29174 22.9167 2.29195 83.2878C2.29195 84.5535 1.26594 85.5795 0.000290807 85.5795-1.26536 85.5795-2.29138 84.5535-2.29138 83.2878L-2.29159 22.9167C-2.29159 21.651-1.26558 20.625 7.00856e-05 20.625 1.26572 20.625 2.29174 21.651 2.29174 22.9167ZM-13.7499 27.5 0 0 13.7501 27.5ZM13.7503 78.7045 0.000360892 106.204-13.7497 78.7045Z" transform="matrix(1 0 0 -1 2144.5 2160.7)"/><text font-family="Noto Sans JP,Noto Sans JP_MSFontService,sans-serif" font-weight="400" font-size="55" transform="matrix(1 0 0 1 1648.86 2125)">descenderSpacing</text><text font-family="Noto Sans JP,Noto Sans JP_MSFontService,sans-serif" font-weight="400" font-size="55" transform="matrix(1 0 0 1 2120.37 2125)"> </text><path d="M0 0 0.000360892 1249.8" stroke="#000000" stroke-width="2.29167" stroke-linecap="round" stroke-linejoin="round" stroke-miterlimit="10" fill="none" fill-rule="evenodd" transform="matrix(1 0 0 -1 2720 2280.8)"/><path d="M0 0 0.000360892 1249.8" stroke="#000000" stroke-width="2.29167" stroke-linecap="round" stroke-linejoin="round" stroke-miterlimit="10" fill="none" fill-rule="evenodd" transform="matrix(1 0 0 -1 2772 2280.8)"/><path d="M2659.5 1070.21 2697.6 1070.21C2698.86 1070.21 2699.89 1071.23 2699.89 1072.5 2699.89 1073.77 2698.86 1074.79 2697.6 1074.79L2659.5 1074.79C2658.23 1074.79 2657.21 1073.77 2657.21 1072.5 2657.21 1071.23 2658.23 1070.21 2659.5 1070.21ZM2693.02 1058.75 2720.52 1072.5 2693.02 1086.25Z"/><path d="M1.35546e-05-2.29167 38.0991-2.29144C39.3647-2.29143 40.3907-1.26541 40.3907 0.000238901 40.3907 1.26589 39.3647 2.2919 38.099 2.29189L-1.35546e-05 2.29167C-1.26567 2.29166-2.29167 1.26564-2.29167-1.35546e-05-2.29166-1.26567-1.26564-2.29167 1.35546e-05-2.29167ZM33.5158-13.7498 61.0157 0.000360892 33.5156 13.7502Z" transform="matrix(-1 0 0 1 2833.52 1072.5)"/><text font-family="Noto Sans JP,Noto Sans JP_MSFontService,sans-serif" font-weight="400" font-size="55" transform="matrix(1 0 0 1 2517.68 933)">horizontalSpacing</text><text font-family="Noto Sans JP,Noto Sans JP_MSFontService,sans-serif" font-weight="400" font-size="55" transform="matrix(1 0 0 1 2982.89 933)"> </text><text font-family="Noto Sans JP,Noto Sans JP_MSFontService,sans-serif" font-weight="400" font-size="55" transform="matrix(1 0 0 1 2714.19 999)">(</text><text fill="#0070C0" font-family="Noto Sans JP,Noto Sans JP_MSFontService,sans-serif" font-weight="700" font-size="55" transform="matrix(1 0 0 1 2732.52 999)">p</text><text font-family="Noto Sans JP,Noto Sans JP_MSFontService,sans-serif" font-weight="400" font-size="55" transform="matrix(1 0 0 1 2768.04 999)">)</text><text font-family="Noto Sans JP,Noto Sans JP_MSFontService,sans-serif" font-weight="400" font-size="55" transform="matrix(1 0 0 1 2786.38 999)"> </text></g></svg>