<svg width="2690" height="2010" xmlns="http://www.w3.org/2000/svg" xmlns:xlink="http://www.w3.org/1999/xlink" xml:space="preserve" overflow="hidden"><defs><clipPath id="clip0"><rect x="991" y="142" width="2690" height="2010"/></clipPath></defs><g clip-path="url(#clip0)" transform="translate(-991 -142)"><path d="M991 200.372C991 168.134 1017.13 142 1049.37 142L3622.63 142C3654.87 142 3681 168.134 3681 200.372L3681 2093.63C3681 2125.87 3654.87 2152 3622.63 2152L1049.37 2152C1017.13 2152 991 2125.87 991 2093.63Z" fill="#E4E8EC" fill-rule="evenodd"/><rect x="2295" y="1147" width="425" height="846" fill="#FFFFFF"/><rect x="2772" y="1147" width="159" height="846" fill="#FFFFFF"/><rect x="2987" y="1147" width="476" height="846" fill="#FFFFFF"/><path d="M2252 1251 3502.47 1251" stroke="#00B0F0" stroke-width="2.29167" stroke-linecap="round" stroke-linejoin="round" stroke-miterlimit="10" stroke-dasharray="16.0417 9.16667" fill="none" fill-rule="evenodd"/><path d="M2252 1304 3502.47 1304" stroke="#00B0F0" stroke-width="2.29167" stroke-linecap="round" stroke-linejoin="round" stroke-miterlimit="10" stroke-dasharray="16.0417 9.16667" fill="none" fill-rule="evenodd"/><path d="M2252 1357 3502.47 1357" stroke="#00B0F0" stroke-width="2.29167" stroke-linecap="round" stroke-linejoin="round" stroke-miterlimit="10" stroke-dasharray="16.0417 9.16667" fill="none" fill-rule="evenodd"/><path d="M2252 1410 3502.47 1410" stroke="#00B0F0" stroke-width="2.29167" stroke-linecap="round" stroke-linejoin="round" stroke-miterlimit="10" stroke-dasharray="16.0417 9.16667" fill="none" fill-rule="evenodd"/><path d="M2252 1463 3502.47 1463" stroke="#00B0F0" stroke-width="2.29167" stroke-linecap="round" stroke-linejoin="round" stroke-miterlimit="10" stroke-dasharray="16.0417 9.16667" fill="none" fill-rule="evenodd"/><path d="M2252 1516 3502.47 1516" stroke="#00B0F0" stroke-width="2.29167" stroke-linecap="round" stroke-linejoin="round" stroke-miterlimit="10" stroke-dasharray="16.0417 9.16667" fill="none" fill-rule="evenodd"/><path d="M2252 1570 3502.47 1570" stroke="#00B0F0" stroke-width="2.29167" stroke-linecap="round" stroke-linejoin="round" stroke-miterlimit="10" stroke-dasharray="16.0417 9.16667" fill="none" fill-rule="evenodd"/><path d="M2252 1623 3502.47 1623" stroke="#00B0F0" stroke-width="2.29167" stroke-linecap="round" stroke-linejoin="round" stroke-miterlimit="10" stroke-dasharray="16.0417 9.16667" fill="none" fill-rule="evenodd"/><path d="M2252 1676 3502.47 1676" stroke="#00B0F0" stroke-width="2.29167" stroke-linecap="round" stroke-linejoin="round" stroke-miterlimit="10" stroke-dasharray="16.0417 9.16667" fill="none" fill-rule="evenodd"/><path d="M2252 1729 3502.47 1729" stroke="#00B0F0" stroke-width="2.29167" stroke-linecap="round" stroke-linejoin="round" stroke-miterlimit="10" stroke-dasharray="16.0417 9.16667" fill="none" fill-rule="evenodd"/><path d="M2252 1782 3502.47 1782" stroke="#00B0F0" stroke-width="2.29167" stroke-linecap="round" stroke-linejoin="round" stroke-miterlimit="10" stroke-dasharray="16.0417 9.16667" fill="none" fill-rule="evenodd"/><path d="M2252 1835 3502.47 1835" stroke="#00B0F0" stroke-width="2.29167" stroke-linecap="round" stroke-linejoin="round" stroke-miterlimit="10" stroke-dasharray="16.0417 9.16667" fill="none" fill-rule="evenodd"/><path d="M2252 1888 3502.47 1888" stroke="#00B0F0" stroke-width="2.29167" stroke-linecap="round" stroke-linejoin="round" stroke-miterlimit="10" stroke-dasharray="16.0417 9.16667" fill="none" fill-rule="evenodd"/><path d="M2252 1941 3502.47 1941" stroke="#00B0F0" stroke-width="2.29167" stroke-linecap="round" stroke-linejoin="round" stroke-miterlimit="10" stroke-dasharray="16.0417 9.16667" fill="none" fill-rule="evenodd"/><path d="M2252 1994 3502.47 1994" stroke="#00B0F0" stroke-width="2.29167" stroke-linecap="round" stroke-linejoin="round" stroke-miterlimit="10" stroke-dasharray="16.0417 9.16667" fill="none" fill-rule="evenodd"/><path d="M2252 1147 3502.47 1147" stroke="#00B0F0" stroke-width="2.29167" stroke-linecap="round" stroke-linejoin="round" stroke-miterlimit="10" stroke-dasharray="16.0417 9.16667" fill="none" fill-rule="evenodd"/><path d="M2252 1201 3502.47 1201" stroke="#00B0F0" stroke-width="2.29167" stroke-linecap="round" stroke-linejoin="round" stroke-miterlimit="10" stroke-dasharray="16.0417 9.16667" fill="none" fill-rule="evenodd"/><path d="M2295 1109 2295 2029.4" stroke="#00B0F0" stroke-width="2.29167" stroke-linecap="round" stroke-linejoin="round" stroke-miterlimit="10" stroke-dasharray="16.0417 9.16667" fill="none" fill-rule="evenodd"/><path d="M2348 1109 2348 2029.4" stroke="#00B0F0" stroke-width="2.29167" stroke-linecap="round" stroke-linejoin="round" stroke-miterlimit="10" stroke-dasharray="16.0417 9.16667" fill="none" fill-rule="evenodd"/><path d="M2402 1109 2402 2029.4" stroke="#00B0F0" stroke-width="2.29167" stroke-linecap="round" stroke-linejoin="round" stroke-miterlimit="10" stroke-dasharray="16.0417 9.16667" fill="none" fill-rule="evenodd"/><path d="M2455 1109 2455 2029.4" stroke="#00B0F0" stroke-width="2.29167" stroke-linecap="round" stroke-linejoin="round" stroke-miterlimit="10" stroke-dasharray="16.0417 9.16667" fill="none" fill-rule="evenodd"/><path d="M2508 1109 2508 2029.4" stroke="#00B0F0" stroke-width="2.29167" stroke-linecap="round" stroke-linejoin="round" stroke-miterlimit="10" stroke-dasharray="16.0417 9.16667" fill="none" fill-rule="evenodd"/><path d="M2561 1109 2561 2029.4" stroke="#00B0F0" stroke-width="2.29167" stroke-linecap="round" stroke-linejoin="round" stroke-miterlimit="10" stroke-dasharray="16.0417 9.16667" fill="none" fill-rule="evenodd"/><path d="M2614 1109 2614 2029.4" stroke="#00B0F0" stroke-width="2.29167" stroke-linecap="round" stroke-linejoin="round" stroke-miterlimit="10" stroke-dasharray="16.0417 9.16667" fill="none" fill-rule="evenodd"/><path d="M2667 1109 2667 2029.4" stroke="#00B0F0" stroke-width="2.29167" stroke-linecap="round" stroke-linejoin="round" stroke-miterlimit="10" stroke-dasharray="16.0417 9.16667" fill="none" fill-rule="evenodd"/><path d="M2720 1109 2720 2029.4" stroke="#00B0F0" stroke-width="2.29167" stroke-linecap="round" stroke-linejoin="round" stroke-miterlimit="10" stroke-dasharray="16.0417 9.16667" fill="none" fill-rule="evenodd"/><path d="M2773 1109 2773 2029.4" stroke="#00B0F0" stroke-width="2.29167" stroke-linecap="round" stroke-linejoin="round" stroke-miterlimit="10" stroke-dasharray="16.0417 9.16667" fill="none" fill-rule="evenodd"/><path d="M2826 1109 2826 2029.4" stroke="#00B0F0" stroke-width="2.29167" stroke-linecap="round" stroke-linejoin="round" stroke-miterlimit="10" stroke-dasharray="16.0417 9.16667" fill="none" fill-rule="evenodd"/><path d="M2879 1109 2879 2029.4" stroke="#00B0F0" stroke-width="2.29167" stroke-linecap="round" stroke-linejoin="round" stroke-miterlimit="10" stroke-dasharray="16.0417 9.16667" fill="none" fill-rule="evenodd"/><path d="M2933 1109 2933 2029.4" stroke="#00B0F0" stroke-width="2.29167" stroke-linecap="round" stroke-linejoin="round" stroke-miterlimit="10" stroke-dasharray="16.0417 9.16667" fill="none" fill-rule="evenodd"/><path d="M2986 1109 2986 2029.4" stroke="#00B0F0" stroke-width="2.29167" stroke-linecap="round" stroke-linejoin="round" stroke-miterlimit="10" stroke-dasharray="16.0417 9.16667" fill="none" fill-rule="evenodd"/><path d="M3039 1109 3039 2029.4" stroke="#00B0F0" stroke-width="2.29167" stroke-linecap="round" stroke-linejoin="round" stroke-miterlimit="10" stroke-dasharray="16.0417 9.16667" fill="none" fill-rule="evenodd"/><path d="M3092 1109 3092 2029.4" stroke="#00B0F0" stroke-width="2.29167" stroke-linecap="round" stroke-linejoin="round" stroke-miterlimit="10" stroke-dasharray="16.0417 9.16667" fill="none" fill-rule="evenodd"/><path d="M3145 1109 3145 2029.4" stroke="#00B0F0" stroke-width="2.29167" stroke-linecap="round" stroke-linejoin="round" stroke-miterlimit="10" stroke-dasharray="16.0417 9.16667" fill="none" fill-rule="evenodd"/><path d="M3198 1109 3198 2029.4" stroke="#00B0F0" stroke-width="2.29167" stroke-linecap="round" stroke-linejoin="round" stroke-miterlimit="10" stroke-dasharray="16.0417 9.16667" fill="none" fill-rule="evenodd"/><path d="M3251 1109 3251 2029.4" stroke="#00B0F0" stroke-width="2.29167" stroke-linecap="round" stroke-linejoin="round" stroke-miterlimit="10" stroke-dasharray="16.0417 9.16667" fill="none" fill-rule="evenodd"/><path d="M3304 1109 3304 2029.4" stroke="#00B0F0" stroke-width="2.29167" stroke-linecap="round" stroke-linejoin="round" stroke-miterlimit="10" stroke-dasharray="16.0417 9.16667" fill="none" fill-rule="evenodd"/><path d="M3357 1109 3357 2029.4" stroke="#00B0F0" stroke-width="2.29167" stroke-linecap="round" stroke-linejoin="round" stroke-miterlimit="10" stroke-dasharray="16.0417 9.16667" fill="none" fill-rule="evenodd"/><path d="M3410 1109 3410 2029.4" stroke="#00B0F0" stroke-width="2.29167" stroke-linecap="round" stroke-linejoin="round" stroke-miterlimit="10" stroke-dasharray="16.0417 9.16667" fill="none" fill-rule="evenodd"/><path d="M3463 1109 3463 2029.4" stroke="#00B0F0" stroke-width="2.29167" stroke-linecap="round" stroke-linejoin="round" stroke-miterlimit="10" stroke-dasharray="16.0417 9.16667" fill="none" fill-rule="evenodd"/><rect x="2295" y="1251" width="160" height="637" stroke="#000000" stroke-width="2.29167" stroke-linecap="round" stroke-linejoin="round" stroke-miterlimit="10"/><rect x="2455" y="1251" width="265" height="106" stroke="#000000" stroke-width="2.29167" stroke-linecap="round" stroke-linejoin="round" stroke-miterlimit="10"/><rect x="2455" y="1516" width="212" height="107" stroke="#000000" stroke-width="2.29167" stroke-linecap="round" stroke-linejoin="round" stroke-miterlimit="10"/><rect x="2983" y="1516" width="159" height="107" stroke="#000000" stroke-width="2.29167" stroke-linecap="round" stroke-linejoin="round" stroke-miterlimit="10"/><rect x="3038" y="1623" width="159" height="106" stroke="#000000" stroke-width="2.29167" stroke-linecap="round" stroke-linejoin="round" stroke-miterlimit="10"/><rect x="3091" y="1729" width="265" height="106" stroke="#000000" stroke-width="2.29167" stroke-linecap="round" stroke-linejoin="round" stroke-miterlimit="10"/><rect x="3250" y="1623" width="159" height="106" stroke="#000000" stroke-width="2.29167" stroke-linecap="round" stroke-linejoin="round" stroke-miterlimit="10"/><rect x="3303" y="1516" width="160" height="107" stroke="#000000" stroke-width="2.29167" stroke-linecap="round" stroke-linejoin="round" stroke-miterlimit="10"/><rect x="3144" y="1835" width="159" height="106" stroke="#000000" stroke-width="2.29167" stroke-linecap="round" stroke-linejoin="round" stroke-miterlimit="10"/><rect x="2985" y="1888" width="265" height="106" stroke="#000000" stroke-width="2.29167" stroke-linecap="round" stroke-linejoin="round" stroke-miterlimit="10"/><path d="M0 0 1498.18 0.000360892" stroke="#000000" stroke-width="2.29167" stroke-linecap="round" stroke-linejoin="round" stroke-miterlimit="10" fill="none" fill-rule="evenodd" transform="matrix(-1 0 0 1 3549.18 1888)"/><path d="M0 0 1482.71 0.000360892" stroke="#000000" stroke-width="2.29167" stroke-linecap="round" stroke-linejoin="round" stroke-miterlimit="10" fill="none" fill-rule="evenodd" transform="matrix(-1 0 0 1 3549.71 1251)"/><path d="M0 0 2093.7 0.000360892" stroke="#000000" stroke-width="2.29167" stroke-linecap="round" stroke-linejoin="round" stroke-miterlimit="10" fill="none" fill-rule="evenodd" transform="matrix(-1 0 0 1 3549.7 1994)"/><path d="M0 0 2088.38 0.000360892" stroke="#000000" stroke-width="2.29167" stroke-linecap="round" stroke-linejoin="round" stroke-miterlimit="10" fill="none" fill-rule="evenodd" transform="matrix(-1 0 0 1 3550.38 1148)"/><path d="M2.29168 22.9168 2.29201 614.31C2.29202 615.576 1.266 616.602 0.000349211 616.602-1.2653 616.602-2.29132 615.576-2.29132 614.31L-2.29165 22.9168C-2.29165 21.6511-1.26564 20.6251 1.1681e-05 20.6251 1.26566 20.6251 2.29168 21.6511 2.29168 22.9168ZM-13.75 27.5 0 0 13.75 27.5ZM13.7503 609.727 0.000360892 637.227-13.7497 609.727Z" transform="matrix(1 0 0 -1 2144.5 1888.73)"/><path d="M2.29174 22.9167 2.29195 83.2878C2.29195 84.5535 1.26594 85.5795 0.000290807 85.5795-1.26536 85.5795-2.29138 84.5535-2.29138 83.2878L-2.29159 22.9167C-2.29159 21.651-1.26558 20.625 7.00856e-05 20.625 1.26572 20.625 2.29174 21.651 2.29174 22.9167ZM-13.7499 27.5 0 0 13.7501 27.5ZM13.7503 78.7045 0.000360892 106.204-13.7497 78.7045Z" transform="matrix(1 0 0 -1 2144.5 1994.7)"/><text font-family="Noto Sans JP,Noto Sans JP_MSFontService,sans-serif" font-weight="400" font-size="55" transform="matrix(1 0 0 1 1758.86 1583)">C</text><text font-family="Noto Sans JP,Noto Sans JP_MSFontService,sans-serif" font-weight="400" font-size="55" transform="matrix(1 0 0 1 1793.8 1583)">ap</text><text font-family="Noto Sans JP,Noto Sans JP_MSFontService,sans-serif" font-weight="400" font-size="55" transform="matrix(1 0 0 1 1859.12 1583)"> </text><text font-family="Noto Sans JP,Noto Sans JP_MSFontService,sans-serif" font-weight="400" font-size="55" transform="matrix(1 0 0 1 1871.72 1583)">Height </text><text font-family="Noto Sans JP,Noto Sans JP_MSFontService,sans-serif" font-weight="400" font-size="55" transform="matrix(1 0 0 1 2054.48 1583)">(</text><text fill="#E97132" font-family="Noto Sans JP,Noto Sans JP_MSFontService,sans-serif" font-weight="700" font-size="55" transform="matrix(1 0 0 1 2072.81 1583)">c</text><text font-family="Noto Sans JP,Noto Sans JP_MSFontService,sans-serif" font-weight="400" font-size="55" transform="matrix(1 0 0 1 2102.03 1583)">)</text><text font-family="Noto Sans JP,Noto Sans JP_MSFontService,sans-serif" font-weight="400" font-size="55" transform="matrix(1 0 0 1 2120.37 1583)"> </text><text font-family="Noto Sans JP,Noto Sans JP_MSFontService,sans-serif" font-weight="400" font-size="55" transform="matrix(1 0 0 1 1914.82 1959)">Descent</text><text font-family="Noto Sans JP,Noto Sans JP_MSFontService,sans-serif" font-weight="400" font-size="55" transform="matrix(1 0 0 1 2119.92 1959)"> </text><path d="M0 0 0.000360892 1076.71" stroke="#000000" stroke-width="2.29167" stroke-linecap="round" stroke-linejoin="round" stroke-miterlimit="10" fill="none" fill-rule="evenodd" transform="matrix(1 0 0 -1 2295 2069.71)"/><path d="M0 0 0.000360892 1076.71" stroke="#000000" stroke-width="2.29167" stroke-linecap="round" stroke-linejoin="round" stroke-miterlimit="10" fill="none" fill-rule="evenodd" transform="matrix(1 0 0 -1 2455 2069.71)"/><path d="M2318.42 1031.21 2431.87 1031.21C2433.14 1031.21 2434.17 1032.23 2434.17 1033.5 2434.17 1034.77 2433.14 1035.79 2431.87 1035.79L2318.42 1035.79C2317.15 1035.79 2316.12 1034.77 2316.12 1033.5 2316.12 1032.23 2317.15 1031.21 2318.42 1031.21ZM2323 1047.25 2295.5 1033.5 2323 1019.75ZM2427.29 1019.75 2454.79 1033.5 2427.29 1047.25Z"/><text font-family="Noto Sans JP,Noto Sans JP_MSFontService,sans-serif" font-weight="400" font-size="55" transform="matrix(1 0 0 1 2240.88 960)">W</text><text font-family="Noto Sans JP,Noto Sans JP_MSFontService,sans-serif" font-weight="400" font-size="55" transform="matrix(1 0 0 1 2289.01 960)">eight</text><text font-family="Noto Sans JP,Noto Sans JP_MSFontService,sans-serif" font-weight="400" font-size="55" transform="matrix(1 0 0 1 2419.06 960)"> </text><text font-family="Noto Sans JP,Noto Sans JP_MSFontService,sans-serif" font-weight="400" font-size="55" transform="matrix(1 0 0 1 2431.66 960)">(</text><text fill="#8F8231" font-family="Noto Sans JP,Noto Sans JP_MSFontService,sans-serif" font-weight="700" font-size="55" transform="matrix(1 0 0 1 2450 960)">w</text><text font-family="Noto Sans JP,Noto Sans JP_MSFontService,sans-serif" font-weight="400" font-size="55" transform="matrix(1 0 0 1 2497.55 960)">)</text><text font-family="Noto Sans JP,Noto Sans JP_MSFontService,sans-serif" font-weight="400" font-size="55" transform="matrix(1 0 0 1 2515.88 960)"> </text><path d="M2.29168 22.9167 2.29202 822.409C2.29202 823.675 1.266 824.701 0.000352087 824.701-1.2653 824.701-2.29132 823.675-2.29132 822.409L-2.29166 22.9167C-2.29166 21.6511-1.26564 20.6251 8.80539e-06 20.6251 1.26566 20.6251 2.29168 21.6511 2.29168 22.9167ZM-13.75 27.5 0 0 13.75 27.5ZM13.7503 817.826 0.000360892 845.326-13.7497 817.826Z" transform="matrix(1 0 0 -1 1519.5 1993.83)"/><text font-family="Noto Sans JP,Noto Sans JP_MSFontService,sans-serif" font-weight="400" font-size="55" transform="matrix(1 0 0 1 1171.21 1579)">Body Size</text><text font-family="Noto Sans JP,Noto Sans JP_MSFontService,sans-serif" font-weight="400" font-size="55" transform="matrix(1 0 0 1 1418.71 1579)"> </text><text font-family="Noto Sans JP,Noto Sans JP_MSFontService,sans-serif" font-weight="400" font-size="55" transform="matrix(1 0 0 1 1431.32 1579)">(</text><text fill="#C00000" font-family="Noto Sans JP,Noto Sans JP_MSFontService,sans-serif" font-weight="700" font-size="55" transform="matrix(1 0 0 1 1449.65 1579)">s</text><text font-family="Noto Sans JP,Noto Sans JP_MSFontService,sans-serif" font-weight="400" font-size="55" transform="matrix(1 0 0 1 1477.15 1579)">)</text><text font-family="Noto Sans JP,Noto Sans JP_MSFontService,sans-serif" font-weight="400" font-size="55" transform="matrix(1 0 0 1 1495.48 1579)"> </text><text font-family="Noto Sans JP,Noto Sans JP_MSFontService,sans-serif" font-weight="400" font-size="41" transform="matrix(1 0 0 1 1102.46 1632)">(Max Bitmap Height)</text><text font-family="Noto Sans JP,Noto Sans JP_MSFontService,sans-serif" font-weight="400" font-size="41" transform="matrix(1 0 0 1 1495.48 1632)"> </text><text font-family="Noto Sans JP,Noto Sans JP_MSFontService,sans-serif" font-weight="700" font-size="110" transform="matrix(1 0 0 1 1601.07 476)">ShapoSansP</text><text font-family="Noto Sans JP,Noto Sans JP_MSFontService,sans-serif" font-weight="700" font-size="110" transform="matrix(1 0 0 1 2276.54 476)">_</text><text fill="#C00000" font-family="Noto Sans JP,Noto Sans JP_MSFontService,sans-serif" font-weight="700" font-size="110" transform="matrix(1 0 0 1 2338.98 476)">s</text><text font-family="Noto Sans JP,Noto Sans JP_MSFontService,sans-serif" font-weight="700" font-size="110" transform="matrix(1 0 0 1 2393.41 476)">1</text><text font-family="Noto Sans JP,Noto Sans JP_MSFontService,sans-serif" font-weight="700" font-size="110" transform="matrix(1 0 0 1 2458.15 476)">6</text><text fill="#E97132" font-family="Noto Sans JP,Noto Sans JP_MSFontService,sans-serif" font-weight="700" font-size="110" transform="matrix(1 0 0 1 2522.89 476)">c</text><text font-family="Noto Sans JP,Noto Sans JP_MSFontService,sans-serif" font-weight="700" font-size="110" transform="matrix(1 0 0 1 2580.76 476)">12</text><text fill="#00C2CC" font-family="Noto Sans JP,Noto Sans JP_MSFontService,sans-serif" font-weight="700" font-size="110" transform="matrix(1 0 0 1 2710.23 476)">a</text><text font-family="Noto Sans JP,Noto Sans JP_MSFontService,sans-serif" font-weight="700" font-size="110" transform="matrix(1 0 0 1 2774.97 476)">0</text><text font-family="Noto Sans JP,Noto Sans JP_MSFontService,sans-serif" font-weight="700" font-size="110" transform="matrix(1 0 0 1 2839.71 476)">2</text><text fill="#8F8231" font-family="Noto Sans JP,Noto Sans JP_MSFontService,sans-serif" font-weight="700" font-size="110" transform="matrix(1 0 0 1 2904.45 476)">w</text><text font-family="Noto Sans JP,Noto Sans JP_MSFontService,sans-serif" font-weight="700" font-size="110" transform="matrix(1 0 0 1 2999.56 476)">3</text><text font-family="Noto Sans JP,Noto Sans JP_MSFontService,sans-serif" font-weight="700" font-size="110" transform="matrix(1 0 0 1 3064.3 476)"> </text><path d="M1600 533 1600 568 2257 568 2257 533" stroke="#000000" stroke-width="2.29167" stroke-linecap="round" stroke-linejoin="round" stroke-miterlimit="10" fill="none" fill-rule="evenodd"/><text font-family="Noto Sans JP,Noto Sans JP_MSFontService,sans-serif" font-weight="400" font-size="55" transform="matrix(1 0 0 1 1762.16 623)">Family Name</text><text font-family="Noto Sans JP,Noto Sans JP_MSFontService,sans-serif" font-weight="400" font-size="55" transform="matrix(1 0 0 1 2095.6 623)"> </text><path d="M2337 533 2337 568 3072 568 3072 533" stroke="#000000" stroke-width="2.29167" stroke-linecap="round" stroke-linejoin="round" stroke-miterlimit="10" fill="none" fill-rule="evenodd"/><text font-family="Noto Sans JP,Noto Sans JP_MSFontService,sans-serif" font-weight="400" font-size="55" transform="matrix(1 0 0 1 2443.22 623)">Dimension Identifier</text><text font-family="Noto Sans JP,Noto Sans JP_MSFontService,sans-serif" font-weight="400" font-size="55" transform="matrix(1 0 0 1 2965.72 623)"> </text><path d="M1603 665 1603 701 3072 701 3072 665" stroke="#000000" stroke-width="2.29167" stroke-linecap="round" stroke-linejoin="round" stroke-miterlimit="10" fill="none" fill-rule="evenodd"/><text font-family="Noto Sans JP,Noto Sans JP_MSFontService,sans-serif" font-weight="400" font-size="55" transform="matrix(1 0 0 1 2143.98 755)">Full Font Name</text><text font-family="Noto Sans JP,Noto Sans JP_MSFontService,sans-serif" font-weight="400" font-size="55" transform="matrix(1 0 0 1 2530.7 755)"> </text><path d="M2184 434.5C2184 402.191 2205.94 376 2233 376 2260.06 376 2282 402.191 2282 434.5 2282 466.809 2260.06 493 2233 493 2205.94 493 2184 466.809 2184 434.5Z" stroke="#000000" stroke-width="2.29167" stroke-linecap="round" stroke-linejoin="round" stroke-miterlimit="10" stroke-dasharray="6.875 9.16667" fill="none" fill-rule="evenodd"/><path d="M2238.79 328.5 2238.79 353.708C2238.79 354.974 2237.77 356 2236.5 356 2235.23 356 2234.21 354.974 2234.21 353.708L2234.21 328.5C2234.21 327.234 2235.23 326.208 2236.5 326.208 2237.77 326.208 2238.79 327.234 2238.79 328.5ZM2250.25 349.125 2236.5 376.625 2222.75 349.125Z"/><text font-family="Noto Sans JP,Noto Sans JP_MSFontService,sans-serif" font-weight="400" font-size="55" transform="matrix(1 0 0 1 1899.31 308)">“P” Indicates Proportional</text><text font-family="Noto Sans JP,Noto Sans JP_MSFontService,sans-serif" font-weight="400" font-size="55" transform="matrix(1 0 0 1 2570.2 308)"> </text><rect x="2773" y="1148" width="160" height="106" stroke="#000000" stroke-width="2.29167" stroke-linecap="round" stroke-linejoin="round" stroke-miterlimit="10"/><rect x="2827" y="1252" width="106" height="52.9999" stroke="#000000" stroke-width="2.29167" stroke-linecap="round" stroke-linejoin="round" stroke-miterlimit="10"/><rect x="2772" y="1305" width="106" height="53.0002" stroke="#000000" stroke-width="2.29167" stroke-linecap="round" stroke-linejoin="round" stroke-miterlimit="10"/><path d="M2.29174 22.9167 2.29195 83.2878C2.29195 84.5535 1.26594 85.5795 0.000290807 85.5795-1.26536 85.5795-2.29138 84.5535-2.29138 83.2878L-2.29159 22.9167C-2.29159 21.651-1.26558 20.625 7.00856e-05 20.625 1.26572 20.625 2.29174 21.651 2.29174 22.9167ZM-13.7499 27.5 0 0 13.7501 27.5ZM13.7503 78.7045 0.000360892 106.204-13.7497 78.7045Z" transform="matrix(1 0 0 -1 2144.5 1252.7)"/><text font-family="Noto Sans JP,Noto Sans JP_MSFontService,sans-serif" font-weight="400" font-size="55" transform="matrix(1 0 0 1 1583.67 1217)">Ascender Spacing (</text><text fill="#00C2CC" font-family="Noto Sans JP,Noto Sans JP_MSFontService,sans-serif" font-weight="700" font-size="55" transform="matrix(1 0 0 1 2068.93 1217)">a</text><text font-family="Noto Sans JP,Noto Sans JP_MSFontService,sans-serif" font-weight="400" font-size="55" transform="matrix(1 0 0 1 2101.59 1217)">)</text><text font-family="Noto Sans JP,Noto Sans JP_MSFontService,sans-serif" font-weight="400" font-size="55" transform="matrix(1 0 0 1 2119.92 1217)"> </text></g></svg>