<svg width="2957" height="1599" xmlns="http://www.w3.org/2000/svg" xmlns:xlink="http://www.w3.org/1999/xlink" xml:space="preserve" overflow="hidden"><defs><clipPath id="clip0"><rect x="684" y="361" width="2957" height="1599"/></clipPath></defs><g clip-path="url(#clip0)" transform="translate(-684 -361)"><path d="M684 448.578C684 400.21 723.21 361 771.578 361L3553.42 361C3601.79 361 3641 400.21 3641 448.578L3641 1872.42C3641 1920.79 3601.79 1960 3553.42 1960L771.578 1960C723.21 1960 684 1920.79 684 1872.42Z" fill="#E4E8EC" fill-rule="evenodd"/><rect x="1347" y="614" width="2198" height="1140"/><path d="M2490 637 2490 1723.44" stroke="#104862" stroke-width="2.29167" stroke-linecap="round" stroke-linejoin="round" stroke-miterlimit="10" stroke-dasharray="16.0417 9.16667" fill="none" fill-rule="evenodd"/><path d="M2543 637 2543 1723.44" stroke="#104862" stroke-width="2.29167" stroke-linecap="round" stroke-linejoin="round" stroke-miterlimit="10" stroke-dasharray="16.0417 9.16667" fill="none" fill-rule="evenodd"/><path d="M2596 637 2596 1723.44" stroke="#104862" stroke-width="2.29167" stroke-linecap="round" stroke-linejoin="round" stroke-miterlimit="10" stroke-dasharray="16.0417 9.16667" fill="none" fill-rule="evenodd"/><path d="M2649 637 2649 1723.44" stroke="#104862" stroke-width="2.29167" stroke-linecap="round" stroke-linejoin="round" stroke-miterlimit="10" stroke-dasharray="16.0417 9.16667" fill="none" fill-rule="evenodd"/><path d="M2702 637 2702 1723.44" stroke="#104862" stroke-width="2.29167" stroke-linecap="round" stroke-linejoin="round" stroke-miterlimit="10" stroke-dasharray="16.0417 9.16667" fill="none" fill-rule="evenodd"/><path d="M2755 637 2755 1723.44" stroke="#104862" stroke-width="2.29167" stroke-linecap="round" stroke-linejoin="round" stroke-miterlimit="10" stroke-dasharray="16.0417 9.16667" fill="none" fill-rule="evenodd"/><path d="M2808 637 2808 1723.44" stroke="#104862" stroke-width="2.29167" stroke-linecap="round" stroke-linejoin="round" stroke-miterlimit="10" stroke-dasharray="16.0417 9.16667" fill="none" fill-rule="evenodd"/><path d="M2861 637 2861 1723.44" stroke="#104862" stroke-width="2.29167" stroke-linecap="round" stroke-linejoin="round" stroke-miterlimit="10" stroke-dasharray="16.0417 9.16667" fill="none" fill-rule="evenodd"/><path d="M2914 637 2914 1723.44" stroke="#104862" stroke-width="2.29167" stroke-linecap="round" stroke-linejoin="round" stroke-miterlimit="10" stroke-dasharray="16.0417 9.16667" fill="none" fill-rule="evenodd"/><path d="M2967 637 2967 1723.44" stroke="#104862" stroke-width="2.29167" stroke-linecap="round" stroke-linejoin="round" stroke-miterlimit="10" stroke-dasharray="16.0417 9.16667" fill="none" fill-rule="evenodd"/><path d="M3021 637 3021 1723.44" stroke="#104862" stroke-width="2.29167" stroke-linecap="round" stroke-linejoin="round" stroke-miterlimit="10" stroke-dasharray="16.0417 9.16667" fill="none" fill-rule="evenodd"/><path d="M3074 637 3074 1723.44" stroke="#104862" stroke-width="2.29167" stroke-linecap="round" stroke-linejoin="round" stroke-miterlimit="10" stroke-dasharray="16.0417 9.16667" fill="none" fill-rule="evenodd"/><path d="M3127 637 3127 1723.44" stroke="#104862" stroke-width="2.29167" stroke-linecap="round" stroke-linejoin="round" stroke-miterlimit="10" stroke-dasharray="16.0417 9.16667" fill="none" fill-rule="evenodd"/><path d="M3181 637 3181 1723.44" stroke="#104862" stroke-width="2.29167" stroke-linecap="round" stroke-linejoin="round" stroke-miterlimit="10" stroke-dasharray="16.0417 9.16667" fill="none" fill-rule="evenodd"/><path d="M3234 637 3234 1723.44" stroke="#104862" stroke-width="2.29167" stroke-linecap="round" stroke-linejoin="round" stroke-miterlimit="10" stroke-dasharray="16.0417 9.16667" fill="none" fill-rule="evenodd"/><path d="M3287 637 3287 1723.44" stroke="#104862" stroke-width="2.29167" stroke-linecap="round" stroke-linejoin="round" stroke-miterlimit="10" stroke-dasharray="16.0417 9.16667" fill="none" fill-rule="evenodd"/><path d="M3340 637 3340 1723.44" stroke="#104862" stroke-width="2.29167" stroke-linecap="round" stroke-linejoin="round" stroke-miterlimit="10" stroke-dasharray="16.0417 9.16667" fill="none" fill-rule="evenodd"/><path d="M3393 637 3393 1723.44" stroke="#104862" stroke-width="2.29167" stroke-linecap="round" stroke-linejoin="round" stroke-miterlimit="10" stroke-dasharray="16.0417 9.16667" fill="none" fill-rule="evenodd"/><path d="M3446 637 3446 1723.44" stroke="#104862" stroke-width="2.29167" stroke-linecap="round" stroke-linejoin="round" stroke-miterlimit="10" stroke-dasharray="16.0417 9.16667" fill="none" fill-rule="evenodd"/><rect x="2919" y="1570" width="478" height="51.0002" stroke="#FF0000" stroke-width="2.29167" stroke-linecap="round" stroke-linejoin="round" stroke-miterlimit="10" fill="#FF0000"/><rect x="2545" y="1570" width="216" height="51.0002" stroke="#FF0000" stroke-width="2.29167" stroke-linecap="round" stroke-linejoin="round" stroke-miterlimit="10" fill="#FF0000"/><path d="M1378 827 3481.65 827" stroke="#104862" stroke-width="2.29167" stroke-linecap="round" stroke-linejoin="round" stroke-miterlimit="10" stroke-dasharray="16.0417 9.16667" fill="none" fill-rule="evenodd"/><path d="M1378 880 3481.65 880" stroke="#104862" stroke-width="2.29167" stroke-linecap="round" stroke-linejoin="round" stroke-miterlimit="10" stroke-dasharray="16.0417 9.16667" fill="none" fill-rule="evenodd"/><path d="M1378 933 3481.65 933" stroke="#104862" stroke-width="2.29167" stroke-linecap="round" stroke-linejoin="round" stroke-miterlimit="10" stroke-dasharray="16.0417 9.16667" fill="none" fill-rule="evenodd"/><path d="M1378 986 3481.65 986" stroke="#104862" stroke-width="2.29167" stroke-linecap="round" stroke-linejoin="round" stroke-miterlimit="10" stroke-dasharray="16.0417 9.16667" fill="none" fill-rule="evenodd"/><path d="M1378 1039 3481.65 1039" stroke="#104862" stroke-width="2.29167" stroke-linecap="round" stroke-linejoin="round" stroke-miterlimit="10" stroke-dasharray="16.0417 9.16667" fill="none" fill-rule="evenodd"/><path d="M1378 1092 3481.65 1092" stroke="#104862" stroke-width="2.29167" stroke-linecap="round" stroke-linejoin="round" stroke-miterlimit="10" stroke-dasharray="16.0417 9.16667" fill="none" fill-rule="evenodd"/><path d="M1378 1145 3481.65 1145" stroke="#104862" stroke-width="2.29167" stroke-linecap="round" stroke-linejoin="round" stroke-miterlimit="10" stroke-dasharray="16.0417 9.16667" fill="none" fill-rule="evenodd"/><path d="M1378 1198 3481.65 1198" stroke="#104862" stroke-width="2.29167" stroke-linecap="round" stroke-linejoin="round" stroke-miterlimit="10" stroke-dasharray="16.0417 9.16667" fill="none" fill-rule="evenodd"/><path d="M1378 1251 3481.65 1251" stroke="#104862" stroke-width="2.29167" stroke-linecap="round" stroke-linejoin="round" stroke-miterlimit="10" stroke-dasharray="16.0417 9.16667" fill="none" fill-rule="evenodd"/><path d="M1378 1304 3481.65 1304" stroke="#104862" stroke-width="2.29167" stroke-linecap="round" stroke-linejoin="round" stroke-miterlimit="10" stroke-dasharray="16.0417 9.16667" fill="none" fill-rule="evenodd"/><path d="M1378 1358 3481.65 1358" stroke="#104862" stroke-width="2.29167" stroke-linecap="round" stroke-linejoin="round" stroke-miterlimit="10" stroke-dasharray="16.0417 9.16667" fill="none" fill-rule="evenodd"/><path d="M1378 1411 3481.65 1411" stroke="#104862" stroke-width="2.29167" stroke-linecap="round" stroke-linejoin="round" stroke-miterlimit="10" stroke-dasharray="16.0417 9.16667" fill="none" fill-rule="evenodd"/><path d="M1378 1464 3481.65 1464" stroke="#104862" stroke-width="2.29167" stroke-linecap="round" stroke-linejoin="round" stroke-miterlimit="10" stroke-dasharray="16.0417 9.16667" fill="none" fill-rule="evenodd"/><path d="M1378 1517 3481.65 1517" stroke="#104862" stroke-width="2.29167" stroke-linecap="round" stroke-linejoin="round" stroke-miterlimit="10" stroke-dasharray="16.0417 9.16667" fill="none" fill-rule="evenodd"/><path d="M1378 1570 3481.65 1570" stroke="#104862" stroke-width="2.29167" stroke-linecap="round" stroke-linejoin="round" stroke-miterlimit="10" stroke-dasharray="16.0417 9.16667" fill="none" fill-rule="evenodd"/><path d="M1378 1623 3481.65 1623" stroke="#104862" stroke-width="2.29167" stroke-linecap="round" stroke-linejoin="round" stroke-miterlimit="10" stroke-dasharray="16.0417 9.16667" fill="none" fill-rule="evenodd"/><path d="M1378 1676 3481.65 1676" stroke="#104862" stroke-width="2.29167" stroke-linecap="round" stroke-linejoin="round" stroke-miterlimit="10" stroke-dasharray="16.0417 9.16667" fill="none" fill-rule="evenodd"/><path d="M1378 723 3481.65 723" stroke="#104862" stroke-width="2.29167" stroke-linecap="round" stroke-linejoin="round" stroke-miterlimit="10" stroke-dasharray="16.0417 9.16667" fill="none" fill-rule="evenodd"/><path d="M1378 776 3481.65 776" stroke="#104862" stroke-width="2.29167" stroke-linecap="round" stroke-linejoin="round" stroke-miterlimit="10" stroke-dasharray="16.0417 9.16667" fill="none" fill-rule="evenodd"/><path d="M1378 673 3481.65 673" stroke="#104862" stroke-width="2.29167" stroke-linecap="round" stroke-linejoin="round" stroke-miterlimit="10" stroke-dasharray="16.0417 9.16667" fill="none" fill-rule="evenodd"/><path d="M1421 637 1421 1723.44" stroke="#104862" stroke-width="2.29167" stroke-linecap="round" stroke-linejoin="round" stroke-miterlimit="10" stroke-dasharray="16.0417 9.16667" fill="none" fill-rule="evenodd"/><path d="M1474 637 1474 1723.44" stroke="#104862" stroke-width="2.29167" stroke-linecap="round" stroke-linejoin="round" stroke-miterlimit="10" stroke-dasharray="16.0417 9.16667" fill="none" fill-rule="evenodd"/><path d="M1527 637 1527 1723.44" stroke="#104862" stroke-width="2.29167" stroke-linecap="round" stroke-linejoin="round" stroke-miterlimit="10" stroke-dasharray="16.0417 9.16667" fill="none" fill-rule="evenodd"/><path d="M1580 637 1580 1723.44" stroke="#104862" stroke-width="2.29167" stroke-linecap="round" stroke-linejoin="round" stroke-miterlimit="10" stroke-dasharray="16.0417 9.16667" fill="none" fill-rule="evenodd"/><path d="M1633 637 1633 1723.44" stroke="#104862" stroke-width="2.29167" stroke-linecap="round" stroke-linejoin="round" stroke-miterlimit="10" stroke-dasharray="16.0417 9.16667" fill="none" fill-rule="evenodd"/><path d="M1686 637 1686 1723.44" stroke="#104862" stroke-width="2.29167" stroke-linecap="round" stroke-linejoin="round" stroke-miterlimit="10" stroke-dasharray="16.0417 9.16667" fill="none" fill-rule="evenodd"/><path d="M1739 637 1739 1723.44" stroke="#104862" stroke-width="2.29167" stroke-linecap="round" stroke-linejoin="round" stroke-miterlimit="10" stroke-dasharray="16.0417 9.16667" fill="none" fill-rule="evenodd"/><path d="M1793 637 1793 1723.44" stroke="#104862" stroke-width="2.29167" stroke-linecap="round" stroke-linejoin="round" stroke-miterlimit="10" stroke-dasharray="16.0417 9.16667" fill="none" fill-rule="evenodd"/><path d="M1846 637 1846 1723.44" stroke="#104862" stroke-width="2.29167" stroke-linecap="round" stroke-linejoin="round" stroke-miterlimit="10" stroke-dasharray="16.0417 9.16667" fill="none" fill-rule="evenodd"/><path d="M1899 637 1899 1723.44" stroke="#104862" stroke-width="2.29167" stroke-linecap="round" stroke-linejoin="round" stroke-miterlimit="10" stroke-dasharray="16.0417 9.16667" fill="none" fill-rule="evenodd"/><path d="M1952 637 1952 1723.44" stroke="#104862" stroke-width="2.29167" stroke-linecap="round" stroke-linejoin="round" stroke-miterlimit="10" stroke-dasharray="16.0417 9.16667" fill="none" fill-rule="evenodd"/><path d="M2005 637 2005 1723.44" stroke="#104862" stroke-width="2.29167" stroke-linecap="round" stroke-linejoin="round" stroke-miterlimit="10" stroke-dasharray="16.0417 9.16667" fill="none" fill-rule="evenodd"/><rect x="1471" y="1306" width="113" height="158" stroke="#FFFFFF" stroke-width="2.29167" stroke-linecap="round" stroke-linejoin="round" stroke-miterlimit="10" fill="#FFFFFF"/><path d="M0 0 113.208 0.000360892" stroke="#000000" stroke-width="2.29167" stroke-linecap="round" stroke-linejoin="round" stroke-miterlimit="10" fill="none" fill-rule="evenodd" transform="matrix(-1 0 0 1 1339.21 1464)"/><path d="M0 0 108.625 0.000360892" stroke="#000000" stroke-width="2.29167" stroke-linecap="round" stroke-linejoin="round" stroke-miterlimit="10" fill="none" fill-rule="evenodd" transform="matrix(-1 0 0 1 1339.62 827)"/><path d="M0 0 471.139 0.000360892" stroke="#000000" stroke-width="2.29167" stroke-linecap="round" stroke-linejoin="round" stroke-miterlimit="10" fill="none" fill-rule="evenodd" transform="matrix(-1 0 0 1 1339.14 1570)"/><path d="M0 0 473 0.000360892" stroke="#000000" stroke-width="2.29167" stroke-linecap="round" stroke-linejoin="round" stroke-miterlimit="10" fill="none" fill-rule="evenodd" transform="matrix(-1 0 0 1 1339 723)"/><path d="M2.29168 22.9168 2.29201 614.31C2.29202 615.576 1.266 616.602 0.000349211 616.602-1.2653 616.602-2.29132 615.576-2.29132 614.31L-2.29165 22.9168C-2.29165 21.6511-1.26564 20.6251 1.1681e-05 20.6251 1.26566 20.6251 2.29168 21.6511 2.29168 22.9168ZM-13.75 27.5 0 0 13.75 27.5ZM13.7503 609.727 0.000360892 637.227-13.7497 609.727Z" transform="matrix(1 0 0 -1 1270.5 1464.73)"/><path d="M2.29174 22.9167 2.29195 83.2878C2.29195 84.5535 1.26594 85.5795 0.000290807 85.5795-1.26536 85.5795-2.29138 84.5535-2.29138 83.2878L-2.29159 22.9167C-2.29159 21.651-1.26558 20.625 7.00856e-05 20.625 1.26572 20.625 2.29174 21.651 2.29174 22.9167ZM-13.7499 27.5 0 0 13.7501 27.5ZM13.7503 78.7045 0.000360892 106.204-13.7497 78.7045Z" transform="matrix(1 0 0 -1 1270.5 1568.7)"/><text font-family="Noto Sans JP,Noto Sans JP_MSFontService,sans-serif" font-weight="400" font-size="55" transform="matrix(1 0 0 1 1110.22 1126)">C</text><text font-family="Noto Sans JP,Noto Sans JP_MSFontService,sans-serif" font-weight="400" font-size="55" transform="matrix(1 0 0 1 1145.16 1126)">ap</text><text font-family="Noto Sans JP,Noto Sans JP_MSFontService,sans-serif" font-weight="400" font-size="55" transform="matrix(1 0 0 1 1210.48 1126)"> </text><text font-family="Noto Sans JP,Noto Sans JP_MSFontService,sans-serif" font-weight="400" font-size="55" transform="matrix(1 0 0 1 1075.27 1192)">Height</text><text font-family="Noto Sans JP,Noto Sans JP_MSFontService,sans-serif" font-weight="400" font-size="55" transform="matrix(1 0 0 1 1245.42 1192)"> </text><text font-family="Noto Sans JP,Noto Sans JP_MSFontService,sans-serif" font-weight="400" font-size="55" transform="matrix(1 0 0 1 1040.43 1535)">Descent</text><text font-family="Noto Sans JP,Noto Sans JP_MSFontService,sans-serif" font-weight="400" font-size="55" transform="matrix(1 0 0 1 1245.53 1535)"> </text><path d="M2.29174 22.9167 2.29195 83.2878C2.29195 84.5535 1.26594 85.5795 0.000290807 85.5795-1.26536 85.5795-2.29138 84.5535-2.29138 83.2878L-2.29159 22.9167C-2.29159 21.651-1.26558 20.625 7.00856e-05 20.625 1.26572 20.625 2.29174 21.651 2.29174 22.9167ZM-13.7499 27.5 0 0 13.7501 27.5ZM13.7503 78.7045 0.000360892 106.204-13.7497 78.7045Z" transform="matrix(1 0 0 -1 1270.5 828.705)"/><text font-family="Noto Sans JP,Noto Sans JP_MSFontService,sans-serif" font-weight="400" font-size="55" transform="matrix(1 0 0 1 983.857 800)">A</text><text font-family="Noto Sans JP,Noto Sans JP_MSFontService,sans-serif" font-weight="400" font-size="55" transform="matrix(1 0 0 1 1017.09 800)">scender</text><text font-family="Noto Sans JP,Noto Sans JP_MSFontService,sans-serif" font-weight="400" font-size="55" transform="matrix(1 0 0 1 1219.33 800)"> </text><text font-family="Noto Sans JP,Noto Sans JP_MSFontService,sans-serif" font-weight="400" font-size="55" transform="matrix(1 0 0 1 999.326 866)">Spacing</text><text font-family="Noto Sans JP,Noto Sans JP_MSFontService,sans-serif" font-weight="400" font-size="55" transform="matrix(1 0 0 1 1203.86 866)"> </text><rect x="1476" y="1570" width="476" height="51.0002" stroke="#FF0000" stroke-width="2.29167" stroke-linecap="round" stroke-linejoin="round" stroke-miterlimit="10" fill="#FF0000"/><path d="M0 0 0.000360892 1041.56" stroke="#FFFFFF" stroke-width="2.29167" stroke-linecap="round" stroke-linejoin="round" stroke-miterlimit="10" fill="none" fill-rule="evenodd" transform="matrix(1 0 0 -1 1473 1662.56)"/><path d="M0 0 0.000360892 1041.56" stroke="#FFFFFF" stroke-width="2.29167" stroke-linecap="round" stroke-linejoin="round" stroke-miterlimit="10" fill="none" fill-rule="evenodd" transform="matrix(1 0 0 -1 1952 1662.56)"/><path d="M22.9163-2.29165 454.896-2.29132C456.161-2.29132 457.187-1.26531 457.187 0.000345314 457.187 1.266 456.161 2.29201 454.896 2.29201L22.9163 2.29168C21.6507 2.29168 20.6247 1.26567 20.6247 1.55778e-05 20.6247-1.26564 21.6507-2.29165 22.9163-2.29165ZM27.5 13.75 0 0 27.5-13.75ZM450.312-13.7497 477.812 0.000360892 450.312 13.7503Z" transform="matrix(-1 0 0 1 1950.31 521.5)"/><path d="M0 0 0.000360892 128.333" stroke="#000000" stroke-width="2.29167" stroke-linecap="round" stroke-linejoin="round" stroke-miterlimit="10" fill="none" fill-rule="evenodd" transform="matrix(1 0 0 -1 1472 609.333)"/><path d="M0 0 0.000360892 128.333" stroke="#000000" stroke-width="2.29167" stroke-linecap="round" stroke-linejoin="round" stroke-miterlimit="10" fill="none" fill-rule="evenodd" transform="matrix(1 0 0 -1 1951 609.333)"/><text font-family="Noto Sans JP,Noto Sans JP_MSFontService,sans-serif" font-weight="400" font-size="55" transform="matrix(1 0 0 1 1556.48 502)">G</text><text font-family="Noto Sans JP,Noto Sans JP_MSFontService,sans-serif" font-weight="400" font-size="55" transform="matrix(1 0 0 1 1594.3 502)">lyph</text><text font-family="Noto Sans JP,Noto Sans JP_MSFontService,sans-serif" font-weight="400" font-size="55" transform="matrix(1 0 0 1 1706.02 502)"> </text><text font-family="Noto Sans JP,Noto Sans JP_MSFontService,sans-serif" font-weight="400" font-size="55" transform="matrix(1 0 0 1 1718.62 502)">Width</text><text font-family="Noto Sans JP,Noto Sans JP_MSFontService,sans-serif" font-weight="400" font-size="55" transform="matrix(1 0 0 1 1869.87 502)"> </text><text font-family="Noto Sans JP,Noto Sans JP_MSFontService,sans-serif" font-weight="400" font-size="55" transform="matrix(1 0 0 1 945.885 1848)">Position Marker</text><text font-family="Noto Sans JP,Noto Sans JP_MSFontService,sans-serif" font-weight="400" font-size="55" transform="matrix(1 0 0 1 1345.78 1848)"> </text><path d="M1.11853-2.00015 220.032 120.421C221.137 121.039 221.531 122.436 220.914 123.54 220.296 124.645 218.9 125.04 217.795 124.422L-1.11853 2.00015C-2.22319 1.3824-2.6179-0.0138795-2.00015-1.11853-1.3824-2.22319 0.0138795-2.6179 1.11853-2.00015ZM221.624 108.184 238.915 133.607 208.202 132.186Z" fill="#FFFFFF" transform="matrix(1 0 0 -1 1352.5 1724.11)"/><path d="M2.29168 22.9167 2.29202 822.409C2.29202 823.675 1.266 824.701 0.000352087 824.701-1.2653 824.701-2.29132 823.675-2.29132 822.409L-2.29166 22.9167C-2.29166 21.6511-1.26564 20.6251 8.80539e-06 20.6251 1.26566 20.6251 2.29168 21.6511 2.29168 22.9167ZM-13.75 27.5 0 0 13.75 27.5ZM13.7503 817.826 0.000360892 845.326-13.7497 817.826Z" transform="matrix(1 0 0 -1 904.5 1571.83)"/><text font-family="Noto Sans JP,Noto Sans JP_MSFontService,sans-serif" font-weight="400" font-size="55" transform="matrix(1 0 0 1 740.953 1128)">Body</text><text font-family="Noto Sans JP,Noto Sans JP_MSFontService,sans-serif" font-weight="400" font-size="55" transform="matrix(1 0 0 1 873.297 1128)"> </text><text font-family="Noto Sans JP,Noto Sans JP_MSFontService,sans-serif" font-weight="400" font-size="55" transform="matrix(1 0 0 1 755.574 1194)">Size</text><text font-family="Noto Sans JP,Noto Sans JP_MSFontService,sans-serif" font-weight="400" font-size="55" transform="matrix(1 0 0 1 858.699 1194)"> </text><path d="M0 0 103.125 58.2881" stroke="#000000" stroke-width="4.58333" stroke-linecap="round" stroke-linejoin="round" stroke-miterlimit="10" fill="none" fill-rule="evenodd" transform="matrix(1 0 0 -1 1242.5 1788.79)"/><path d="M2064 637 2064 1723.44" stroke="#104862" stroke-width="2.29167" stroke-linecap="round" stroke-linejoin="round" stroke-miterlimit="10" stroke-dasharray="16.0417 9.16667" fill="none" fill-rule="evenodd"/><path d="M2118 637 2118 1723.44" stroke="#104862" stroke-width="2.29167" stroke-linecap="round" stroke-linejoin="round" stroke-miterlimit="10" stroke-dasharray="16.0417 9.16667" fill="none" fill-rule="evenodd"/><path d="M2171 637 2171 1723.44" stroke="#104862" stroke-width="2.29167" stroke-linecap="round" stroke-linejoin="round" stroke-miterlimit="10" stroke-dasharray="16.0417 9.16667" fill="none" fill-rule="evenodd"/><path d="M2224 637 2224 1723.44" stroke="#104862" stroke-width="2.29167" stroke-linecap="round" stroke-linejoin="round" stroke-miterlimit="10" stroke-dasharray="16.0417 9.16667" fill="none" fill-rule="evenodd"/><path d="M2277 637 2277 1723.44" stroke="#104862" stroke-width="2.29167" stroke-linecap="round" stroke-linejoin="round" stroke-miterlimit="10" stroke-dasharray="16.0417 9.16667" fill="none" fill-rule="evenodd"/><path d="M2330 637 2330 1723.44" stroke="#104862" stroke-width="2.29167" stroke-linecap="round" stroke-linejoin="round" stroke-miterlimit="10" stroke-dasharray="16.0417 9.16667" fill="none" fill-rule="evenodd"/><path d="M2383 637 2383 1723.44" stroke="#104862" stroke-width="2.29167" stroke-linecap="round" stroke-linejoin="round" stroke-miterlimit="10" stroke-dasharray="16.0417 9.16667" fill="none" fill-rule="evenodd"/><path d="M2436 637 2436 1723.44" stroke="#104862" stroke-width="2.29167" stroke-linecap="round" stroke-linejoin="round" stroke-miterlimit="10" stroke-dasharray="16.0417 9.16667" fill="none" fill-rule="evenodd"/><path d="M2489 637 2489 1723.44" stroke="#104862" stroke-width="2.29167" stroke-linecap="round" stroke-linejoin="round" stroke-miterlimit="10" stroke-dasharray="16.0417 9.16667" fill="none" fill-rule="evenodd"/><path d="M2542 637 2542 1723.44" stroke="#104862" stroke-width="2.29167" stroke-linecap="round" stroke-linejoin="round" stroke-miterlimit="10" stroke-dasharray="16.0417 9.16667" fill="none" fill-rule="evenodd"/><rect x="2067" y="1570" width="316" height="51.0002" stroke="#FF0000" stroke-width="2.29167" stroke-linecap="round" stroke-linejoin="round" stroke-miterlimit="10" fill="#FF0000"/><rect x="1523" y="1147" width="114" height="158" stroke="#FFFFFF" stroke-width="2.29167" stroke-linecap="round" stroke-linejoin="round" stroke-miterlimit="10" fill="#FFFFFF"/><rect x="1575" y="989" width="114" height="157" stroke="#FFFFFF" stroke-width="2.29167" stroke-linecap="round" stroke-linejoin="round" stroke-miterlimit="10" fill="#FFFFFF"/><rect x="1628" y="830" width="163" height="157" stroke="#FFFFFF" stroke-width="2.29167" stroke-linecap="round" stroke-linejoin="round" stroke-miterlimit="10" fill="#FFFFFF"/><rect x="1736" y="989" width="113" height="157" stroke="#FFFFFF" stroke-width="2.29167" stroke-linecap="round" stroke-linejoin="round" stroke-miterlimit="10" fill="#FFFFFF"/><rect x="1789" y="1147" width="113" height="158" stroke="#FFFFFF" stroke-width="2.29167" stroke-linecap="round" stroke-linejoin="round" stroke-miterlimit="10" fill="#FFFFFF"/><rect x="1840" y="1306" width="113" height="158" stroke="#FFFFFF" stroke-width="2.29167" stroke-linecap="round" stroke-linejoin="round" stroke-miterlimit="10" fill="#FFFFFF"/><rect x="1580" y="1252" width="264" height="105" stroke="#FFFFFF" stroke-width="2.29167" stroke-linecap="round" stroke-linejoin="round" stroke-miterlimit="10" fill="#FFFFFF"/><rect x="2067" y="827" width="108" height="637" stroke="#FFFFFF" stroke-width="2.29167" stroke-linecap="round" stroke-linejoin="round" stroke-miterlimit="10" fill="#FFFFFF"/><rect x="2172" y="1358" width="210" height="105" stroke="#FFFFFF" stroke-width="2.29167" stroke-linecap="round" stroke-linejoin="round" stroke-miterlimit="10" fill="#FFFFFF"/><rect x="2172" y="1094" width="207" height="105" stroke="#FFFFFF" stroke-width="2.29167" stroke-linecap="round" stroke-linejoin="round" stroke-miterlimit="10" fill="#FFFFFF"/><rect x="2172" y="828" width="210" height="105" stroke="#FFFFFF" stroke-width="2.29167" stroke-linecap="round" stroke-linejoin="round" stroke-miterlimit="10" fill="#FFFFFF"/><rect x="2328" y="1041" width="105" height="54" stroke="#FFFFFF" stroke-width="2.29167" stroke-linecap="round" stroke-linejoin="round" stroke-miterlimit="10" fill="#FFFFFF"/><rect x="2328" y="881" width="106" height="105" stroke="#FFFFFF" stroke-width="2.29167" stroke-linecap="round" stroke-linejoin="round" stroke-miterlimit="10" fill="#FFFFFF"/><rect x="2382" y="932" width="77" height="109" stroke="#FFFFFF" stroke-width="2.29167" stroke-linecap="round" stroke-linejoin="round" stroke-miterlimit="10" fill="#FFFFFF"/><rect x="2328" y="1146" width="105" height="104" stroke="#FFFFFF" stroke-width="2.29167" stroke-linecap="round" stroke-linejoin="round" stroke-miterlimit="10" fill="#FFFFFF"/><rect x="2382" y="1197" width="39.0002" height="161" stroke="#FFFFFF" stroke-width="2.29167" stroke-linecap="round" stroke-linejoin="round" stroke-miterlimit="10" fill="#FFFFFF"/><rect x="2328" y="1304" width="82.0002" height="106" stroke="#FFFFFF" stroke-width="2.29167" stroke-linecap="round" stroke-linejoin="round" stroke-miterlimit="10" fill="#FFFFFF"/><path d="M0 0 2148.21 0.000360892" stroke="#FFFFFF" stroke-width="2.29167" stroke-linecap="round" stroke-linejoin="round" stroke-miterlimit="10" fill="none" fill-rule="evenodd" transform="matrix(-1 0 0 1 3503.21 724)"/><path d="M0 0 2148.21 0.000360892" stroke="#FFFFFF" stroke-width="2.29167" stroke-linecap="round" stroke-linejoin="round" stroke-miterlimit="10" fill="none" fill-rule="evenodd" transform="matrix(-1 0 0 1 3503.21 827)"/><path d="M0 0 2148.21 0.000360892" stroke="#FFFFFF" stroke-width="2.29167" stroke-linecap="round" stroke-linejoin="round" stroke-miterlimit="10" fill="none" fill-rule="evenodd" transform="matrix(-1 0 0 1 3503.21 1464)"/><path d="M0 0 2145.75 0.000360892" stroke="#FFFFFF" stroke-width="2.29167" stroke-linecap="round" stroke-linejoin="round" stroke-miterlimit="10" fill="none" fill-rule="evenodd" transform="matrix(-1 0 0 1 3500.75 1621)"/><path d="M0 0 2145.75 0.000360892" stroke="#FFFFFF" stroke-width="2.29167" stroke-linecap="round" stroke-linejoin="round" stroke-miterlimit="10" fill="none" fill-rule="evenodd" transform="matrix(-1 0 0 1 3500.75 1569)"/><rect x="2548" y="724" width="159" height="52.9999" stroke="#FFFFFF" stroke-width="2.29167" stroke-linecap="round" stroke-linejoin="round" stroke-miterlimit="10" fill="#FFFFFF"/><rect x="2600" y="773" width="107" height="53.9999" stroke="#FFFFFF" stroke-width="2.29167" stroke-linecap="round" stroke-linejoin="round" stroke-miterlimit="10" fill="#FFFFFF"/><rect x="2654" y="827" width="107" height="52.9999" stroke="#FFFFFF" stroke-width="2.29167" stroke-linecap="round" stroke-linejoin="round" stroke-miterlimit="10" fill="#FFFFFF"/><rect x="2705" y="880" width="56" height="52.9999" stroke="#FFFFFF" stroke-width="2.29167" stroke-linecap="round" stroke-linejoin="round" stroke-miterlimit="10" fill="#FFFFFF"/><rect x="2919" y="1094" width="159" height="106" stroke="#FFFFFF" stroke-width="2.29167" stroke-linecap="round" stroke-linejoin="round" stroke-miterlimit="10" fill="#FFFFFF"/><rect x="2973" y="1200" width="160" height="106" stroke="#FFFFFF" stroke-width="2.29167" stroke-linecap="round" stroke-linejoin="round" stroke-miterlimit="10" fill="#FFFFFF"/><rect x="3026" y="1306" width="266" height="106" stroke="#FFFFFF" stroke-width="2.29167" stroke-linecap="round" stroke-linejoin="round" stroke-miterlimit="10" fill="#FFFFFF"/><rect x="3186" y="1200" width="159" height="106" stroke="#FFFFFF" stroke-width="2.29167" stroke-linecap="round" stroke-linejoin="round" stroke-miterlimit="10" fill="#FFFFFF"/><rect x="3239" y="1094" width="159" height="106" stroke="#FFFFFF" stroke-width="2.29167" stroke-linecap="round" stroke-linejoin="round" stroke-miterlimit="10" fill="#FFFFFF"/><rect x="3079" y="1412" width="160" height="106" stroke="#FFFFFF" stroke-width="2.29167" stroke-linecap="round" stroke-linejoin="round" stroke-miterlimit="10" fill="#FFFFFF"/><rect x="2920" y="1465" width="266" height="106" stroke="#FFFFFF" stroke-width="2.29167" stroke-linecap="round" stroke-linejoin="round" stroke-miterlimit="10" fill="#FFFFFF"/><path d="M0 0 88 0.000360892" stroke="#000000" stroke-width="2.29167" stroke-linecap="round" stroke-linejoin="round" stroke-miterlimit="10" fill="none" fill-rule="evenodd" transform="matrix(-1 0 0 1 1339 1621)"/><path d="M2.2918 22.9167 2.2919 39.7003C2.2919 40.966 1.26589 41.992 0.00024202 41.992-1.26541 41.992-2.29143 40.966-2.29144 39.7003L-2.29153 22.9167C-2.29154 21.651-1.26553 20.625 0.000118872 20.625 1.26577 20.625 2.29179 21.651 2.2918 22.9167ZM-13.7498 27.5001 0 0 13.7502 27.4999ZM13.7502 35.1169 0.000360892 62.617-13.7498 35.1171Z" transform="matrix(1 0 0 -1 1270.5 1627.12)"/><text font-family="Noto Sans JP,Noto Sans JP_MSFontService,sans-serif" font-weight="400" font-size="55" transform="matrix(1 0 0 1 1141.44 1641)">1px</text><text font-family="Noto Sans JP,Noto Sans JP_MSFontService,sans-serif" font-weight="400" font-size="55" transform="matrix(1 0 0 1 1231.96 1641)"> </text><text font-family="Noto Sans JP,Noto Sans JP_MSFontService,sans-serif" font-weight="400" font-size="55" transform="matrix(1 0 0 1 1652.77 1848)">0x41</text><text font-family="Noto Sans JP,Noto Sans JP_MSFontService,sans-serif" font-weight="400" font-size="55" transform="matrix(1 0 0 1 1771.36 1848)"> </text><text font-family="Noto Sans JP,Noto Sans JP_MSFontService,sans-serif" font-weight="400" font-size="55" transform="matrix(1 0 0 1 2111.1 1848)">0x42</text><text font-family="Noto Sans JP,Noto Sans JP_MSFontService,sans-serif" font-weight="400" font-size="55" transform="matrix(1 0 0 1 2229.7 1848)"> </text><text font-family="Noto Sans JP,Noto Sans JP_MSFontService,sans-serif" font-weight="400" font-size="55" transform="matrix(1 0 0 1 2553.39 1848)">0x60</text><text font-family="Noto Sans JP,Noto Sans JP_MSFontService,sans-serif" font-weight="400" font-size="55" transform="matrix(1 0 0 1 2671.99 1848)"> </text><text font-family="Noto Sans JP,Noto Sans JP_MSFontService,sans-serif" font-weight="400" font-size="55" transform="matrix(1 0 0 1 3098.81 1848)">0x79</text><text font-family="Noto Sans JP,Noto Sans JP_MSFontService,sans-serif" font-weight="400" font-size="55" transform="matrix(1 0 0 1 3217.4 1848)"> </text><path d="M1511 1829 1623.55 1829" stroke="#000000" stroke-width="13.75" stroke-linecap="round" stroke-linejoin="round" stroke-miterlimit="10" stroke-dasharray="0 27.5" fill="none" fill-rule="evenodd"/><path d="M2278 1829 2508.88 1829" stroke="#000000" stroke-width="13.75" stroke-linecap="round" stroke-linejoin="round" stroke-miterlimit="10" stroke-dasharray="0 27.5" fill="none" fill-rule="evenodd"/><path d="M2725 1829 3048.12 1829" stroke="#000000" stroke-width="13.75" stroke-linecap="round" stroke-linejoin="round" stroke-miterlimit="10" stroke-dasharray="0 27.5" fill="none" fill-rule="evenodd"/><path d="M3255 1829 3380.46 1829" stroke="#000000" stroke-width="13.75" stroke-linecap="round" stroke-linejoin="round" stroke-miterlimit="10" stroke-dasharray="0 27.5" fill="none" fill-rule="evenodd"/><path d="M2517.02 499.481 2544.81 503.307 2351.42 1907.78 2323.63 1903.95Z" fill="#FFFFFF" fill-rule="evenodd"/><path d="M2516.54 499.415 2323.15 1903.88" stroke="#000000" stroke-width="9.16667" stroke-linecap="round" stroke-linejoin="round" stroke-miterlimit="10" fill="none" fill-rule="evenodd"/><path d="M2544.73 503.296 2351.34 1907.76" stroke="#000000" stroke-width="9.16667" stroke-linecap="round" stroke-linejoin="round" stroke-miterlimit="10" fill="none" fill-rule="evenodd"/><path d="M2933.02 499.48 2960.81 503.306 2767.41 1907.77 2739.63 1903.95Z" fill="#FFFFFF" fill-rule="evenodd"/><path d="M2932.54 499.414 2739.15 1903.88" stroke="#000000" stroke-width="9.16667" stroke-linecap="round" stroke-linejoin="round" stroke-miterlimit="10" fill="none" fill-rule="evenodd"/><path d="M2960.73 503.295 2767.34 1907.76" stroke="#000000" stroke-width="9.16667" stroke-linecap="round" stroke-linejoin="round" stroke-miterlimit="10" fill="none" fill-rule="evenodd"/></g></svg>