<svg width="2735" height="1599" xmlns="http://www.w3.org/2000/svg" xmlns:xlink="http://www.w3.org/1999/xlink" xml:space="preserve" overflow="hidden"><defs><clipPath id="clip0"><rect x="637" y="361" width="2735" height="1599"/></clipPath></defs><g clip-path="url(#clip0)" transform="translate(-637 -361)"><path d="M637 448.577C637 400.21 676.21 361 724.577 361L3284.42 361C3332.79 361 3372 400.21 3372 448.577L3372 1872.42C3372 1920.79 3332.79 1960 3284.42 1960L724.577 1960C676.21 1960 637 1920.79 637 1872.42Z" fill="#E4E8EC" fill-rule="evenodd"/><rect x="1347" y="614" width="1891" height="1140"/><path d="M2490 637 2490 1723.44" stroke="#104862" stroke-width="2.29167" stroke-linecap="round" stroke-linejoin="round" stroke-miterlimit="10" stroke-dasharray="16.0417 9.16667" fill="none" fill-rule="evenodd"/><path d="M2543 637 2543 1723.44" stroke="#104862" stroke-width="2.29167" stroke-linecap="round" stroke-linejoin="round" stroke-miterlimit="10" stroke-dasharray="16.0417 9.16667" fill="none" fill-rule="evenodd"/><path d="M2596 637 2596 1723.44" stroke="#104862" stroke-width="2.29167" stroke-linecap="round" stroke-linejoin="round" stroke-miterlimit="10" stroke-dasharray="16.0417 9.16667" fill="none" fill-rule="evenodd"/><path d="M2649 637 2649 1723.44" stroke="#104862" stroke-width="2.29167" stroke-linecap="round" stroke-linejoin="round" stroke-miterlimit="10" stroke-dasharray="16.0417 9.16667" fill="none" fill-rule="evenodd"/><path d="M2702 637 2702 1723.44" stroke="#104862" stroke-width="2.29167" stroke-linecap="round" stroke-linejoin="round" stroke-miterlimit="10" stroke-dasharray="16.0417 9.16667" fill="none" fill-rule="evenodd"/><path d="M2755 637 2755 1723.44" stroke="#104862" stroke-width="2.29167" stroke-linecap="round" stroke-linejoin="round" stroke-miterlimit="10" stroke-dasharray="16.0417 9.16667" fill="none" fill-rule="evenodd"/><path d="M2808 637 2808 1723.44" stroke="#104862" stroke-width="2.29167" stroke-linecap="round" stroke-linejoin="round" stroke-miterlimit="10" stroke-dasharray="16.0417 9.16667" fill="none" fill-rule="evenodd"/><path d="M2861 637 2861 1723.44" stroke="#104862" stroke-width="2.29167" stroke-linecap="round" stroke-linejoin="round" stroke-miterlimit="10" stroke-dasharray="16.0417 9.16667" fill="none" fill-rule="evenodd"/><path d="M2914 637 2914 1723.44" stroke="#104862" stroke-width="2.29167" stroke-linecap="round" stroke-linejoin="round" stroke-miterlimit="10" stroke-dasharray="16.0417 9.16667" fill="none" fill-rule="evenodd"/><path d="M2967 637 2967 1723.44" stroke="#104862" stroke-width="2.29167" stroke-linecap="round" stroke-linejoin="round" stroke-miterlimit="10" stroke-dasharray="16.0417 9.16667" fill="none" fill-rule="evenodd"/><path d="M3021 637 3021 1723.44" stroke="#104862" stroke-width="2.29167" stroke-linecap="round" stroke-linejoin="round" stroke-miterlimit="10" stroke-dasharray="16.0417 9.16667" fill="none" fill-rule="evenodd"/><path d="M3074 637 3074 1723.44" stroke="#104862" stroke-width="2.29167" stroke-linecap="round" stroke-linejoin="round" stroke-miterlimit="10" stroke-dasharray="16.0417 9.16667" fill="none" fill-rule="evenodd"/><path d="M3127 637 3127 1723.44" stroke="#104862" stroke-width="2.29167" stroke-linecap="round" stroke-linejoin="round" stroke-miterlimit="10" stroke-dasharray="16.0417 9.16667" fill="none" fill-rule="evenodd"/><path d="M1378 827 3176.4 827" stroke="#104862" stroke-width="2.29167" stroke-linecap="round" stroke-linejoin="round" stroke-miterlimit="10" stroke-dasharray="16.0417 9.16667" fill="none" fill-rule="evenodd"/><path d="M1378 880 3176.4 880" stroke="#104862" stroke-width="2.29167" stroke-linecap="round" stroke-linejoin="round" stroke-miterlimit="10" stroke-dasharray="16.0417 9.16667" fill="none" fill-rule="evenodd"/><path d="M1378 933 3176.4 933" stroke="#104862" stroke-width="2.29167" stroke-linecap="round" stroke-linejoin="round" stroke-miterlimit="10" stroke-dasharray="16.0417 9.16667" fill="none" fill-rule="evenodd"/><path d="M1378 986 3176.4 986" stroke="#104862" stroke-width="2.29167" stroke-linecap="round" stroke-linejoin="round" stroke-miterlimit="10" stroke-dasharray="16.0417 9.16667" fill="none" fill-rule="evenodd"/><path d="M1378 1039 3176.4 1039" stroke="#104862" stroke-width="2.29167" stroke-linecap="round" stroke-linejoin="round" stroke-miterlimit="10" stroke-dasharray="16.0417 9.16667" fill="none" fill-rule="evenodd"/><path d="M1378 1092 3176.4 1092" stroke="#104862" stroke-width="2.29167" stroke-linecap="round" stroke-linejoin="round" stroke-miterlimit="10" stroke-dasharray="16.0417 9.16667" fill="none" fill-rule="evenodd"/><path d="M1378 1145 3176.4 1145" stroke="#104862" stroke-width="2.29167" stroke-linecap="round" stroke-linejoin="round" stroke-miterlimit="10" stroke-dasharray="16.0417 9.16667" fill="none" fill-rule="evenodd"/><path d="M1378 1198 3176.4 1198" stroke="#104862" stroke-width="2.29167" stroke-linecap="round" stroke-linejoin="round" stroke-miterlimit="10" stroke-dasharray="16.0417 9.16667" fill="none" fill-rule="evenodd"/><path d="M1378 1251 3176.4 1251" stroke="#104862" stroke-width="2.29167" stroke-linecap="round" stroke-linejoin="round" stroke-miterlimit="10" stroke-dasharray="16.0417 9.16667" fill="none" fill-rule="evenodd"/><path d="M1378 1304 3176.4 1304" stroke="#104862" stroke-width="2.29167" stroke-linecap="round" stroke-linejoin="round" stroke-miterlimit="10" stroke-dasharray="16.0417 9.16667" fill="none" fill-rule="evenodd"/><path d="M1378 1358 3176.4 1358" stroke="#104862" stroke-width="2.29167" stroke-linecap="round" stroke-linejoin="round" stroke-miterlimit="10" stroke-dasharray="16.0417 9.16667" fill="none" fill-rule="evenodd"/><path d="M1378 1411 3176.4 1411" stroke="#104862" stroke-width="2.29167" stroke-linecap="round" stroke-linejoin="round" stroke-miterlimit="10" stroke-dasharray="16.0417 9.16667" fill="none" fill-rule="evenodd"/><path d="M1378 1464 3176.4 1464" stroke="#104862" stroke-width="2.29167" stroke-linecap="round" stroke-linejoin="round" stroke-miterlimit="10" stroke-dasharray="16.0417 9.16667" fill="none" fill-rule="evenodd"/><path d="M1378 1517 3176.4 1517" stroke="#104862" stroke-width="2.29167" stroke-linecap="round" stroke-linejoin="round" stroke-miterlimit="10" stroke-dasharray="16.0417 9.16667" fill="none" fill-rule="evenodd"/><path d="M1378 1570 3176.4 1570" stroke="#104862" stroke-width="2.29167" stroke-linecap="round" stroke-linejoin="round" stroke-miterlimit="10" stroke-dasharray="16.0417 9.16667" fill="none" fill-rule="evenodd"/><path d="M1378 1623 3176.4 1623" stroke="#104862" stroke-width="2.29167" stroke-linecap="round" stroke-linejoin="round" stroke-miterlimit="10" stroke-dasharray="16.0417 9.16667" fill="none" fill-rule="evenodd"/><path d="M1378 1676 3176.4 1676" stroke="#104862" stroke-width="2.29167" stroke-linecap="round" stroke-linejoin="round" stroke-miterlimit="10" stroke-dasharray="16.0417 9.16667" fill="none" fill-rule="evenodd"/><path d="M1378 723 3176.4 723" stroke="#104862" stroke-width="2.29167" stroke-linecap="round" stroke-linejoin="round" stroke-miterlimit="10" stroke-dasharray="16.0417 9.16667" fill="none" fill-rule="evenodd"/><path d="M1378 776 3176.4 776" stroke="#104862" stroke-width="2.29167" stroke-linecap="round" stroke-linejoin="round" stroke-miterlimit="10" stroke-dasharray="16.0417 9.16667" fill="none" fill-rule="evenodd"/><path d="M1378 673 3176.4 673" stroke="#104862" stroke-width="2.29167" stroke-linecap="round" stroke-linejoin="round" stroke-miterlimit="10" stroke-dasharray="16.0417 9.16667" fill="none" fill-rule="evenodd"/><path d="M1421 637 1421 1723.44" stroke="#104862" stroke-width="2.29167" stroke-linecap="round" stroke-linejoin="round" stroke-miterlimit="10" stroke-dasharray="16.0417 9.16667" fill="none" fill-rule="evenodd"/><path d="M1474 637 1474 1723.44" stroke="#104862" stroke-width="2.29167" stroke-linecap="round" stroke-linejoin="round" stroke-miterlimit="10" stroke-dasharray="16.0417 9.16667" fill="none" fill-rule="evenodd"/><path d="M1527 637 1527 1723.44" stroke="#104862" stroke-width="2.29167" stroke-linecap="round" stroke-linejoin="round" stroke-miterlimit="10" stroke-dasharray="16.0417 9.16667" fill="none" fill-rule="evenodd"/><path d="M1580 637 1580 1723.44" stroke="#104862" stroke-width="2.29167" stroke-linecap="round" stroke-linejoin="round" stroke-miterlimit="10" stroke-dasharray="16.0417 9.16667" fill="none" fill-rule="evenodd"/><path d="M1633 637 1633 1723.44" stroke="#104862" stroke-width="2.29167" stroke-linecap="round" stroke-linejoin="round" stroke-miterlimit="10" stroke-dasharray="16.0417 9.16667" fill="none" fill-rule="evenodd"/><path d="M1686 637 1686 1723.44" stroke="#104862" stroke-width="2.29167" stroke-linecap="round" stroke-linejoin="round" stroke-miterlimit="10" stroke-dasharray="16.0417 9.16667" fill="none" fill-rule="evenodd"/><path d="M1739 637 1739 1723.44" stroke="#104862" stroke-width="2.29167" stroke-linecap="round" stroke-linejoin="round" stroke-miterlimit="10" stroke-dasharray="16.0417 9.16667" fill="none" fill-rule="evenodd"/><path d="M1793 637 1793 1723.44" stroke="#104862" stroke-width="2.29167" stroke-linecap="round" stroke-linejoin="round" stroke-miterlimit="10" stroke-dasharray="16.0417 9.16667" fill="none" fill-rule="evenodd"/><path d="M1846 637 1846 1723.44" stroke="#104862" stroke-width="2.29167" stroke-linecap="round" stroke-linejoin="round" stroke-miterlimit="10" stroke-dasharray="16.0417 9.16667" fill="none" fill-rule="evenodd"/><path d="M1899 637 1899 1723.44" stroke="#104862" stroke-width="2.29167" stroke-linecap="round" stroke-linejoin="round" stroke-miterlimit="10" stroke-dasharray="16.0417 9.16667" fill="none" fill-rule="evenodd"/><path d="M1952 637 1952 1723.44" stroke="#104862" stroke-width="2.29167" stroke-linecap="round" stroke-linejoin="round" stroke-miterlimit="10" stroke-dasharray="16.0417 9.16667" fill="none" fill-rule="evenodd"/><path d="M2005 637 2005 1723.44" stroke="#104862" stroke-width="2.29167" stroke-linecap="round" stroke-linejoin="round" stroke-miterlimit="10" stroke-dasharray="16.0417 9.16667" fill="none" fill-rule="evenodd"/><path d="M0 0 113.208 0.000360892" stroke="#000000" stroke-width="2.29167" stroke-linecap="round" stroke-linejoin="round" stroke-miterlimit="10" fill="none" fill-rule="evenodd" transform="matrix(-1 0 0 1 1339.21 1464)"/><path d="M0 0 108.625 0.000360892" stroke="#000000" stroke-width="2.29167" stroke-linecap="round" stroke-linejoin="round" stroke-miterlimit="10" fill="none" fill-rule="evenodd" transform="matrix(-1 0 0 1 1339.62 827)"/><path d="M0 0 471.139 0.000360892" stroke="#000000" stroke-width="2.29167" stroke-linecap="round" stroke-linejoin="round" stroke-miterlimit="10" fill="none" fill-rule="evenodd" transform="matrix(-1 0 0 1 1339.14 1570)"/><path d="M0 0 473 0.000360892" stroke="#000000" stroke-width="2.29167" stroke-linecap="round" stroke-linejoin="round" stroke-miterlimit="10" fill="none" fill-rule="evenodd" transform="matrix(-1 0 0 1 1339 723)"/><path d="M2.29168 22.9168 2.29201 614.31C2.29202 615.576 1.266 616.602 0.000349211 616.602-1.2653 616.602-2.29132 615.576-2.29132 614.31L-2.29165 22.9168C-2.29165 21.6511-1.26564 20.6251 1.1681e-05 20.6251 1.26566 20.6251 2.29168 21.6511 2.29168 22.9168ZM-13.75 27.5 0 0 13.75 27.5ZM13.7503 609.727 0.000360892 637.227-13.7497 609.727Z" transform="matrix(1 0 0 -1 1270.5 1464.73)"/><path d="M2.29174 22.9167 2.29195 83.2878C2.29195 84.5535 1.26594 85.5795 0.000290807 85.5795-1.26536 85.5795-2.29138 84.5535-2.29138 83.2878L-2.29159 22.9167C-2.29159 21.651-1.26558 20.625 7.00856e-05 20.625 1.26572 20.625 2.29174 21.651 2.29174 22.9167ZM-13.7499 27.5 0 0 13.7501 27.5ZM13.7503 78.7045 0.000360892 106.204-13.7497 78.7045Z" transform="matrix(1 0 0 -1 1270.5 1568.7)"/><text font-family="Arial,Arial_MSFontService,sans-serif" font-weight="400" font-size="55" transform="matrix(1 0 0 1 1110.21 1126)">C</text><text font-family="Arial,Arial_MSFontService,sans-serif" font-weight="400" font-size="55" transform="matrix(1 0 0 1 1149.74 1126)">ap</text><text font-family="Arial,Arial_MSFontService,sans-serif" font-weight="400" font-size="55" transform="matrix(1 0 0 1 1081.28 1192)">Height</text><text font-family="Arial,Arial_MSFontService,sans-serif" font-weight="400" font-size="55" transform="matrix(1 0 0 1 1044.44 1535)">Descent</text><path d="M2.29174 22.9167 2.29195 83.2878C2.29195 84.5535 1.26594 85.5795 0.000290807 85.5795-1.26536 85.5795-2.29138 84.5535-2.29138 83.2878L-2.29159 22.9167C-2.29159 21.651-1.26558 20.625 7.00856e-05 20.625 1.26572 20.625 2.29174 21.651 2.29174 22.9167ZM-13.7499 27.5 0 0 13.7501 27.5ZM13.7503 78.7045 0.000360892 106.204-13.7497 78.7045Z" transform="matrix(1 0 0 -1 1270.5 828.705)"/><text font-family="Arial,Arial_MSFontService,sans-serif" font-weight="400" font-size="55" transform="matrix(1 0 0 1 985.862 800)">A</text><text font-family="Arial,Arial_MSFontService,sans-serif" font-weight="400" font-size="55" transform="matrix(1 0 0 1 1022.53 800)">scender</text><text font-family="Arial,Arial_MSFontService,sans-serif" font-weight="400" font-size="55" transform="matrix(1 0 0 1 1002.77 866)">Spacing</text><rect x="1476" y="1570" width="476" height="51.0002" stroke="#FF0000" stroke-width="2.29167" stroke-linecap="round" stroke-linejoin="round" stroke-miterlimit="10" fill="#FF0000"/><path d="M0 0 0.000360892 1041.56" stroke="#FFFFFF" stroke-width="2.29167" stroke-linecap="round" stroke-linejoin="round" stroke-miterlimit="10" fill="none" fill-rule="evenodd" transform="matrix(1 0 0 -1 1473 1662.56)"/><path d="M0 0 0.000360892 1041.56" stroke="#FFFFFF" stroke-width="2.29167" stroke-linecap="round" stroke-linejoin="round" stroke-miterlimit="10" fill="none" fill-rule="evenodd" transform="matrix(1 0 0 -1 1952 1662.56)"/><path d="M22.9168-2.29165 457.322-2.29132C458.587-2.29132 459.613-1.26531 459.613 0.000345393 459.613 1.266 458.587 2.29201 457.322 2.29201L22.9168 2.29168C21.6511 2.29168 20.6251 1.26567 20.6251 1.54995e-05 20.6251-1.26564 21.6511-2.29165 22.9168-2.29165ZM27.5 13.75 0 0 27.5-13.75ZM452.738-13.7497 480.238 0.000360892 452.738 13.7503Z" transform="matrix(-1 0 0 1 1952.74 521.5)"/><path d="M0 0 0.000360892 128.333" stroke="#000000" stroke-width="2.29167" stroke-linecap="round" stroke-linejoin="round" stroke-miterlimit="10" fill="none" fill-rule="evenodd" transform="matrix(1 0 0 -1 1472 609.333)"/><path d="M0 0 0.000360892 128.333" stroke="#000000" stroke-width="2.29167" stroke-linecap="round" stroke-linejoin="round" stroke-miterlimit="10" fill="none" fill-rule="evenodd" transform="matrix(1 0 0 -1 1952 609.333)"/><text font-family="Arial,Arial_MSFontService,sans-serif" font-weight="400" font-size="55" transform="matrix(1 0 0 1 1562.75 502)">G</text><text font-family="Arial,Arial_MSFontService,sans-serif" font-weight="400" font-size="55" transform="matrix(1 0 0 1 1605.72 502)">lyph</text><text font-family="Arial,Arial_MSFontService,sans-serif" font-weight="400" font-size="55" transform="matrix(1 0 0 1 1721.45 502)">Width</text><text font-family="Arial,Arial_MSFontService,sans-serif" font-weight="400" font-size="55" transform="matrix(1 0 0 1 1366.12 1878)">Glyph</text><text font-family="Arial,Arial_MSFontService,sans-serif" font-weight="400" font-size="55" transform="matrix(1 0 0 1 1524.82 1878)">Marker</text><path d="M2.21489-0.58821 40.4562 143.409C40.7811 144.632 40.0528 145.887 38.8295 146.212 37.6063 146.537 36.3513 145.808 36.0264 144.585L-2.21489 0.58821C-2.53975-0.635041-1.81146-1.89003-0.58821-2.21489 0.635041-2.53975 1.89003-1.81146 2.21489-0.58821ZM50.3543 136.038 44.1234 166.146 23.7756 143.096Z" fill="#FFFFFF" transform="matrix(1 0 0 -1 1547.5 1756.65)"/><path d="M2.29168 22.9167 2.29202 822.409C2.29202 823.675 1.266 824.701 0.000352087 824.701-1.2653 824.701-2.29132 823.675-2.29132 822.409L-2.29166 22.9167C-2.29166 21.6511-1.26564 20.6251 8.80539e-06 20.6251 1.26566 20.6251 2.29168 21.6511 2.29168 22.9167ZM-13.75 27.5 0 0 13.75 27.5ZM13.7503 817.826 0.000360892 845.326-13.7497 817.826Z" transform="matrix(1 0 0 -1 904.5 1571.83)"/><text font-family="Arial,Arial_MSFontService,sans-serif" font-weight="400" font-size="55" transform="matrix(1 0 0 1 744.677 1128)">Body</text><text font-family="Arial,Arial_MSFontService,sans-serif" font-weight="400" font-size="55" transform="matrix(1 0 0 1 753.844 1194)">Size</text><path d="M0 0 16.6144 58.9243" stroke="#000000" stroke-width="4.58333" stroke-linecap="round" stroke-linejoin="round" stroke-miterlimit="10" fill="none" fill-rule="evenodd" transform="matrix(1 0 0 -1 1530.5 1812.42)"/><path d="M2064 637 2064 1723.44" stroke="#104862" stroke-width="2.29167" stroke-linecap="round" stroke-linejoin="round" stroke-miterlimit="10" stroke-dasharray="16.0417 9.16667" fill="none" fill-rule="evenodd"/><path d="M2118 637 2118 1723.44" stroke="#104862" stroke-width="2.29167" stroke-linecap="round" stroke-linejoin="round" stroke-miterlimit="10" stroke-dasharray="16.0417 9.16667" fill="none" fill-rule="evenodd"/><path d="M2171 637 2171 1723.44" stroke="#104862" stroke-width="2.29167" stroke-linecap="round" stroke-linejoin="round" stroke-miterlimit="10" stroke-dasharray="16.0417 9.16667" fill="none" fill-rule="evenodd"/><path d="M2224 637 2224 1723.44" stroke="#104862" stroke-width="2.29167" stroke-linecap="round" stroke-linejoin="round" stroke-miterlimit="10" stroke-dasharray="16.0417 9.16667" fill="none" fill-rule="evenodd"/><path d="M2277 637 2277 1723.44" stroke="#104862" stroke-width="2.29167" stroke-linecap="round" stroke-linejoin="round" stroke-miterlimit="10" stroke-dasharray="16.0417 9.16667" fill="none" fill-rule="evenodd"/><path d="M2330 637 2330 1723.44" stroke="#104862" stroke-width="2.29167" stroke-linecap="round" stroke-linejoin="round" stroke-miterlimit="10" stroke-dasharray="16.0417 9.16667" fill="none" fill-rule="evenodd"/><path d="M2383 637 2383 1723.44" stroke="#104862" stroke-width="2.29167" stroke-linecap="round" stroke-linejoin="round" stroke-miterlimit="10" stroke-dasharray="16.0417 9.16667" fill="none" fill-rule="evenodd"/><path d="M2436 637 2436 1723.44" stroke="#104862" stroke-width="2.29167" stroke-linecap="round" stroke-linejoin="round" stroke-miterlimit="10" stroke-dasharray="16.0417 9.16667" fill="none" fill-rule="evenodd"/><path d="M2489 637 2489 1723.44" stroke="#104862" stroke-width="2.29167" stroke-linecap="round" stroke-linejoin="round" stroke-miterlimit="10" stroke-dasharray="16.0417 9.16667" fill="none" fill-rule="evenodd"/><path d="M0 0 88 0.000360892" stroke="#000000" stroke-width="2.29167" stroke-linecap="round" stroke-linejoin="round" stroke-miterlimit="10" fill="none" fill-rule="evenodd" transform="matrix(-1 0 0 1 1339 1621)"/><path d="M2.2918 22.9167 2.2919 39.7003C2.2919 40.966 1.26589 41.992 0.00024202 41.992-1.26541 41.992-2.29143 40.966-2.29144 39.7003L-2.29153 22.9167C-2.29154 21.651-1.26553 20.625 0.000118872 20.625 1.26577 20.625 2.29179 21.651 2.2918 22.9167ZM-13.7498 27.5001 0 0 13.7502 27.4999ZM13.7502 35.1169 0.000360892 62.617-13.7498 35.1171Z" transform="matrix(1 0 0 -1 1270.5 1627.12)"/><text font-family="Arial,Arial_MSFontService,sans-serif" font-weight="400" font-size="55" transform="matrix(1 0 0 1 1142.59 1641)">1px</text><rect x="2167" y="1570" width="217" height="51.0002" stroke="#FF0000" stroke-width="2.29167" stroke-linecap="round" stroke-linejoin="round" stroke-miterlimit="10" fill="#FF0000"/><rect x="2170" y="724" width="160" height="52.9999" stroke="#FFFFFF" stroke-width="2.29167" stroke-linecap="round" stroke-linejoin="round" stroke-miterlimit="10" fill="#FFFFFF"/><rect x="2222" y="773" width="108" height="53.9999" stroke="#FFFFFF" stroke-width="2.29167" stroke-linecap="round" stroke-linejoin="round" stroke-miterlimit="10" fill="#FFFFFF"/><rect x="2276" y="827" width="107" height="52.9999" stroke="#FFFFFF" stroke-width="2.29167" stroke-linecap="round" stroke-linejoin="round" stroke-miterlimit="10" fill="#FFFFFF"/><rect x="2328" y="880" width="55" height="52.9999" stroke="#FFFFFF" stroke-width="2.29167" stroke-linecap="round" stroke-linejoin="round" stroke-miterlimit="10" fill="#FFFFFF"/><rect x="2596" y="1570" width="478" height="51.0002" stroke="#FF0000" stroke-width="2.29167" stroke-linecap="round" stroke-linejoin="round" stroke-miterlimit="10" fill="#FF0000"/><rect x="2596" y="1094" width="159" height="106" stroke="#FFFFFF" stroke-width="2.29167" stroke-linecap="round" stroke-linejoin="round" stroke-miterlimit="10" fill="#FFFFFF"/><rect x="2651" y="1200" width="159" height="106" stroke="#FFFFFF" stroke-width="2.29167" stroke-linecap="round" stroke-linejoin="round" stroke-miterlimit="10" fill="#FFFFFF"/><rect x="2704" y="1306" width="265" height="106" stroke="#FFFFFF" stroke-width="2.29167" stroke-linecap="round" stroke-linejoin="round" stroke-miterlimit="10" fill="#FFFFFF"/><rect x="2863" y="1200" width="159" height="106" stroke="#FFFFFF" stroke-width="2.29167" stroke-linecap="round" stroke-linejoin="round" stroke-miterlimit="10" fill="#FFFFFF"/><rect x="2916" y="1094" width="159" height="106" stroke="#FFFFFF" stroke-width="2.29167" stroke-linecap="round" stroke-linejoin="round" stroke-miterlimit="10" fill="#FFFFFF"/><rect x="2757" y="1412" width="159" height="106" stroke="#FFFFFF" stroke-width="2.29167" stroke-linecap="round" stroke-linejoin="round" stroke-miterlimit="10" fill="#FFFFFF"/><rect x="2597" y="1465" width="266" height="106" stroke="#FFFFFF" stroke-width="2.29167" stroke-linecap="round" stroke-linejoin="round" stroke-miterlimit="10" fill="#FFFFFF"/><path d="M0 0 1853.61 0.000360892" stroke="#FFFFFF" stroke-width="2.29167" stroke-linecap="round" stroke-linejoin="round" stroke-miterlimit="10" fill="none" fill-rule="evenodd" transform="matrix(-1 0 0 1 3208.61 724)"/><path d="M0 0 1853.61 0.000360892" stroke="#FFFFFF" stroke-width="2.29167" stroke-linecap="round" stroke-linejoin="round" stroke-miterlimit="10" fill="none" fill-rule="evenodd" transform="matrix(-1 0 0 1 3208.61 827)"/><path d="M0 0 1853.61 0.000360892" stroke="#FFFFFF" stroke-width="2.29167" stroke-linecap="round" stroke-linejoin="round" stroke-miterlimit="10" fill="none" fill-rule="evenodd" transform="matrix(-1 0 0 1 3208.61 1464)"/><path d="M0 0 1851.49 0.000360892" stroke="#FFFFFF" stroke-width="2.29167" stroke-linecap="round" stroke-linejoin="round" stroke-miterlimit="10" fill="none" fill-rule="evenodd" transform="matrix(-1 0 0 1 3206.49 1621)"/><path d="M0 0 1851.49 0.000360892" stroke="#FFFFFF" stroke-width="2.29167" stroke-linecap="round" stroke-linejoin="round" stroke-miterlimit="10" fill="none" fill-rule="evenodd" transform="matrix(-1 0 0 1 3206.49 1569)"/><path d="M2067 614C2059 643.313 2051 672.626 2051 705.126 2051 737.626 2059 773.313 2067 809" stroke="#747474" stroke-width="27.5" stroke-linejoin="round" stroke-miterlimit="10" fill="none" fill-rule="evenodd"/><path d="M15.0001 0C7.50007 29.3129 0 58.6259 0 91.1259 0 123.626 7.50007 159.313 15.0001 195" stroke="#747474" stroke-width="27.5" stroke-linejoin="round" stroke-miterlimit="10" fill="none" fill-rule="evenodd" transform="matrix(-1 0 0 1 2081 803)"/><path d="M2067 993C2059 1022.16 2051 1051.33 2051 1083.66 2051 1115.99 2059 1151.5 2067 1187" stroke="#747474" stroke-width="27.5" stroke-linejoin="round" stroke-miterlimit="10" fill="none" fill-rule="evenodd"/><path d="M15.0001 0C7.50007 29.1626 0 58.3252 0 90.6585 0 122.992 7.50007 158.496 15.0001 194" stroke="#747474" stroke-width="27.5" stroke-linejoin="round" stroke-miterlimit="10" fill="none" fill-rule="evenodd" transform="matrix(-1 0 0 1 2081 1182)"/><path d="M2067 1371C2059 1400.16 2051 1429.33 2051 1461.66 2051 1493.99 2059 1529.5 2067 1565" stroke="#747474" stroke-width="27.5" stroke-linejoin="round" stroke-miterlimit="10" fill="none" fill-rule="evenodd"/><path d="M15.0001 0C7.50007 29.1627 0 58.3253 0 90.6587 0 122.992 7.50007 158.496 15.0001 194" stroke="#747474" stroke-width="27.5" stroke-linejoin="round" stroke-miterlimit="10" fill="none" fill-rule="evenodd" transform="matrix(-1 0 0 1 2081 1560)"/><path d="M2053.5 614.5C2045.5 643.813 2037.5 673.126 2037.5 705.626 2037.5 738.126 2045.5 773.813 2053.5 809.5" stroke="#FFFFFF" stroke-width="6.875" stroke-linejoin="round" stroke-miterlimit="10" fill="none" fill-rule="evenodd"/><path d="M15.0001 0C7.50007 29.313 0 58.626 0 91.126 0 123.626 7.50007 159.313 15.0001 195" stroke="#FFFFFF" stroke-width="6.875" stroke-linejoin="round" stroke-miterlimit="10" fill="none" fill-rule="evenodd" transform="matrix(-1 0 0 1 2067.5 803.5)"/><path d="M2053.5 993.5C2045.5 1022.66 2037.5 1051.83 2037.5 1084.16 2037.5 1116.49 2045.5 1152 2053.5 1187.5" stroke="#FFFFFF" stroke-width="6.875" stroke-linejoin="round" stroke-miterlimit="10" fill="none" fill-rule="evenodd"/><path d="M15.0001 0C7.50007 29.1626 0 58.3252 0 90.6585 0 122.992 7.50007 158.496 15.0001 194" stroke="#FFFFFF" stroke-width="6.875" stroke-linejoin="round" stroke-miterlimit="10" fill="none" fill-rule="evenodd" transform="matrix(-1 0 0 1 2067.5 1182.5)"/><path d="M2053.5 1371.5C2045.5 1400.66 2037.5 1429.83 2037.5 1462.16 2037.5 1494.49 2045.5 1530 2053.5 1565.5" stroke="#FFFFFF" stroke-width="6.875" stroke-linejoin="round" stroke-miterlimit="10" fill="none" fill-rule="evenodd"/><path d="M15.0001 0C7.50007 29.1626 0 58.3252 0 90.6585 0 122.992 7.50007 158.496 15.0001 194" stroke="#FFFFFF" stroke-width="6.875" stroke-linejoin="round" stroke-miterlimit="10" fill="none" fill-rule="evenodd" transform="matrix(-1 0 0 1 2067.5 1560.5)"/><path d="M2079.5 614.5C2071.5 643.813 2063.5 673.126 2063.5 705.626 2063.5 738.126 2071.5 773.813 2079.5 809.5" stroke="#FFFFFF" stroke-width="6.875" stroke-linejoin="round" stroke-miterlimit="10" fill="none" fill-rule="evenodd"/><path d="M15.9998 0C7.9999 29.313 0 58.626 0 91.126 0 123.626 7.9999 159.313 15.9998 195" stroke="#FFFFFF" stroke-width="6.875" stroke-linejoin="round" stroke-miterlimit="10" fill="none" fill-rule="evenodd" transform="matrix(-1 0 0 1 2093.5 803.5)"/><path d="M2079.5 993.5C2071.5 1022.66 2063.5 1051.83 2063.5 1084.16 2063.5 1116.49 2071.5 1152 2079.5 1187.5" stroke="#FFFFFF" stroke-width="6.875" stroke-linejoin="round" stroke-miterlimit="10" fill="none" fill-rule="evenodd"/><path d="M15.9998 0C7.9999 29.1626 0 58.3252 0 90.6585 0 122.992 7.9999 158.496 15.9998 194" stroke="#FFFFFF" stroke-width="6.875" stroke-linejoin="round" stroke-miterlimit="10" fill="none" fill-rule="evenodd" transform="matrix(-1 0 0 1 2093.5 1182.5)"/><path d="M2079.5 1371.5C2071.5 1400.66 2063.5 1429.83 2063.5 1462.16 2063.5 1494.49 2071.5 1530 2079.5 1565.5" stroke="#FFFFFF" stroke-width="6.875" stroke-linejoin="round" stroke-miterlimit="10" fill="none" fill-rule="evenodd"/><path d="M15.9998 0C7.9999 29.1626 0 58.3252 0 90.6585 0 122.992 7.9999 158.496 15.9998 194" stroke="#FFFFFF" stroke-width="6.875" stroke-linejoin="round" stroke-miterlimit="10" fill="none" fill-rule="evenodd" transform="matrix(-1 0 0 1 2093.5 1560.5)"/><path d="M2494 614C2486 643.313 2478 672.626 2478 705.126 2478 737.626 2486 773.313 2494 809" stroke="#747474" stroke-width="27.5" stroke-linejoin="round" stroke-miterlimit="10" fill="none" fill-rule="evenodd"/><path d="M16.0002 0C8.00008 29.3129 0 58.6259 0 91.1259 0 123.626 8.00008 159.313 16.0002 195" stroke="#747474" stroke-width="27.5" stroke-linejoin="round" stroke-miterlimit="10" fill="none" fill-rule="evenodd" transform="matrix(-1 0 0 1 2508 803)"/><path d="M2494 993C2486 1022.16 2478 1051.33 2478 1083.66 2478 1115.99 2486 1151.5 2494 1187" stroke="#747474" stroke-width="27.5" stroke-linejoin="round" stroke-miterlimit="10" fill="none" fill-rule="evenodd"/><path d="M16.0002 0C8.00008 29.1626 0 58.3252 0 90.6585 0 122.992 8.00008 158.496 16.0002 194" stroke="#747474" stroke-width="27.5" stroke-linejoin="round" stroke-miterlimit="10" fill="none" fill-rule="evenodd" transform="matrix(-1 0 0 1 2508 1182)"/><path d="M2494 1371C2486 1400.16 2478 1429.33 2478 1461.66 2478 1493.99 2486 1529.5 2494 1565" stroke="#747474" stroke-width="27.5" stroke-linejoin="round" stroke-miterlimit="10" fill="none" fill-rule="evenodd"/><path d="M16.0002 0C8.00008 29.1627 0 58.3253 0 90.6587 0 122.992 8.00008 158.496 16.0002 194" stroke="#747474" stroke-width="27.5" stroke-linejoin="round" stroke-miterlimit="10" fill="none" fill-rule="evenodd" transform="matrix(-1 0 0 1 2508 1560)"/><path d="M2480.5 614.5C2472.5 643.813 2464.5 673.126 2464.5 705.626 2464.5 738.126 2472.5 773.813 2480.5 809.5" stroke="#FFFFFF" stroke-width="6.875" stroke-linejoin="round" stroke-miterlimit="10" fill="none" fill-rule="evenodd"/><path d="M16.0002 0C8.00008 29.313 0 58.626 0 91.126 0 123.626 8.00008 159.313 16.0002 195" stroke="#FFFFFF" stroke-width="6.875" stroke-linejoin="round" stroke-miterlimit="10" fill="none" fill-rule="evenodd" transform="matrix(-1 0 0 1 2494.5 803.5)"/><path d="M2480.5 993.5C2472.5 1022.66 2464.5 1051.83 2464.5 1084.16 2464.5 1116.49 2472.5 1152 2480.5 1187.5" stroke="#FFFFFF" stroke-width="6.875" stroke-linejoin="round" stroke-miterlimit="10" fill="none" fill-rule="evenodd"/><path d="M16.0002 0C8.00008 29.1626 0 58.3252 0 90.6585 0 122.992 8.00008 158.496 16.0002 194" stroke="#FFFFFF" stroke-width="6.875" stroke-linejoin="round" stroke-miterlimit="10" fill="none" fill-rule="evenodd" transform="matrix(-1 0 0 1 2494.5 1182.5)"/><path d="M2480.5 1371.5C2472.5 1400.66 2464.5 1429.83 2464.5 1462.16 2464.5 1494.49 2472.5 1530 2480.5 1565.5" stroke="#FFFFFF" stroke-width="6.875" stroke-linejoin="round" stroke-miterlimit="10" fill="none" fill-rule="evenodd"/><path d="M16.0002 0C8.00008 29.1626 0 58.3252 0 90.6585 0 122.992 8.00008 158.496 16.0002 194" stroke="#FFFFFF" stroke-width="6.875" stroke-linejoin="round" stroke-miterlimit="10" fill="none" fill-rule="evenodd" transform="matrix(-1 0 0 1 2494.5 1560.5)"/><path d="M2505.5 614.5C2498 643.813 2490.5 673.126 2490.5 705.626 2490.5 738.126 2498 773.813 2505.5 809.5" stroke="#FFFFFF" stroke-width="6.875" stroke-linejoin="round" stroke-miterlimit="10" fill="none" fill-rule="evenodd"/><path d="M15.9998 0C7.9999 29.313 0 58.626 0 91.126 0 123.626 7.9999 159.313 15.9998 195" stroke="#FFFFFF" stroke-width="6.875" stroke-linejoin="round" stroke-miterlimit="10" fill="none" fill-rule="evenodd" transform="matrix(-1 0 0 1 2520.5 803.5)"/><path d="M2505.5 993.5C2498 1022.66 2490.5 1051.83 2490.5 1084.16 2490.5 1116.49 2498 1152 2505.5 1187.5" stroke="#FFFFFF" stroke-width="6.875" stroke-linejoin="round" stroke-miterlimit="10" fill="none" fill-rule="evenodd"/><path d="M15.9998 0C7.9999 29.1626 0 58.3252 0 90.6585 0 122.992 7.9999 158.496 15.9998 194" stroke="#FFFFFF" stroke-width="6.875" stroke-linejoin="round" stroke-miterlimit="10" fill="none" fill-rule="evenodd" transform="matrix(-1 0 0 1 2520.5 1182.5)"/><path d="M2505.5 1371.5C2498 1400.66 2490.5 1429.83 2490.5 1462.16 2490.5 1494.49 2498 1530 2505.5 1565.5" stroke="#FFFFFF" stroke-width="6.875" stroke-linejoin="round" stroke-miterlimit="10" fill="none" fill-rule="evenodd"/><path d="M15.9998 0C7.9999 29.1626 0 58.3252 0 90.6585 0 122.992 7.9999 158.496 15.9998 194" stroke="#FFFFFF" stroke-width="6.875" stroke-linejoin="round" stroke-miterlimit="10" fill="none" fill-rule="evenodd" transform="matrix(-1 0 0 1 2520.5 1560.5)"/><rect x="1528" y="1144" width="104" height="161" stroke="#FFFFFF" stroke-width="2.29167" stroke-linecap="round" stroke-linejoin="round" stroke-miterlimit="10" fill="#FFFFFF"/><rect x="1575" y="985" width="113" height="157" stroke="#FFFFFF" stroke-width="2.29167" stroke-linecap="round" stroke-linejoin="round" stroke-miterlimit="10" fill="#FFFFFF"/><rect x="1632" y="830" width="159" height="157" stroke="#FFFFFF" stroke-width="2.29167" stroke-linecap="round" stroke-linejoin="round" stroke-miterlimit="10" fill="#FFFFFF"/><rect x="1739" y="985" width="110" height="160" stroke="#FFFFFF" stroke-width="2.29167" stroke-linecap="round" stroke-linejoin="round" stroke-miterlimit="10" fill="#FFFFFF"/><rect x="1789" y="1147" width="113" height="158" stroke="#FFFFFF" stroke-width="2.29167" stroke-linecap="round" stroke-linejoin="round" stroke-miterlimit="10" fill="#FFFFFF"/><rect x="1846" y="1306" width="107" height="156" stroke="#FFFFFF" stroke-width="2.29167" stroke-linecap="round" stroke-linejoin="round" stroke-miterlimit="10" fill="#FFFFFF"/><rect x="1580" y="1253" width="264" height="105" stroke="#FFFFFF" stroke-width="2.29167" stroke-linecap="round" stroke-linejoin="round" stroke-miterlimit="10" fill="#FFFFFF"/><rect x="1472" y="1305" width="108" height="158" stroke="#FFFFFF" stroke-width="2.29167" stroke-linecap="round" stroke-linejoin="round" stroke-miterlimit="10" fill="#FFFFFF"/></g></svg>