<svg width="1303" height="2201" xmlns="http://www.w3.org/2000/svg" xmlns:xlink="http://www.w3.org/1999/xlink" xml:space="preserve" overflow="hidden"><g transform="translate(-2532 -142)"><path d="M3704.74 866.9 3577.82 940.175" stroke="#5BA846" stroke-width="45.8333" stroke-linecap="round" stroke-linejoin="round" stroke-miterlimit="10" fill="none" fill-rule="evenodd"/><path d="M3575.87 1115.1 3702.79 1188.38" stroke="#5BA846" stroke-width="45.8333" stroke-linecap="round" stroke-linejoin="round" stroke-miterlimit="10" fill="none" fill-rule="evenodd"/><path d="M2948.7 223 2948.71 223 3615.24 223C3723.36 223 3811 310.63 3811 418.727 3811 526.823 3723.36 614.453 3615.24 614.453L3212.41 614.453 3212.41 831.207 3515.48 831.207C3623.6 831.207 3711.24 918.837 3711.24 1026.93 3711.24 1135.03 3623.6 1222.66 3515.48 1222.66L3212.41 1222.66 3212.41 1475 2685 1475 2685 486.664C2685 377.451 2751.41 283.747 2846.06 243.72L2862.19 238.714 2862.8 238.381C2886.22 228.477 2911.97 223 2939 223L2948.7 223Z" fill="#5BA846" fill-rule="evenodd"/><path d="M2614 1000 2753.12 1000" stroke="#5BA846" stroke-width="45.8333" stroke-linecap="round" stroke-linejoin="round" stroke-miterlimit="10" fill="none" fill-rule="evenodd"/><path d="M2614 624 2753.12 624" stroke="#5BA846" stroke-width="45.8333" stroke-linecap="round" stroke-linejoin="round" stroke-miterlimit="10" fill="none" fill-rule="evenodd"/><path d="M2700.81 265.293 2799.18 363.664" stroke="#5BA846" stroke-width="45.8333" stroke-linecap="round" stroke-linejoin="round" stroke-miterlimit="10" fill="none" fill-rule="evenodd"/><path d="M3070 165 3070 311.551" stroke="#5BA846" stroke-width="45.8333" stroke-linecap="round" stroke-linejoin="round" stroke-miterlimit="10" fill="none" fill-rule="evenodd"/><path d="M3475 165 3475 311.551" stroke="#5BA846" stroke-width="45.8333" stroke-linecap="round" stroke-linejoin="round" stroke-miterlimit="10" fill="none" fill-rule="evenodd"/><path d="M3811.18 258.692 3684.26 331.968" stroke="#5BA846" stroke-width="45.8333" stroke-linecap="round" stroke-linejoin="round" stroke-miterlimit="10" fill="none" fill-rule="evenodd"/><path d="M3682.31 506.895 3809.23 580.17" stroke="#5BA846" stroke-width="45.8333" stroke-linecap="round" stroke-linejoin="round" stroke-miterlimit="10" fill="none" fill-rule="evenodd"/><path d="M2614 1352 2753.12 1352" stroke="#5BA846" stroke-width="45.8333" stroke-linecap="round" stroke-linejoin="round" stroke-miterlimit="10" fill="none" fill-rule="evenodd"/><path d="M3452 519 3452 665.551" stroke="#5BA846" stroke-width="45.8333" stroke-linecap="round" stroke-linejoin="round" stroke-miterlimit="10" fill="none" fill-rule="evenodd"/><path d="M3351 781 3351 927.551" stroke="#5BA846" stroke-width="45.8333" stroke-linecap="round" stroke-linejoin="round" stroke-miterlimit="10" fill="none" fill-rule="evenodd"/><path d="M3442 1135 3442 1281.55" stroke="#5BA846" stroke-width="45.8333" stroke-linecap="round" stroke-linejoin="round" stroke-miterlimit="10" fill="none" fill-rule="evenodd"/><path d="M2532 1536.78C2532 1522.54 2543.54 1511 2557.78 1511L3338.22 1511C3352.46 1511 3364 1522.54 3364 1536.78L3364 1720.22C3364 1734.46 3352.46 1746 3338.22 1746L2557.78 1746C2543.54 1746 2532 1734.46 2532 1720.22Z" fill="#A3815B" fill-rule="evenodd"/><path d="M2579 1782 3318 1782 3258.86 2300.11 3258.86 2305.37C3258.86 2326.15 3240.95 2343 3218.86 2343L3032.61 2343 3032.62 2342.92C3032.62 2296.39 2994.96 2258.67 2948.5 2258.67 2902.04 2258.67 2864.38 2296.39 2864.38 2342.92L2864.39 2343 2678.66 2343C2662.1 2343 2647.88 2333.52 2641.81 2320.02L2639.59 2309.7 2639.23 2309.7 2638.82 2306.09 2638.66 2305.37 2638.66 2304.74Z" fill="#A3815B" fill-rule="evenodd"/><path d="M2958.92 325 3717.4 325C3767.99 325 3809 365.987 3809 416.547 3809 467.108 3767.99 508.095 3717.4 508.095L3082.44 508.094 3082.44 936.013 3619.84 936.013C3670.43 936.013 3711.44 977 3711.44 1027.56 3711.44 1078.12 3670.43 1119.11 3619.84 1119.11L3082.44 1119.11 3082.44 1475 2813 1475 2813 460.256C2813 385.891 2873.32 325.607 2947.72 325.607L2953.18 326.157Z" fill="#76C15B" fill-rule="evenodd"/><path d="M3145 1352 3284.12 1352" stroke="#5BA846" stroke-width="45.8333" stroke-linecap="round" stroke-linejoin="round" stroke-miterlimit="10" fill="none" fill-rule="evenodd"/></g></svg>