<svg width="3383" height="2065" xmlns="http://www.w3.org/2000/svg" xmlns:xlink="http://www.w3.org/1999/xlink" xml:space="preserve" overflow="hidden"><defs><clipPath id="clip0"><rect x="571" y="236" width="3383" height="2065"/></clipPath></defs><g clip-path="url(#clip0)" transform="translate(-571 -236)"><path d="M571 307.841C571 268.164 603.164 236 642.841 236L3882.16 236C3921.84 236 3954 268.164 3954 307.841L3954 2229.16C3954 2268.84 3921.84 2301 3882.16 2301L642.841 2301C603.164 2301 571 2268.84 571 2229.16Z" fill="#E4E8EC" fill-rule="evenodd"/><rect x="818" y="504" width="1569" height="1247"/><rect x="834" y="1300" width="53.9999" height="107" fill="#7F7F7F"/><rect x="834" y="875" width="161" height="214" fill="#7F7F7F"/><rect x="890" y="771" width="159" height="105" fill="#7F7F7F"/><rect x="834" y="1088" width="108" height="213" fill="#7F7F7F"/><rect x="945" y="666" width="104" height="107" fill="#7F7F7F"/><rect x="998" y="612" width="106" height="53.0003" fill="#7F7F7F"/><rect x="1105" y="612" width="104" height="106" fill="#7F7F7F"/><rect x="861" y="981" width="294" height="53.9999" fill="#7F7F7F"/><rect x="2059" y="1458" width="107" height="107" fill="#7F7F7F"/><rect x="2166" y="1512" width="105" height="52.9999" fill="#7F7F7F"/><rect x="2219" y="1406" width="114" height="106" fill="#7F7F7F"/><rect x="2218" y="1300" width="163" height="107" fill="#7F7F7F"/><rect x="2165" y="981" width="193" height="53.9999" fill="#7F7F7F"/><rect x="2272" y="1087" width="109" height="214" fill="#7F7F7F"/><rect x="2328" y="873" width="53.0002" height="230" fill="#7F7F7F"/><rect x="2576" y="504" width="1127" height="1247"/><rect x="3323" y="1458" width="107" height="107" fill="#7F7F7F"/><rect x="3430" y="1512" width="105" height="52.9999" fill="#7F7F7F"/><rect x="3483" y="1406" width="114" height="106" fill="#7F7F7F"/><rect x="3482" y="1300" width="163" height="107" fill="#7F7F7F"/><rect x="3429" y="981" width="193" height="53.9999" fill="#7F7F7F"/><rect x="3536" y="1087" width="109" height="214" fill="#7F7F7F"/><rect x="3592" y="873" width="53.0002" height="230" fill="#7F7F7F"/><path d="M842 717 2376.84 717" stroke="#104862" stroke-width="2.29167" stroke-linecap="round" stroke-linejoin="round" stroke-miterlimit="10" stroke-dasharray="16.0417 9.16667" fill="none" fill-rule="evenodd"/><path d="M842 770 2376.84 770" stroke="#104862" stroke-width="2.29167" stroke-linecap="round" stroke-linejoin="round" stroke-miterlimit="10" stroke-dasharray="16.0417 9.16667" fill="none" fill-rule="evenodd"/><path d="M842 823 2376.84 823" stroke="#104862" stroke-width="2.29167" stroke-linecap="round" stroke-linejoin="round" stroke-miterlimit="10" stroke-dasharray="16.0417 9.16667" fill="none" fill-rule="evenodd"/><path d="M842 876 2376.84 876" stroke="#104862" stroke-width="2.29167" stroke-linecap="round" stroke-linejoin="round" stroke-miterlimit="10" stroke-dasharray="16.0417 9.16667" fill="none" fill-rule="evenodd"/><path d="M842 929 2376.84 929.001" stroke="#104862" stroke-width="2.29167" stroke-linecap="round" stroke-linejoin="round" stroke-miterlimit="10" stroke-dasharray="16.0417 9.16667" fill="none" fill-rule="evenodd"/><path d="M842 982 2376.84 982" stroke="#104862" stroke-width="2.29167" stroke-linecap="round" stroke-linejoin="round" stroke-miterlimit="10" stroke-dasharray="16.0417 9.16667" fill="none" fill-rule="evenodd"/><path d="M842 1035 2376.84 1035" stroke="#104862" stroke-width="2.29167" stroke-linecap="round" stroke-linejoin="round" stroke-miterlimit="10" stroke-dasharray="16.0417 9.16667" fill="none" fill-rule="evenodd"/><path d="M842 1088 2376.84 1088" stroke="#104862" stroke-width="2.29167" stroke-linecap="round" stroke-linejoin="round" stroke-miterlimit="10" stroke-dasharray="16.0417 9.16667" fill="none" fill-rule="evenodd"/><path d="M842 1141 2376.84 1141" stroke="#104862" stroke-width="2.29167" stroke-linecap="round" stroke-linejoin="round" stroke-miterlimit="10" stroke-dasharray="16.0417 9.16667" fill="none" fill-rule="evenodd"/><path d="M842 1194 2376.84 1194" stroke="#104862" stroke-width="2.29167" stroke-linecap="round" stroke-linejoin="round" stroke-miterlimit="10" stroke-dasharray="16.0417 9.16667" fill="none" fill-rule="evenodd"/><path d="M842 1248 2376.84 1248" stroke="#104862" stroke-width="2.29167" stroke-linecap="round" stroke-linejoin="round" stroke-miterlimit="10" stroke-dasharray="16.0417 9.16667" fill="none" fill-rule="evenodd"/><path d="M842 1301 2376.84 1301" stroke="#104862" stroke-width="2.29167" stroke-linecap="round" stroke-linejoin="round" stroke-miterlimit="10" stroke-dasharray="16.0417 9.16667" fill="none" fill-rule="evenodd"/><path d="M842 1354 2376.84 1354" stroke="#104862" stroke-width="2.29167" stroke-linecap="round" stroke-linejoin="round" stroke-miterlimit="10" stroke-dasharray="16.0417 9.16667" fill="none" fill-rule="evenodd"/><path d="M842 1407 2376.84 1407" stroke="#104862" stroke-width="2.29167" stroke-linecap="round" stroke-linejoin="round" stroke-miterlimit="10" stroke-dasharray="16.0417 9.16667" fill="none" fill-rule="evenodd"/><path d="M842 1460 2376.84 1460" stroke="#104862" stroke-width="2.29167" stroke-linecap="round" stroke-linejoin="round" stroke-miterlimit="10" stroke-dasharray="16.0417 9.16667" fill="none" fill-rule="evenodd"/><path d="M842 1513 2376.84 1513" stroke="#104862" stroke-width="2.29167" stroke-linecap="round" stroke-linejoin="round" stroke-miterlimit="10" stroke-dasharray="16.0417 9.16667" fill="none" fill-rule="evenodd"/><path d="M842 1566 2376.84 1566" stroke="#104862" stroke-width="2.29167" stroke-linecap="round" stroke-linejoin="round" stroke-miterlimit="10" stroke-dasharray="16.0417 9.16667" fill="none" fill-rule="evenodd"/><path d="M842 613 2376.84 613" stroke="#104862" stroke-width="2.29167" stroke-linecap="round" stroke-linejoin="round" stroke-miterlimit="10" stroke-dasharray="16.0417 9.16667" fill="none" fill-rule="evenodd"/><path d="M842 666 2376.84 666" stroke="#104862" stroke-width="2.29167" stroke-linecap="round" stroke-linejoin="round" stroke-miterlimit="10" stroke-dasharray="16.0417 9.16667" fill="none" fill-rule="evenodd"/><path d="M842 563 2376.84 563" stroke="#104862" stroke-width="2.29167" stroke-linecap="round" stroke-linejoin="round" stroke-miterlimit="10" stroke-dasharray="16.0417 9.16667" fill="none" fill-rule="evenodd"/><path d="M842 1620 2376.84 1620" stroke="#104862" stroke-width="2.29167" stroke-linecap="round" stroke-linejoin="round" stroke-miterlimit="10" stroke-dasharray="16.0417 9.16667" fill="none" fill-rule="evenodd"/><path d="M842 1673 2376.84 1673" stroke="#104862" stroke-width="2.29167" stroke-linecap="round" stroke-linejoin="round" stroke-miterlimit="10" stroke-dasharray="16.0417 9.16667" fill="none" fill-rule="evenodd"/><path d="M0 0 0.000360892 214.134" stroke="#000000" stroke-width="2.29167" stroke-linecap="round" stroke-linejoin="round" stroke-miterlimit="10" fill="none" fill-rule="evenodd" transform="matrix(1 0 0 -1 2060 1968.13)"/><path d="M0 0 0.000360892 215.85" stroke="#000000" stroke-width="2.29167" stroke-linecap="round" stroke-linejoin="round" stroke-miterlimit="10" fill="none" fill-rule="evenodd" transform="matrix(1 0 0 -1 1314 1969.85)"/><path d="M0 0 0.000360892 111.004" stroke="#000000" stroke-width="2.29167" stroke-linecap="round" stroke-linejoin="round" stroke-miterlimit="10" fill="none" fill-rule="evenodd" transform="matrix(1 0 0 -1 1956 1865)"/><path d="M2.29167-1.01796e-05 2.29193 58.3289C2.29193 59.5945 1.26592 60.6205 0.000269276 60.6205-1.26538 60.6205-2.2914 59.5945-2.29141 58.3289L-2.29167 1.01796e-05C-2.29167-1.26564-1.26566-2.29166-1.01796e-05-2.29167 1.26564-2.29167 2.29166-1.26566 2.29167-1.01796e-05ZM13.7502 53.7455 0.000360892 81.2455-13.7498 53.7456Z" transform="matrix(1 0 0 -1 1314.5 2068.75)"/><text font-family="Arial,Arial_MSFontService,sans-serif" font-weight="400" font-size="55" transform="matrix(1 0 0 1 1222.55 2126)">Current</text><text font-family="Arial,Arial_MSFontService,sans-serif" font-weight="400" font-size="55" transform="matrix(1 0 0 1 1214.83 2192)">X Origin</text><path d="M2.29167-1.01796e-05 2.29193 58.3289C2.29193 59.5945 1.26592 60.6205 0.000269276 60.6205-1.26538 60.6205-2.2914 59.5945-2.29141 58.3289L-2.29167 1.01796e-05C-2.29167-1.26564-1.26566-2.29166-1.01796e-05-2.29167 1.26564-2.29167 2.29166-1.26566 2.29167-1.01796e-05ZM13.7502 53.7455 0.000360892 81.2455-13.7498 53.7456Z" transform="matrix(1 0 0 -1 2060.5 2068.75)"/><text font-family="Arial,Arial_MSFontService,sans-serif" font-weight="400" font-size="55" transform="matrix(1 0 0 1 2003.44 2126)">Next</text><text font-family="Arial,Arial_MSFontService,sans-serif" font-weight="400" font-size="55" transform="matrix(1 0 0 1 1960.77 2192)">X Origin</text><path d="M1952 520 1952 1713.14" stroke="#104862" stroke-width="2.29167" stroke-linecap="round" stroke-linejoin="round" stroke-miterlimit="10" stroke-dasharray="16.0417 9.16667" fill="none" fill-rule="evenodd"/><path d="M2005 520 2005 1713.14" stroke="#104862" stroke-width="2.29167" stroke-linecap="round" stroke-linejoin="round" stroke-miterlimit="10" stroke-dasharray="16.0417 9.16667" fill="none" fill-rule="evenodd"/><path d="M2059 520 2059 1713.14" stroke="#104862" stroke-width="2.29167" stroke-linecap="round" stroke-linejoin="round" stroke-miterlimit="10" stroke-dasharray="16.0417 9.16667" fill="none" fill-rule="evenodd"/><path d="M2112 520 2112 1713.14" stroke="#104862" stroke-width="2.29167" stroke-linecap="round" stroke-linejoin="round" stroke-miterlimit="10" stroke-dasharray="16.0417 9.16667" fill="none" fill-rule="evenodd"/><path d="M2165 520 2165 1713.14" stroke="#104862" stroke-width="2.29167" stroke-linecap="round" stroke-linejoin="round" stroke-miterlimit="10" stroke-dasharray="16.0417 9.16667" fill="none" fill-rule="evenodd"/><path d="M2218 520 2218 1713.14" stroke="#104862" stroke-width="2.29167" stroke-linecap="round" stroke-linejoin="round" stroke-miterlimit="10" stroke-dasharray="16.0417 9.16667" fill="none" fill-rule="evenodd"/><path d="M1473 520 1473 1713.14" stroke="#104862" stroke-width="2.29167" stroke-linecap="round" stroke-linejoin="round" stroke-miterlimit="10" stroke-dasharray="16.0417 9.16667" fill="none" fill-rule="evenodd"/><path d="M1527 520 1527 1713.14" stroke="#104862" stroke-width="2.29167" stroke-linecap="round" stroke-linejoin="round" stroke-miterlimit="10" stroke-dasharray="16.0417 9.16667" fill="none" fill-rule="evenodd"/><path d="M1580 520 1580 1713.14" stroke="#104862" stroke-width="2.29167" stroke-linecap="round" stroke-linejoin="round" stroke-miterlimit="10" stroke-dasharray="16.0417 9.16667" fill="none" fill-rule="evenodd"/><path d="M1633 520 1633 1713.14" stroke="#104862" stroke-width="2.29167" stroke-linecap="round" stroke-linejoin="round" stroke-miterlimit="10" stroke-dasharray="16.0417 9.16667" fill="none" fill-rule="evenodd"/><path d="M1686 520 1686 1713.14" stroke="#104862" stroke-width="2.29167" stroke-linecap="round" stroke-linejoin="round" stroke-miterlimit="10" stroke-dasharray="16.0417 9.16667" fill="none" fill-rule="evenodd"/><path d="M1739 520 1739 1713.14" stroke="#104862" stroke-width="2.29167" stroke-linecap="round" stroke-linejoin="round" stroke-miterlimit="10" stroke-dasharray="16.0417 9.16667" fill="none" fill-rule="evenodd"/><path d="M1792 520 1792 1713.14" stroke="#104862" stroke-width="2.29167" stroke-linecap="round" stroke-linejoin="round" stroke-miterlimit="10" stroke-dasharray="16.0417 9.16667" fill="none" fill-rule="evenodd"/><path d="M1845 520 1845 1713.14" stroke="#104862" stroke-width="2.29167" stroke-linecap="round" stroke-linejoin="round" stroke-miterlimit="10" stroke-dasharray="16.0417 9.16667" fill="none" fill-rule="evenodd"/><path d="M1898 520 1898 1713.14" stroke="#104862" stroke-width="2.29167" stroke-linecap="round" stroke-linejoin="round" stroke-miterlimit="10" stroke-dasharray="16.0417 9.16667" fill="none" fill-rule="evenodd"/><path d="M2272 520 2272 1713.14" stroke="#104862" stroke-width="2.29167" stroke-linecap="round" stroke-linejoin="round" stroke-miterlimit="10" stroke-dasharray="16.0417 9.16667" fill="none" fill-rule="evenodd"/><path d="M994 520 994 1713.14" stroke="#104862" stroke-width="2.29167" stroke-linecap="round" stroke-linejoin="round" stroke-miterlimit="10" stroke-dasharray="16.0417 9.16667" fill="none" fill-rule="evenodd"/><path d="M1048 520 1048 1713.14" stroke="#104862" stroke-width="2.29167" stroke-linecap="round" stroke-linejoin="round" stroke-miterlimit="10" stroke-dasharray="16.0417 9.16667" fill="none" fill-rule="evenodd"/><path d="M1101 520 1101 1713.14" stroke="#104862" stroke-width="2.29167" stroke-linecap="round" stroke-linejoin="round" stroke-miterlimit="10" stroke-dasharray="16.0417 9.16667" fill="none" fill-rule="evenodd"/><path d="M1154 520 1154 1713.14" stroke="#104862" stroke-width="2.29167" stroke-linecap="round" stroke-linejoin="round" stroke-miterlimit="10" stroke-dasharray="16.0417 9.16667" fill="none" fill-rule="evenodd"/><path d="M1207 520 1207 1713.14" stroke="#104862" stroke-width="2.29167" stroke-linecap="round" stroke-linejoin="round" stroke-miterlimit="10" stroke-dasharray="16.0417 9.16667" fill="none" fill-rule="evenodd"/><path d="M1260 520 1260 1713.14" stroke="#104862" stroke-width="2.29167" stroke-linecap="round" stroke-linejoin="round" stroke-miterlimit="10" stroke-dasharray="16.0417 9.16667" fill="none" fill-rule="evenodd"/><path d="M887 520 887 1713.14" stroke="#104862" stroke-width="2.29167" stroke-linecap="round" stroke-linejoin="round" stroke-miterlimit="10" stroke-dasharray="16.0417 9.16667" fill="none" fill-rule="evenodd"/><path d="M940 520 940.001 1713.14" stroke="#104862" stroke-width="2.29167" stroke-linecap="round" stroke-linejoin="round" stroke-miterlimit="10" stroke-dasharray="16.0417 9.16667" fill="none" fill-rule="evenodd"/><path d="M1314 520 1314 1713.14" stroke="#104862" stroke-width="2.29167" stroke-linecap="round" stroke-linejoin="round" stroke-miterlimit="10" stroke-dasharray="16.0417 9.16667" fill="none" fill-rule="evenodd"/><path d="M1367 520 1367 1713.14" stroke="#104862" stroke-width="2.29167" stroke-linecap="round" stroke-linejoin="round" stroke-miterlimit="10" stroke-dasharray="16.0417 9.16667" fill="none" fill-rule="evenodd"/><path d="M1421 520 1421 1713.14" stroke="#104862" stroke-width="2.29167" stroke-linecap="round" stroke-linejoin="round" stroke-miterlimit="10" stroke-dasharray="16.0417 9.16667" fill="none" fill-rule="evenodd"/><path d="M2327 520 2327 1713.14" stroke="#104862" stroke-width="2.29167" stroke-linecap="round" stroke-linejoin="round" stroke-miterlimit="10" stroke-dasharray="16.0417 9.16667" fill="none" fill-rule="evenodd"/><rect x="1314" y="1567" width="639" height="51.9999" stroke="#FF0000" stroke-width="2.29167" stroke-linecap="round" stroke-linejoin="round" stroke-miterlimit="10" fill="#FF0000"/><rect x="1314" y="1458" width="107" height="107" stroke="#FFFFFF" stroke-width="2.29167" stroke-linecap="round" stroke-linejoin="round" stroke-miterlimit="10" fill="#FFFFFF"/><rect x="1421" y="1512" width="106" height="52.9999" stroke="#FFFFFF" stroke-width="2.29167" stroke-linecap="round" stroke-linejoin="round" stroke-miterlimit="10" fill="#FFFFFF"/><rect x="1475" y="1406" width="104" height="106" stroke="#FFFFFF" stroke-width="2.29167" stroke-linecap="round" stroke-linejoin="round" stroke-miterlimit="10" fill="#FFFFFF"/><rect x="1474" y="1300" width="158" height="107" stroke="#FFFFFF" stroke-width="2.29167" stroke-linecap="round" stroke-linejoin="round" stroke-miterlimit="10" fill="#FFFFFF"/><rect x="1577" y="875" width="161" height="214" stroke="#FFFFFF" stroke-width="2.29167" stroke-linecap="round" stroke-linejoin="round" stroke-miterlimit="10" fill="#FFFFFF"/><rect x="1634" y="771" width="158" height="105" stroke="#FFFFFF" stroke-width="2.29167" stroke-linecap="round" stroke-linejoin="round" stroke-miterlimit="10" fill="#FFFFFF"/><rect x="1525" y="1088" width="161" height="211" stroke="#FFFFFF" stroke-width="2.29167" stroke-linecap="round" stroke-linejoin="round" stroke-miterlimit="10" fill="#FFFFFF"/><rect x="1689" y="666" width="103" height="103" stroke="#FFFFFF" stroke-width="2.29167" stroke-linecap="round" stroke-linejoin="round" stroke-miterlimit="10" fill="#FFFFFF"/><rect x="1742" y="612" width="105" height="53.0003" stroke="#FFFFFF" stroke-width="2.29167" stroke-linecap="round" stroke-linejoin="round" stroke-miterlimit="10" fill="#FFFFFF"/><rect x="1849" y="612" width="104" height="106" stroke="#FFFFFF" stroke-width="2.29167" stroke-linecap="round" stroke-linejoin="round" stroke-miterlimit="10" fill="#FFFFFF"/><rect x="1420" y="981" width="479" height="53.9999" stroke="#FFFFFF" stroke-width="2.29167" stroke-linecap="round" stroke-linejoin="round" stroke-miterlimit="10" fill="#FFFFFF"/><path d="M0 0 0.000360892 1232.01" stroke="#FFFFFF" stroke-width="2.29167" stroke-linecap="round" stroke-linejoin="round" stroke-miterlimit="10" fill="none" fill-rule="evenodd" transform="matrix(1 0 0 -1 1314 1746.01)"/><path d="M0 0 0.000360892 1232.01" stroke="#FFFFFF" stroke-width="2.29167" stroke-linecap="round" stroke-linejoin="round" stroke-miterlimit="10" fill="none" fill-rule="evenodd" transform="matrix(1 0 0 -1 2059 1746.01)"/><path d="M0 0 0.000360892 1232.01" stroke="#FFFFFF" stroke-width="2.29167" stroke-linecap="round" stroke-linejoin="round" stroke-miterlimit="10" fill="none" fill-rule="evenodd" transform="matrix(1 0 0 -1 1953 1746.01)"/><path d="M1959.5 1822.21 2039.58 1822.21C2040.85 1822.21 2041.87 1823.23 2041.87 1824.5 2041.87 1825.77 2040.85 1826.79 2039.58 1826.79L1959.5 1826.79C1958.23 1826.79 1957.21 1825.77 1957.21 1824.5 1957.21 1823.23 1958.23 1822.21 1959.5 1822.21ZM2035 1810.75 2062.5 1824.5 2035 1838.25Z" fill="#0066FF"/><path d="M1314.5 1821.21 1934.27 1821.21C1935.53 1821.21 1936.56 1822.23 1936.56 1823.5 1936.56 1824.77 1935.53 1825.79 1934.27 1825.79L1314.5 1825.79C1313.23 1825.79 1312.21 1824.77 1312.21 1823.5 1312.21 1822.23 1313.23 1821.21 1314.5 1821.21ZM1929.68 1809.75 1957.18 1823.5 1929.68 1837.25Z" fill="#C00000"/><rect x="2632" y="1300" width="54" height="107" fill="#7F7F7F"/><rect x="2632" y="875" width="161" height="214" fill="#7F7F7F"/><rect x="2688" y="771" width="159" height="105" fill="#7F7F7F"/><rect x="2632" y="1088" width="108" height="213" fill="#7F7F7F"/><rect x="2743" y="666" width="104" height="107" fill="#7F7F7F"/><rect x="2796" y="612" width="105" height="53.0003" fill="#7F7F7F"/><rect x="2903" y="612" width="104" height="106" fill="#7F7F7F"/><rect x="2658" y="981" width="295" height="53.9999" fill="#7F7F7F"/><path d="M2641 717 3636.73 717" stroke="#104862" stroke-width="2.29167" stroke-linecap="round" stroke-linejoin="round" stroke-miterlimit="10" stroke-dasharray="16.0417 9.16667" fill="none" fill-rule="evenodd"/><path d="M2641 770 3636.73 770" stroke="#104862" stroke-width="2.29167" stroke-linecap="round" stroke-linejoin="round" stroke-miterlimit="10" stroke-dasharray="16.0417 9.16667" fill="none" fill-rule="evenodd"/><path d="M2641 823 3636.73 823" stroke="#104862" stroke-width="2.29167" stroke-linecap="round" stroke-linejoin="round" stroke-miterlimit="10" stroke-dasharray="16.0417 9.16667" fill="none" fill-rule="evenodd"/><path d="M2641 876 3636.73 876" stroke="#104862" stroke-width="2.29167" stroke-linecap="round" stroke-linejoin="round" stroke-miterlimit="10" stroke-dasharray="16.0417 9.16667" fill="none" fill-rule="evenodd"/><path d="M2641 929 3636.73 929.001" stroke="#104862" stroke-width="2.29167" stroke-linecap="round" stroke-linejoin="round" stroke-miterlimit="10" stroke-dasharray="16.0417 9.16667" fill="none" fill-rule="evenodd"/><path d="M2641 982 3636.73 982" stroke="#104862" stroke-width="2.29167" stroke-linecap="round" stroke-linejoin="round" stroke-miterlimit="10" stroke-dasharray="16.0417 9.16667" fill="none" fill-rule="evenodd"/><path d="M2641 1035 3636.73 1035" stroke="#104862" stroke-width="2.29167" stroke-linecap="round" stroke-linejoin="round" stroke-miterlimit="10" stroke-dasharray="16.0417 9.16667" fill="none" fill-rule="evenodd"/><path d="M2641 1088 3636.73 1088" stroke="#104862" stroke-width="2.29167" stroke-linecap="round" stroke-linejoin="round" stroke-miterlimit="10" stroke-dasharray="16.0417 9.16667" fill="none" fill-rule="evenodd"/><path d="M2641 1141 3636.73 1141" stroke="#104862" stroke-width="2.29167" stroke-linecap="round" stroke-linejoin="round" stroke-miterlimit="10" stroke-dasharray="16.0417 9.16667" fill="none" fill-rule="evenodd"/><path d="M2641 1194 3636.73 1194" stroke="#104862" stroke-width="2.29167" stroke-linecap="round" stroke-linejoin="round" stroke-miterlimit="10" stroke-dasharray="16.0417 9.16667" fill="none" fill-rule="evenodd"/><path d="M2641 1248 3636.73 1248" stroke="#104862" stroke-width="2.29167" stroke-linecap="round" stroke-linejoin="round" stroke-miterlimit="10" stroke-dasharray="16.0417 9.16667" fill="none" fill-rule="evenodd"/><path d="M2641 1301 3636.73 1301" stroke="#104862" stroke-width="2.29167" stroke-linecap="round" stroke-linejoin="round" stroke-miterlimit="10" stroke-dasharray="16.0417 9.16667" fill="none" fill-rule="evenodd"/><path d="M2641 1354 3636.73 1354" stroke="#104862" stroke-width="2.29167" stroke-linecap="round" stroke-linejoin="round" stroke-miterlimit="10" stroke-dasharray="16.0417 9.16667" fill="none" fill-rule="evenodd"/><path d="M2641 1407 3636.73 1407" stroke="#104862" stroke-width="2.29167" stroke-linecap="round" stroke-linejoin="round" stroke-miterlimit="10" stroke-dasharray="16.0417 9.16667" fill="none" fill-rule="evenodd"/><path d="M2641 1460 3636.73 1460" stroke="#104862" stroke-width="2.29167" stroke-linecap="round" stroke-linejoin="round" stroke-miterlimit="10" stroke-dasharray="16.0417 9.16667" fill="none" fill-rule="evenodd"/><path d="M2641 1513 3636.73 1513" stroke="#104862" stroke-width="2.29167" stroke-linecap="round" stroke-linejoin="round" stroke-miterlimit="10" stroke-dasharray="16.0417 9.16667" fill="none" fill-rule="evenodd"/><path d="M2641 1566 3636.73 1566" stroke="#104862" stroke-width="2.29167" stroke-linecap="round" stroke-linejoin="round" stroke-miterlimit="10" stroke-dasharray="16.0417 9.16667" fill="none" fill-rule="evenodd"/><path d="M2641 613 3636.73 613" stroke="#104862" stroke-width="2.29167" stroke-linecap="round" stroke-linejoin="round" stroke-miterlimit="10" stroke-dasharray="16.0417 9.16667" fill="none" fill-rule="evenodd"/><path d="M2641 666 3636.73 666" stroke="#104862" stroke-width="2.29167" stroke-linecap="round" stroke-linejoin="round" stroke-miterlimit="10" stroke-dasharray="16.0417 9.16667" fill="none" fill-rule="evenodd"/><path d="M2641 563 3636.73 563" stroke="#104862" stroke-width="2.29167" stroke-linecap="round" stroke-linejoin="round" stroke-miterlimit="10" stroke-dasharray="16.0417 9.16667" fill="none" fill-rule="evenodd"/><path d="M2641 1620 3636.73 1620" stroke="#104862" stroke-width="2.29167" stroke-linecap="round" stroke-linejoin="round" stroke-miterlimit="10" stroke-dasharray="16.0417 9.16667" fill="none" fill-rule="evenodd"/><path d="M2641 1673 3636.73 1673" stroke="#104862" stroke-width="2.29167" stroke-linecap="round" stroke-linejoin="round" stroke-miterlimit="10" stroke-dasharray="16.0417 9.16667" fill="none" fill-rule="evenodd"/><path d="M0 0 0.000360892 219.292" stroke="#000000" stroke-width="2.29167" stroke-linecap="round" stroke-linejoin="round" stroke-miterlimit="10" fill="none" fill-rule="evenodd" transform="matrix(1 0 0 -1 2954 1973.29)"/><path d="M0 0 0.000360892 94.3946" stroke="#000000" stroke-width="2.29167" stroke-linecap="round" stroke-linejoin="round" stroke-miterlimit="10" fill="none" fill-rule="evenodd" transform="matrix(1 0 0 -1 2846 1848.39)"/><path d="M0 0 0.000360892 218.431" stroke="#000000" stroke-width="2.29167" stroke-linecap="round" stroke-linejoin="round" stroke-miterlimit="10" fill="none" fill-rule="evenodd" transform="matrix(1 0 0 -1 3429 1972.43)"/><path d="M0 0 0.000360892 94.3946" stroke="#000000" stroke-width="2.29167" stroke-linecap="round" stroke-linejoin="round" stroke-miterlimit="10" fill="none" fill-rule="evenodd" transform="matrix(1 0 0 -1 3484 1848.39)"/><path d="M1.78521-1.43693 65.4719 77.6857C66.2655 78.6716 66.1095 80.1142 65.1236 80.9078 64.1377 81.7014 62.6951 81.5455 61.9015 80.5595L-1.78521 1.43693C-2.5788 0.45099-2.42287-0.991611-1.43693-1.78521-0.45099-2.5788 0.991611-2.42287 1.78521-1.43693ZM71.524 66.9306 78.056 96.9747 50.1016 84.1738Z" transform="matrix(1 0 0 -1 2867.5 2080.47)"/><text font-family="Arial,Arial_MSFontService,sans-serif" font-weight="400" font-size="55" transform="matrix(1 0 0 1 2731.84 2128)">Current</text><text font-family="Arial,Arial_MSFontService,sans-serif" font-weight="400" font-size="55" transform="matrix(1 0 0 1 2724.12 2194)">X Origin</text><path d="M3506 2075.96 3443.34 2007.91C3442.48 2006.98 3442.54 2005.53 3443.47 2004.67 3444.4 2003.82 3445.85 2003.87 3446.71 2004.81L3509.38 2072.86C3510.23 2073.79 3510.17 2075.24 3509.24 2076.1 3508.31 2076.96 3506.86 2076.9 3506 2075.96ZM3438.01 2019.04 3429.5 1989.5 3458.24 2000.42Z"/><text font-family="Arial,Arial_MSFontService,sans-serif" font-weight="400" font-size="55" transform="matrix(1 0 0 1 3494.4 2128)">Next</text><text font-family="Arial,Arial_MSFontService,sans-serif" font-weight="400" font-size="55" transform="matrix(1 0 0 1 3451.73 2194)">X Origin</text><path d="M3272 520 3272 1713.14" stroke="#104862" stroke-width="2.29167" stroke-linecap="round" stroke-linejoin="round" stroke-miterlimit="10" stroke-dasharray="16.0417 9.16667" fill="none" fill-rule="evenodd"/><path d="M3325 520 3325 1713.14" stroke="#104862" stroke-width="2.29167" stroke-linecap="round" stroke-linejoin="round" stroke-miterlimit="10" stroke-dasharray="16.0417 9.16667" fill="none" fill-rule="evenodd"/><path d="M3378 520 3378 1713.14" stroke="#104862" stroke-width="2.29167" stroke-linecap="round" stroke-linejoin="round" stroke-miterlimit="10" stroke-dasharray="16.0417 9.16667" fill="none" fill-rule="evenodd"/><path d="M3432 520 3432 1713.14" stroke="#104862" stroke-width="2.29167" stroke-linecap="round" stroke-linejoin="round" stroke-miterlimit="10" stroke-dasharray="16.0417 9.16667" fill="none" fill-rule="evenodd"/><path d="M3485 520 3485 1713.14" stroke="#104862" stroke-width="2.29167" stroke-linecap="round" stroke-linejoin="round" stroke-miterlimit="10" stroke-dasharray="16.0417 9.16667" fill="none" fill-rule="evenodd"/><path d="M3538 520 3538 1713.14" stroke="#104862" stroke-width="2.29167" stroke-linecap="round" stroke-linejoin="round" stroke-miterlimit="10" stroke-dasharray="16.0417 9.16667" fill="none" fill-rule="evenodd"/><path d="M3591 520 3591 1713.14" stroke="#104862" stroke-width="2.29167" stroke-linecap="round" stroke-linejoin="round" stroke-miterlimit="10" stroke-dasharray="16.0417 9.16667" fill="none" fill-rule="evenodd"/><path d="M2793 520 2793 1713.14" stroke="#104862" stroke-width="2.29167" stroke-linecap="round" stroke-linejoin="round" stroke-miterlimit="10" stroke-dasharray="16.0417 9.16667" fill="none" fill-rule="evenodd"/><path d="M2846 520 2846 1713.14" stroke="#104862" stroke-width="2.29167" stroke-linecap="round" stroke-linejoin="round" stroke-miterlimit="10" stroke-dasharray="16.0417 9.16667" fill="none" fill-rule="evenodd"/><path d="M2899 520 2899 1713.14" stroke="#104862" stroke-width="2.29167" stroke-linecap="round" stroke-linejoin="round" stroke-miterlimit="10" stroke-dasharray="16.0417 9.16667" fill="none" fill-rule="evenodd"/><path d="M2953 520 2953 1713.14" stroke="#104862" stroke-width="2.29167" stroke-linecap="round" stroke-linejoin="round" stroke-miterlimit="10" stroke-dasharray="16.0417 9.16667" fill="none" fill-rule="evenodd"/><path d="M3006 520 3006 1713.14" stroke="#104862" stroke-width="2.29167" stroke-linecap="round" stroke-linejoin="round" stroke-miterlimit="10" stroke-dasharray="16.0417 9.16667" fill="none" fill-rule="evenodd"/><path d="M3059 520 3059 1713.14" stroke="#104862" stroke-width="2.29167" stroke-linecap="round" stroke-linejoin="round" stroke-miterlimit="10" stroke-dasharray="16.0417 9.16667" fill="none" fill-rule="evenodd"/><path d="M2686 520 2686 1713.14" stroke="#104862" stroke-width="2.29167" stroke-linecap="round" stroke-linejoin="round" stroke-miterlimit="10" stroke-dasharray="16.0417 9.16667" fill="none" fill-rule="evenodd"/><path d="M2739 520 2739 1713.14" stroke="#104862" stroke-width="2.29167" stroke-linecap="round" stroke-linejoin="round" stroke-miterlimit="10" stroke-dasharray="16.0417 9.16667" fill="none" fill-rule="evenodd"/><path d="M3113 520 3113 1713.14" stroke="#104862" stroke-width="2.29167" stroke-linecap="round" stroke-linejoin="round" stroke-miterlimit="10" stroke-dasharray="16.0417 9.16667" fill="none" fill-rule="evenodd"/><path d="M3166 520 3166 1713.14" stroke="#104862" stroke-width="2.29167" stroke-linecap="round" stroke-linejoin="round" stroke-miterlimit="10" stroke-dasharray="16.0417 9.16667" fill="none" fill-rule="evenodd"/><path d="M3219 520 3219 1713.14" stroke="#104862" stroke-width="2.29167" stroke-linecap="round" stroke-linejoin="round" stroke-miterlimit="10" stroke-dasharray="16.0417 9.16667" fill="none" fill-rule="evenodd"/><rect x="2850" y="1567" width="634" height="51.9999" stroke="#FF0000" stroke-width="2.29167" stroke-linecap="round" stroke-linejoin="round" stroke-miterlimit="10" fill="#FF0000"/><rect x="2846" y="1458" width="107" height="107" stroke="#FFFFFF" stroke-width="2.29167" stroke-linecap="round" stroke-linejoin="round" stroke-miterlimit="10" fill="#FFFFFF"/><rect x="2953" y="1512" width="106" height="52.9999" stroke="#FFFFFF" stroke-width="2.29167" stroke-linecap="round" stroke-linejoin="round" stroke-miterlimit="10" fill="#FFFFFF"/><rect x="3006" y="1406" width="105" height="106" stroke="#FFFFFF" stroke-width="2.29167" stroke-linecap="round" stroke-linejoin="round" stroke-miterlimit="10" fill="#FFFFFF"/><rect x="3005" y="1300" width="159" height="107" stroke="#FFFFFF" stroke-width="2.29167" stroke-linecap="round" stroke-linejoin="round" stroke-miterlimit="10" fill="#FFFFFF"/><rect x="3109" y="875" width="161" height="214" stroke="#FFFFFF" stroke-width="2.29167" stroke-linecap="round" stroke-linejoin="round" stroke-miterlimit="10" fill="#FFFFFF"/><rect x="3166" y="771" width="158" height="105" stroke="#FFFFFF" stroke-width="2.29167" stroke-linecap="round" stroke-linejoin="round" stroke-miterlimit="10" fill="#FFFFFF"/><rect x="3057" y="1088" width="161" height="211" stroke="#FFFFFF" stroke-width="2.29167" stroke-linecap="round" stroke-linejoin="round" stroke-miterlimit="10" fill="#FFFFFF"/><rect x="3221" y="666" width="103" height="103" stroke="#FFFFFF" stroke-width="2.29167" stroke-linecap="round" stroke-linejoin="round" stroke-miterlimit="10" fill="#FFFFFF"/><rect x="3273" y="612" width="106" height="53.0003" stroke="#FFFFFF" stroke-width="2.29167" stroke-linecap="round" stroke-linejoin="round" stroke-miterlimit="10" fill="#FFFFFF"/><rect x="3381" y="612" width="104" height="106" stroke="#FFFFFF" stroke-width="2.29167" stroke-linecap="round" stroke-linejoin="round" stroke-miterlimit="10" fill="#FFFFFF"/><rect x="2952" y="981" width="479" height="53.9999" stroke="#FFFFFF" stroke-width="2.29167" stroke-linecap="round" stroke-linejoin="round" stroke-miterlimit="10" fill="#FFFFFF"/><path d="M1.52333e-05-2.29167 31.3753-2.29146C32.6409-2.29145 33.6669-1.26543 33.6669 0.000223793 33.6669 1.26588 32.6409 2.29188 31.3752 2.29188L-1.52333e-05 2.29167C-1.26567 2.29166-2.29168 1.26564-2.29167-1.52333e-05-2.29166-1.26567-1.26564-2.29168 1.52333e-05-2.29167ZM26.792-13.7498 54.2919 0.000360892 26.7918 13.7502Z" fill="#0066FF" transform="matrix(-1 0 0 1 3484.79 1821.5)"/><text fill="#0066FF" font-family="Arial,Arial_MSFontService,sans-serif" font-weight="400" font-size="55" transform="matrix(1 0 0 1 3514.27 1828)">Right Side</text><text fill="#0066FF" font-family="Arial,Arial_MSFontService,sans-serif" font-weight="400" font-size="55" transform="matrix(1 0 0 1 3514.27 1894)">Anti</text><text fill="#0066FF" font-family="Arial,Arial_MSFontService,sans-serif" font-weight="400" font-size="55" transform="matrix(1 0 0 1 3608.8 1894)">-</text><text fill="#0066FF" font-family="Arial,Arial_MSFontService,sans-serif" font-weight="400" font-size="55" transform="matrix(1 0 0 1 3627.13 1894)">Spacer</text><text fill="#0066FF" font-family="Arial,Arial_MSFontService,sans-serif" font-weight="400" font-size="55" transform="matrix(1 0 0 1 3514.27 1960)">(RSAS)</text><rect x="2850" y="1619" width="103" height="51.9999" stroke="#0066FF" stroke-width="2.29167" stroke-linecap="round" stroke-linejoin="round" stroke-miterlimit="10" fill="#0066FF"/><rect x="3431" y="1619" width="53" height="51.9999" stroke="#0066FF" stroke-width="2.29167" stroke-linecap="round" stroke-linejoin="round" stroke-miterlimit="10" fill="#0066FF"/><path d="M2849.5 1819.21 2932.62 1819.21C2933.88 1819.21 2934.91 1820.23 2934.91 1821.5 2934.91 1822.77 2933.88 1823.79 2932.62 1823.79L2849.5 1823.79C2848.23 1823.79 2847.21 1822.77 2847.21 1821.5 2847.21 1820.23 2848.23 1819.21 2849.5 1819.21ZM2928.04 1807.75 2955.53 1821.5 2928.03 1835.25Z" fill="#0066FF"/><text fill="#0066FF" font-family="Arial,Arial_MSFontService,sans-serif" font-weight="400" font-size="55" transform="matrix(1 0 0 1 2607.8 1833)">Left Side</text><text fill="#0066FF" font-family="Arial,Arial_MSFontService,sans-serif" font-weight="400" font-size="55" transform="matrix(1 0 0 1 2537.91 1899)">Anti</text><text fill="#0066FF" font-family="Arial,Arial_MSFontService,sans-serif" font-weight="400" font-size="55" transform="matrix(1 0 0 1 2632.44 1899)">-</text><text fill="#0066FF" font-family="Arial,Arial_MSFontService,sans-serif" font-weight="400" font-size="55" transform="matrix(1 0 0 1 2650.77 1899)">Spacer</text><text fill="#0066FF" font-family="Arial,Arial_MSFontService,sans-serif" font-weight="400" font-size="55" transform="matrix(1 0 0 1 2647.33 1965)">(LSAS)</text><text font-family="Arial,Arial_MSFontService,sans-serif" font-weight="400" font-size="55" transform="matrix(1 0 0 1 1481.87 1914)">Advance</text><text font-family="Arial,Arial_MSFontService,sans-serif" font-weight="400" font-size="55" transform="matrix(1 0 0 1 1481.87 1980)">= </text><text fill="#C00000" font-family="Arial,Arial_MSFontService,sans-serif" font-weight="400" font-size="55" transform="matrix(1 0 0 1 1529.42 1980)">Glyph Width</text><text font-family="Arial,Arial_MSFontService,sans-serif" font-weight="400" font-size="55" transform="matrix(1 0 0 1 1481.87 2046)">+ </text><text fill="#0066FF" font-family="Arial,Arial_MSFontService,sans-serif" font-weight="400" font-size="55" transform="matrix(1 0 0 1 1529.42 2046)">Default Spacing</text><path d="M22.9168-2.29165 615.885-2.29132C617.151-2.29132 618.177-1.2653 618.177 0.000349241 618.177 1.266 617.151 2.29202 615.885 2.29201L22.9168 2.29168C21.6511 2.29168 20.6251 1.26566 20.6251 1.16522e-05 20.6251-1.26564 21.6511-2.29165 22.9168-2.29165ZM27.5 13.75 0 0 27.5-13.75ZM611.301-13.7497 638.801 0.000360892 611.301 13.7503Z" transform="matrix(-1 0 0 1 1953.3 402.5)"/><path d="M0 0 0.000360892 128.333" stroke="#000000" stroke-width="2.29167" stroke-linecap="round" stroke-linejoin="round" stroke-miterlimit="10" fill="none" fill-rule="evenodd" transform="matrix(1 0 0 -1 1314 490.333)"/><path d="M0 0 0.000360892 128.333" stroke="#000000" stroke-width="2.29167" stroke-linecap="round" stroke-linejoin="round" stroke-miterlimit="10" fill="none" fill-rule="evenodd" transform="matrix(1 0 0 -1 1953 490.333)"/><text font-family="Arial,Arial_MSFontService,sans-serif" font-weight="400" font-size="55" transform="matrix(1 0 0 1 1483.81 382)">G</text><text font-family="Arial,Arial_MSFontService,sans-serif" font-weight="400" font-size="55" transform="matrix(1 0 0 1 1526.78 382)">lyph</text><text font-family="Arial,Arial_MSFontService,sans-serif" font-weight="400" font-size="55" transform="matrix(1 0 0 1 1642.51 382)">Width</text><path d="M22.9168-2.29165 611.302-2.29132C612.568-2.29132 613.594-1.2653 613.594 0.000349156 613.594 1.266 612.568 2.29202 611.302 2.29201L22.9168 2.29168C21.6511 2.29168 20.6251 1.26566 20.6251 1.17364e-05 20.6251-1.26564 21.6511-2.29165 22.9168-2.29165ZM27.5 13.75 0 0 27.5-13.75ZM606.719-13.7497 634.219 0.000360892 606.719 13.7503Z" transform="matrix(-1 0 0 1 3484.72 402.5)"/><path d="M0 0 0.000360892 128.333" stroke="#000000" stroke-width="2.29167" stroke-linecap="round" stroke-linejoin="round" stroke-miterlimit="10" fill="none" fill-rule="evenodd" transform="matrix(1 0 0 -1 2850 490.333)"/><path d="M0 0 0.000360892 128.333" stroke="#000000" stroke-width="2.29167" stroke-linecap="round" stroke-linejoin="round" stroke-miterlimit="10" fill="none" fill-rule="evenodd" transform="matrix(1 0 0 -1 3484 490.333)"/><text font-family="Arial,Arial_MSFontService,sans-serif" font-weight="400" font-size="55" transform="matrix(1 0 0 1 3017.27 382)">G</text><text font-family="Arial,Arial_MSFontService,sans-serif" font-weight="400" font-size="55" transform="matrix(1 0 0 1 3060.23 382)">lyph</text><text font-family="Arial,Arial_MSFontService,sans-serif" font-weight="400" font-size="55" transform="matrix(1 0 0 1 3175.96 382)">Width</text><path d="M0 0 0.000360892 1232.01" stroke="#FFFFFF" stroke-width="2.29167" stroke-linecap="round" stroke-linejoin="round" stroke-miterlimit="10" fill="none" fill-rule="evenodd" transform="matrix(1 0 0 -1 2953 1746.01)"/><path d="M0 0 0.000360892 1232.01" stroke="#FFFFFF" stroke-width="2.29167" stroke-linecap="round" stroke-linejoin="round" stroke-miterlimit="10" fill="none" fill-rule="evenodd" transform="matrix(1 0 0 -1 3008 1746.01)"/><path d="M0 0 0.000360892 1232.01" stroke="#FFFFFF" stroke-width="2.29167" stroke-linecap="round" stroke-linejoin="round" stroke-miterlimit="10" fill="none" fill-rule="evenodd" transform="matrix(1 0 0 -1 2847 1746.01)"/><path d="M0 0 0.000360892 1232.01" stroke="#FFFFFF" stroke-width="2.29167" stroke-linecap="round" stroke-linejoin="round" stroke-miterlimit="10" fill="none" fill-rule="evenodd" transform="matrix(1 0 0 -1 3431 1746.01)"/><path d="M0 0 0.000360892 1232.01" stroke="#FFFFFF" stroke-width="2.29167" stroke-linecap="round" stroke-linejoin="round" stroke-miterlimit="10" fill="none" fill-rule="evenodd" transform="matrix(1 0 0 -1 3484 1746.01)"/><path d="M630.5 1140.99C630.5 1120.29 647.285 1103.5 667.991 1103.5L1208.01 1103.5C1228.71 1103.5 1245.5 1120.29 1245.5 1140.99L1245.5 1665.01C1245.5 1685.71 1228.71 1702.5 1208.01 1702.5L667.991 1702.5C647.285 1702.5 630.5 1685.71 630.5 1665.01Z" stroke="#FFFFFF" stroke-width="4.58333" stroke-linecap="round" stroke-linejoin="round" stroke-miterlimit="10" fill="#262626" fill-rule="evenodd"/><text fill="#00B050" font-family="Arial,Arial_MSFontService,sans-serif" font-weight="400" font-size="55" transform="matrix(1 0 0 1 677.489 1218)">// JSON5:</text><text fill="#FFFFFF" font-family="Arial,Arial_MSFontService,sans-serif" font-weight="400" font-size="55" transform="matrix(1 0 0 1 677.489 1284)">{</text><text fill="#FFFFFF" font-family="Arial,Arial_MSFontService,sans-serif" font-weight="400" font-size="55" transform="matrix(1 0 0 1 739.364 1350)">“codes“: [ </text><text fill="#00B050" font-family="Arial,Arial_MSFontService,sans-serif" font-weight="400" font-size="55" transform="matrix(1 0 0 1 984 1350)">/* … */</text><text fill="#FFFFFF" font-family="Arial,Arial_MSFontService,sans-serif" font-weight="400" font-size="55" transform="matrix(1 0 0 1 1158.74 1350)">]</text><text fill="#FFFFFF" font-family="Arial,Arial_MSFontService,sans-serif" font-weight="400" font-size="55" transform="matrix(1 0 0 1 739.364 1416)">"</text><text fill="#FFFFFF" font-family="Arial,Arial_MSFontService,sans-serif" font-weight="400" font-size="55" transform="matrix(1 0 0 1 758.843 1416)">x_spacing</text><text fill="#FFFFFF" font-family="Arial,Arial_MSFontService,sans-serif" font-weight="400" font-size="55" transform="matrix(1 0 0 1 1005.2 1416)">": {</text><text fill="#00B0F0" font-family="Arial,Arial_MSFontService,sans-serif" font-weight="700" font-size="55" transform="matrix(1 0 0 1 801.239 1482)">"default": </text><text fill="#00B0F0" font-family="Arial,Arial_MSFontService,sans-serif" font-weight="700" font-size="55" transform="matrix(1 0 0 1 1068.22 1482)">2,</text><text fill="#FFFFFF" font-family="Arial,Arial_MSFontService,sans-serif" font-weight="400" font-size="55" transform="matrix(1 0 0 1 739.364 1548)">},</text><text fill="#FFFFFF" font-family="Arial,Arial_MSFontService,sans-serif" font-weight="400" font-size="55" transform="matrix(1 0 0 1 677.489 1614)">}</text><path d="M2953.5 1819.21 3404.18 1819.21C3405.44 1819.21 3406.47 1820.23 3406.47 1821.5 3406.47 1822.77 3405.44 1823.79 3404.18 1823.79L2953.5 1823.79C2952.23 1823.79 2951.21 1822.77 2951.21 1821.5 2951.21 1820.23 2952.23 1819.21 2953.5 1819.21ZM3399.59 1807.75 3427.09 1821.5 3399.59 1835.25Z"/><text font-family="Arial,Arial_MSFontService,sans-serif" font-weight="400" font-size="55" transform="matrix(1 0 0 1 2973.08 1883)">Advance</text><text font-family="Arial,Arial_MSFontService,sans-serif" font-weight="400" font-size="55" transform="matrix(1 0 0 1 2973.08 1949)">= </text><text fill="#C00000" font-family="Arial,Arial_MSFontService,sans-serif" font-weight="400" font-size="55" transform="matrix(1 0 0 1 3020.63 1949)">Glyph Width</text><text font-family="Arial,Arial_MSFontService,sans-serif" font-weight="400" font-size="55" transform="matrix(1 0 0 1 2973.08 2015)">+ </text><text fill="#0066FF" font-family="Arial,Arial_MSFontService,sans-serif" font-weight="400" font-size="55" transform="matrix(1 0 0 1 3020.63 2015)">Default Spacing</text><text font-family="Arial,Arial_MSFontService,sans-serif" font-weight="400" font-size="55" transform="matrix(1 0 0 1 2973.08 2081)">‒ </text><text fill="#0066FF" font-family="Arial,Arial_MSFontService,sans-serif" font-weight="400" font-size="55" transform="matrix(1 0 0 1 3018.92 2081)">LSAS </text><text font-family="Arial,Arial_MSFontService,sans-serif" font-weight="400" font-size="55" transform="matrix(1 0 0 1 3174.75 2081)">‒ </text><text fill="#0066FF" font-family="Arial,Arial_MSFontService,sans-serif" font-weight="400" font-size="55" transform="matrix(1 0 0 1 3220.58 2081)">RSAS</text><path d="M2174.5 1140.99C2174.5 1120.29 2191.29 1103.5 2211.99 1103.5L2752.01 1103.5C2772.71 1103.5 2789.5 1120.29 2789.5 1140.99L2789.5 1665.01C2789.5 1685.71 2772.71 1702.5 2752.01 1702.5L2211.99 1702.5C2191.29 1702.5 2174.5 1685.71 2174.5 1665.01Z" stroke="#FFFFFF" stroke-width="4.58333" stroke-linecap="round" stroke-linejoin="round" stroke-miterlimit="10" fill="#262626" fill-rule="evenodd"/><text fill="#00B050" font-family="Arial,Arial_MSFontService,sans-serif" font-weight="400" font-size="55" transform="matrix(1 0 0 1 2221.93 1218)">// JSON5:</text><text fill="#FFFFFF" font-family="Arial,Arial_MSFontService,sans-serif" font-weight="400" font-size="55" transform="matrix(1 0 0 1 2221.93 1284)">{</text><text fill="#FFFFFF" font-family="Arial,Arial_MSFontService,sans-serif" font-weight="400" font-size="55" transform="matrix(1 0 0 1 2283.81 1350)">“codes“: [ </text><text fill="#00B050" font-family="Arial,Arial_MSFontService,sans-serif" font-weight="400" font-size="55" transform="matrix(1 0 0 1 2528.44 1350)">/* … */</text><text fill="#FFFFFF" font-family="Arial,Arial_MSFontService,sans-serif" font-weight="400" font-size="55" transform="matrix(1 0 0 1 2703.18 1350)">]</text><text fill="#FFFFFF" font-family="Arial,Arial_MSFontService,sans-serif" font-weight="400" font-size="55" transform="matrix(1 0 0 1 2283.81 1416)">"</text><text fill="#FFFFFF" font-family="Arial,Arial_MSFontService,sans-serif" font-weight="400" font-size="55" transform="matrix(1 0 0 1 2303.29 1416)">x_spacing</text><text fill="#FFFFFF" font-family="Arial,Arial_MSFontService,sans-serif" font-weight="400" font-size="55" transform="matrix(1 0 0 1 2549.64 1416)">": {</text><text fill="#00B0F0" font-family="Arial,Arial_MSFontService,sans-serif" font-weight="700" font-size="55" transform="matrix(1 0 0 1 2345.68 1482)">"default": </text><text fill="#00B0F0" font-family="Arial,Arial_MSFontService,sans-serif" font-weight="700" font-size="55" transform="matrix(1 0 0 1 2612.66 1482)">0,</text><text fill="#FFFFFF" font-family="Arial,Arial_MSFontService,sans-serif" font-weight="400" font-size="55" transform="matrix(1 0 0 1 2283.81 1548)">},</text><text fill="#FFFFFF" font-family="Arial,Arial_MSFontService,sans-serif" font-weight="400" font-size="55" transform="matrix(1 0 0 1 2221.93 1614)">}</text></g></svg>